<?xml version="1.0" encoding="UTF-8"?>
<!DOCTYPE svg PUBLIC "-//W3C//DTD SVG 1.1//EN"
    "http://www.w3.org/Graphics/SVG/1.1/DTD/svg11.dtd"><svg xmlns="http://www.w3.org/2000/svg" height="400.0019" stroke-opacity="1" viewBox="0.0 0.0 400.0 400.0018584298058" font-size="1" width="400.0000" xmlns:xlink="http://www.w3.org/1999/xlink" stroke="rgb(0,0,0)" version="1.1"><defs></defs><g stroke-linejoin="miter" stroke-opacity="1.0" fill-opacity="0.0" stroke="rgb(255,0,0)" stroke-width="0.8000018584276473" fill="rgb(0,0,0)" stroke-linecap="butt" stroke-miterlimit="10.0"><path d="M 237.6547,107.3612 l -124.8344,43.6530 "/></g><g stroke-linejoin="miter" stroke-opacity="1.0" fill-opacity="0.0" stroke="rgb(255,0,0)" stroke-width="0.8000018584276473" fill="rgb(0,0,0)" stroke-linecap="butt" stroke-miterlimit="10.0"><path d="M 237.6547,107.3612 l -64.4099,188.9940 "/></g><g stroke-linejoin="miter" stroke-opacity="1.0" fill-opacity="0.0" stroke="rgb(255,0,0)" stroke-width="0.8000018584276473" fill="rgb(0,0,0)" stroke-linecap="butt" stroke-miterlimit="10.0"><path d="M 237.6547,107.3612 l -77.6451,184.2954 "/></g><g stroke-linejoin="miter" stroke-opacity="1.0" fill-opacity="0.0" stroke="rgb(255,0,0)" stroke-width="0.8000018584276473" fill="rgb(0,0,0)" stroke-linecap="butt" stroke-miterlimit="10.0"><path d="M 237.6547,107.3612 l -70.9137,186.9468 "/></g><g stroke-linejoin="miter" stroke-opacity="1.0" fill-opacity="0.0" stroke="rgb(255,0,0)" stroke-width="0.8000018584276473" fill="rgb(0,0,0)" stroke-linecap="butt" stroke-miterlimit="10.0"><path d="M 237.6547,107.3612 l -89.5343,178.1295 "/></g><g stroke-linejoin="miter" stroke-opacity="1.0" fill-opacity="0.0" stroke="rgb(255,0,0)" stroke-width="0.8000018584276473" fill="rgb(0,0,0)" stroke-linecap="butt" stroke-miterlimit="10.0"><path d="M 237.6547,107.3612 l -86.8513,179.7012 "/></g><g stroke-linejoin="miter" stroke-opacity="1.0" fill-opacity="0.0" stroke="rgb(255,0,0)" stroke-width="0.8000018584276473" fill="rgb(0,0,0)" stroke-linecap="butt" stroke-miterlimit="10.0"><path d="M 112.8203,151.0143 l 47.1894,140.6424 "/></g><g stroke-linejoin="miter" stroke-opacity="1.0" fill-opacity="0.0" stroke="rgb(255,0,0)" stroke-width="0.8000018584276473" fill="rgb(0,0,0)" stroke-linecap="butt" stroke-miterlimit="10.0"><path d="M 112.8203,151.0143 l 53.9207,143.2938 "/></g><g stroke-linejoin="miter" stroke-opacity="1.0" fill-opacity="0.0" stroke="rgb(255,0,0)" stroke-width="0.8000018584276473" fill="rgb(0,0,0)" stroke-linecap="butt" stroke-miterlimit="10.0"><path d="M 112.8203,151.0143 l 35.3001,134.4765 "/></g><g stroke-linejoin="miter" stroke-opacity="1.0" fill-opacity="0.0" stroke="rgb(0,0,255)" stroke-width="0.8000018584276473" fill="rgb(0,0,0)" stroke-linecap="butt" stroke-miterlimit="10.0"><path d="M 112.8203,151.0143 l 102.8543,147.7505 "/></g><g stroke-linejoin="miter" stroke-opacity="1.0" fill-opacity="0.0" stroke="rgb(255,0,0)" stroke-width="0.8000018584276473" fill="rgb(0,0,0)" stroke-linecap="butt" stroke-miterlimit="10.0"><path d="M 112.8203,151.0143 l 37.9832,136.0481 "/></g><g stroke-linejoin="miter" stroke-opacity="1.0" fill-opacity="0.0" stroke="rgb(0,0,255)" stroke-width="0.8000018584276473" fill="rgb(0,0,0)" stroke-linecap="butt" stroke-miterlimit="10.0"><path d="M 266.7432,274.4680 l -29.0885,-167.1067 "/></g><g stroke-linejoin="miter" stroke-opacity="1.0" fill-opacity="0.0" stroke="rgb(255,0,0)" stroke-width="0.8000018584276473" fill="rgb(0,0,0)" stroke-linecap="butt" stroke-miterlimit="10.0"><path d="M 266.7432,274.4680 l 33.1447,-69.7341 "/></g><g stroke-linejoin="miter" stroke-opacity="1.0" fill-opacity="0.0" stroke="rgb(0,0,255)" stroke-width="0.8000018584276473" fill="rgb(0,0,0)" stroke-linecap="butt" stroke-miterlimit="10.0"><path d="M 105.4756,232.6374 l 77.6481,65.9292 "/></g><g stroke-linejoin="miter" stroke-opacity="1.0" fill-opacity="0.0" stroke="rgb(0,0,255)" stroke-width="0.8000018584276473" fill="rgb(0,0,0)" stroke-linecap="butt" stroke-miterlimit="10.0"><path d="M 105.4756,232.6374 l 161.2676,41.8306 "/></g><g stroke-linejoin="miter" stroke-opacity="1.0" fill-opacity="0.0" stroke="rgb(0,0,255)" stroke-width="0.8000018584276473" fill="rgb(0,0,0)" stroke-linecap="butt" stroke-miterlimit="10.0"><path d="M 105.4756,232.6374 l 67.7692,63.7179 "/></g><g stroke-linejoin="miter" stroke-opacity="1.0" fill-opacity="0.0" stroke="rgb(255,0,0)" stroke-width="0.8000018584276473" fill="rgb(0,0,0)" stroke-linecap="butt" stroke-miterlimit="10.0"><path d="M 105.4756,232.6374 l 54.5340,59.0192 "/></g><g stroke-linejoin="miter" stroke-opacity="1.0" fill-opacity="0.0" stroke="rgb(0,0,255)" stroke-width="0.8000018584276473" fill="rgb(0,0,0)" stroke-linecap="butt" stroke-miterlimit="10.0"><path d="M 173.2449,296.3553 l 9.8789,2.2113 "/></g><g stroke-linejoin="miter" stroke-opacity="1.0" fill-opacity="0.0" stroke="rgb(255,0,0)" stroke-width="0.8000018584276473" fill="rgb(0,0,0)" stroke-linecap="butt" stroke-miterlimit="10.0"><path d="M 173.2449,296.3553 l 64.4099,-188.9940 "/></g><g stroke-linejoin="miter" stroke-opacity="1.0" fill-opacity="0.0" stroke="rgb(0,0,255)" stroke-width="0.8000018584276473" fill="rgb(0,0,0)" stroke-linecap="butt" stroke-miterlimit="10.0"><path d="M 173.2449,296.3553 l 93.4983,-21.8873 "/></g><g stroke-linejoin="miter" stroke-opacity="1.0" fill-opacity="0.0" stroke="rgb(255,0,0)" stroke-width="0.8000018584276473" fill="rgb(0,0,0)" stroke-linecap="butt" stroke-miterlimit="10.0"><path d="M 173.2449,296.3553 l 112.6614,-147.5413 "/></g><g stroke-linejoin="miter" stroke-opacity="1.0" fill-opacity="0.0" stroke="rgb(255,0,0)" stroke-width="0.8000018584276473" fill="rgb(0,0,0)" stroke-linecap="butt" stroke-miterlimit="10.0"><path d="M 160.0097,291.6566 l 77.6451,-184.2954 "/></g><g stroke-linejoin="miter" stroke-opacity="1.0" fill-opacity="0.0" stroke="rgb(0,0,255)" stroke-width="0.8000018584276473" fill="rgb(0,0,0)" stroke-linecap="butt" stroke-miterlimit="10.0"><path d="M 160.0097,291.6566 l 106.7335,-17.1887 "/></g><g stroke-linejoin="miter" stroke-opacity="1.0" fill-opacity="0.0" stroke="rgb(0,0,255)" stroke-width="0.8000018584276473" fill="rgb(0,0,0)" stroke-linecap="butt" stroke-miterlimit="10.0"><path d="M 160.0097,291.6566 l 13.2352,4.6986 "/></g><g stroke-linejoin="miter" stroke-opacity="1.0" fill-opacity="0.0" stroke="rgb(0,0,255)" stroke-width="0.8000018584276473" fill="rgb(0,0,0)" stroke-linecap="butt" stroke-miterlimit="10.0"><path d="M 160.0097,291.6566 l 6.7313,2.6514 "/></g><g stroke-linejoin="miter" stroke-opacity="1.0" fill-opacity="0.0" stroke="rgb(0,0,255)" stroke-width="0.8000018584276473" fill="rgb(0,0,0)" stroke-linecap="butt" stroke-miterlimit="10.0"><path d="M 160.0097,291.6566 l 125.8966,-142.8427 "/></g><g stroke-linejoin="miter" stroke-opacity="1.0" fill-opacity="0.0" stroke="rgb(0,0,255)" stroke-width="0.8000018584276473" fill="rgb(0,0,0)" stroke-linecap="butt" stroke-miterlimit="10.0"><path d="M 160.0097,291.6566 l 139.8782,-86.9228 "/></g><g stroke-linejoin="miter" stroke-opacity="1.0" fill-opacity="0.0" stroke="rgb(0,128,0)" stroke-width="0.8000018584276473" fill="rgb(0,0,0)" stroke-linecap="butt" stroke-miterlimit="10.0"><path d="M 160.0097,291.6566 l 55.6649,7.1082 "/></g><g stroke-linejoin="miter" stroke-opacity="1.0" fill-opacity="0.0" stroke="rgb(0,0,255)" stroke-width="0.8000018584276473" fill="rgb(0,0,0)" stroke-linecap="butt" stroke-miterlimit="10.0"><path d="M 166.7410,294.3081 l 16.3828,4.2585 "/></g><g stroke-linejoin="miter" stroke-opacity="1.0" fill-opacity="0.0" stroke="rgb(255,0,0)" stroke-width="0.8000018584276473" fill="rgb(0,0,0)" stroke-linecap="butt" stroke-miterlimit="10.0"><path d="M 166.7410,294.3081 l 70.9137,-186.9468 "/></g><g stroke-linejoin="miter" stroke-opacity="1.0" fill-opacity="0.0" stroke="rgb(0,0,255)" stroke-width="0.8000018584276473" fill="rgb(0,0,0)" stroke-linecap="butt" stroke-miterlimit="10.0"><path d="M 166.7410,294.3081 l 100.0022,-19.8401 "/></g><g stroke-linejoin="miter" stroke-opacity="1.0" fill-opacity="0.0" stroke="rgb(0,0,255)" stroke-width="0.8000018584276473" fill="rgb(0,0,0)" stroke-linecap="butt" stroke-miterlimit="10.0"><path d="M 166.7410,294.3081 l 6.5039,2.0472 "/></g><g stroke-linejoin="miter" stroke-opacity="1.0" fill-opacity="0.0" stroke="rgb(0,128,0)" stroke-width="0.8000018584276473" fill="rgb(0,0,0)" stroke-linecap="butt" stroke-miterlimit="10.0"><path d="M 166.7410,294.3081 l 48.9336,4.4567 "/></g><g stroke-linejoin="miter" stroke-opacity="1.0" fill-opacity="0.0" stroke="rgb(0,0,255)" stroke-width="0.8000018584276473" fill="rgb(0,0,0)" stroke-linecap="butt" stroke-miterlimit="10.0"><path d="M 285.9062,148.8139 l -173.0859,2.2003 "/></g><g stroke-linejoin="miter" stroke-opacity="1.0" fill-opacity="0.0" stroke="rgb(0,0,255)" stroke-width="0.8000018584276473" fill="rgb(0,0,0)" stroke-linecap="butt" stroke-miterlimit="10.0"><path d="M 299.8879,204.7338 l -62.2332,-97.3726 "/></g><g stroke-linejoin="miter" stroke-opacity="1.0" fill-opacity="0.0" stroke="rgb(255,0,0)" stroke-width="0.8000018584276473" fill="rgb(0,0,0)" stroke-linecap="butt" stroke-miterlimit="10.0"><path d="M 148.1204,285.4907 l 89.5343,-178.1295 "/></g><g stroke-linejoin="miter" stroke-opacity="1.0" fill-opacity="0.0" stroke="rgb(0,0,255)" stroke-width="0.8000018584276473" fill="rgb(0,0,0)" stroke-linecap="butt" stroke-miterlimit="10.0"><path d="M 148.1204,285.4907 l 118.6228,-11.0228 "/></g><g stroke-linejoin="miter" stroke-opacity="1.0" fill-opacity="0.0" stroke="rgb(0,0,255)" stroke-width="0.8000018584276473" fill="rgb(0,0,0)" stroke-linecap="butt" stroke-miterlimit="10.0"><path d="M 148.1204,285.4907 l 11.8892,6.1659 "/></g><g stroke-linejoin="miter" stroke-opacity="1.0" fill-opacity="0.0" stroke="rgb(0,128,0)" stroke-width="0.8000018584276473" fill="rgb(0,0,0)" stroke-linecap="butt" stroke-miterlimit="10.0"><path d="M 148.1204,285.4907 l 137.7858,-136.6768 "/></g><g stroke-linejoin="miter" stroke-opacity="1.0" fill-opacity="0.0" stroke="rgb(0,0,255)" stroke-width="0.8000018584276473" fill="rgb(0,0,0)" stroke-linecap="butt" stroke-miterlimit="10.0"><path d="M 148.1204,285.4907 l 151.7675,-80.7569 "/></g><g stroke-linejoin="miter" stroke-opacity="1.0" fill-opacity="0.0" stroke="rgb(0,0,255)" stroke-width="0.8000018584276473" fill="rgb(0,0,0)" stroke-linecap="butt" stroke-miterlimit="10.0"><path d="M 148.1204,285.4907 l 2.6830,1.5717 "/></g><g stroke-linejoin="miter" stroke-opacity="1.0" fill-opacity="0.0" stroke="rgb(0,128,0)" stroke-width="0.8000018584276473" fill="rgb(0,0,0)" stroke-linecap="butt" stroke-miterlimit="10.0"><path d="M 215.6746,298.7648 l 21.9802,-191.4036 "/></g><g stroke-linejoin="miter" stroke-opacity="1.0" fill-opacity="0.0" stroke="rgb(0,128,0)" stroke-width="0.8000018584276473" fill="rgb(0,0,0)" stroke-linecap="butt" stroke-miterlimit="10.0"><path d="M 215.6746,298.7648 l 51.0686,-24.2968 "/></g><g stroke-linejoin="miter" stroke-opacity="1.0" fill-opacity="0.0" stroke="rgb(0,0,255)" stroke-width="0.8000018584276473" fill="rgb(0,0,0)" stroke-linecap="butt" stroke-miterlimit="10.0"><path d="M 215.6746,298.7648 l 70.2317,-149.9509 "/></g><g stroke-linejoin="miter" stroke-opacity="1.0" fill-opacity="0.0" stroke="rgb(255,0,0)" stroke-width="0.8000018584276473" fill="rgb(0,0,0)" stroke-linecap="butt" stroke-miterlimit="10.0"><path d="M 150.8035,287.0624 l 86.8513,-179.7012 "/></g><g stroke-linejoin="miter" stroke-opacity="1.0" fill-opacity="0.0" stroke="rgb(0,0,255)" stroke-width="0.8000018584276473" fill="rgb(0,0,0)" stroke-linecap="butt" stroke-miterlimit="10.0"><path d="M 150.8035,287.0624 l 115.9397,-12.5944 "/></g><g stroke-linejoin="miter" stroke-opacity="1.0" fill-opacity="0.0" stroke="rgb(0,0,255)" stroke-width="0.8000018584276473" fill="rgb(0,0,0)" stroke-linecap="butt" stroke-miterlimit="10.0"><path d="M 150.8035,287.0624 l 9.2062,4.5943 "/></g><g stroke-linejoin="miter" stroke-opacity="1.0" fill-opacity="0.0" stroke="rgb(0,128,0)" stroke-width="0.8000018584276473" fill="rgb(0,0,0)" stroke-linecap="butt" stroke-miterlimit="10.0"><path d="M 150.8035,287.0624 l 135.1028,-138.2485 "/></g><g stroke-linejoin="miter" stroke-opacity="1.0" fill-opacity="0.0" stroke="rgb(0,0,255)" stroke-width="0.8000018584276473" fill="rgb(0,0,0)" stroke-linecap="butt" stroke-miterlimit="10.0"><path d="M 150.8035,287.0624 l 149.0844,-82.3285 "/></g><g stroke-linejoin="miter" stroke-opacity="1.0" fill-opacity="0.0" stroke="rgb(255,0,0)" stroke-width="0.8000018584276473" fill="rgb(0,0,0)" stroke-linecap="butt" stroke-miterlimit="10.0"><path d="M 183.1238,298.5666 l 116.7641,-93.8328 "/></g><a xlink:href="#angle-X"><g stroke-linejoin="miter" stroke-opacity="1.0" fill-opacity="0.0" stroke="rgb(0,0,0)" stroke-width="0.8000018584276473" fill="rgb(0,0,0)" stroke-linecap="butt" stroke-miterlimit="10.0"><path d="M 200.0000,200.0009 l 4.4260,-199.9510 c -110.4299,-2.4444 -201.9325,85.0951 -204.3769 195.5250c -0.0327,1.4751 -0.0490,2.9505 -0.0490 4.4260Z"/></g></a><g stroke-linejoin="miter" stroke-opacity="1.0" fill-opacity="1.0" font-size="9.99999688459423px" stroke="rgb(0,0,0)" stroke-width="1.6000037168552945" fill="rgb(0,0,0)" stroke-linecap="butt" stroke-miterlimit="10.0"><text dominant-baseline="middle" transform="matrix(1.0000,0.0000,-0.0000,1.0000,192.8505,50.1715)" stroke="none" text-anchor="middle">MC</text></g><a xlink:href="#angle-VII"><g stroke-linejoin="miter" stroke-opacity="1.0" fill-opacity="0.0" stroke="rgb(0,0,0)" stroke-width="0.8000018584276473" fill="rgb(0,0,0)" stroke-linecap="butt" stroke-miterlimit="10.0"><path d="M 200.0000,200.0009 h 199.9999 c 0.0000,-108.7323 -86.8683,-197.5447 -195.5740 -199.9510Z"/></g></a><g stroke-linejoin="miter" stroke-opacity="1.0" fill-opacity="1.0" font-size="9.99999688459423px" stroke="rgb(0,0,0)" stroke-width="1.6000037168552945" fill="rgb(0,0,0)" stroke-linecap="butt" stroke-miterlimit="10.0"><text dominant-baseline="middle" transform="matrix(1.0000,0.0000,-0.0000,1.0000,349.6346,189.5375)" stroke="none" text-anchor="middle">DC</text></g><a xlink:href="#angle-IV"><g stroke-linejoin="miter" stroke-opacity="1.0" fill-opacity="0.0" stroke="rgb(0,0,0)" stroke-width="0.8000018584276473" fill="rgb(0,0,0)" stroke-linecap="butt" stroke-miterlimit="10.0"><path d="M 200.0000,200.0009 l -4.4260,199.9510 c 110.4299,2.4444 201.9325,-85.0951 204.3769 -195.5250c 0.0327,-1.4751 0.0490,-2.9505 0.0490 -4.4260Z"/></g></a><g stroke-linejoin="miter" stroke-opacity="1.0" fill-opacity="1.0" font-size="9.99999688459423px" stroke="rgb(0,0,0)" stroke-width="1.6000037168552945" fill="rgb(0,0,0)" stroke-linecap="butt" stroke-miterlimit="10.0"><text dominant-baseline="middle" transform="matrix(1.0000,0.0000,-0.0000,1.0000,207.1495,349.8304)" stroke="none" text-anchor="middle">IC</text></g><a xlink:href="#angle-I"><g stroke-linejoin="miter" stroke-opacity="1.0" fill-opacity="0.0" stroke="rgb(0,0,0)" stroke-width="0.8000018584276473" fill="rgb(0,0,0)" stroke-linecap="butt" stroke-miterlimit="10.0"><path d="M 200.0000,200.0009 l -199.9999,0.0000 c 0.0000,108.7323 86.8683,197.5447 195.5740 199.9510Z"/></g></a><g stroke-linejoin="miter" stroke-opacity="1.0" fill-opacity="1.0" font-size="9.99999688459423px" stroke="rgb(0,0,0)" stroke-width="1.6000037168552945" fill="rgb(0,0,0)" stroke-linecap="butt" stroke-miterlimit="10.0"><text dominant-baseline="middle" transform="matrix(1.0000,0.0000,-0.0000,1.0000,50.3654,210.4644)" stroke="none" text-anchor="middle">ASC</text></g><a xlink:href="#house-XII"><g stroke-linejoin="miter" stroke-opacity="1.0" fill-opacity="0.0" stroke="rgb(128,128,128)" stroke-width="0.8000018584276473" fill="rgb(0,0,0)" stroke-linecap="butt" stroke-miterlimit="10.0"><path d="M 112.8959,150.8799 l -52.2624,-29.4726 c -13.5264,23.9858 -20.6334,51.0567 -20.6334 78.5936l 60.0000,0.0000 c 0.0000,-17.2106 4.4419,-34.1299 12.8959 -49.1210Z"/></g></a><g stroke-linejoin="miter" stroke-opacity="1.0" fill-opacity="1.0" font-size="9.99999688459423px" stroke="rgb(0,0,0)" stroke-width="1.6000037168552945" fill="rgb(128,128,128)" stroke-linecap="butt" stroke-miterlimit="10.0"><text dominant-baseline="middle" transform="matrix(1.0000,0.0000,-0.0000,1.0000,99.8408,154.5242)" stroke="none" text-anchor="middle">12</text></g><a xlink:href="#house-XI"><g stroke-linejoin="miter" stroke-opacity="1.0" fill-opacity="0.0" stroke="rgb(128,128,128)" stroke-width="0.8000018584276473" fill="rgb(0,0,0)" stroke-linecap="butt" stroke-miterlimit="10.0"><path d="M 150.7869,112.9488 l -29.5278,-52.2313 c -25.3560,14.3345 -46.3180,35.3186 -60.6256 60.6898l 52.2624,29.4726 c 8.9423,-15.8570 22.0435,-28.9721 37.8910 -37.9311Z"/></g></a><g stroke-linejoin="miter" stroke-opacity="1.0" fill-opacity="1.0" font-size="9.99999688459423px" stroke="rgb(0,0,0)" stroke-width="1.6000037168552945" fill="rgb(128,128,128)" stroke-linecap="butt" stroke-miterlimit="10.0"><text dominant-baseline="middle" transform="matrix(1.0000,0.0000,-0.0000,1.0000,137.7258,109.3261)" stroke="none" text-anchor="middle">11</text></g><a xlink:href="#house-X"><g stroke-linejoin="miter" stroke-opacity="1.0" fill-opacity="0.0" stroke="rgb(128,128,128)" stroke-width="0.8000018584276473" fill="rgb(0,0,0)" stroke-linecap="butt" stroke-miterlimit="10.0"><path d="M 202.2130,100.0254 l 1.3278,-59.9853 c -28.7882,-0.6372 -57.2148,6.5064 -82.2817 20.6774l 29.5278,52.2313 c 15.6668,-8.8569 33.4334,-13.3216 51.4260 -12.9234Z"/></g></a><g stroke-linejoin="miter" stroke-opacity="1.0" fill-opacity="1.0" font-size="9.99999688459423px" stroke="rgb(0,0,0)" stroke-width="1.6000037168552945" fill="rgb(128,128,128)" stroke-linecap="butt" stroke-miterlimit="10.0"><text dominant-baseline="middle" transform="matrix(1.0000,0.0000,-0.0000,1.0000,192.8402,90.2342)" stroke="none" text-anchor="middle">10</text></g><a xlink:href="#house-IX"><g stroke-linejoin="miter" stroke-opacity="1.0" fill-opacity="0.0" stroke="rgb(128,128,128)" stroke-width="0.8000018584276473" fill="rgb(0,0,0)" stroke-linecap="butt" stroke-miterlimit="10.0"><path d="M 251.4385,114.2450 l 30.8631,-51.4535 c -23.8322,-14.2951 -50.9769,-22.1363 -78.7608 -22.7513l -1.3278,59.9853 c 17.3650,0.3844 34.3304,5.2851 49.2255 14.2196Z"/></g></a><g stroke-linejoin="miter" stroke-opacity="1.0" fill-opacity="1.0" font-size="9.99999688459423px" stroke="rgb(0,0,0)" stroke-width="1.6000037168552945" fill="rgb(128,128,128)" stroke-linecap="butt" stroke-miterlimit="10.0"><text dominant-baseline="middle" transform="matrix(1.0000,0.0000,-0.0000,1.0000,248.1455,101.0969)" stroke="none" text-anchor="middle">9</text></g><a xlink:href="#house-VIII"><g stroke-linejoin="miter" stroke-opacity="1.0" fill-opacity="0.0" stroke="rgb(128,128,128)" stroke-width="0.8000018584276473" fill="rgb(0,0,0)" stroke-linecap="butt" stroke-miterlimit="10.0"><path d="M 286.8964,150.5135 l 52.1378,-29.6925 c -13.6095,-23.8974 -33.1490,-43.8835 -56.7327 -58.0295l -30.8631,51.4535 c 14.7398,8.8413 26.9520,21.3326 35.4579 36.2685Z"/></g></a><g stroke-linejoin="miter" stroke-opacity="1.0" fill-opacity="1.0" font-size="9.99999688459423px" stroke="rgb(0,0,0)" stroke-width="1.6000037168552945" fill="rgb(128,128,128)" stroke-linecap="butt" stroke-miterlimit="10.0"><text dominant-baseline="middle" transform="matrix(1.0000,0.0000,-0.0000,1.0000,290.4779,137.4410)" stroke="none" text-anchor="middle">8</text></g><a xlink:href="#house-VII"><g stroke-linejoin="miter" stroke-opacity="1.0" fill-opacity="0.0" stroke="rgb(128,128,128)" stroke-width="0.8000018584276473" fill="rgb(0,0,0)" stroke-linecap="butt" stroke-miterlimit="10.0"><path d="M 300.0000,200.0009 h 60.0000 c 0.0000,-27.7653 -7.2253,-55.0528 -20.9657 -79.1799l -52.1378,29.6925 c 8.5877,15.0794 13.1036,32.1341 13.1036 49.4874Z"/></g></a><g stroke-linejoin="miter" stroke-opacity="1.0" fill-opacity="1.0" font-size="9.99999688459423px" stroke="rgb(0,0,0)" stroke-width="1.6000037168552945" fill="rgb(128,128,128)" stroke-linecap="butt" stroke-miterlimit="10.0"><text dominant-baseline="middle" transform="matrix(1.0000,0.0000,-0.0000,1.0000,309.5814,190.4138)" stroke="none" text-anchor="middle">7</text></g><a xlink:href="#house-VI"><g stroke-linejoin="miter" stroke-opacity="1.0" fill-opacity="0.0" stroke="rgb(128,128,128)" stroke-width="0.8000018584276473" fill="rgb(0,0,0)" stroke-linecap="butt" stroke-miterlimit="10.0"><path d="M 287.1041,249.1219 l 52.2624,29.4726 c 13.5264,-23.9858 20.6334,-51.0567 20.6334 -78.5936l -60.0000,-0.0000 c -0.0000,17.2106 -4.4419,34.1299 -12.8959 49.1210Z"/></g></a><g stroke-linejoin="miter" stroke-opacity="1.0" fill-opacity="1.0" font-size="9.99999688459423px" stroke="rgb(0,0,0)" stroke-width="1.6000037168552945" fill="rgb(128,128,128)" stroke-linecap="butt" stroke-miterlimit="10.0"><text dominant-baseline="middle" transform="matrix(1.0000,0.0000,-0.0000,1.0000,300.1592,245.4776)" stroke="none" text-anchor="middle">6</text></g><a xlink:href="#house-V"><g stroke-linejoin="miter" stroke-opacity="1.0" fill-opacity="0.0" stroke="rgb(128,128,128)" stroke-width="0.8000018584276473" fill="rgb(0,0,0)" stroke-linecap="butt" stroke-miterlimit="10.0"><path d="M 249.2131,287.0530 l 29.5278,52.2313 c 25.3560,-14.3345 46.3180,-35.3186 60.6256 -60.6898l -52.2624,-29.4726 c -8.9423,15.8570 -22.0435,28.9721 -37.8910 37.9311Z"/></g></a><g stroke-linejoin="miter" stroke-opacity="1.0" fill-opacity="1.0" font-size="9.99999688459423px" stroke="rgb(0,0,0)" stroke-width="1.6000037168552945" fill="rgb(128,128,128)" stroke-linecap="butt" stroke-miterlimit="10.0"><text dominant-baseline="middle" transform="matrix(1.0000,0.0000,-0.0000,1.0000,262.2742,290.6757)" stroke="none" text-anchor="middle">5</text></g><a xlink:href="#house-IV"><g stroke-linejoin="miter" stroke-opacity="1.0" fill-opacity="0.0" stroke="rgb(128,128,128)" stroke-width="0.8000018584276473" fill="rgb(0,0,0)" stroke-linecap="butt" stroke-miterlimit="10.0"><path d="M 197.7870,299.9764 l -1.3278,59.9853 c 28.7882,0.6372 57.2148,-6.5064 82.2817 -20.6774l -29.5278,-52.2313 c -15.6668,8.8569 -33.4334,13.3216 -51.4260 12.9234Z"/></g></a><g stroke-linejoin="miter" stroke-opacity="1.0" fill-opacity="1.0" font-size="9.99999688459423px" stroke="rgb(0,0,0)" stroke-width="1.6000037168552945" fill="rgb(128,128,128)" stroke-linecap="butt" stroke-miterlimit="10.0"><text dominant-baseline="middle" transform="matrix(1.0000,0.0000,-0.0000,1.0000,207.1598,309.7676)" stroke="none" text-anchor="middle">4</text></g><a xlink:href="#house-III"><g stroke-linejoin="miter" stroke-opacity="1.0" fill-opacity="0.0" stroke="rgb(128,128,128)" stroke-width="0.8000018584276473" fill="rgb(0,0,0)" stroke-linecap="butt" stroke-miterlimit="10.0"><path d="M 148.5615,285.7568 l -30.8631,51.4535 c 23.8322,14.2951 50.9769,22.1363 78.7608 22.7513l 1.3278,-59.9853 c -17.3650,-0.3844 -34.3304,-5.2851 -49.2255 -14.2196Z"/></g></a><g stroke-linejoin="miter" stroke-opacity="1.0" fill-opacity="1.0" font-size="9.99999688459423px" stroke="rgb(0,0,0)" stroke-width="1.6000037168552945" fill="rgb(128,128,128)" stroke-linecap="butt" stroke-miterlimit="10.0"><text dominant-baseline="middle" transform="matrix(1.0000,0.0000,-0.0000,1.0000,151.8545,298.9049)" stroke="none" text-anchor="middle">3</text></g><a xlink:href="#house-II"><g stroke-linejoin="miter" stroke-opacity="1.0" fill-opacity="0.0" stroke="rgb(128,128,128)" stroke-width="0.8000018584276473" fill="rgb(0,0,0)" stroke-linecap="butt" stroke-miterlimit="10.0"><path d="M 113.1036,249.4884 l -52.1378,29.6925 c 13.6095,23.8974 33.1490,43.8835 56.7327 58.0295l 30.8631,-51.4535 c -14.7398,-8.8413 -26.9520,-21.3326 -35.4579 -36.2685Z"/></g></a><g stroke-linejoin="miter" stroke-opacity="1.0" fill-opacity="1.0" font-size="9.99999688459423px" stroke="rgb(0,0,0)" stroke-width="1.6000037168552945" fill="rgb(128,128,128)" stroke-linecap="butt" stroke-miterlimit="10.0"><text dominant-baseline="middle" transform="matrix(1.0000,0.0000,-0.0000,1.0000,109.5221,262.5608)" stroke="none" text-anchor="middle">2</text></g><a xlink:href="#house-I"><g stroke-linejoin="miter" stroke-opacity="1.0" fill-opacity="0.0" stroke="rgb(128,128,128)" stroke-width="0.8000018584276473" fill="rgb(0,0,0)" stroke-linecap="butt" stroke-miterlimit="10.0"><path d="M 100.0000,200.0009 l -60.0000,0.0000 c 0.0000,27.7653 7.2253,55.0528 20.9657 79.1799l 52.1378,-29.6925 c -8.5877,-15.0794 -13.1036,-32.1341 -13.1036 -49.4874Z"/></g></a><g stroke-linejoin="miter" stroke-opacity="1.0" fill-opacity="1.0" font-size="9.99999688459423px" stroke="rgb(0,0,0)" stroke-width="1.6000037168552945" fill="rgb(128,128,128)" stroke-linecap="butt" stroke-miterlimit="10.0"><text dominant-baseline="middle" transform="matrix(1.0000,0.0000,-0.0000,1.0000,90.4186,209.5881)" stroke="none" text-anchor="middle">1</text></g><g stroke-linejoin="miter" stroke-opacity="1.0" fill-opacity="0.0" stroke="rgb(0,0,0)" stroke-width="0.8000018584276473" fill="rgb(0,0,0)" stroke-linecap="butt" stroke-miterlimit="10.0"><path d="M 260.2476,51.7774 l -2.2593,5.5584 "/></g><g stroke-linejoin="miter" stroke-opacity="1.0" fill-opacity="0.0" stroke="rgb(0,0,0)" stroke-width="0.8000018584276473" fill="rgb(0,0,0)" stroke-linecap="butt" stroke-miterlimit="10.0"><path d="M 237.6547,107.3612 l 2.2593,-5.5584 "/></g><a xlink:href="#Chiron"><g><g stroke-linejoin="miter" stroke-opacity="1.0" fill-opacity="1.0" stroke="rgb(0,0,0)" stroke-width="0.5" fill="rgb(0,0,0)" stroke-linecap="butt" stroke-miterlimit="10.0"><path d="M 245.0451,83.4753 ZM 252.2177,84.3767 c 0.0000,1.0863 -1.1402,1.7103 -1.1402 1.7103c -0.9476,0.5162 -2.1263,0.5162 -2.1263 0.5162c -1.1633,-0.0000 -2.1186,-0.5239 -2.1186 -0.5239c -1.1479,-0.6317 -1.1479,-1.7026 -1.1479 -1.7026c -0.0000,-0.9630 0.9168,-1.5716 0.9168 -1.5716c 0.7627,-0.5008 1.8644,-0.6240 1.8644 -0.6240v -9.6456 l 0.9630,0.0000 v 2.1495 l 1.9260,-1.8182 l 0.6626,0.7011 l -2.1186,1.9954 l 2.1186,2.0031 l -0.6626,0.7011 l -1.9260,-1.8259 v 5.7396 c 1.0940,0.1233 1.8644,0.6317 1.8644 0.6317c 0.9245,0.6086 0.9245,1.5639 0.9245 1.5639ZM 252.2177,84.3767 ZM 251.2547,84.3767 c 0.0000,-0.6009 -0.8860,-0.9707 -0.8860 -0.9707c -0.7011,-0.2928 -1.4176,-0.2928 -1.4176 -0.2928c -0.7319,-0.0000 -1.4176,0.2851 -1.4176 0.2851c -0.8860,0.3621 -0.8860,0.9784 -0.8860 0.9784c 0.0000,0.6009 0.8860,0.9707 0.8860 0.9707c 0.7011,0.2928 1.4176,0.2928 1.4176 0.2928c 0.7319,-0.0000 1.4176,-0.2851 1.4176 -0.2851c 0.8860,-0.3621 0.8860,-0.9784 0.8860 -0.9784Z"/></g><title>Chiron</title></g></a><g stroke-linejoin="miter" stroke-opacity="1.0" fill-opacity="0.0" stroke="rgb(0,0,0)" stroke-width="0.8000018584276473" fill="rgb(0,0,0)" stroke-linecap="butt" stroke-miterlimit="10.0"><path d="M 60.5125,121.6222 l 5.2308,2.9392 "/></g><g stroke-linejoin="miter" stroke-opacity="1.0" fill-opacity="0.0" stroke="rgb(0,0,0)" stroke-width="0.8000018584276473" fill="rgb(0,0,0)" stroke-linecap="butt" stroke-miterlimit="10.0"><path d="M 112.8203,151.0143 l -5.2308,-2.9392 "/></g><a xlink:href="#MeanApog"><g><g stroke-linejoin="miter" stroke-opacity="1.0" fill-opacity="1.0" stroke="rgb(0,0,0)" stroke-width="0.5" fill="rgb(0,0,0)" stroke-linecap="butt" stroke-miterlimit="10.0"><path d="M 81.9129,140.6557 ZM 90.0870,138.5756 c -0.9091,0.2311 -1.6487,0.2311 -1.6487 0.2311c -0.7242,-0.0000 -1.4407,-0.2157 -1.4407 -0.2157v 2.0647 h 2.2804 l 0.0000,0.9630 h -2.2804 v 2.1957 l -0.9630,-0.0000 v -2.1957 h -2.2804 l -0.0000,-0.9630 h 2.2804 v -2.4576 c -1.2481,-0.6626 -2.0031,-1.8105 -2.0031 -1.8105c -0.7858,-1.2018 -0.7858,-2.5732 -0.7858 -2.5732c 0.0000,-2.0339 1.5871,-3.5285 1.5871 -3.5285c 1.5562,-1.4638 3.6055,-1.4638 3.6055 -1.4638c 0.7396,-0.0000 1.6487,0.2311 1.6487 0.2311l -0.0077,0.0616 c -1.5562,0.0154 -2.5655,1.6333 -2.5655 1.6333c -0.8783,1.4099 -0.8783,3.0663 -0.8783 3.0663c 0.0000,1.6564 0.8783,3.0663 0.8783 3.0663c 1.0092,1.6179 2.5655,1.6333 2.5655 1.6333Z"/></g><title>MeanApog</title></g></a><g stroke-linejoin="miter" stroke-opacity="1.0" fill-opacity="0.0" stroke="rgb(0,0,0)" stroke-width="0.8000018584276473" fill="rgb(0,0,0)" stroke-linecap="butt" stroke-miterlimit="10.0"><path d="M 306.7891,319.1482 l -4.0046,-4.4680 "/></g><g stroke-linejoin="miter" stroke-opacity="1.0" fill-opacity="0.0" stroke="rgb(0,0,0)" stroke-width="0.8000018584276473" fill="rgb(0,0,0)" stroke-linecap="butt" stroke-miterlimit="10.0"><path d="M 266.7432,274.4680 l 4.0046,4.4680 "/></g><a xlink:href="#MeanNode"><g><g stroke-linejoin="miter" stroke-opacity="1.0" fill-opacity="1.0" stroke="rgb(0,0,0)" stroke-width="0.5" fill="rgb(0,0,0)" stroke-linecap="butt" stroke-miterlimit="10.0"><path d="M 279.3972,301.6463 ZM 293.7038,299.1655 c 0.0000,1.1325 -0.7897,1.9222 -0.7897 1.9222c -0.7897,0.7897 -1.9222,0.7897 -1.9222 0.7897c -1.1325,-0.0000 -1.9222,-0.7897 -1.9222 -0.7897c -0.7897,-0.7897 -0.7897,-1.9222 -0.7897 -1.9222c 0.0000,-1.0863 0.7512,-1.8721 0.7512 -1.8721c 0.7512,-0.7858 1.8374,-0.8398 1.8374 -0.8398c -0.2465,-1.7488 -1.2789,-2.8968 -1.2789 -2.8968c -1.1402,-1.2789 -2.8197,-1.2789 -2.8197 -1.2789c -1.6795,0.0000 -2.8197,1.2789 -2.8197 1.2789c -1.0324,1.1479 -1.2789,2.8968 -1.2789 2.8968c 1.0863,0.0539 1.8374,0.8398 1.8374 0.8398c 0.7512,0.7858 0.7512,1.8721 0.7512 1.8721c 0.0000,1.1325 -0.7897,1.9222 -0.7897 1.9222c -0.7897,0.7897 -1.9222,0.7897 -1.9222 0.7897c -1.1325,-0.0000 -1.9260,-0.7897 -1.9260 -0.7897c -0.7935,-0.7897 -0.7935,-1.9222 -0.7935 -1.9222c 0.0000,-1.0015 0.6471,-1.7643 0.6471 -1.7643c 0.6471,-0.7627 1.6410,-0.9168 1.6410 -0.9168c 0.2388,-1.9954 1.4253,-3.3128 1.4253 -3.3128c 1.2943,-1.4330 3.2280,-1.4330 3.2280 -1.4330c 1.9337,-0.0000 3.2280,1.4330 3.2280 1.4330c 1.1864,1.3174 1.4253,3.3128 1.4253 3.3128c 0.9861,0.1541 1.6333,0.9168 1.6333 0.9168c 0.6471,0.7627 0.6471,1.7643 0.6471 1.7643ZM 293.7038,299.1655 ZM 292.9334,299.1655 c -0.0000,-0.8166 -0.5624,-1.3790 -0.5624 -1.3790c -0.5624,-0.5624 -1.3790,-0.5624 -1.3790 -0.5624c -0.8089,-0.0000 -1.3790,0.5663 -1.3790 0.5663c -0.5701,0.5663 -0.5701,1.3752 -0.5701 1.3752c 0.0000,0.8166 0.5663,1.3790 0.5663 1.3790c 0.5663,0.5624 1.3829,0.5624 1.3829 0.5624c 0.8089,-0.0000 1.3752,-0.5663 1.3752 -0.5663c 0.5663,-0.5663 0.5663,-1.3752 0.5663 -1.3752ZM 292.9334,299.1655 ZM 284.4896,299.1655 c 0.0000,-0.8089 -0.5663,-1.3752 -0.5663 -1.3752c -0.5663,-0.5663 -1.3752,-0.5663 -1.3752 -0.5663c -0.8166,0.0000 -1.3790,0.5624 -1.3790 0.5624c -0.5624,0.5624 -0.5624,1.3790 -0.5624 1.3790c 0.0000,0.8089 0.5663,1.3752 0.5663 1.3752c 0.5663,0.5663 1.3752,0.5663 1.3752 0.5663c 0.8166,-0.0000 1.3790,-0.5624 1.3790 -0.5624c 0.5624,-0.5624 0.5624,-1.3790 0.5624 -1.3790Z"/></g><title>MeanNode</title></g></a><g stroke-linejoin="miter" stroke-opacity="1.0" fill-opacity="0.0" stroke="rgb(0,0,0)" stroke-width="0.8000018584276473" fill="rgb(0,0,0)" stroke-linecap="butt" stroke-miterlimit="10.0"><path d="M 48.7610,252.2193 l 5.6715,-1.9582 "/></g><g stroke-linejoin="miter" stroke-opacity="1.0" fill-opacity="0.0" stroke="rgb(0,0,0)" stroke-width="0.8000018584276473" fill="rgb(0,0,0)" stroke-linecap="butt" stroke-miterlimit="10.0"><path d="M 105.4756,232.6374 l -5.6715,1.9582 "/></g><a xlink:href="#Pluto"><g><g stroke-linejoin="miter" stroke-opacity="1.0" fill-opacity="1.0" stroke="rgb(0,0,0)" stroke-width="0.5" fill="rgb(0,0,0)" stroke-linecap="butt" stroke-miterlimit="10.0"><path d="M 73.4978,246.2734 ZM 77.4514,242.3777 l -0.0000,4.1274 l 2.5199,-0.0869 l 0.0579,0.1883 l -0.1303,0.5214 l -3.4757,0.0724 v -4.8516 l -1.1875,-0.0434 v 3.8668 l -0.6662,0.3041 l -0.3621,-0.2028 v -8.5011 l 3.0268,-0.1159 c 1.4772,-0.0000 2.5923,0.7241 2.5923 2.1434c 0.0000,1.4917 -1.0138,2.5344 -2.3751 2.5778ZM 77.4514,242.3777 ZM 78.7693,239.8143 c 0.0000,-1.1007 -0.9703,-1.4482 -1.6220 -1.4482l -1.9117,0.1159 v 3.1137 l 1.1875,0.0434 l 0.0000,-1.4048 l 0.7386,-0.2462 l 0.2896,0.0579 l -0.0000,1.6075 c 0.7820,-0.1303 1.3179,-0.9413 1.3179 -1.8392Z"/></g><title>Pluto</title></g></a><g stroke-linejoin="miter" stroke-opacity="1.0" fill-opacity="0.0" stroke="rgb(0,0,0)" stroke-width="0.8000018584276473" fill="rgb(0,0,0)" stroke-linecap="butt" stroke-miterlimit="10.0"><path d="M 157.1918,354.1679 l 1.6053,-5.7813 "/></g><g stroke-linejoin="miter" stroke-opacity="1.0" fill-opacity="0.0" stroke="rgb(0,0,0)" stroke-width="0.8000018584276473" fill="rgb(0,0,0)" stroke-linecap="butt" stroke-miterlimit="10.0"><path d="M 173.2449,296.3553 l -1.6053,5.7813 "/></g><a xlink:href="#Neptune"><g><g stroke-linejoin="miter" stroke-opacity="1.0" fill-opacity="1.0" stroke="rgb(0,0,0)" stroke-width="0.5" fill="rgb(0,0,0)" stroke-linecap="butt" stroke-miterlimit="10.0"><path d="M 159.3530,328.7228 ZM 165.6238,329.3890 l -0.0434,1.7813 h -0.6951 l -0.0290,-1.7813 l -1.5496,0.0000 v -0.6662 h 1.5351 l -0.0145,-1.0717 v -0.0145 c -2.6503,-0.2607 -3.7219,-2.0999 -3.7219 -4.7502c 0.0000,-0.3041 -0.0869,-0.4200 -0.2172 -0.4200c -0.1738,-0.0000 -0.4345,0.2317 -0.6372 0.4634l -0.4779,-0.0434 l 2.1868,-2.5489 c 0.0000,-0.0000 0.1159,-0.0000 0.1159 -0.0145l -0.0000,2.5634 c 0.0000,2.2447 0.5793,3.9102 2.7371 4.0695l -0.1014,-5.5322 c -0.0000,-0.3621 -0.0724,-0.5358 -0.1883 -0.5358c -0.1303,-0.0000 -0.3476,0.2028 -0.6517 0.5793l -0.4779,-0.0434 l 1.8827,-2.0710 l 1.8103,2.0710 l -0.5069,0.0434 c -0.3041,-0.3765 -0.5069,-0.5793 -0.6227 -0.5793c -0.1159,-0.0000 -0.1593,0.1738 -0.1593 0.5358l -0.1303,5.5322 c 2.1144,-0.1738 2.7371,-1.9551 2.7371 -4.1274l -0.0000,-2.5199 c 0.0145,-0.0000 0.0434,-0.0000 0.0579 -0.0145l 2.2013,2.5344 l -0.5069,0.0434 c -0.1593,-0.2028 -0.4055,-0.4634 -0.5793 -0.4634c -0.1159,-0.0000 -0.2028,0.1159 -0.2028 0.4200c -0.0000,2.5634 -1.0717,4.5474 -3.7219 4.8081l -0.0145,1.0862 h 1.5351 v 0.6662 l -1.5496,0.0000 Z"/></g><title>Neptune</title></g></a><g stroke-linejoin="miter" stroke-opacity="1.0" fill-opacity="0.0" stroke="rgb(0,0,0)" stroke-width="0.8000018584276473" fill="rgb(0,0,0)" stroke-linecap="butt" stroke-miterlimit="10.0"><path d="M 136.0155,346.6501 l 2.3994,-5.4993 "/></g><g stroke-linejoin="miter" stroke-opacity="1.0" fill-opacity="0.0" stroke="rgb(0,0,0)" stroke-width="0.8000018584276473" fill="rgb(0,0,0)" stroke-linecap="butt" stroke-miterlimit="10.0"><path d="M 160.0097,291.6566 l -2.3994,5.4993 "/></g><a xlink:href="#Uranus"><g><g stroke-linejoin="miter" stroke-opacity="1.0" fill-opacity="1.0" stroke="rgb(0,0,0)" stroke-width="0.5" fill="rgb(0,0,0)" stroke-linecap="butt" stroke-miterlimit="10.0"><path d="M 143.5448,322.5277 ZM 147.3247,322.5132 c 0.0000,0.5358 0.3331,0.8689 0.7820 0.8689c 0.3910,-0.0000 0.7386,-0.3331 0.7386 -0.8689c 0.0000,-0.3476 -0.2607,-0.7676 -0.7531 -0.7676c -0.4634,-0.0000 -0.7676,0.4055 -0.7676 0.7676ZM 147.3247,322.5132 ZM 145.0510,315.5328 c 0.0000,-0.4200 -0.1883,-0.6372 -0.7820 -0.6372h -0.0434 c -0.0724,0.0000 -0.1159,-0.0434 -0.1159 -0.1303v -0.2752 l 0.0290,-0.0290 c 0.0000,-0.0000 1.0138,0.0434 1.5206 0.0434l 0.4055,-0.0145 v 2.9978 h 1.4772 l -0.0000,-2.5199 l 0.2752,-0.2172 h 0.4634 l 0.2752,0.2172 l 0.0000,2.5199 l 1.4048,0.0000 v -2.9978 l 0.4055,0.0145 c 0.5069,-0.0000 1.5206,-0.0434 1.5206 -0.0434l 0.0290,0.0290 v 0.2752 c 0.0000,0.0869 -0.0434,0.1303 -0.1159 0.1303h -0.0434 c -0.5938,-0.0000 -0.7820,0.2172 -0.7820 0.6372v 4.4605 c 0.0000,0.4055 0.1883,0.6372 0.7820 0.6372h 0.0434 c 0.0724,-0.0000 0.1159,0.0434 0.1159 0.1159v 0.2752 l -0.0290,0.0290 c 0.0000,-0.0000 -0.9993,-0.0434 -1.5206 -0.0434l -0.4055,0.0145 l -0.0000,-2.8530 l -1.4048,-0.0000 l -0.0000,3.1861 c 0.5793,0.1593 1.0282,0.5648 1.0282 1.1731c 0.0000,0.8834 -0.8110,1.3179 -1.5206 1.3179c -0.6807,0.0000 -1.4917,-0.4634 -1.4917 -1.2889c -0.0000,-0.6807 0.4200,-1.0717 0.9703 -1.2165l -0.0000,-3.1716 h -1.4772 l 0.0000,2.8530 l -0.4055,0.0000 c -0.5214,-0.0000 -1.5206,0.0290 -1.5206 0.0290l -0.0290,-0.0290 v -0.2607 c -0.0000,-0.0724 0.0434,-0.1159 0.1159 -0.1159h 0.0434 c 0.5938,-0.0000 0.7820,-0.2317 0.7820 -0.6372v -4.4750 Z"/></g><title>Uranus</title></g></a><g stroke-linejoin="miter" stroke-opacity="1.0" fill-opacity="0.0" stroke="rgb(0,0,0)" stroke-width="0.8000018584276473" fill="rgb(0,0,0)" stroke-linecap="butt" stroke-miterlimit="10.0"><path d="M 146.7856,350.8923 l 1.9955,-5.6584 "/></g><g stroke-linejoin="miter" stroke-opacity="1.0" fill-opacity="0.0" stroke="rgb(0,0,0)" stroke-width="0.8000018584276473" fill="rgb(0,0,0)" stroke-linecap="butt" stroke-miterlimit="10.0"><path d="M 166.7410,294.3081 l -1.9955,5.6584 "/></g><a xlink:href="#Saturn"><g><g stroke-linejoin="miter" stroke-opacity="1.0" fill-opacity="1.0" stroke="rgb(0,0,0)" stroke-width="0.5" fill="rgb(0,0,0)" stroke-linecap="butt" stroke-miterlimit="10.0"><path d="M 153.0631,325.8587 ZM 154.8299,317.0245 l 0.6951,-0.1448 l 0.3331,0.0145 l -0.0000,1.3179 h 1.3758 c 0.1593,-0.0000 0.2172,0.0724 0.2172 0.1883c 0.0000,0.1738 -0.2028,0.4924 -0.3910 0.4924h -1.2020 v 2.4185 c 0.3910,-0.5214 1.3179,-1.0138 2.0420 -1.0138c 1.0138,-0.0000 1.9986,0.6227 1.9986 1.8537c 0.0000,0.6951 -0.4345,1.6510 -0.7386 2.2158c -0.2752,0.5214 -0.4779,1.4482 -0.4779 2.0854c 0.0000,0.7386 0.2462,1.1586 0.8979 1.7089l -0.1159,0.1593 l -0.9269,-0.1159 c -0.5358,-0.4779 -0.8255,-0.9848 -0.8255 -1.7524c 0.0000,-0.7096 0.4345,-1.6220 0.6662 -2.1144c 0.2607,-0.5358 0.5358,-1.4193 0.5358 -2.1289c 0.0000,-0.6662 -0.5938,-1.2310 -1.0862 -1.2310c -0.9124,0.0000 -1.5206,0.4055 -1.9841 1.0717v 3.6640 l -0.8545,0.4489 l -0.1593,-0.2607 v -7.0094 l -0.9848,0.0000 c -0.1448,0.0000 -0.2172,-0.1303 -0.2172 -0.2607c 0.0000,-0.2317 0.1883,-0.4200 0.3476 -0.4200h 0.8545 v -1.1875 Z"/></g><title>Saturn</title></g></a><g stroke-linejoin="miter" stroke-opacity="1.0" fill-opacity="0.0" stroke="rgb(0,0,0)" stroke-width="0.8000018584276473" fill="rgb(0,0,0)" stroke-linecap="butt" stroke-miterlimit="10.0"><path d="M 337.4500,118.1017 l -5.1544,3.0712 "/></g><g stroke-linejoin="miter" stroke-opacity="1.0" fill-opacity="0.0" stroke="rgb(0,0,0)" stroke-width="0.8000018584276473" fill="rgb(0,0,0)" stroke-linecap="butt" stroke-miterlimit="10.0"><path d="M 285.9062,148.8139 l 5.1544,-3.0712 "/></g><a xlink:href="#Jupiter"><g><g stroke-linejoin="miter" stroke-opacity="1.0" fill-opacity="1.0" stroke="rgb(0,0,0)" stroke-width="0.5" fill="rgb(0,0,0)" stroke-linecap="butt" stroke-miterlimit="10.0"><path d="M 306.9352,136.7236 ZM 309.6723,129.0914 c -0.6517,-0.0000 -0.9703,0.0869 -0.9703 0.5214c 0.0000,0.1738 0.0290,0.2462 0.0434 0.3041c 0.0290,0.0434 0.0434,0.1593 0.0434 0.2607c -0.0000,0.1883 -0.1448,0.4779 -0.5648 0.4779c -0.3476,-0.0000 -0.5793,-0.2317 -0.5793 -0.5793c 0.0000,-0.8545 0.8255,-1.5786 2.1579 -1.5786c 1.5062,0.0000 2.2592,1.6655 2.2592 3.1861c 0.0000,1.3613 -0.6662,2.5778 -1.2600 3.0123h 2.8240 c 0.0579,-0.0000 0.0869,-0.0434 0.0869 -0.0869v -5.8219 l 0.7096,-0.1593 l 0.3186,0.0290 l 0.0000,6.0391 l 0.8545,0.0145 c 0.0724,0.0434 0.1159,0.1883 0.1159 0.3186c 0.0000,0.1303 -0.0290,0.2317 -0.0869 0.2752l -0.8834,0.0290 l -0.0000,2.6358 l -0.8689,0.4489 l -0.1593,-0.2607 l 0.0000,-2.7371 c 0.0000,-0.0290 -0.0290,-0.0579 -0.0869 -0.0579l -5.2715,0.1303 c -0.0145,-0.0000 -0.0579,-0.0724 -0.0579 -0.1448l 0.0000,-0.3041 c 0.0000,-0.1159 0.2172,-0.2317 0.3331 -0.2317h 0.0145 c 0.3041,0.0000 0.8834,-0.1303 1.1296 -0.2317c 0.8400,-0.3476 1.2889,-1.3613 1.2889 -2.5778c 0.0000,-1.1296 -0.4489,-2.9109 -1.3903 -2.9109Z"/></g><title>Jupiter</title></g></a><g stroke-linejoin="miter" stroke-opacity="1.0" fill-opacity="0.0" stroke="rgb(0,0,0)" stroke-width="0.8000018584276473" fill="rgb(0,0,0)" stroke-linecap="butt" stroke-miterlimit="10.0"><path d="M 359.8206,207.5736 l -5.9933,-0.2840 "/></g><g stroke-linejoin="miter" stroke-opacity="1.0" fill-opacity="0.0" stroke="rgb(0,0,0)" stroke-width="0.8000018584276473" fill="rgb(0,0,0)" stroke-linecap="butt" stroke-miterlimit="10.0"><path d="M 299.8879,204.7338 l 5.9933,0.2840 "/></g><a xlink:href="#Mars"><g><g stroke-linejoin="miter" stroke-opacity="1.0" fill-opacity="1.0" stroke="rgb(0,0,0)" stroke-width="0.5" fill="rgb(0,0,0)" stroke-linecap="butt" stroke-miterlimit="10.0"><path d="M 325.1693,211.0415 ZM 329.2098,205.7265 c -1.3903,-0.0000 -2.4765,1.1296 -2.4765 2.4909c 0.0000,1.3324 1.0427,2.4765 2.4765 2.4765c 1.4337,-0.0000 2.4765,-1.1441 2.4765 -2.4765c 0.0000,-1.3324 -1.0572,-2.4909 -2.4765 -2.4909ZM 329.2098,205.7265 ZM 332.4104,208.2174 c 0.0000,1.7234 -1.4772,3.1426 -3.2295 3.1426c -1.7379,-0.0000 -3.1716,-1.3758 -3.1716 -3.1426c -0.0000,-1.7668 1.3468,-3.2006 3.2151 -3.2006c 0.3186,-0.0000 0.5648,0.0000 0.9269 0.1159l 1.7089,-3.1137 c -0.8110,0.4634 -1.3468,0.7096 -2.3316 0.9269l -0.4345,-0.4924 c 1.4048,-0.4055 2.1289,-0.6951 3.4468 -1.5062l 0.3041,0.1448 c 0.1738,1.4337 0.3621,2.1868 0.8545 3.5482l -0.6372,-0.0579 c -0.4055,-0.8689 -0.5358,-1.4048 -0.6662 -2.2882l -1.5786,3.1282 c 0.9848,0.5069 1.5930,1.4917 1.5930 2.7951Z"/></g><title>Mars</title></g></a><g stroke-linejoin="miter" stroke-opacity="1.0" fill-opacity="0.0" stroke="rgb(0,0,0)" stroke-width="0.8000018584276473" fill="rgb(0,0,0)" stroke-linecap="butt" stroke-miterlimit="10.0"><path d="M 116.9927,336.7846 l 3.1128,-5.1294 "/></g><g stroke-linejoin="miter" stroke-opacity="1.0" fill-opacity="0.0" stroke="rgb(0,0,0)" stroke-width="0.8000018584276473" fill="rgb(0,0,0)" stroke-linecap="butt" stroke-miterlimit="10.0"><path d="M 148.1204,285.4907 l -3.1128,5.1294 "/></g><a xlink:href="#Venus"><g><g stroke-linejoin="miter" stroke-opacity="1.0" fill-opacity="1.0" stroke="rgb(0,0,0)" stroke-width="0.5" fill="rgb(0,0,0)" stroke-linecap="butt" stroke-miterlimit="10.0"><path d="M 128.5160,313.9110 ZM 132.1221,312.3035 c -1.8248,-0.2607 -2.7661,-1.7958 -2.7661 -3.1716c -0.0000,-1.7234 1.3468,-3.1861 3.2151 -3.1861c 1.9841,0.0000 3.1861,1.6220 3.1861 3.1861c 0.0000,1.5206 -1.0862,2.9399 -2.7806 3.1716l -0.0434,1.5930 h 1.5351 v 0.6662 l -1.5496,0.0000 l -0.0434,1.7668 l -0.6807,0.0000 l -0.0290,-1.7668 l -1.5496,0.0000 v -0.6662 h 1.5351 ZM 132.1221,312.3035 ZM 132.5566,306.6699 c -1.3903,-0.0000 -2.4765,1.1151 -2.4765 2.4620c 0.0000,1.3468 1.0427,2.4909 2.4765 2.4909c 1.4337,-0.0000 2.4765,-1.1441 2.4765 -2.4909c 0.0000,-1.3179 -1.0572,-2.4620 -2.4765 -2.4620Z"/></g><title>Venus</title></g></a><g stroke-linejoin="miter" stroke-opacity="1.0" fill-opacity="0.0" stroke="rgb(0,0,0)" stroke-width="0.8000018584276473" fill="rgb(0,0,0)" stroke-linecap="butt" stroke-miterlimit="10.0"><path d="M 225.0793,358.0231 l -0.9405,-5.9258 "/></g><g stroke-linejoin="miter" stroke-opacity="1.0" fill-opacity="0.0" stroke="rgb(0,0,0)" stroke-width="0.8000018584276473" fill="rgb(0,0,0)" stroke-linecap="butt" stroke-miterlimit="10.0"><path d="M 215.6746,298.7648 l 0.9405,5.9258 "/></g><a xlink:href="#Mercury"><g><g stroke-linejoin="miter" stroke-opacity="1.0" fill-opacity="1.0" stroke="rgb(0,0,0)" stroke-width="0.5" fill="rgb(0,0,0)" stroke-linecap="butt" stroke-miterlimit="10.0"><path d="M 216.3364,332.2100 ZM 220.3769,324.9689 c -1.3903,-0.0000 -2.4765,1.1151 -2.4765 2.4620c 0.0000,1.3468 1.0427,2.4909 2.4765 2.4909c 1.4337,-0.0000 2.4765,-1.1441 2.4765 -2.4909c 0.0000,-1.3179 -1.0572,-2.4620 -2.4765 -2.4620ZM 220.3769,324.9689 ZM 219.9425,330.6025 c -1.8248,-0.2607 -2.7661,-1.7958 -2.7661 -3.1716c 0.0000,-1.2165 0.6807,-2.3172 1.7524 -2.8530c -1.0572,-0.5793 -1.4337,-1.8248 -1.4337 -2.4475l 0.7241,-0.0000 c -0.0000,0.9558 0.8979,2.0999 2.1579 2.0999c 1.4917,-0.0000 2.1723,-1.3758 2.1723 -2.0999l 0.7241,-0.0000 c 0.0000,0.7241 -0.4634,1.8972 -1.4337 2.4475c 1.1007,0.5503 1.7379,1.7234 1.7379 2.8530c 0.0000,1.5206 -1.0862,2.9399 -2.7806 3.1716l -0.0434,1.6075 h 1.5351 v 0.6662 l -1.5496,0.0000 l -0.0434,1.7813 l -0.6807,0.0000 l -0.0290,-1.7813 l -1.5496,0.0000 v -0.6662 h 1.5351 Z"/></g><title>Mercury</title></g></a><g stroke-linejoin="miter" stroke-opacity="1.0" fill-opacity="0.0" stroke="rgb(0,0,0)" stroke-width="0.8000018584276473" fill="rgb(0,0,0)" stroke-linecap="butt" stroke-miterlimit="10.0"><path d="M 121.2856,339.2992 l 2.9518,-5.2237 "/></g><g stroke-linejoin="miter" stroke-opacity="1.0" fill-opacity="0.0" stroke="rgb(0,0,0)" stroke-width="0.8000018584276473" fill="rgb(0,0,0)" stroke-linecap="butt" stroke-miterlimit="10.0"><path d="M 150.8035,287.0624 l -2.9518,5.2237 "/></g><a xlink:href="#Moon"><g><g stroke-linejoin="miter" stroke-opacity="1.0" fill-opacity="1.0" stroke="rgb(0,0,0)" stroke-width="0.5" fill="rgb(0,0,0)" stroke-linecap="butt" stroke-miterlimit="10.0"><path d="M 132.4384,317.1489 ZM 134.1473,317.7862 c 2.6647,-0.0000 4.4750,-2.3316 4.4750 -4.6488c -0.0000,-2.4765 -2.2737,-4.5474 -4.0695 -4.5474c 1.4772,0.8400 2.6937,2.4765 2.6937 4.5474c 0.0000,2.2158 -1.2744,3.7509 -3.0992 4.6488ZM 134.1473,317.7862 ZM 132.8439,308.3003 c 0.3476,-0.0869 1.1007,-0.1883 1.4627 -0.1883c 3.1137,-0.0000 5.0543,2.3461 5.0543 5.0833c -0.0000,2.6068 -2.2158,5.0543 -5.1846 5.0543c -0.7241,-0.0000 -1.1007,-0.0869 -1.4482 -0.2462c 1.7958,-0.4345 3.7944,-2.3461 3.7944 -4.8516c 0.0000,-2.3896 -1.8827,-4.3881 -3.6785 -4.8516Z"/></g><title>Moon</title></g></a><g stroke-linejoin="miter" stroke-opacity="1.0" fill-opacity="0.0" stroke="rgb(0,0,0)" stroke-width="0.8000018584276473" fill="rgb(0,0,0)" stroke-linecap="butt" stroke-miterlimit="10.0"><path d="M 172.9981,357.7060 l 1.0126,-5.9139 "/></g><g stroke-linejoin="miter" stroke-opacity="1.0" fill-opacity="0.0" stroke="rgb(0,0,0)" stroke-width="0.8000018584276473" fill="rgb(0,0,0)" stroke-linecap="butt" stroke-miterlimit="10.0"><path d="M 183.1238,298.5666 l -1.0126,5.9139 "/></g><a xlink:href="#Sun"><g><g stroke-linejoin="miter" stroke-opacity="1.0" fill-opacity="1.0" stroke="rgb(0,0,0)" stroke-width="0.5" fill="rgb(0,0,0)" stroke-linecap="butt" stroke-miterlimit="10.0"><path d="M 173.0501,332.2927 ZM 174.8603,328.1363 c -0.0000,-1.7234 1.3613,-3.2006 3.2151 -3.2006c 1.9841,0.0000 3.1861,1.6365 3.1861 3.2006c 0.0000,1.7958 -1.4772,3.2006 -3.1716 3.2006c -1.9406,-0.0000 -3.2295,-1.5496 -3.2295 -3.2006ZM 174.8603,328.1363 ZM 178.0609,325.6598 c -1.3903,-0.0000 -2.4765,1.1151 -2.4765 2.4765c 0.0000,1.3324 1.0427,2.4765 2.4765 2.4765c 1.4337,-0.0000 2.4765,-1.1441 2.4765 -2.4765c 0.0000,-1.3179 -1.0572,-2.4765 -2.4765 -2.4765ZM 178.0609,325.6598 ZM 177.3513,328.1363 c 0.0000,-0.3910 0.3186,-0.7096 0.7096 -0.7096c 0.3910,-0.0000 0.7096,0.3186 0.7096 0.7096c 0.0000,0.3910 -0.3186,0.7096 -0.7096 0.7096c -0.3910,-0.0000 -0.7096,-0.3186 -0.7096 -0.7096Z"/></g><title>Sun</title></g></a><g><a xlink:href="#zodiac-Pisces"><g stroke-linejoin="miter" stroke-opacity="1.0" fill-opacity="1.0" stroke="rgb(0,0,0)" stroke-width="0.8000018584276473" fill="rgb(173,216,230)" stroke-linecap="butt" stroke-miterlimit="10.0"><path d="M 290.3027,332.0820 l 22.5757,33.0203 c 28.9813,-19.8143 52.2364,-46.9082 67.4278 -78.5586l -36.0612,-17.3086 c -12.1531,25.3203 -30.7572,46.9954 -53.9423 62.8469Z"/></g></a><title>Pisces</title></g><g stroke-linejoin="miter" stroke-opacity="1.0" fill-opacity="1.0" stroke="rgb(0,0,0)" stroke-width="0.8000018584276473" fill="rgb(0,0,0)" stroke-linecap="butt" stroke-miterlimit="10.0"><path d="M 329.5596,323.3506 ZM 340.4213,323.6547 c -1.2600,-1.4337 -2.5851,-3.7364 -2.5851 -6.1912l -2.5199,0.0000 c 0.0000,1.8682 -0.8689,4.2361 -2.5851 6.1912l -1.4120,0.1086 l -0.3259,-0.1086 c 1.7813,-1.8899 2.6937,-3.9319 2.6937 -6.1912l -2.6068,-0.0000 v -0.9993 l 2.6068,0.0000 c -0.1086,-1.9551 -0.9993,-3.8233 -2.6937 -5.6698l 0.7386,-0.0652 l 0.9341,0.0652 c 1.5424,1.6727 2.4113,3.5192 2.6503 5.6698l 2.5199,-0.0000 c 0.2172,-2.1506 1.1079,-3.9971 2.6503 -5.6698l 0.8038,-0.1303 l 0.8907,0.1303 c -1.7161,1.8465 -2.6068,3.7147 -2.7154 5.6698l 2.6068,0.0000 v 0.9993 l -2.6068,-0.0000 c 0.0000,2.2592 0.9124,4.3012 2.7154 6.1912l -0.8907,0.1521 Z"/></g><g><a xlink:href="#zodiac-Aquarius"><g stroke-linejoin="miter" stroke-opacity="1.0" fill-opacity="1.0" stroke="rgb(0,0,0)" stroke-width="0.8000018584276473" fill="rgb(255,255,0)" stroke-linecap="butt" stroke-miterlimit="10.0"><path d="M 212.1639,359.5378 l 3.0410,39.8842 c 35.0057,-2.6690 68.6922,-14.5055 97.6735 -34.3198l -22.5757,-33.0203 c -23.1851,15.8514 -50.1342,25.3206 -78.1388 27.4558Z"/></g></a><title>Aquarius</title></g><g stroke-linejoin="miter" stroke-opacity="1.0" fill-opacity="1.0" stroke="rgb(0,0,0)" stroke-width="0.8000018584276473" fill="rgb(0,0,0)" stroke-linecap="butt" stroke-miterlimit="10.0"><path d="M 250.6446,375.8182 ZM 252.0784,367.6285 l 3.7147,-2.8892 c 0.0652,-0.0434 0.1086,-0.0869 0.1738 -0.0869c 0.0434,-0.0000 0.0869,0.0217 0.1303 0.1086l 1.5858,2.1723 l 2.6503,-2.1723 c 0.0869,-0.0652 0.1303,-0.1086 0.1955 -0.1086c 0.0434,-0.0000 0.0869,0.0434 0.1521 0.1303l 1.5641,2.1506 l 2.6068,-2.1289 c 0.0869,-0.0869 0.1738,-0.1303 0.2172 -0.1303c 0.0434,-0.0000 0.0869,0.0434 0.1738 0.1521l 2.0203,3.2368 l -0.9558,0.5865 l -1.5641,-2.1506 c -0.0652,-0.0869 -0.0869,-0.1303 -0.1303 -0.1303c -0.0434,-0.0000 -0.1303,0.0434 -0.1955 0.1086l -2.5416,2.0854 c -0.0434,0.0434 -0.0869,0.0434 -0.1086 0.0434c -0.0434,-0.0000 -0.0652,-0.0217 -0.1086 -0.0652l -1.4555,-2.0203 c -0.0434,-0.1086 -0.0869,-0.1521 -0.1521 -0.1521c -0.0434,-0.0000 -0.0869,0.0217 -0.1521 0.0652l -2.5634,2.1289 c -0.0434,0.0434 -0.0869,0.0434 -0.1086 0.0434c -0.0434,-0.0000 -0.0652,-0.0217 -0.1086 -0.0652l -1.4772,-2.0637 c -0.0434,-0.0869 -0.0869,-0.1086 -0.1303 -0.1086c -0.0434,-0.0000 -0.0652,0.0217 -0.1303 0.0652l -2.7371,2.2158 ZM 252.0784,367.6285 ZM 252.0784,373.9717 l 3.6930,-2.8892 c 0.0869,-0.0434 0.1303,-0.0869 0.1738 -0.0869c 0.0652,-0.0000 0.1086,0.0434 0.1521 0.1086l 1.5858,2.1723 l 2.6503,-2.1723 c 0.0869,-0.0652 0.1303,-0.1086 0.1738 -0.1086c 0.0652,-0.0000 0.0869,0.0434 0.1738 0.1303l 1.5424,2.1506 l 2.6068,-2.1289 c 0.1086,-0.0869 0.1738,-0.1303 0.2390 -0.1303c 0.0434,-0.0000 0.0869,0.0434 0.1521 0.1521l 2.0420,3.2368 l -0.9558,0.5865 l -1.5641,-2.1506 c -0.0652,-0.0869 -0.0869,-0.1303 -0.1521 -0.1303c -0.0217,-0.0000 -0.1086,0.0652 -0.1738 0.1303l -2.5416,2.0637 c -0.0652,0.0434 -0.0869,0.0652 -0.1086 0.0652c -0.0434,-0.0000 -0.0652,-0.0434 -0.1086 -0.0869l -1.4772,-2.0203 c -0.0434,-0.0869 -0.0652,-0.1521 -0.1303 -0.1521c -0.0434,-0.0000 -0.0869,0.0217 -0.1521 0.0869l -2.5634,2.1072 c -0.0652,0.0434 -0.0869,0.0652 -0.1086 0.0652c -0.0434,-0.0000 -0.0652,-0.0217 -0.1086 -0.0869l -1.4989,-2.0637 c -0.0434,-0.0652 -0.0652,-0.1086 -0.1086 -0.1086c -0.0434,-0.0000 -0.0869,0.0217 -0.1303 0.0652l -2.7371,2.2158 Z"/></g><g><a xlink:href="#zodiac-Capricorn"><g stroke-linejoin="miter" stroke-opacity="1.0" fill-opacity="1.0" stroke="rgb(0,0,0)" stroke-width="0.8000018584276473" fill="rgb(0,100,0)" stroke-linecap="butt" stroke-miterlimit="10.0"><path d="M 130.7658,344.2459 l -17.3086,36.0612 c 31.6503,15.1914 66.7419,21.7839 101.7476 19.1149l -3.0410,-39.8842 c -28.0046,2.1352 -56.0778,-3.1388 -81.3981 -15.2919Z"/></g></a><title>Capricorn</title></g><g stroke-linejoin="miter" stroke-opacity="1.0" fill-opacity="1.0" stroke="rgb(0,0,0)" stroke-width="0.8000018584276473" fill="rgb(0,0,0)" stroke-linecap="butt" stroke-miterlimit="10.0"><path d="M 157.5005,381.9568 ZM 173.1196,378.8938 c -0.0000,-1.1731 -0.6517,-2.2592 -1.7379 -2.2592c -1.2165,-0.0000 -2.0854,1.4120 -2.7806 3.2802c 0.8907,0.9776 1.9986,1.1296 2.9109 1.1296c 0.8255,-0.0000 1.6075,-0.8472 1.6075 -2.1506ZM 173.1196,378.8938 ZM 165.3426,370.5520 c -0.9341,1.0862 -2.5634,3.8668 -2.5634 7.7770l -0.8907,0.2607 l -0.3259,-0.2607 c -0.0000,-2.6503 -0.8255,-5.9522 -1.1948 -6.6474c -0.4996,-0.9558 -0.7386,-1.1079 -1.5858 -1.4772l 0.1955,-0.4779 c 0.9776,0.0217 1.9551,0.4127 2.2810 0.9993c 0.4127,0.7820 0.7603,2.1506 1.0644 4.0188c 0.4779,-2.0637 1.2382,-3.7364 2.3244 -5.0181l 1.6075,-0.3259 c 1.1079,2.4765 1.0427,6.8863 1.5858 8.9066c 0.7820,-1.5206 2.5851,-2.6937 3.9754 -2.6937c 1.8248,-0.0000 2.9327,1.3686 2.9327 3.1933c 0.0000,1.8248 -1.5424,3.1499 -3.2151 3.1499c -1.1731,0.0000 -2.2810,-0.3041 -3.1499 -1.1948c -1.3903,3.6061 -3.0630,3.6495 -4.2143 3.6495l -1.1296,-0.0000 v -1.0210 h 0.5431 c 2.1723,-0.0000 2.5416,-0.6951 3.6713 -3.9754c -0.5865,-1.0210 -0.7169,-1.0210 -1.1296 -4.3012c -0.2824,-2.2158 -0.4127,-3.7799 -0.7820 -4.5619Z"/></g><g><a xlink:href="#zodiac-Sagittarius"><g stroke-linejoin="miter" stroke-opacity="1.0" fill-opacity="1.0" stroke="rgb(0,0,0)" stroke-width="0.8000018584276473" fill="rgb(255,0,0)" stroke-linecap="butt" stroke-miterlimit="10.0"><path d="M 67.9189,290.3036 l -33.0203,22.5757 c 19.8143,28.9813 46.9082,52.2364 78.5586 67.4278l 17.3086,-36.0612 c -25.3203,-12.1531 -46.9954,-30.7572 -62.8469 -53.9423Z"/></g></a><title>Sagittarius</title></g><g stroke-linejoin="miter" stroke-opacity="1.0" fill-opacity="1.0" stroke="rgb(0,0,0)" stroke-width="0.8000018584276473" fill="rgb(0,0,0)" stroke-linecap="butt" stroke-miterlimit="10.0"><path d="M 75.8031,342.4208 ZM 88.5982,330.6685 l 0.1303,0.1521 c -0.1303,0.6951 -0.2172,1.3468 -0.2172 1.9986c 0.0000,1.0210 0.1955,1.9768 0.4779 2.8458l -0.9124,0.2172 c -0.3910,-0.8472 -0.5648,-1.8030 -0.5648 -2.6068c 0.0000,-0.2390 0.0217,-0.4562 0.0434 -0.6517l -5.4526,5.4308 l 2.5851,2.6068 l -0.8689,0.8689 l -2.5851,-2.6285 l -3.8450,3.8016 l -0.8472,-0.8689 l 3.8233,-3.8016 l -2.5851,-2.5851 l 0.8689,-0.8689 l 2.5851,2.6068 l 5.4743,-5.4091 c -0.2390,0.0217 -0.4996,0.0434 -0.7603 0.0434c -0.8038,-0.0000 -1.6727,-0.1521 -2.4547 -0.4345l 0.1738,-0.9124 c 0.7386,0.2390 1.7596,0.3910 2.8675 0.3910c 0.6734,-0.0000 1.3903,-0.0652 2.0637 -0.1955Z"/></g><g><a xlink:href="#zodiac-Scorpio"><g stroke-linejoin="miter" stroke-opacity="1.0" fill-opacity="1.0" stroke="rgb(0,0,0)" stroke-width="0.8000018584276473" fill="rgb(173,216,230)" stroke-linecap="butt" stroke-miterlimit="10.0"><path d="M 40.4631,212.1648 l -39.8842,3.0410 c 2.6690,35.0057 14.5055,68.6922 34.3198 97.6735l 33.0203,-22.5757 c -15.8514,-23.1851 -25.3206,-50.1342 -27.4558 -78.1388Z"/></g></a><title>Scorpio</title></g><g stroke-linejoin="miter" stroke-opacity="1.0" fill-opacity="1.0" stroke="rgb(0,0,0)" stroke-width="0.8000018584276473" fill="rgb(0,0,0)" stroke-linecap="butt" stroke-miterlimit="10.0"><path d="M 22.8033,264.0163 ZM 23.7591,252.1553 l 0.9341,-0.3259 l 0.4996,-0.0434 c 0.4779,0.6951 0.7820,1.4989 0.9558 2.3896c 0.3693,-0.9558 0.8689,-1.7596 1.4337 -2.3896l 1.5641,-0.2607 c 0.5648,0.6517 0.9124,1.5858 1.0644 2.7806c 0.3041,-0.8689 0.8038,-1.6944 1.4989 -2.5199l 1.5858,-0.2607 c 0.6734,0.8907 0.9993,1.9551 0.9993 3.1716v 7.6249 c 0.0000,1.7596 0.1521,2.6720 0.7386 3.2368l 0.5431,0.5431 c 0.1303,0.1303 0.2390,0.1738 0.3041 0.1738c 0.1738,-0.0000 0.2172,-0.2607 0.2172 -0.5214v -0.1955 l 0.3259,-0.3476 l 0.1738,2.6068 l -2.5634,-0.1521 l 0.3476,-0.3693 c 0.0869,0.0217 0.1738,0.0217 0.2390 0.0217c 0.2390,0.0000 0.4345,-0.0434 0.4345 -0.1738c 0.0000,-0.0869 -0.0434,-0.1955 -0.1955 -0.3259l -0.7820,-0.7820 c -0.8472,-0.8038 -1.4120,-1.9334 -1.4120 -3.7147l -0.0000,-6.9732 c -0.0000,-1.2600 -0.1738,-2.1506 -0.5431 -2.6720c -0.9124,1.0427 -1.5424,2.3461 -1.9117 3.9537v 7.1035 l -1.3686,0.6734 l -0.2390,-0.3910 l 0.0000,-8.2332 c 0.0000,-1.4989 -0.1955,-2.5416 -0.5431 -3.1064c -0.8907,0.9776 -1.5206,2.2158 -1.9117 3.6713l 0.0000,7.3859 l -1.3903,0.6734 l -0.2390,-0.3910 l -0.0000,-8.7328 c -0.0000,-1.2600 -0.2607,-2.3027 -0.7603 -3.1282Z"/></g><g><a xlink:href="#zodiac-Libra"><g stroke-linejoin="miter" stroke-opacity="1.0" fill-opacity="1.0" stroke="rgb(0,0,0)" stroke-width="0.8000018584276473" fill="rgb(255,255,0)" stroke-linecap="butt" stroke-miterlimit="10.0"><path d="M 55.7550,130.7667 l -36.0612,-17.3086 c -15.1914,31.6503 -21.7839,66.7419 -19.1149 101.7476l 39.8842,-3.0410 c -2.1352,-28.0046 3.1388,-56.0778 15.2919 -81.3981Z"/></g></a><title>Libra</title></g><g stroke-linejoin="miter" stroke-opacity="1.0" fill-opacity="1.0" stroke="rgb(0,0,0)" stroke-width="0.8000018584276473" fill="rgb(0,0,0)" stroke-linecap="butt" stroke-miterlimit="10.0"><path d="M 15.0789,173.4898 ZM 16.5126,168.5369 c -0.1955,-0.0000 -0.3259,-0.1738 -0.3259 -0.3693c 0.0000,-0.3476 0.2824,-0.8038 0.5431 -0.8038h 3.4323 c -0.6517,-0.6734 -1.1513,-1.3903 -1.1513 -2.2375c 0.0000,-2.0637 1.9334,-3.8450 4.1492 -3.8450c 2.1506,-0.0000 4.0405,1.6510 4.0405 3.8016c -0.0000,0.8472 -0.4996,1.6075 -1.1731 2.2810l 3.6495,-0.0000 c 0.2390,0.0000 0.3259,0.1955 0.3259 0.3693c 0.0000,0.2607 -0.3041,0.8038 -0.5865 0.8038l -5.0615,0.0000 l 0.1086,-1.0862 c 0.9776,-0.4562 1.3468,-1.3468 1.3468 -2.3027c 0.0000,-1.4989 -1.2382,-2.8023 -2.6937 -2.8023c -1.4772,-0.0000 -2.7154,1.3034 -2.7154 2.8023c -0.0000,0.9558 0.3693,1.7596 1.3251 2.3027l -0.1303,1.0862 l -5.0833,0.0000 ZM 16.5126,168.5369 ZM 16.5126,172.2516 c -0.1955,-0.0000 -0.3259,-0.1738 -0.3259 -0.3693c 0.0000,-0.3259 0.2824,-0.7820 0.5431 -0.7820h 12.9254 c 0.2390,0.0000 0.3259,0.1738 0.3259 0.3693c -0.0000,0.2390 -0.3041,0.7820 -0.5865 0.7820h -12.8820 Z"/></g><g><a xlink:href="#zodiac-Virgo"><g stroke-linejoin="miter" stroke-opacity="1.0" fill-opacity="1.0" stroke="rgb(0,0,0)" stroke-width="0.8000018584276473" fill="rgb(0,100,0)" stroke-linecap="butt" stroke-miterlimit="10.0"><path d="M 109.6973,67.9199 l -22.5757,-33.0203 c -28.9813,19.8143 -52.2364,46.9082 -67.4278 78.5586l 36.0612,17.3086 c 12.1531,-25.3203 30.7572,-46.9954 53.9423 -62.8469Z"/></g></a><title>Virgo</title></g><g stroke-linejoin="miter" stroke-opacity="1.0" fill-opacity="1.0" stroke="rgb(0,0,0)" stroke-width="0.8000018584276473" fill="rgb(0,0,0)" stroke-linecap="butt" stroke-miterlimit="10.0"><path d="M 55.1037,86.9482 ZM 66.8126,86.6223 c 1.1296,-1.1296 2.1941,-2.7806 2.1941 -4.9964c 0.0000,-0.9993 -0.2172,-1.9334 -0.6517 -2.8458c -0.6083,0.7386 -1.1513,1.7379 -1.5424 2.9978v 4.8443 ZM 66.8126,86.6223 ZM 62.6851,86.6658 l -1.3903,0.6734 l -0.2390,-0.3910 v -8.1680 c 0.0000,-1.5206 -0.1738,-2.5634 -0.5214 -3.1499c -0.8689,0.9776 -1.5424,2.1941 -1.9768 3.6278l 0.0000,7.4077 l -1.3686,0.6734 l -0.2607,-0.3910 l 0.0000,-8.8849 c 0.0000,-1.0644 -0.2607,-2.0637 -0.7603 -2.9761l 0.9558,-0.3259 l 0.4996,-0.0434 c 0.4562,0.6083 0.7603,1.4120 0.9341 2.4113c 0.4127,-1.0210 0.9558,-1.8248 1.4989 -2.4113l 0.4779,-0.3910 l 0.7169,0.1521 c 0.5431,0.6951 1.2817,1.6510 1.4337 2.8240c 0.2607,-0.8907 0.8255,-1.7596 1.5424 -2.5851l 1.1948,-0.2390 c 0.6517,0.9124 1.3903,1.9334 1.3903 3.0413l 0.0000,2.3461 c 0.3259,-0.9341 0.7169,-1.6727 1.0862 -2.1941l 1.4555,-0.3693 c 0.8689,1.3468 1.3034,2.7589 1.3034 4.2361c 0.0000,2.8675 -2.0854,5.0181 -3.7147 6.3215c 0.0869,1.3686 0.4345,2.0637 1.3034 3.0413l -0.3693,0.3041 c -1.1079,-0.6300 -1.8465,-1.5424 -2.3244 -2.7371c -0.7603,0.4345 -1.7161,0.7386 -2.8023 0.9124l -0.1955,-0.7169 c 1.0862,-0.3259 2.0203,-0.7820 2.7589 -1.2600c -0.0869,-0.5214 -0.1303,-1.0427 -0.1303 -1.5858v -7.4511 c 0.0000,-1.2165 -0.1738,-2.1289 -0.5214 -2.7371c -0.8689,0.9124 -1.5641,2.2375 -1.9768 3.9319v 7.1035 Z"/></g><g><a xlink:href="#zodiac-Leo"><g stroke-linejoin="miter" stroke-opacity="1.0" fill-opacity="1.0" stroke="rgb(0,0,0)" stroke-width="0.8000018584276473" fill="rgb(255,0,0)" stroke-linecap="butt" stroke-miterlimit="10.0"><path d="M 187.8361,40.4640 l -3.0410,-39.8842 c -35.0057,2.6690 -68.6922,14.5055 -97.6735 34.3198l 22.5757,33.0203 c 23.1851,-15.8514 50.1342,-25.3206 78.1388 -27.4558Z"/></g></a><title>Leo</title></g><g stroke-linejoin="miter" stroke-opacity="1.0" fill-opacity="1.0" stroke="rgb(0,0,0)" stroke-width="0.8000018584276473" fill="rgb(0,0,0)" stroke-linecap="butt" stroke-miterlimit="10.0"><path d="M 132.5632,35.0562 ZM 136.7124,29.6688 c -1.2165,-0.0000 -2.2158,0.9993 -2.2158 2.2810c 0.0000,1.3468 0.9993,2.3027 2.2375 2.3027c 1.2382,-0.0000 2.2375,-0.9776 2.2375 -2.2810c -0.0000,-1.2600 -0.9124,-2.3027 -2.2592 -2.3027ZM 136.7124,29.6688 ZM 143.0773,35.7513 c 0.0000,1.0862 0.5865,1.6944 1.2817 1.6944c 0.8907,0.0000 1.4989,-0.2390 2.4113 -1.0862l 0.4779,0.4127 c -1.0210,1.2600 -1.9986,1.8682 -2.9109 1.8682c -1.6727,0.0000 -2.8458,-1.1296 -2.8458 -2.6285c 0.0000,-1.9768 1.2382,-3.6930 2.4113 -4.9964c 1.0862,-1.1731 1.5424,-2.2158 1.5424 -4.3447c 0.0000,-2.0420 -1.7596,-3.9319 -3.8016 -3.9319c -1.9117,-0.0000 -3.5192,1.2165 -3.5192 2.9761c 0.0000,1.5641 0.2172,2.5634 1.1731 3.7364c 0.7169,0.8689 1.0210,1.6510 1.0210 2.4547c -0.0000,1.7813 -1.6510,3.4323 -3.5409 3.4323c -1.8248,0.0000 -3.3671,-1.4120 -3.3671 -3.3888c -0.0000,-1.8465 1.4772,-3.3454 3.3020 -3.3454c 0.3476,-0.0000 0.5431,-0.0000 0.9124 0.0869c -0.8689,-1.1296 -1.1079,-1.9117 -1.1079 -2.7806c 0.0000,-2.4330 2.4765,-4.1926 5.0181 -4.1926c 3.5626,0.0000 5.4526,2.4330 5.4526 4.5619c 0.0000,2.1506 -0.7386,3.8885 -1.9768 5.3005c -1.3686,1.5424 -1.9334,2.8892 -1.9334 4.1709Z"/></g><g><a xlink:href="#zodiac-Cancer"><g stroke-linejoin="miter" stroke-opacity="1.0" fill-opacity="1.0" stroke="rgb(0,0,0)" stroke-width="0.8000018584276473" fill="rgb(173,216,230)" stroke-linecap="butt" stroke-miterlimit="10.0"><path d="M 269.2342,55.7560 l 17.3086,-36.0612 c -31.6503,-15.1914 -66.7419,-21.7839 -101.7476 -19.1149l 3.0410,39.8842 c 28.0046,-2.1352 56.0778,3.1388 81.3981 15.2919Z"/></g></a><title>Cancer</title></g><g stroke-linejoin="miter" stroke-opacity="1.0" fill-opacity="1.0" stroke="rgb(0,0,0)" stroke-width="0.8000018584276473" fill="rgb(0,0,0)" stroke-linecap="butt" stroke-miterlimit="10.0"><path d="M 224.1433,29.8517 ZM 228.5314,24.0081 c 1.3251,-0.0000 2.3027,-1.0644 2.3027 -2.3027c 0.0000,-1.3034 -1.0862,-2.2810 -2.3244 -2.2810c -1.3034,-0.0000 -2.2592,0.9993 -2.2592 2.2592c 0.0000,1.3468 1.0427,2.3244 2.2810 2.3244ZM 228.5314,24.0081 ZM 228.6183,24.8771 c -1.7596,-0.0000 -3.4106,-1.4120 -3.4106 -3.3020c 0.0000,-1.4337 1.0427,-2.3461 2.7154 -3.2585c 1.6510,-0.9124 3.7581,-1.3468 6.2563 -1.3468c 2.1723,-0.0000 4.4967,0.5648 6.9080 1.6510l -0.0434,0.4127 l -0.3910,0.7386 c -2.4330,-1.0644 -4.7791,-1.5858 -7.0384 -1.5858c -1.5641,-0.0000 -2.8458,0.2172 -3.8450 0.6300c 1.6075,0.7820 2.0854,1.7596 2.0854 2.7154c -0.0000,1.7813 -1.3903,3.3454 -3.2368 3.3454ZM 228.6183,24.8771 ZM 237.9376,22.1616 c -1.3251,-0.0000 -2.3027,1.0862 -2.3027 2.3244c -0.0000,1.2165 0.9993,2.2810 2.3244 2.2810c 1.1948,0.0000 2.2592,-0.9124 2.2592 -2.2810c -0.0000,-1.3251 -1.0427,-2.3244 -2.2810 -2.3244ZM 237.9376,22.1616 ZM 237.9593,21.2710 c 1.7813,-0.0000 3.3020,1.3468 3.3020 3.1716c 0.0000,1.4337 -1.0427,2.5199 -2.7154 3.4106c -1.6510,0.9124 -3.7364,1.3686 -6.2563 1.3686c -2.1723,-0.0000 -4.4533,-0.5648 -6.8646 -1.6510l -0.0217,-0.4562 l 0.4127,-0.7169 c 2.4113,1.0644 4.7574,1.6075 7.0384 1.6075c 1.5858,-0.0000 2.8458,-0.2172 3.8450 -0.6300c -1.0427,-0.5214 -2.1072,-1.3468 -2.1072 -2.9327c -0.0000,-1.8248 1.5641,-3.1716 3.3671 -3.1716Z"/></g><g><a xlink:href="#zodiac-Gemini"><g stroke-linejoin="miter" stroke-opacity="1.0" fill-opacity="1.0" stroke="rgb(0,0,0)" stroke-width="0.8000018584276473" fill="rgb(255,255,0)" stroke-linecap="butt" stroke-miterlimit="10.0"><path d="M 332.0811,109.6982 l 33.0203,-22.5757 c -19.8143,-28.9813 -46.9082,-52.2364 -78.5586 -67.4278l -17.3086,36.0612 c 25.3203,12.1531 46.9954,30.7572 62.8469 53.9423Z"/></g></a><title>Gemini</title></g><g stroke-linejoin="miter" stroke-opacity="1.0" fill-opacity="1.0" stroke="rgb(0,0,0)" stroke-width="0.8000018584276473" fill="rgb(0,0,0)" stroke-linecap="butt" stroke-miterlimit="10.0"><path d="M 309.4358,69.5072 ZM 313.4764,68.7034 v -10.5793 c -0.9993,-0.1086 -1.9768,-0.3259 -2.9761 -0.5865v -1.0427 c 1.8248,0.5214 4.0840,0.7820 6.7342 0.7820c 2.6720,-0.0000 4.9095,-0.2607 6.7342 -0.7820v 1.0427 c -0.9776,0.2607 -1.9768,0.4996 -2.9544 0.6300v 10.5358 c 0.9124,0.1303 1.8899,0.3259 2.9544 0.6083v 1.0210 c -2.0854,-0.5431 -4.3230,-0.8255 -6.7342 -0.8255c -2.3896,-0.0000 -4.6488,0.2824 -6.7342 0.8255v -1.0210 c 1.0644,-0.2824 2.0420,-0.4779 2.9761 -0.6083ZM 313.4764,68.7034 ZM 315.0839,68.5948 c 0.6517,-0.0652 1.3686,-0.1086 2.1506 -0.1086c 0.8038,-0.0000 1.5206,0.0434 2.1506 0.1086v -10.3838 c -0.5865,0.0434 -1.3034,0.0652 -2.1506 0.0652c -0.8255,-0.0000 -1.5424,-0.0217 -2.1506 -0.0652v 10.3838 Z"/></g><g><a xlink:href="#zodiac-Taurus"><g stroke-linejoin="miter" stroke-opacity="1.0" fill-opacity="1.0" stroke="rgb(0,0,0)" stroke-width="0.8000018584276473" fill="rgb(0,100,0)" stroke-linecap="butt" stroke-miterlimit="10.0"><path d="M 359.5369,187.8370 l 39.8842,-3.0410 c -2.6690,-35.0057 -14.5055,-68.6922 -34.3198 -97.6735l -33.0203,22.5757 c 15.8514,23.1851 25.3206,50.1342 27.4558 78.1388Z"/></g></a><title>Taurus</title></g><g stroke-linejoin="miter" stroke-opacity="1.0" fill-opacity="1.0" stroke="rgb(0,0,0)" stroke-width="0.8000018584276473" fill="rgb(0,0,0)" stroke-linecap="butt" stroke-miterlimit="10.0"><path d="M 361.2626,145.8045 ZM 369.8216,146.9993 c 2.3244,-0.0000 4.0405,-1.8030 4.0405 -3.9537c 0.0000,-2.2158 -1.7379,-3.9971 -4.0405 -3.9971c -2.1941,-0.0000 -4.0405,1.6944 -4.0405 3.9971c 0.0000,2.1506 1.7161,3.9537 4.0405 3.9537ZM 369.8216,146.9993 ZM 367.4972,138.3534 c -1.0427,-0.4345 -1.5858,-0.8907 -2.4330 -2.4330l -0.4779,-0.8689 c -0.6083,-1.0644 -1.2817,-1.6075 -2.0420 -1.6075h -0.2172 v -1.0210 l 0.6083,0.0000 c 1.0644,-0.0000 2.0420,0.8472 2.9109 2.3678l 0.6734,1.1513 c 0.4562,0.7820 0.9124,1.3251 1.3903 1.6293c 0.4996,0.3041 1.1296,0.4562 1.9117 0.4562c 0.7820,-0.0000 1.4120,-0.1521 1.9117 -0.4562c 0.4779,-0.3041 0.9558,-0.8472 1.3903 -1.6293l 0.6951,-1.1513 c 0.8689,-1.5206 1.8248,-2.3678 2.8892 -2.3678l 0.6083,0.0000 v 1.0210 h -0.2172 c -0.7603,-0.0000 -1.4337,0.5431 -2.0420 1.6075l -0.4779,0.8689 c -0.7603,1.3903 -1.2817,1.9551 -2.4330 2.4330c 1.5858,0.8689 2.9327,2.4330 2.9327 4.6705c 0.0000,2.7806 -2.3678,5.2136 -5.2571 5.2136c -2.8458,0.0000 -5.2571,-2.4113 -5.2571 -5.2136c 0.0000,-2.2375 1.3468,-3.8016 2.9327 -4.6705Z"/></g><g><a xlink:href="#zodiac-Aries"><g stroke-linejoin="miter" stroke-opacity="1.0" fill-opacity="1.0" stroke="rgb(0,0,0)" stroke-width="0.8000018584276473" fill="rgb(255,0,0)" stroke-linecap="butt" stroke-miterlimit="10.0"><path d="M 344.2450,269.2351 l 36.0612,17.3086 c 15.1914,-31.6503 21.7839,-66.7419 19.1149 -101.7476l -39.8842,3.0410 c 2.1352,28.0046 -3.1388,56.0778 -15.2919 81.3981Z"/></g></a><title>Aries</title></g><g stroke-linejoin="miter" stroke-opacity="1.0" fill-opacity="1.0" stroke="rgb(0,0,0)" stroke-width="0.8000018584276473" fill="rgb(0,0,0)" stroke-linecap="butt" stroke-miterlimit="10.0"><path d="M 367.2166,238.4816 ZM 376.1014,241.1102 c 0.0000,-6.9080 -1.8030,-14.9891 -4.6923 -14.9891c -1.0210,-0.0000 -1.7161,0.9776 -1.7161 2.3896c 0.0000,0.9341 0.3041,1.9117 0.9124 2.9109l -0.4779,0.1738 l -1.1731,-0.1738 c -0.5865,-1.0862 -0.8907,-2.0854 -0.8907 -3.0196c 0.0000,-1.9986 1.6075,-3.4106 3.3020 -3.4106c 3.3454,-0.0000 4.8660,5.3874 5.4308 10.1665h 0.2172 c 0.4562,-3.6930 1.7379,-10.1883 5.5612 -10.1883c 1.7813,-0.0000 3.1716,1.4989 3.1716 3.3888c -0.0000,0.9558 -0.3041,1.9768 -0.8907 3.0630l -0.4996,0.1955 l -1.1296,-0.1955 c 0.6083,-1.0862 0.8907,-2.0637 0.8907 -2.9761c 0.0000,-1.4989 -0.6734,-2.4330 -1.7161 -2.4330c -2.8675,-0.0000 -4.6705,8.1245 -4.6705 14.8153l -1.3686,0.6734 Z"/></g></svg>