<?xml version="1.0" encoding="UTF-8"?>
<!DOCTYPE svg PUBLIC "-//W3C//DTD SVG 1.1//EN"
    "http://www.w3.org/Graphics/SVG/1.1/DTD/svg11.dtd"><svg xmlns="http://www.w3.org/2000/svg" height="400.0000" stroke-opacity="1" viewBox="0.0 0.0 400.0 400.00000000000006" font-size="1" width="400.0000" xmlns:xlink="http://www.w3.org/1999/xlink" stroke="rgb(0,0,0)" version="1.1"><defs></defs><g stroke-linejoin="miter" stroke-opacity="1.0" fill-opacity="0.0" stroke="rgb(255,0,0)" stroke-width="0.8000000000000002" fill="rgb(0,0,0)" stroke-linecap="butt" stroke-miterlimit="10.0"><path d="M 105.2592,167.9972 l 51.0230,121.9403 "/></g><g stroke-linejoin="miter" stroke-opacity="1.0" fill-opacity="0.0" stroke="rgb(255,0,0)" stroke-width="0.8000000000000002" fill="rgb(0,0,0)" stroke-linecap="butt" stroke-miterlimit="10.0"><path d="M 105.2592,167.9972 l 192.5224,52.9490 "/></g><g stroke-linejoin="miter" stroke-opacity="1.0" fill-opacity="0.0" stroke="rgb(255,0,0)" stroke-width="0.8000000000000002" fill="rgb(0,0,0)" stroke-linecap="butt" stroke-miterlimit="10.0"><path d="M 105.2592,167.9972 l 188.6200,66.4510 "/></g><g stroke-linejoin="miter" stroke-opacity="1.0" fill-opacity="0.0" stroke="rgb(255,0,0)" stroke-width="0.8000000000000002" fill="rgb(0,0,0)" stroke-linecap="butt" stroke-miterlimit="10.0"><path d="M 105.2592,167.9972 l 190.8573,59.5999 "/></g><g stroke-linejoin="miter" stroke-opacity="1.0" fill-opacity="0.0" stroke="rgb(255,0,0)" stroke-width="0.8000000000000002" fill="rgb(0,0,0)" stroke-linecap="butt" stroke-miterlimit="10.0"><path d="M 105.2592,167.9972 l 182.9097,79.1859 "/></g><g stroke-linejoin="miter" stroke-opacity="1.0" fill-opacity="0.0" stroke="rgb(255,0,0)" stroke-width="0.8000000000000002" fill="rgb(0,0,0)" stroke-linecap="butt" stroke-miterlimit="10.0"><path d="M 156.2823,289.9375 l 137.5970,-55.4893 "/></g><g stroke-linejoin="miter" stroke-opacity="1.0" fill-opacity="0.0" stroke="rgb(255,0,0)" stroke-width="0.8000000000000002" fill="rgb(0,0,0)" stroke-linecap="butt" stroke-miterlimit="10.0"><path d="M 156.2823,289.9375 l 139.8343,-62.3404 "/></g><g stroke-linejoin="miter" stroke-opacity="1.0" fill-opacity="0.0" stroke="rgb(255,0,0)" stroke-width="0.8000000000000002" fill="rgb(0,0,0)" stroke-linecap="butt" stroke-miterlimit="10.0"><path d="M 156.2823,289.9375 l 131.8866,-42.7544 "/></g><g stroke-linejoin="miter" stroke-opacity="1.0" fill-opacity="0.0" stroke="rgb(0,0,255)" stroke-width="0.8000000000000002" fill="rgb(0,0,0)" stroke-linecap="butt" stroke-miterlimit="10.0"><path d="M 156.2823,289.9375 l 141.4914,-110.9207 "/></g><g stroke-linejoin="miter" stroke-opacity="1.0" fill-opacity="0.0" stroke="rgb(255,0,0)" stroke-width="0.8000000000000002" fill="rgb(0,0,0)" stroke-linecap="butt" stroke-miterlimit="10.0"><path d="M 156.2823,289.9375 l 130.5629,-40.3602 "/></g><g stroke-linejoin="miter" stroke-opacity="1.0" fill-opacity="0.0" stroke="rgb(0,0,255)" stroke-width="0.8000000000000002" fill="rgb(0,0,0)" stroke-linecap="butt" stroke-miterlimit="10.0"><path d="M 270.3127,128.8936 l -165.0534,39.1036 "/></g><g stroke-linejoin="miter" stroke-opacity="1.0" fill-opacity="0.0" stroke="rgb(255,0,0)" stroke-width="0.8000000000000002" fill="rgb(0,0,0)" stroke-linecap="butt" stroke-miterlimit="10.0"><path d="M 270.3127,128.8936 l -71.3301,-28.8884 "/></g><g stroke-linejoin="miter" stroke-opacity="1.0" fill-opacity="0.0" stroke="rgb(0,0,255)" stroke-width="0.8000000000000002" fill="rgb(0,0,0)" stroke-linecap="butt" stroke-miterlimit="10.0"><path d="M 238.2358,292.4014 l 61.1105,-80.9863 "/></g><g stroke-linejoin="miter" stroke-opacity="1.0" fill-opacity="0.0" stroke="rgb(0,0,255)" stroke-width="0.8000000000000002" fill="rgb(0,0,0)" stroke-linecap="butt" stroke-miterlimit="10.0"><path d="M 238.2358,292.4014 l 32.0769,-163.5078 "/></g><g stroke-linejoin="miter" stroke-opacity="1.0" fill-opacity="0.0" stroke="rgb(0,0,255)" stroke-width="0.8000000000000002" fill="rgb(0,0,0)" stroke-linecap="butt" stroke-miterlimit="10.0"><path d="M 238.2358,292.4014 l 59.5458,-71.4551 "/></g><g stroke-linejoin="miter" stroke-opacity="1.0" fill-opacity="0.0" stroke="rgb(255,0,0)" stroke-width="0.8000000000000002" fill="rgb(0,0,0)" stroke-linecap="butt" stroke-miterlimit="10.0"><path d="M 238.2358,292.4014 l 55.6434,-57.9532 "/></g><g stroke-linejoin="miter" stroke-opacity="1.0" fill-opacity="0.0" stroke="rgb(0,0,255)" stroke-width="0.8000000000000002" fill="rgb(0,0,0)" stroke-linecap="butt" stroke-miterlimit="10.0"><path d="M 297.7816,220.9462 l 1.5647,-9.5311 "/></g><g stroke-linejoin="miter" stroke-opacity="1.0" fill-opacity="0.0" stroke="rgb(255,0,0)" stroke-width="0.8000000000000002" fill="rgb(0,0,0)" stroke-linecap="butt" stroke-miterlimit="10.0"><path d="M 297.7816,220.9462 l -192.5224,-52.9490 "/></g><g stroke-linejoin="miter" stroke-opacity="1.0" fill-opacity="0.0" stroke="rgb(0,0,255)" stroke-width="0.8000000000000002" fill="rgb(0,0,0)" stroke-linecap="butt" stroke-miterlimit="10.0"><path d="M 297.7816,220.9462 l -27.4690,-92.0527 "/></g><g stroke-linejoin="miter" stroke-opacity="1.0" fill-opacity="0.0" stroke="rgb(255,0,0)" stroke-width="0.8000000000000002" fill="rgb(0,0,0)" stroke-linecap="butt" stroke-miterlimit="10.0"><path d="M 297.7816,220.9462 l -154.0472,-103.6153 "/></g><g stroke-linejoin="miter" stroke-opacity="1.0" fill-opacity="0.0" stroke="rgb(255,0,0)" stroke-width="0.8000000000000002" fill="rgb(0,0,0)" stroke-linecap="butt" stroke-miterlimit="10.0"><path d="M 293.8793,234.4482 l -188.6200,-66.4510 "/></g><g stroke-linejoin="miter" stroke-opacity="1.0" fill-opacity="0.0" stroke="rgb(0,0,255)" stroke-width="0.8000000000000002" fill="rgb(0,0,0)" stroke-linecap="butt" stroke-miterlimit="10.0"><path d="M 293.8793,234.4482 l -23.5666,-105.5546 "/></g><g stroke-linejoin="miter" stroke-opacity="1.0" fill-opacity="0.0" stroke="rgb(0,0,255)" stroke-width="0.8000000000000002" fill="rgb(0,0,0)" stroke-linecap="butt" stroke-miterlimit="10.0"><path d="M 293.8793,234.4482 l 3.9024,-13.5020 "/></g><g stroke-linejoin="miter" stroke-opacity="1.0" fill-opacity="0.0" stroke="rgb(0,0,255)" stroke-width="0.8000000000000002" fill="rgb(0,0,0)" stroke-linecap="butt" stroke-miterlimit="10.0"><path d="M 293.8793,234.4482 l 2.2373,-6.8511 "/></g><g stroke-linejoin="miter" stroke-opacity="1.0" fill-opacity="0.0" stroke="rgb(0,0,255)" stroke-width="0.8000000000000002" fill="rgb(0,0,0)" stroke-linecap="butt" stroke-miterlimit="10.0"><path d="M 293.8793,234.4482 l -150.1448,-117.1173 "/></g><g stroke-linejoin="miter" stroke-opacity="1.0" fill-opacity="0.0" stroke="rgb(0,0,255)" stroke-width="0.8000000000000002" fill="rgb(0,0,0)" stroke-linecap="butt" stroke-miterlimit="10.0"><path d="M 293.8793,234.4482 l -94.8967,-134.4430 "/></g><g stroke-linejoin="miter" stroke-opacity="1.0" fill-opacity="0.0" stroke="rgb(0,128,0)" stroke-width="0.8000000000000002" fill="rgb(0,0,0)" stroke-linecap="butt" stroke-miterlimit="10.0"><path d="M 293.8793,234.4482 l 3.8945,-55.4314 "/></g><g stroke-linejoin="miter" stroke-opacity="1.0" fill-opacity="0.0" stroke="rgb(0,0,255)" stroke-width="0.8000000000000002" fill="rgb(0,0,0)" stroke-linecap="butt" stroke-miterlimit="10.0"><path d="M 296.1166,227.5971 l 3.2297,-16.1820 "/></g><g stroke-linejoin="miter" stroke-opacity="1.0" fill-opacity="0.0" stroke="rgb(255,0,0)" stroke-width="0.8000000000000002" fill="rgb(0,0,0)" stroke-linecap="butt" stroke-miterlimit="10.0"><path d="M 296.1166,227.5971 l -190.8573,-59.5999 "/></g><g stroke-linejoin="miter" stroke-opacity="1.0" fill-opacity="0.0" stroke="rgb(0,0,255)" stroke-width="0.8000000000000002" fill="rgb(0,0,0)" stroke-linecap="butt" stroke-miterlimit="10.0"><path d="M 296.1166,227.5971 l -25.8039,-98.7035 "/></g><g stroke-linejoin="miter" stroke-opacity="1.0" fill-opacity="0.0" stroke="rgb(0,0,255)" stroke-width="0.8000000000000002" fill="rgb(0,0,0)" stroke-linecap="butt" stroke-miterlimit="10.0"><path d="M 296.1166,227.5971 l 1.6651,-6.6509 "/></g><g stroke-linejoin="miter" stroke-opacity="1.0" fill-opacity="0.0" stroke="rgb(0,128,0)" stroke-width="0.8000000000000002" fill="rgb(0,0,0)" stroke-linecap="butt" stroke-miterlimit="10.0"><path d="M 296.1166,227.5971 l 1.6571,-48.5803 "/></g><g stroke-linejoin="miter" stroke-opacity="1.0" fill-opacity="0.0" stroke="rgb(0,0,255)" stroke-width="0.8000000000000002" fill="rgb(0,0,0)" stroke-linecap="butt" stroke-miterlimit="10.0"><path d="M 143.7344,117.3309 l 12.5478,172.6066 "/></g><g stroke-linejoin="miter" stroke-opacity="1.0" fill-opacity="0.0" stroke="rgb(0,0,255)" stroke-width="0.8000000000000002" fill="rgb(0,0,0)" stroke-linecap="butt" stroke-miterlimit="10.0"><path d="M 198.9826,100.0052 l -93.7234,67.9920 "/></g><g stroke-linejoin="miter" stroke-opacity="1.0" fill-opacity="0.0" stroke="rgb(255,0,0)" stroke-width="0.8000000000000002" fill="rgb(0,0,0)" stroke-linecap="butt" stroke-miterlimit="10.0"><path d="M 288.1689,247.1831 l -182.9097,-79.1859 "/></g><g stroke-linejoin="miter" stroke-opacity="1.0" fill-opacity="0.0" stroke="rgb(0,0,255)" stroke-width="0.8000000000000002" fill="rgb(0,0,0)" stroke-linecap="butt" stroke-miterlimit="10.0"><path d="M 288.1689,247.1831 l -17.8562,-118.2895 "/></g><g stroke-linejoin="miter" stroke-opacity="1.0" fill-opacity="0.0" stroke="rgb(0,0,255)" stroke-width="0.8000000000000002" fill="rgb(0,0,0)" stroke-linecap="butt" stroke-miterlimit="10.0"><path d="M 288.1689,247.1831 l 5.7104,-12.7349 "/></g><g stroke-linejoin="miter" stroke-opacity="1.0" fill-opacity="0.0" stroke="rgb(0,128,0)" stroke-width="0.8000000000000002" fill="rgb(0,0,0)" stroke-linecap="butt" stroke-miterlimit="10.0"><path d="M 288.1689,247.1831 l -144.4344,-129.8522 "/></g><g stroke-linejoin="miter" stroke-opacity="1.0" fill-opacity="0.0" stroke="rgb(0,0,255)" stroke-width="0.8000000000000002" fill="rgb(0,0,0)" stroke-linecap="butt" stroke-miterlimit="10.0"><path d="M 288.1689,247.1831 l -89.1863,-147.1779 "/></g><g stroke-linejoin="miter" stroke-opacity="1.0" fill-opacity="0.0" stroke="rgb(0,128,0)" stroke-width="0.8000000000000002" fill="rgb(0,0,0)" stroke-linecap="butt" stroke-miterlimit="10.0"><path d="M 297.7737,179.0168 l -192.5145,-11.0196 "/></g><g stroke-linejoin="miter" stroke-opacity="1.0" fill-opacity="0.0" stroke="rgb(0,0,255)" stroke-width="0.8000000000000002" fill="rgb(0,0,0)" stroke-linecap="butt" stroke-miterlimit="10.0"><path d="M 297.7737,179.0168 l -154.0393,-61.6859 "/></g><g stroke-linejoin="miter" stroke-opacity="1.0" fill-opacity="0.0" stroke="rgb(0,0,255)" stroke-width="0.8000000000000002" fill="rgb(0,0,0)" stroke-linecap="butt" stroke-miterlimit="10.0"><path d="M 286.8452,249.5773 l 7.0341,-15.1291 "/></g><g stroke-linejoin="miter" stroke-opacity="1.0" fill-opacity="0.0" stroke="rgb(0,0,255)" stroke-width="0.8000000000000002" fill="rgb(0,0,0)" stroke-linecap="butt" stroke-miterlimit="10.0"><path d="M 286.8452,249.5773 l -87.8626,-149.5721 "/></g><g stroke-linejoin="miter" stroke-opacity="1.0" fill-opacity="0.0" stroke="rgb(0,0,255)" stroke-width="0.8000000000000002" fill="rgb(0,0,0)" stroke-linecap="butt" stroke-miterlimit="10.0"><path d="M 286.8452,249.5773 l 1.3237,-2.3942 "/></g><g stroke-linejoin="miter" stroke-opacity="1.0" fill-opacity="0.0" stroke="rgb(255,0,0)" stroke-width="0.8000000000000002" fill="rgb(0,0,0)" stroke-linecap="butt" stroke-miterlimit="10.0"><path d="M 299.3463,211.4151 l -100.3637,-111.4099 "/></g><g stroke-linejoin="miter" stroke-opacity="1.0" fill-opacity="1.0" font-size="9.999996560614559px" stroke="rgb(0,0,0)" stroke-width="1.6000000000000003" fill="rgb(0,0,0)" stroke-linecap="butt" stroke-miterlimit="10.0"><text dominant-baseline="middle" transform="matrix(1.0000,0.0000,-0.0000,1.0000,195.8203,50.0583)" stroke="none" text-anchor="middle">MC</text></g><g stroke-linejoin="miter" stroke-opacity="1.0" fill-opacity="1.0" font-size="9.999996560614559px" stroke="rgb(0,0,0)" stroke-width="1.6000000000000003" fill="rgb(0,0,0)" stroke-linecap="butt" stroke-miterlimit="10.0"><text dominant-baseline="middle" transform="matrix(1.0000,0.0000,-0.0000,1.0000,50.3654,210.4635)" stroke="none" text-anchor="middle">Asc</text></g><a xlink:href="#house-XII"><g stroke-linejoin="miter" stroke-opacity="1.0" fill-opacity="0.0" stroke="rgb(128,128,128)" stroke-width="0.8000000000000002" fill="rgb(0,0,0)" stroke-linecap="butt" stroke-miterlimit="10.0"><path d="M 112.6882,151.2491 l -52.3871,-29.2505 c -13.3123,23.8421 -20.3011,50.6946 -20.3011 78.0014l 60.0000,0.0000 c 0.0000,-17.0668 4.3680,-33.8496 12.6882 -48.7509Z"/></g></a><g stroke-linejoin="miter" stroke-opacity="1.0" fill-opacity="1.0" font-size="9.999996560614559px" stroke="rgb(0,0,0)" stroke-width="1.6000000000000003" fill="rgb(128,128,128)" stroke-linecap="butt" stroke-miterlimit="10.0"><text dominant-baseline="middle" transform="matrix(1.0000,0.0000,-0.0000,1.0000,99.6487,154.9488)" stroke="none" text-anchor="middle">12</text></g><a xlink:href="#house-XI"><g stroke-linejoin="miter" stroke-opacity="1.0" fill-opacity="0.0" stroke="rgb(128,128,128)" stroke-width="0.8000000000000002" fill="rgb(0,0,0)" stroke-linecap="butt" stroke-miterlimit="10.0"><path d="M 149.8825,113.4655 l -30.0705,-51.9207 c -24.9149,14.4298 -45.4745,35.3152 -59.5108 60.4538l 52.3871,29.2505 c 8.7727,-15.7117 21.6224,-28.7650 37.1942 -37.7836Z"/></g></a><g stroke-linejoin="miter" stroke-opacity="1.0" fill-opacity="1.0" font-size="9.999996560614559px" stroke="rgb(0,0,0)" stroke-width="1.6000000000000003" fill="rgb(128,128,128)" stroke-linecap="butt" stroke-miterlimit="10.0"><text dominant-baseline="middle" transform="matrix(1.0000,0.0000,-0.0000,1.0000,136.7843,109.9791)" stroke="none" text-anchor="middle">11</text></g><a xlink:href="#house-X"><g stroke-linejoin="miter" stroke-opacity="1.0" fill-opacity="0.0" stroke="rgb(128,128,128)" stroke-width="0.8000000000000002" fill="rgb(0,0,0)" stroke-linecap="butt" stroke-miterlimit="10.0"><path d="M 204.1933,100.0880 l 2.5160,-59.9472 c -30.4121,-1.2764 -60.5572,6.1488 -86.8973 21.4040l 30.0705,51.9207 c 16.4626,-9.5345 35.3033,-14.1752 54.3108 -13.3775Z"/></g></a><g stroke-linejoin="miter" stroke-opacity="1.0" fill-opacity="1.0" font-size="9.999996560614559px" stroke="rgb(0,0,0)" stroke-width="1.6000000000000003" fill="rgb(128,128,128)" stroke-linecap="butt" stroke-miterlimit="10.0"><text dominant-baseline="middle" transform="matrix(1.0000,0.0000,-0.0000,1.0000,195.0164,90.1130)" stroke="none" text-anchor="middle">10</text></g><a xlink:href="#house-IX"><g stroke-linejoin="miter" stroke-opacity="1.0" fill-opacity="0.0" stroke="rgb(128,128,128)" stroke-width="0.8000000000000002" fill="rgb(0,0,0)" stroke-linecap="butt" stroke-miterlimit="10.0"><path d="M 256.6479,117.5924 l 33.9887,-49.4445 c -24.7871,-17.0389 -53.8752,-26.7458 -83.9274 -28.0071l -2.5160,59.9472 c 18.7826,0.7883 36.9627,6.8551 52.4546 17.5044Z"/></g></a><g stroke-linejoin="miter" stroke-opacity="1.0" fill-opacity="1.0" font-size="9.999996560614559px" stroke="rgb(0,0,0)" stroke-width="1.6000000000000003" fill="rgb(128,128,128)" stroke-linecap="butt" stroke-miterlimit="10.0"><text dominant-baseline="middle" transform="matrix(1.0000,0.0000,-0.0000,1.0000,254.1750,104.2657)" stroke="none" text-anchor="middle">9</text></g><a xlink:href="#house-VIII"><g stroke-linejoin="miter" stroke-opacity="1.0" fill-opacity="0.0" stroke="rgb(128,128,128)" stroke-width="0.8000000000000002" fill="rgb(0,0,0)" stroke-linecap="butt" stroke-miterlimit="10.0"><path d="M 289.6765,155.7493 l 53.8059,-26.5504 c -12.1061,-24.5336 -30.3007,-45.5533 -52.8457 -61.0510l -33.9887,49.4445 c 14.0906,9.6861 25.4623,22.8234 33.0286 38.1569Z"/></g></a><g stroke-linejoin="miter" stroke-opacity="1.0" fill-opacity="1.0" font-size="9.999996560614559px" stroke="rgb(0,0,0)" stroke-width="1.6000000000000003" fill="rgb(128,128,128)" stroke-linecap="butt" stroke-miterlimit="10.0"><text dominant-baseline="middle" transform="matrix(1.0000,0.0000,-0.0000,1.0000,294.0264,142.9121)" stroke="none" text-anchor="middle">8</text></g><a xlink:href="#house-VII"><g stroke-linejoin="miter" stroke-opacity="1.0" fill-opacity="0.0" stroke="rgb(128,128,128)" stroke-width="0.8000000000000002" fill="rgb(0,0,0)" stroke-linecap="butt" stroke-miterlimit="10.0"><path d="M 300.0000,200.0000 l 60.0000,-0.0000 c -0.0000,-24.5552 -5.6517,-48.7809 -16.5176 -70.8011l -53.8059,26.5504 c 6.7911,13.7626 10.3235,28.9037 10.3235 44.2507Z"/></g></a><g stroke-linejoin="miter" stroke-opacity="1.0" fill-opacity="1.0" font-size="9.999996560614559px" stroke="rgb(0,0,0)" stroke-width="1.6000000000000003" fill="rgb(128,128,128)" stroke-linecap="butt" stroke-miterlimit="10.0"><text dominant-baseline="middle" transform="matrix(1.0000,0.0000,-0.0000,1.0000,309.5814,190.4129)" stroke="none" text-anchor="middle">7</text></g><a xlink:href="#house-VI"><g stroke-linejoin="miter" stroke-opacity="1.0" fill-opacity="0.0" stroke="rgb(128,128,128)" stroke-width="0.8000000000000002" fill="rgb(0,0,0)" stroke-linecap="butt" stroke-miterlimit="10.0"><path d="M 287.3118,248.7509 l 52.3871,29.2505 c 13.3123,-23.8421 20.3011,-50.6946 20.3011 -78.0014h -60.0000 c 0.0000,17.0668 -4.3680,33.8496 -12.6882 48.7509Z"/></g></a><g stroke-linejoin="miter" stroke-opacity="1.0" fill-opacity="1.0" font-size="9.999996560614559px" stroke="rgb(0,0,0)" stroke-width="1.6000000000000003" fill="rgb(128,128,128)" stroke-linecap="butt" stroke-miterlimit="10.0"><text dominant-baseline="middle" transform="matrix(1.0000,0.0000,-0.0000,1.0000,300.3513,245.0512)" stroke="none" text-anchor="middle">6</text></g><a xlink:href="#house-V"><g stroke-linejoin="miter" stroke-opacity="1.0" fill-opacity="0.0" stroke="rgb(128,128,128)" stroke-width="0.8000000000000002" fill="rgb(0,0,0)" stroke-linecap="butt" stroke-miterlimit="10.0"><path d="M 250.1175,286.5345 l 30.0705,51.9207 c 24.9149,-14.4298 45.4745,-35.3152 59.5108 -60.4538l -52.3871,-29.2505 c -8.7727,15.7117 -21.6224,28.7650 -37.1942 37.7836Z"/></g></a><g stroke-linejoin="miter" stroke-opacity="1.0" fill-opacity="1.0" font-size="9.999996560614559px" stroke="rgb(0,0,0)" stroke-width="1.6000000000000003" fill="rgb(128,128,128)" stroke-linecap="butt" stroke-miterlimit="10.0"><text dominant-baseline="middle" transform="matrix(1.0000,0.0000,-0.0000,1.0000,263.2157,290.0209)" stroke="none" text-anchor="middle">5</text></g><a xlink:href="#house-IV"><g stroke-linejoin="miter" stroke-opacity="1.0" fill-opacity="0.0" stroke="rgb(128,128,128)" stroke-width="0.8000000000000002" fill="rgb(0,0,0)" stroke-linecap="butt" stroke-miterlimit="10.0"><path d="M 195.8067,299.9120 l -2.5160,59.9472 c 30.4121,1.2764 60.5572,-6.1488 86.8973 -21.4040l -30.0705,-51.9207 c -16.4626,9.5345 -35.3033,14.1752 -54.3108 13.3775Z"/></g></a><g stroke-linejoin="miter" stroke-opacity="1.0" fill-opacity="1.0" font-size="9.999996560614559px" stroke="rgb(0,0,0)" stroke-width="1.6000000000000003" fill="rgb(128,128,128)" stroke-linecap="butt" stroke-miterlimit="10.0"><text dominant-baseline="middle" transform="matrix(1.0000,0.0000,-0.0000,1.0000,204.9836,309.8870)" stroke="none" text-anchor="middle">4</text></g><a xlink:href="#house-III"><g stroke-linejoin="miter" stroke-opacity="1.0" fill-opacity="0.0" stroke="rgb(128,128,128)" stroke-width="0.8000000000000002" fill="rgb(0,0,0)" stroke-linecap="butt" stroke-miterlimit="10.0"><path d="M 143.3521,282.4076 l -33.9887,49.4445 c 24.7871,17.0389 53.8752,26.7458 83.9274 28.0071l 2.5160,-59.9472 c -18.7826,-0.7883 -36.9627,-6.8551 -52.4546 -17.5044Z"/></g></a><g stroke-linejoin="miter" stroke-opacity="1.0" fill-opacity="1.0" font-size="9.999996560614559px" stroke="rgb(0,0,0)" stroke-width="1.6000000000000003" fill="rgb(128,128,128)" stroke-linecap="butt" stroke-miterlimit="10.0"><text dominant-baseline="middle" transform="matrix(1.0000,0.0000,-0.0000,1.0000,145.8250,295.7343)" stroke="none" text-anchor="middle">3</text></g><a xlink:href="#house-II"><g stroke-linejoin="miter" stroke-opacity="1.0" fill-opacity="0.0" stroke="rgb(128,128,128)" stroke-width="0.8000000000000002" fill="rgb(0,0,0)" stroke-linecap="butt" stroke-miterlimit="10.0"><path d="M 110.3235,244.2507 l -53.8059,26.5504 c 12.1061,24.5336 30.3007,45.5533 52.8457 61.0510l 33.9887,-49.4445 c -14.0906,-9.6861 -25.4623,-22.8234 -33.0286 -38.1569Z"/></g></a><g stroke-linejoin="miter" stroke-opacity="1.0" fill-opacity="1.0" font-size="9.999996560614559px" stroke="rgb(0,0,0)" stroke-width="1.6000000000000003" fill="rgb(128,128,128)" stroke-linecap="butt" stroke-miterlimit="10.0"><text dominant-baseline="middle" transform="matrix(1.0000,0.0000,-0.0000,1.0000,105.9736,257.0879)" stroke="none" text-anchor="middle">2</text></g><a xlink:href="#house-I"><g stroke-linejoin="miter" stroke-opacity="1.0" fill-opacity="0.0" stroke="rgb(128,128,128)" stroke-width="0.8000000000000002" fill="rgb(0,0,0)" stroke-linecap="butt" stroke-miterlimit="10.0"><path d="M 100.0000,200.0000 l -60.0000,0.0000 c 0.0000,24.5552 5.6517,48.7809 16.5176 70.8011l 53.8059,-26.5504 c -6.7911,-13.7626 -10.3235,-28.9037 -10.3235 -44.2507Z"/></g></a><g stroke-linejoin="miter" stroke-opacity="1.0" fill-opacity="1.0" font-size="9.999996560614559px" stroke="rgb(0,0,0)" stroke-width="1.6000000000000003" fill="rgb(128,128,128)" stroke-linecap="butt" stroke-miterlimit="10.0"><text dominant-baseline="middle" transform="matrix(1.0000,0.0000,-0.0000,1.0000,90.4186,209.5871)" stroke="none" text-anchor="middle">1</text></g><g stroke-linejoin="miter" stroke-opacity="1.0" fill-opacity="0.0" stroke="rgb(0,0,0)" stroke-width="0.8000000000000002" fill="rgb(0,0,0)" stroke-linecap="butt" stroke-miterlimit="10.0"><path d="M 48.4148,148.7955 l 5.6844,1.9202 "/></g><g stroke-linejoin="miter" stroke-opacity="1.0" fill-opacity="0.0" stroke="rgb(0,0,0)" stroke-width="0.8000000000000002" fill="rgb(0,0,0)" stroke-linecap="butt" stroke-miterlimit="10.0"><path d="M 105.2592,167.9972 l -5.6844,-1.9202 "/></g><a xlink:href="#Chiron"><g><g stroke-linejoin="miter" stroke-opacity="1.0" fill-opacity="1.0" stroke="rgb(0,0,0)" stroke-width="0.5" fill="rgb(0,0,0)" stroke-linecap="butt" stroke-miterlimit="10.0"><path d="M 72.9310,162.3024 ZM 80.1036,163.2038 c 0.0000,1.0863 -1.1402,1.7103 -1.1402 1.7103c -0.9476,0.5162 -2.1263,0.5162 -2.1263 0.5162c -1.1633,-0.0000 -2.1186,-0.5239 -2.1186 -0.5239c -1.1479,-0.6317 -1.1479,-1.7026 -1.1479 -1.7026c -0.0000,-0.9630 0.9168,-1.5716 0.9168 -1.5716c 0.7627,-0.5008 1.8644,-0.6240 1.8644 -0.6240v -9.6456 h 0.9630 l 0.0000,2.1495 l 1.9260,-1.8182 l 0.6626,0.7011 l -2.1186,1.9954 l 2.1186,2.0031 l -0.6626,0.7011 l -1.9260,-1.8259 v 5.7396 c 1.0940,0.1233 1.8644,0.6317 1.8644 0.6317c 0.9245,0.6086 0.9245,1.5639 0.9245 1.5639ZM 80.1036,163.2038 ZM 79.1405,163.2038 c 0.0000,-0.6009 -0.8860,-0.9707 -0.8860 -0.9707c -0.7011,-0.2928 -1.4176,-0.2928 -1.4176 -0.2928c -0.7319,-0.0000 -1.4176,0.2851 -1.4176 0.2851c -0.8860,0.3621 -0.8860,0.9784 -0.8860 0.9784c 0.0000,0.6009 0.8860,0.9707 0.8860 0.9707c 0.7011,0.2928 1.4176,0.2928 1.4176 0.2928c 0.7319,-0.0000 1.4176,-0.2851 1.4176 -0.2851c 0.8860,-0.3621 0.8860,-0.9784 0.8860 -0.9784Z"/></g><title>Chiron</title></g></a><g stroke-linejoin="miter" stroke-opacity="1.0" fill-opacity="0.0" stroke="rgb(0,0,0)" stroke-width="0.8000000000000002" fill="rgb(0,0,0)" stroke-linecap="butt" stroke-miterlimit="10.0"><path d="M 130.0516,343.9000 l 2.6231,-5.3962 "/></g><g stroke-linejoin="miter" stroke-opacity="1.0" fill-opacity="0.0" stroke="rgb(0,0,0)" stroke-width="0.8000000000000002" fill="rgb(0,0,0)" stroke-linecap="butt" stroke-miterlimit="10.0"><path d="M 156.2823,289.9375 l -2.6231,5.3962 "/></g><a xlink:href="#Lilith"><g><g stroke-linejoin="miter" stroke-opacity="1.0" fill-opacity="1.0" stroke="rgb(0,0,0)" stroke-width="0.5" fill="rgb(0,0,0)" stroke-linecap="butt" stroke-miterlimit="10.0"><path d="M 138.4135,321.2562 ZM 146.5876,319.1761 c -0.9091,0.2311 -1.6487,0.2311 -1.6487 0.2311c -0.7242,-0.0000 -1.4407,-0.2157 -1.4407 -0.2157v 2.0647 h 2.2804 l 0.0000,0.9630 h -2.2804 l -0.0000,2.1957 h -0.9630 l 0.0000,-2.1957 h -2.2804 l -0.0000,-0.9630 h 2.2804 v -2.4576 c -1.2481,-0.6626 -2.0031,-1.8105 -2.0031 -1.8105c -0.7858,-1.2018 -0.7858,-2.5732 -0.7858 -2.5732c 0.0000,-2.0339 1.5871,-3.5285 1.5871 -3.5285c 1.5562,-1.4638 3.6055,-1.4638 3.6055 -1.4638c 0.7396,-0.0000 1.6487,0.2311 1.6487 0.2311l -0.0077,0.0616 c -1.5562,0.0154 -2.5655,1.6333 -2.5655 1.6333c -0.8783,1.4099 -0.8783,3.0663 -0.8783 3.0663c -0.0000,1.6564 0.8783,3.0663 0.8783 3.0663c 1.0092,1.6179 2.5655,1.6333 2.5655 1.6333Z"/></g><title>Lilith</title></g></a><g stroke-linejoin="miter" stroke-opacity="1.0" fill-opacity="0.0" stroke="rgb(0,0,0)" stroke-width="0.8000000000000002" fill="rgb(0,0,0)" stroke-linecap="butt" stroke-miterlimit="10.0"><path d="M 312.5003,86.2297 l -4.2188,4.2664 "/></g><g stroke-linejoin="miter" stroke-opacity="1.0" fill-opacity="0.0" stroke="rgb(0,0,0)" stroke-width="0.8000000000000002" fill="rgb(0,0,0)" stroke-linecap="butt" stroke-miterlimit="10.0"><path d="M 270.3127,128.8936 l 4.2188,-4.2664 "/></g><a xlink:href="#MeanNode"><g><g stroke-linejoin="miter" stroke-opacity="1.0" fill-opacity="1.0" stroke="rgb(0,0,0)" stroke-width="0.5" fill="rgb(0,0,0)" stroke-linecap="butt" stroke-miterlimit="10.0"><path d="M 284.0374,112.3999 ZM 298.3441,109.9191 c 0.0000,1.1325 -0.7897,1.9222 -0.7897 1.9222c -0.7897,0.7897 -1.9222,0.7897 -1.9222 0.7897c -1.1325,0.0000 -1.9222,-0.7897 -1.9222 -0.7897c -0.7897,-0.7897 -0.7897,-1.9222 -0.7897 -1.9222c 0.0000,-1.0863 0.7512,-1.8721 0.7512 -1.8721c 0.7512,-0.7858 1.8374,-0.8398 1.8374 -0.8398c -0.2465,-1.7488 -1.2789,-2.8968 -1.2789 -2.8968c -1.1402,-1.2789 -2.8197,-1.2789 -2.8197 -1.2789c -1.6795,-0.0000 -2.8197,1.2789 -2.8197 1.2789c -1.0324,1.1479 -1.2789,2.8968 -1.2789 2.8968c 1.0863,0.0539 1.8374,0.8398 1.8374 0.8398c 0.7512,0.7858 0.7512,1.8721 0.7512 1.8721c 0.0000,1.1325 -0.7897,1.9222 -0.7897 1.9222c -0.7897,0.7897 -1.9222,0.7897 -1.9222 0.7897c -1.1325,0.0000 -1.9260,-0.7897 -1.9260 -0.7897c -0.7935,-0.7897 -0.7935,-1.9222 -0.7935 -1.9222c 0.0000,-1.0015 0.6471,-1.7643 0.6471 -1.7643c 0.6471,-0.7627 1.6410,-0.9168 1.6410 -0.9168c 0.2388,-1.9954 1.4253,-3.3128 1.4253 -3.3128c 1.2943,-1.4330 3.2280,-1.4330 3.2280 -1.4330c 1.9337,-0.0000 3.2280,1.4330 3.2280 1.4330c 1.1864,1.3174 1.4253,3.3128 1.4253 3.3128c 0.9861,0.1541 1.6333,0.9168 1.6333 0.9168c 0.6471,0.7627 0.6471,1.7643 0.6471 1.7643ZM 298.3441,109.9191 ZM 297.5736,109.9191 c 0.0000,-0.8166 -0.5624,-1.3790 -0.5624 -1.3790c -0.5624,-0.5624 -1.3790,-0.5624 -1.3790 -0.5624c -0.8089,-0.0000 -1.3790,0.5663 -1.3790 0.5663c -0.5701,0.5663 -0.5701,1.3752 -0.5701 1.3752c 0.0000,0.8166 0.5663,1.3790 0.5663 1.3790c 0.5663,0.5624 1.3829,0.5624 1.3829 0.5624c 0.8089,-0.0000 1.3752,-0.5663 1.3752 -0.5663c 0.5663,-0.5663 0.5663,-1.3752 0.5663 -1.3752ZM 297.5736,109.9191 ZM 289.1299,109.9191 c 0.0000,-0.8089 -0.5663,-1.3752 -0.5663 -1.3752c -0.5663,-0.5663 -1.3752,-0.5663 -1.3752 -0.5663c -0.8166,-0.0000 -1.3790,0.5624 -1.3790 0.5624c -0.5624,0.5624 -0.5624,1.3790 -0.5624 1.3790c 0.0000,0.8089 0.5663,1.3752 0.5663 1.3752c 0.5663,0.5663 1.3752,0.5663 1.3752 0.5663c 0.8166,-0.0000 1.3790,-0.5624 1.3790 -0.5624c 0.5624,-0.5624 0.5624,-1.3790 0.5624 -1.3790Z"/></g><title>MeanNode</title></g></a><g stroke-linejoin="miter" stroke-opacity="1.0" fill-opacity="0.0" stroke="rgb(0,0,0)" stroke-width="0.8000000000000002" fill="rgb(0,0,0)" stroke-linecap="butt" stroke-miterlimit="10.0"><path d="M 261.1773,347.8422 l -2.2941,-5.5441 "/></g><g stroke-linejoin="miter" stroke-opacity="1.0" fill-opacity="0.0" stroke="rgb(0,0,0)" stroke-width="0.8000000000000002" fill="rgb(0,0,0)" stroke-linecap="butt" stroke-miterlimit="10.0"><path d="M 238.2358,292.4014 l 2.2941,5.5441 "/></g><a xlink:href="#Pluto"><g><g stroke-linejoin="miter" stroke-opacity="1.0" fill-opacity="1.0" stroke="rgb(0,0,0)" stroke-width="0.5" fill="rgb(0,0,0)" stroke-linecap="butt" stroke-miterlimit="10.0"><path d="M 246.0860,323.9668 ZM 250.0396,320.0711 l 0.0000,4.1274 l 2.5199,-0.0869 l 0.0579,0.1883 l -0.1303,0.5214 l -3.4757,0.0724 v -4.8516 l -1.1875,-0.0434 v 3.8668 l -0.6662,0.3041 l -0.3621,-0.2028 v -8.5011 l 3.0268,-0.1159 c 1.4772,-0.0000 2.5923,0.7241 2.5923 2.1434c 0.0000,1.4917 -1.0138,2.5344 -2.3751 2.5778ZM 250.0396,320.0711 ZM 251.3575,317.5078 c -0.0000,-1.1007 -0.9703,-1.4482 -1.6220 -1.4482l -1.9117,0.1159 v 3.1137 l 1.1875,0.0434 l 0.0000,-1.4048 l 0.7386,-0.2462 l 0.2896,0.0579 v 1.6075 c 0.7820,-0.1303 1.3179,-0.9413 1.3179 -1.8392Z"/></g><title>Pluto</title></g></a><g stroke-linejoin="miter" stroke-opacity="1.0" fill-opacity="0.0" stroke="rgb(0,0,0)" stroke-width="0.8000000000000002" fill="rgb(0,0,0)" stroke-linecap="butt" stroke-miterlimit="10.0"><path d="M 356.4506,233.5140 l -5.8669,-1.2568 "/></g><g stroke-linejoin="miter" stroke-opacity="1.0" fill-opacity="0.0" stroke="rgb(0,0,0)" stroke-width="0.8000000000000002" fill="rgb(0,0,0)" stroke-linecap="butt" stroke-miterlimit="10.0"><path d="M 297.7816,220.9462 l 5.8669,1.2568 "/></g><a xlink:href="#Neptune"><g><g stroke-linejoin="miter" stroke-opacity="1.0" fill-opacity="1.0" stroke="rgb(0,0,0)" stroke-width="0.5" fill="rgb(0,0,0)" stroke-linecap="butt" stroke-miterlimit="10.0"><path d="M 321.2508,230.6914 ZM 327.5216,231.3576 l -0.0434,1.7813 h -0.6951 l -0.0290,-1.7813 h -1.5496 v -0.6662 l 1.5351,0.0000 l -0.0145,-1.0717 l 0.0000,-0.0145 c -2.6503,-0.2607 -3.7219,-2.0999 -3.7219 -4.7502c 0.0000,-0.3041 -0.0869,-0.4200 -0.2172 -0.4200c -0.1738,-0.0000 -0.4345,0.2317 -0.6372 0.4634l -0.4779,-0.0434 l 2.1868,-2.5489 c 0.0000,-0.0000 0.1159,-0.0000 0.1159 -0.0145v 2.5634 c -0.0000,2.2447 0.5793,3.9102 2.7371 4.0695l -0.1014,-5.5322 c 0.0000,-0.3621 -0.0724,-0.5358 -0.1883 -0.5358c -0.1303,-0.0000 -0.3476,0.2028 -0.6517 0.5793l -0.4779,-0.0434 l 1.8827,-2.0710 l 1.8103,2.0710 l -0.5069,0.0434 c -0.3041,-0.3765 -0.5069,-0.5793 -0.6227 -0.5793c -0.1159,-0.0000 -0.1593,0.1738 -0.1593 0.5358l -0.1303,5.5322 c 2.1144,-0.1738 2.7371,-1.9551 2.7371 -4.1274v -2.5199 c 0.0145,-0.0000 0.0434,-0.0000 0.0579 -0.0145l 2.2013,2.5344 l -0.5069,0.0434 c -0.1593,-0.2028 -0.4055,-0.4634 -0.5793 -0.4634c -0.1159,-0.0000 -0.2028,0.1159 -0.2028 0.4200c 0.0000,2.5634 -1.0717,4.5474 -3.7219 4.8081l -0.0145,1.0862 l 1.5351,0.0000 v 0.6662 h -1.5496 Z"/></g><title>Neptune</title></g></a><g stroke-linejoin="miter" stroke-opacity="1.0" fill-opacity="0.0" stroke="rgb(0,0,0)" stroke-width="0.8000000000000002" fill="rgb(0,0,0)" stroke-linecap="butt" stroke-miterlimit="10.0"><path d="M 350.2068,255.1171 l -5.6328,-2.0669 "/></g><g stroke-linejoin="miter" stroke-opacity="1.0" fill-opacity="0.0" stroke="rgb(0,0,0)" stroke-width="0.8000000000000002" fill="rgb(0,0,0)" stroke-linecap="butt" stroke-miterlimit="10.0"><path d="M 293.8793,234.4482 l 5.6328,2.0669 "/></g><a xlink:href="#Uranus"><g><g stroke-linejoin="miter" stroke-opacity="1.0" fill-opacity="1.0" stroke="rgb(0,0,0)" stroke-width="0.5" fill="rgb(0,0,0)" stroke-linecap="butt" stroke-miterlimit="10.0"><path d="M 317.5753,248.1570 ZM 321.3551,248.1425 c -0.0000,0.5358 0.3331,0.8689 0.7820 0.8689c 0.3910,0.0000 0.7386,-0.3331 0.7386 -0.8689c 0.0000,-0.3476 -0.2607,-0.7676 -0.7531 -0.7676c -0.4634,-0.0000 -0.7676,0.4055 -0.7676 0.7676ZM 321.3551,248.1425 ZM 319.0814,241.1621 c -0.0000,-0.4200 -0.1883,-0.6372 -0.7820 -0.6372h -0.0434 c -0.0724,-0.0000 -0.1159,-0.0434 -0.1159 -0.1303l -0.0000,-0.2752 l 0.0290,-0.0290 c 0.0000,-0.0000 1.0138,0.0434 1.5206 0.0434l 0.4055,-0.0145 v 2.9978 h 1.4772 v -2.5199 l 0.2752,-0.2172 l 0.4634,0.0000 l 0.2752,0.2172 v 2.5199 l 1.4048,0.0000 v -2.9978 l 0.4055,0.0145 c 0.5069,-0.0000 1.5206,-0.0434 1.5206 -0.0434l 0.0290,0.0290 l 0.0000,0.2752 c 0.0000,0.0869 -0.0434,0.1303 -0.1159 0.1303h -0.0434 c -0.5938,-0.0000 -0.7820,0.2172 -0.7820 0.6372v 4.4605 c 0.0000,0.4055 0.1883,0.6372 0.7820 0.6372h 0.0434 c 0.0724,-0.0000 0.1159,0.0434 0.1159 0.1159l 0.0000,0.2752 l -0.0290,0.0290 c 0.0000,-0.0000 -0.9993,-0.0434 -1.5206 -0.0434l -0.4055,0.0145 v -2.8530 l -1.4048,-0.0000 l -0.0000,3.1861 c 0.5793,0.1593 1.0282,0.5648 1.0282 1.1731c -0.0000,0.8834 -0.8110,1.3179 -1.5206 1.3179c -0.6807,-0.0000 -1.4917,-0.4634 -1.4917 -1.2889c 0.0000,-0.6807 0.4200,-1.0717 0.9703 -1.2165v -3.1716 h -1.4772 v 2.8530 l -0.4055,0.0000 c -0.5214,-0.0000 -1.5206,0.0290 -1.5206 0.0290l -0.0290,-0.0290 v -0.2607 c 0.0000,-0.0724 0.0434,-0.1159 0.1159 -0.1159h 0.0434 c 0.5938,-0.0000 0.7820,-0.2317 0.7820 -0.6372v -4.4750 Z"/></g><title>Uranus</title></g></a><g stroke-linejoin="miter" stroke-opacity="1.0" fill-opacity="0.0" stroke="rgb(0,0,0)" stroke-width="0.8000000000000002" fill="rgb(0,0,0)" stroke-linecap="butt" stroke-miterlimit="10.0"><path d="M 353.7865,244.1553 l -5.7670,-1.6558 "/></g><g stroke-linejoin="miter" stroke-opacity="1.0" fill-opacity="0.0" stroke="rgb(0,0,0)" stroke-width="0.8000000000000002" fill="rgb(0,0,0)" stroke-linecap="butt" stroke-miterlimit="10.0"><path d="M 296.1166,227.5971 l 5.7670,1.6558 "/></g><a xlink:href="#Saturn"><g><g stroke-linejoin="miter" stroke-opacity="1.0" fill-opacity="1.0" stroke="rgb(0,0,0)" stroke-width="0.5" fill="rgb(0,0,0)" stroke-linecap="butt" stroke-miterlimit="10.0"><path d="M 321.2513,239.1347 ZM 323.0182,230.3005 l 0.6951,-0.1448 l 0.3331,0.0145 v 1.3179 h 1.3758 c 0.1593,-0.0000 0.2172,0.0724 0.2172 0.1883c 0.0000,0.1738 -0.2028,0.4924 -0.3910 0.4924h -1.2020 v 2.4185 c 0.3910,-0.5214 1.3179,-1.0138 2.0420 -1.0138c 1.0138,-0.0000 1.9986,0.6227 1.9986 1.8537c 0.0000,0.6951 -0.4345,1.6510 -0.7386 2.2158c -0.2752,0.5214 -0.4779,1.4482 -0.4779 2.0854c 0.0000,0.7386 0.2462,1.1586 0.8979 1.7089l -0.1159,0.1593 l -0.9269,-0.1159 c -0.5358,-0.4779 -0.8255,-0.9848 -0.8255 -1.7524c 0.0000,-0.7096 0.4345,-1.6220 0.6662 -2.1144c 0.2607,-0.5358 0.5358,-1.4193 0.5358 -2.1289c 0.0000,-0.6662 -0.5938,-1.2310 -1.0862 -1.2310c -0.9124,-0.0000 -1.5206,0.4055 -1.9841 1.0717l 0.0000,3.6640 l -0.8545,0.4489 l -0.1593,-0.2607 l 0.0000,-7.0094 h -0.9848 c -0.1448,-0.0000 -0.2172,-0.1303 -0.2172 -0.2607c 0.0000,-0.2317 0.1883,-0.4200 0.3476 -0.4200l 0.8545,-0.0000 v -1.1875 Z"/></g><title>Saturn</title></g></a><g stroke-linejoin="miter" stroke-opacity="1.0" fill-opacity="0.0" stroke="rgb(0,0,0)" stroke-width="0.8000000000000002" fill="rgb(0,0,0)" stroke-linecap="butt" stroke-miterlimit="10.0"><path d="M 109.9751,67.7294 l 3.3759,4.9601 "/></g><g stroke-linejoin="miter" stroke-opacity="1.0" fill-opacity="0.0" stroke="rgb(0,0,0)" stroke-width="0.8000000000000002" fill="rgb(0,0,0)" stroke-linecap="butt" stroke-miterlimit="10.0"><path d="M 143.7344,117.3309 l -3.3759,-4.9601 "/></g><a xlink:href="#Jupiter"><g><g stroke-linejoin="miter" stroke-opacity="1.0" fill-opacity="1.0" stroke="rgb(0,0,0)" stroke-width="0.5" fill="rgb(0,0,0)" stroke-linecap="butt" stroke-miterlimit="10.0"><path d="M 122.1118,95.7959 ZM 124.8490,88.1638 c -0.6517,0.0000 -0.9703,0.0869 -0.9703 0.5214c 0.0000,0.1738 0.0290,0.2462 0.0434 0.3041c 0.0290,0.0434 0.0434,0.1593 0.0434 0.2607c 0.0000,0.1883 -0.1448,0.4779 -0.5648 0.4779c -0.3476,-0.0000 -0.5793,-0.2317 -0.5793 -0.5793c -0.0000,-0.8545 0.8255,-1.5786 2.1579 -1.5786c 1.5062,-0.0000 2.2592,1.6655 2.2592 3.1861c 0.0000,1.3613 -0.6662,2.5778 -1.2600 3.0123h 2.8240 c 0.0579,0.0000 0.0869,-0.0434 0.0869 -0.0869l -0.0000,-5.8219 l 0.7096,-0.1593 l 0.3186,0.0290 l 0.0000,6.0391 l 0.8545,0.0145 c 0.0724,0.0434 0.1159,0.1883 0.1159 0.3186c 0.0000,0.1303 -0.0290,0.2317 -0.0869 0.2752l -0.8834,0.0290 v 2.6358 l -0.8689,0.4489 l -0.1593,-0.2607 v -2.7371 c 0.0000,-0.0290 -0.0290,-0.0579 -0.0869 -0.0579l -5.2715,0.1303 c -0.0145,-0.0000 -0.0579,-0.0724 -0.0579 -0.1448v -0.3041 c 0.0000,-0.1159 0.2172,-0.2317 0.3331 -0.2317l 0.0145,0.0000 c 0.3041,-0.0000 0.8834,-0.1303 1.1296 -0.2317c 0.8400,-0.3476 1.2889,-1.3613 1.2889 -2.5778c 0.0000,-1.1296 -0.4489,-2.9109 -1.3903 -2.9109Z"/></g><title>Jupiter</title></g></a><g stroke-linejoin="miter" stroke-opacity="1.0" fill-opacity="0.0" stroke="rgb(0,0,0)" stroke-width="0.8000000000000002" fill="rgb(0,0,0)" stroke-linecap="butt" stroke-miterlimit="10.0"><path d="M 198.3722,40.0083 l 0.0610,5.9997 "/></g><g stroke-linejoin="miter" stroke-opacity="1.0" fill-opacity="0.0" stroke="rgb(0,0,0)" stroke-width="0.8000000000000002" fill="rgb(0,0,0)" stroke-linecap="butt" stroke-miterlimit="10.0"><path d="M 198.9826,100.0052 l -0.0610,-5.9997 "/></g><a xlink:href="#Mars"><g><g stroke-linejoin="miter" stroke-opacity="1.0" fill-opacity="1.0" stroke="rgb(0,0,0)" stroke-width="0.5" fill="rgb(0,0,0)" stroke-linecap="butt" stroke-miterlimit="10.0"><path d="M 193.9924,74.8945 ZM 198.0329,69.5795 c -1.3903,-0.0000 -2.4765,1.1296 -2.4765 2.4909c 0.0000,1.3324 1.0427,2.4765 2.4765 2.4765c 1.4337,-0.0000 2.4765,-1.1441 2.4765 -2.4765c 0.0000,-1.3324 -1.0572,-2.4909 -2.4765 -2.4909ZM 198.0329,69.5795 ZM 201.2335,72.0705 c 0.0000,1.7234 -1.4772,3.1426 -3.2295 3.1426c -1.7379,0.0000 -3.1716,-1.3758 -3.1716 -3.1426c 0.0000,-1.7668 1.3468,-3.2006 3.2151 -3.2006c 0.3186,0.0000 0.5648,-0.0000 0.9269 0.1159l 1.7089,-3.1137 c -0.8110,0.4634 -1.3468,0.7096 -2.3316 0.9269l -0.4345,-0.4924 c 1.4048,-0.4055 2.1289,-0.6951 3.4468 -1.5062l 0.3041,0.1448 c 0.1738,1.4337 0.3621,2.1868 0.8545 3.5482l -0.6372,-0.0579 c -0.4055,-0.8689 -0.5358,-1.4048 -0.6662 -2.2882l -1.5786,3.1282 c 0.9848,0.5069 1.5930,1.4917 1.5930 2.7951Z"/></g><title>Mars</title></g></a><g stroke-linejoin="miter" stroke-opacity="1.0" fill-opacity="0.0" stroke="rgb(0,0,0)" stroke-width="0.8000000000000002" fill="rgb(0,0,0)" stroke-linecap="butt" stroke-miterlimit="10.0"><path d="M 341.0702,275.4929 l -5.2901,-2.8310 "/></g><g stroke-linejoin="miter" stroke-opacity="1.0" fill-opacity="0.0" stroke="rgb(0,0,0)" stroke-width="0.8000000000000002" fill="rgb(0,0,0)" stroke-linecap="butt" stroke-miterlimit="10.0"><path d="M 288.1689,247.1831 l 5.2901,2.8310 "/></g><a xlink:href="#Venus"><g><g stroke-linejoin="miter" stroke-opacity="1.0" fill-opacity="1.0" stroke="rgb(0,0,0)" stroke-width="0.5" fill="rgb(0,0,0)" stroke-linecap="butt" stroke-miterlimit="10.0"><path d="M 310.5790,264.1113 ZM 314.1851,262.5038 c -1.8248,-0.2607 -2.7661,-1.7958 -2.7661 -3.1716c 0.0000,-1.7234 1.3468,-3.1861 3.2151 -3.1861c 1.9841,-0.0000 3.1861,1.6220 3.1861 3.1861c 0.0000,1.5206 -1.0862,2.9399 -2.7806 3.1716l -0.0434,1.5930 l 1.5351,0.0000 v 0.6662 h -1.5496 l -0.0434,1.7668 h -0.6807 l -0.0290,-1.7668 h -1.5496 v -0.6662 l 1.5351,0.0000 ZM 314.1851,262.5038 ZM 314.6195,256.8702 c -1.3903,-0.0000 -2.4765,1.1151 -2.4765 2.4620c -0.0000,1.3468 1.0427,2.4909 2.4765 2.4909c 1.4337,-0.0000 2.4765,-1.1441 2.4765 -2.4909c 0.0000,-1.3179 -1.0572,-2.4620 -2.4765 -2.4620Z"/></g><title>Venus</title></g></a><g stroke-linejoin="miter" stroke-opacity="1.0" fill-opacity="0.0" stroke="rgb(0,0,0)" stroke-width="0.8000000000000002" fill="rgb(0,0,0)" stroke-linecap="butt" stroke-miterlimit="10.0"><path d="M 356.4379,166.4269 l -5.8664,1.2590 "/></g><g stroke-linejoin="miter" stroke-opacity="1.0" fill-opacity="0.0" stroke="rgb(0,0,0)" stroke-width="0.8000000000000002" fill="rgb(0,0,0)" stroke-linecap="butt" stroke-miterlimit="10.0"><path d="M 297.7737,179.0168 l 5.8664,-1.2590 "/></g><a xlink:href="#Mercury"><g><g stroke-linejoin="miter" stroke-opacity="1.0" fill-opacity="1.0" stroke="rgb(0,0,0)" stroke-width="0.5" fill="rgb(0,0,0)" stroke-linecap="butt" stroke-miterlimit="10.0"><path d="M 323.0653,176.5379 ZM 327.1058,169.2968 c -1.3903,-0.0000 -2.4765,1.1151 -2.4765 2.4620c -0.0000,1.3468 1.0427,2.4909 2.4765 2.4909c 1.4337,-0.0000 2.4765,-1.1441 2.4765 -2.4909c 0.0000,-1.3179 -1.0572,-2.4620 -2.4765 -2.4620ZM 327.1058,169.2968 ZM 326.6714,174.9304 c -1.8248,-0.2607 -2.7661,-1.7958 -2.7661 -3.1716c 0.0000,-1.2165 0.6807,-2.3172 1.7524 -2.8530c -1.0572,-0.5793 -1.4337,-1.8248 -1.4337 -2.4475h 0.7241 c 0.0000,0.9558 0.8979,2.0999 2.1579 2.0999c 1.4917,-0.0000 2.1723,-1.3758 2.1723 -2.0999h 0.7241 c 0.0000,0.7241 -0.4634,1.8972 -1.4337 2.4475c 1.1007,0.5503 1.7379,1.7234 1.7379 2.8530c 0.0000,1.5206 -1.0862,2.9399 -2.7806 3.1716l -0.0434,1.6075 l 1.5351,0.0000 v 0.6662 h -1.5496 l -0.0434,1.7813 h -0.6807 l -0.0290,-1.7813 h -1.5496 v -0.6662 l 1.5351,0.0000 Z"/></g><title>Mercury</title></g></a><g stroke-linejoin="miter" stroke-opacity="1.0" fill-opacity="0.0" stroke="rgb(0,0,0)" stroke-width="0.8000000000000002" fill="rgb(0,0,0)" stroke-linecap="butt" stroke-miterlimit="10.0"><path d="M 338.9523,279.3236 l -5.2107,-2.9746 "/></g><g stroke-linejoin="miter" stroke-opacity="1.0" fill-opacity="0.0" stroke="rgb(0,0,0)" stroke-width="0.8000000000000002" fill="rgb(0,0,0)" stroke-linecap="butt" stroke-miterlimit="10.0"><path d="M 286.8452,249.5773 l 5.2107,2.9746 "/></g><a xlink:href="#Moon"><g><g stroke-linejoin="miter" stroke-opacity="1.0" fill-opacity="1.0" stroke="rgb(0,0,0)" stroke-width="0.5" fill="rgb(0,0,0)" stroke-linecap="butt" stroke-miterlimit="10.0"><path d="M 309.2927,268.4186 ZM 311.0016,269.0558 c 2.6647,-0.0000 4.4750,-2.3316 4.4750 -4.6488c 0.0000,-2.4765 -2.2737,-4.5474 -4.0695 -4.5474c 1.4772,0.8400 2.6937,2.4765 2.6937 4.5474c 0.0000,2.2158 -1.2744,3.7509 -3.0992 4.6488ZM 311.0016,269.0558 ZM 309.6982,259.5699 c 0.3476,-0.0869 1.1007,-0.1883 1.4627 -0.1883c 3.1137,-0.0000 5.0543,2.3461 5.0543 5.0833c 0.0000,2.6068 -2.2158,5.0543 -5.1846 5.0543c -0.7241,-0.0000 -1.1007,-0.0869 -1.4482 -0.2462c 1.7958,-0.4345 3.7944,-2.3461 3.7944 -4.8516c 0.0000,-2.3896 -1.8827,-4.3881 -3.6785 -4.8516Z"/></g><title>Moon</title></g></a><g stroke-linejoin="miter" stroke-opacity="1.0" fill-opacity="0.0" stroke="rgb(0,0,0)" stroke-width="0.8000000000000002" fill="rgb(0,0,0)" stroke-linecap="butt" stroke-miterlimit="10.0"><path d="M 358.9541,218.2641 l -5.9608,-0.6849 "/></g><g stroke-linejoin="miter" stroke-opacity="1.0" fill-opacity="0.0" stroke="rgb(0,0,0)" stroke-width="0.8000000000000002" fill="rgb(0,0,0)" stroke-linecap="butt" stroke-miterlimit="10.0"><path d="M 299.3463,211.4151 l 5.9608,0.6849 "/></g><a xlink:href="#Sun"><g><g stroke-linejoin="miter" stroke-opacity="1.0" fill-opacity="1.0" stroke="rgb(0,0,0)" stroke-width="0.5" fill="rgb(0,0,0)" stroke-linecap="butt" stroke-miterlimit="10.0"><path d="M 324.1393,218.9960 ZM 325.9496,214.8396 c 0.0000,-1.7234 1.3613,-3.2006 3.2151 -3.2006c 1.9841,-0.0000 3.1861,1.6365 3.1861 3.2006c -0.0000,1.7958 -1.4772,3.2006 -3.1716 3.2006c -1.9406,-0.0000 -3.2295,-1.5496 -3.2295 -3.2006ZM 325.9496,214.8396 ZM 329.1502,212.3632 c -1.3903,-0.0000 -2.4765,1.1151 -2.4765 2.4765c 0.0000,1.3324 1.0427,2.4765 2.4765 2.4765c 1.4337,-0.0000 2.4765,-1.1441 2.4765 -2.4765c 0.0000,-1.3179 -1.0572,-2.4765 -2.4765 -2.4765ZM 329.1502,212.3632 ZM 328.4406,214.8396 c 0.0000,-0.3910 0.3186,-0.7096 0.7096 -0.7096c 0.3910,0.0000 0.7096,0.3186 0.7096 0.7096c -0.0000,0.3910 -0.3186,0.7096 -0.7096 0.7096c -0.3910,-0.0000 -0.7096,-0.3186 -0.7096 -0.7096Z"/></g><title>Sun</title></g></a><g><a xlink:href="#zodiac-Pisces"><g stroke-linejoin="miter" stroke-opacity="1.0" fill-opacity="1.0" stroke="rgb(0,0,0)" stroke-width="0.8000000000000002" fill="rgb(173,216,230)" stroke-linecap="butt" stroke-miterlimit="10.0"><path d="M 326.4280,101.9391 l 31.6070,-24.5152 c -21.5166,-27.7409 -49.9563,-49.3294 -82.4607 -62.5954l -15.1149,37.0343 c 26.0035,10.6128 48.7553,27.8836 65.9686 50.0763Z"/></g></a><title>Pisces</title></g><g stroke-linejoin="miter" stroke-opacity="1.0" fill-opacity="1.0" stroke="rgb(0,0,0)" stroke-width="0.8000000000000002" fill="rgb(0,0,0)" stroke-linecap="butt" stroke-miterlimit="10.0"><path d="M 301.8050,62.7434 ZM 312.6667,63.0475 c -1.2600,-1.4337 -2.5851,-3.7364 -2.5851 -6.1912h -2.5199 c 0.0000,1.8682 -0.8689,4.2361 -2.5851 6.1912l -1.4120,0.1086 l -0.3259,-0.1086 c 1.7813,-1.8899 2.6937,-3.9319 2.6937 -6.1912l -2.6068,0.0000 l -0.0000,-0.9993 l 2.6068,-0.0000 c -0.1086,-1.9551 -0.9993,-3.8233 -2.6937 -5.6698l 0.7386,-0.0652 l 0.9341,0.0652 c 1.5424,1.6727 2.4113,3.5192 2.6503 5.6698h 2.5199 c 0.2172,-2.1506 1.1079,-3.9971 2.6503 -5.6698l 0.8038,-0.1303 l 0.8907,0.1303 c -1.7161,1.8465 -2.6068,3.7147 -2.7154 5.6698l 2.6068,-0.0000 l 0.0000,0.9993 l -2.6068,0.0000 c 0.0000,2.2592 0.9124,4.3012 2.7154 6.1912l -0.8907,0.1521 Z"/></g><g><a xlink:href="#zodiac-Aquarius"><g stroke-linejoin="miter" stroke-opacity="1.0" fill-opacity="1.0" stroke="rgb(0,0,0)" stroke-width="0.8000000000000002" fill="rgb(255,255,0)" stroke-linecap="butt" stroke-miterlimit="10.0"><path d="M 358.5203,178.2908 l 39.6301,-5.4273 c -4.7635,-34.7827 -18.5988,-67.6987 -40.1154 -95.4396l -31.6070,24.5152 c 17.2133,22.1928 28.2815,48.5255 32.0923 76.3517Z"/></g></a><title>Aquarius</title></g><g stroke-linejoin="miter" stroke-opacity="1.0" fill-opacity="1.0" stroke="rgb(0,0,0)" stroke-width="0.8000000000000002" fill="rgb(0,0,0)" stroke-linecap="butt" stroke-miterlimit="10.0"><path d="M 356.9116,136.2484 ZM 358.3453,128.0586 l 3.7147,-2.8892 c 0.0652,-0.0434 0.1086,-0.0869 0.1738 -0.0869c 0.0434,-0.0000 0.0869,0.0217 0.1303 0.1086l 1.5858,2.1723 l 2.6503,-2.1723 c 0.0869,-0.0652 0.1303,-0.1086 0.1955 -0.1086c 0.0434,-0.0000 0.0869,0.0434 0.1521 0.1303l 1.5641,2.1506 l 2.6068,-2.1289 c 0.0869,-0.0869 0.1738,-0.1303 0.2172 -0.1303c 0.0434,-0.0000 0.0869,0.0434 0.1738 0.1521l 2.0203,3.2368 l -0.9558,0.5865 l -1.5641,-2.1506 c -0.0652,-0.0869 -0.0869,-0.1303 -0.1303 -0.1303c -0.0434,-0.0000 -0.1303,0.0434 -0.1955 0.1086l -2.5416,2.0854 c -0.0434,0.0434 -0.0869,0.0434 -0.1086 0.0434c -0.0434,-0.0000 -0.0652,-0.0217 -0.1086 -0.0652l -1.4555,-2.0203 c -0.0434,-0.1086 -0.0869,-0.1521 -0.1521 -0.1521c -0.0434,-0.0000 -0.0869,0.0217 -0.1521 0.0652l -2.5634,2.1289 c -0.0434,0.0434 -0.0869,0.0434 -0.1086 0.0434c -0.0434,-0.0000 -0.0652,-0.0217 -0.1086 -0.0652l -1.4772,-2.0637 c -0.0434,-0.0869 -0.0869,-0.1086 -0.1303 -0.1086c -0.0434,-0.0000 -0.0652,0.0217 -0.1303 0.0652l -2.7371,2.2158 ZM 358.3453,128.0586 ZM 358.3453,134.4019 l 3.6930,-2.8892 c 0.0869,-0.0434 0.1303,-0.0869 0.1738 -0.0869c 0.0652,-0.0000 0.1086,0.0434 0.1521 0.1086l 1.5858,2.1723 l 2.6503,-2.1723 c 0.0869,-0.0652 0.1303,-0.1086 0.1738 -0.1086c 0.0652,-0.0000 0.0869,0.0434 0.1738 0.1303l 1.5424,2.1506 l 2.6068,-2.1289 c 0.1086,-0.0869 0.1738,-0.1303 0.2390 -0.1303c 0.0434,-0.0000 0.0869,0.0434 0.1521 0.1521l 2.0420,3.2368 l -0.9558,0.5865 l -1.5641,-2.1506 c -0.0652,-0.0869 -0.0869,-0.1303 -0.1521 -0.1303c -0.0217,-0.0000 -0.1086,0.0652 -0.1738 0.1303l -2.5416,2.0637 c -0.0652,0.0434 -0.0869,0.0652 -0.1086 0.0652c -0.0434,-0.0000 -0.0652,-0.0434 -0.1086 -0.0869l -1.4772,-2.0203 c -0.0434,-0.0869 -0.0652,-0.1521 -0.1303 -0.1521c -0.0434,-0.0000 -0.0869,0.0217 -0.1521 0.0869l -2.5634,2.1072 c -0.0652,0.0434 -0.0869,0.0652 -0.1086 0.0652c -0.0434,-0.0000 -0.0652,-0.0217 -0.1086 -0.0869l -1.4989,-2.0637 c -0.0434,-0.0652 -0.0652,-0.1086 -0.1086 -0.1086c -0.0434,-0.0000 -0.0869,0.0217 -0.1303 0.0652l -2.7371,2.2158 Z"/></g><g><a xlink:href="#zodiac-Capricorn"><g stroke-linejoin="miter" stroke-opacity="1.0" fill-opacity="1.0" stroke="rgb(0,0,0)" stroke-width="0.8000000000000002" fill="rgb(0,100,0)" stroke-linecap="butt" stroke-miterlimit="10.0"><path d="M 348.1372,260.4594 l 37.0343,15.1149 c 13.2661,-32.5044 17.7423,-67.9281 12.9788 -102.7108l -39.6301,5.4273 c 3.8108,27.8261 0.2298,56.1651 -10.3831 82.1686Z"/></g></a><title>Capricorn</title></g><g stroke-linejoin="miter" stroke-opacity="1.0" fill-opacity="1.0" stroke="rgb(0,0,0)" stroke-width="0.8000000000000002" fill="rgb(0,0,0)" stroke-linecap="butt" stroke-miterlimit="10.0"><path d="M 369.3148,227.6166 ZM 384.9339,224.5536 c 0.0000,-1.1731 -0.6517,-2.2592 -1.7379 -2.2592c -1.2165,-0.0000 -2.0854,1.4120 -2.7806 3.2802c 0.8907,0.9776 1.9986,1.1296 2.9109 1.1296c 0.8255,-0.0000 1.6075,-0.8472 1.6075 -2.1506ZM 384.9339,224.5536 ZM 377.1570,216.2118 c -0.9341,1.0862 -2.5634,3.8668 -2.5634 7.7770l -0.8907,0.2607 l -0.3259,-0.2607 c 0.0000,-2.6503 -0.8255,-5.9522 -1.1948 -6.6474c -0.4996,-0.9558 -0.7386,-1.1079 -1.5858 -1.4772l 0.1955,-0.4779 c 0.9776,0.0217 1.9551,0.4127 2.2810 0.9993c 0.4127,0.7820 0.7603,2.1506 1.0644 4.0188c 0.4779,-2.0637 1.2382,-3.7364 2.3244 -5.0181l 1.6075,-0.3259 c 1.1079,2.4765 1.0427,6.8863 1.5858 8.9066c 0.7820,-1.5206 2.5851,-2.6937 3.9754 -2.6937c 1.8248,0.0000 2.9327,1.3686 2.9327 3.1933c -0.0000,1.8248 -1.5424,3.1499 -3.2151 3.1499c -1.1731,0.0000 -2.2810,-0.3041 -3.1499 -1.1948c -1.3903,3.6061 -3.0630,3.6495 -4.2143 3.6495h -1.1296 v -1.0210 h 0.5431 c 2.1723,-0.0000 2.5416,-0.6951 3.6713 -3.9754c -0.5865,-1.0210 -0.7169,-1.0210 -1.1296 -4.3012c -0.2824,-2.2158 -0.4127,-3.7799 -0.7820 -4.5619Z"/></g><g><a xlink:href="#zodiac-Sagittarius"><g stroke-linejoin="miter" stroke-opacity="1.0" fill-opacity="1.0" stroke="rgb(0,0,0)" stroke-width="0.8000000000000002" fill="rgb(255,0,0)" stroke-linecap="butt" stroke-miterlimit="10.0"><path d="M 298.0609,326.4280 l 24.5152,31.6070 c 27.7409,-21.5166 49.3294,-49.9563 62.5954 -82.4607l -37.0343,-15.1149 c -10.6128,26.0035 -27.8836,48.7553 -50.0763 65.9686Z"/></g></a><title>Sagittarius</title></g><g stroke-linejoin="miter" stroke-opacity="1.0" fill-opacity="1.0" stroke="rgb(0,0,0)" stroke-width="0.8000000000000002" fill="rgb(0,0,0)" stroke-linecap="butt" stroke-miterlimit="10.0"><path d="M 336.4094,314.6653 ZM 349.2045,302.9129 l 0.1303,0.1521 c -0.1303,0.6951 -0.2172,1.3468 -0.2172 1.9986c 0.0000,1.0210 0.1955,1.9768 0.4779 2.8458l -0.9124,0.2172 c -0.3910,-0.8472 -0.5648,-1.8030 -0.5648 -2.6068c 0.0000,-0.2390 0.0217,-0.4562 0.0434 -0.6517l -5.4526,5.4308 l 2.5851,2.6068 l -0.8689,0.8689 l -2.5851,-2.6285 l -3.8450,3.8016 l -0.8472,-0.8689 l 3.8233,-3.8016 l -2.5851,-2.5851 l 0.8689,-0.8689 l 2.5851,2.6068 l 5.4743,-5.4091 c -0.2390,0.0217 -0.4996,0.0434 -0.7603 0.0434c -0.8038,-0.0000 -1.6727,-0.1521 -2.4547 -0.4345l 0.1738,-0.9124 c 0.7386,0.2390 1.7596,0.3910 2.8675 0.3910c 0.6734,0.0000 1.3903,-0.0652 2.0637 -0.1955Z"/></g><g><a xlink:href="#zodiac-Scorpio"><g stroke-linejoin="miter" stroke-opacity="1.0" fill-opacity="1.0" stroke="rgb(0,0,0)" stroke-width="0.8000000000000002" fill="rgb(173,216,230)" stroke-linecap="butt" stroke-miterlimit="10.0"><path d="M 221.7092,358.5203 l 5.4273,39.6301 c 34.7827,-4.7635 67.6987,-18.5988 95.4396 -40.1154l -24.5152,-31.6070 c -22.1928,17.2133 -48.5255,28.2815 -76.3517 32.0923Z"/></g></a><title>Scorpio</title></g><g stroke-linejoin="miter" stroke-opacity="1.0" fill-opacity="1.0" stroke="rgb(0,0,0)" stroke-width="0.8000000000000002" fill="rgb(0,0,0)" stroke-linecap="butt" stroke-miterlimit="10.0"><path d="M 262.3722,370.2823 ZM 263.3280,358.4213 l 0.9341,-0.3259 l 0.4996,-0.0434 c 0.4779,0.6951 0.7820,1.4989 0.9558 2.3896c 0.3693,-0.9558 0.8689,-1.7596 1.4337 -2.3896l 1.5641,-0.2607 c 0.5648,0.6517 0.9124,1.5858 1.0644 2.7806c 0.3041,-0.8689 0.8038,-1.6944 1.4989 -2.5199l 1.5858,-0.2607 c 0.6734,0.8907 0.9993,1.9551 0.9993 3.1716l 0.0000,7.6249 c -0.0000,1.7596 0.1521,2.6720 0.7386 3.2368l 0.5431,0.5431 c 0.1303,0.1303 0.2390,0.1738 0.3041 0.1738c 0.1738,-0.0000 0.2172,-0.2607 0.2172 -0.5214v -0.1955 l 0.3259,-0.3476 l 0.1738,2.6068 l -2.5634,-0.1521 l 0.3476,-0.3693 c 0.0869,0.0217 0.1738,0.0217 0.2390 0.0217c 0.2390,-0.0000 0.4345,-0.0434 0.4345 -0.1738c 0.0000,-0.0869 -0.0434,-0.1955 -0.1955 -0.3259l -0.7820,-0.7820 c -0.8472,-0.8038 -1.4120,-1.9334 -1.4120 -3.7147v -6.9732 c 0.0000,-1.2600 -0.1738,-2.1506 -0.5431 -2.6720c -0.9124,1.0427 -1.5424,2.3461 -1.9117 3.9537v 7.1035 l -1.3686,0.6734 l -0.2390,-0.3910 l -0.0000,-8.2332 c 0.0000,-1.4989 -0.1955,-2.5416 -0.5431 -3.1064c -0.8907,0.9776 -1.5206,2.2158 -1.9117 3.6713v 7.3859 l -1.3903,0.6734 l -0.2390,-0.3910 v -8.7328 c 0.0000,-1.2600 -0.2607,-2.3027 -0.7603 -3.1282Z"/></g><g><a xlink:href="#zodiac-Libra"><g stroke-linejoin="miter" stroke-opacity="1.0" fill-opacity="1.0" stroke="rgb(0,0,0)" stroke-width="0.8000000000000002" fill="rgb(255,255,0)" stroke-linecap="butt" stroke-miterlimit="10.0"><path d="M 139.5406,348.1372 l -15.1149,37.0343 c 32.5044,13.2661 67.9281,17.7423 102.7108 12.9788l -5.4273,-39.6301 c -27.8261,3.8108 -56.1651,0.2298 -82.1686 -10.3831Z"/></g></a><title>Libra</title></g><g stroke-linejoin="miter" stroke-opacity="1.0" fill-opacity="1.0" stroke="rgb(0,0,0)" stroke-width="0.8000000000000002" fill="rgb(0,0,0)" stroke-linecap="butt" stroke-miterlimit="10.0"><path d="M 169.4182,385.3032 ZM 170.8519,380.3503 c -0.1955,-0.0000 -0.3259,-0.1738 -0.3259 -0.3693c 0.0000,-0.3476 0.2824,-0.8038 0.5431 -0.8038h 3.4323 c -0.6517,-0.6734 -1.1513,-1.3903 -1.1513 -2.2375c -0.0000,-2.0637 1.9334,-3.8450 4.1492 -3.8450c 2.1506,-0.0000 4.0405,1.6510 4.0405 3.8016c 0.0000,0.8472 -0.4996,1.6075 -1.1731 2.2810l 3.6495,0.0000 c 0.2390,-0.0000 0.3259,0.1955 0.3259 0.3693c 0.0000,0.2607 -0.3041,0.8038 -0.5865 0.8038l -5.0615,0.0000 l 0.1086,-1.0862 c 0.9776,-0.4562 1.3468,-1.3468 1.3468 -2.3027c 0.0000,-1.4989 -1.2382,-2.8023 -2.6937 -2.8023c -1.4772,-0.0000 -2.7154,1.3034 -2.7154 2.8023c 0.0000,0.9558 0.3693,1.7596 1.3251 2.3027l -0.1303,1.0862 h -5.0833 ZM 170.8519,380.3503 ZM 170.8519,384.0650 c -0.1955,-0.0000 -0.3259,-0.1738 -0.3259 -0.3693c -0.0000,-0.3259 0.2824,-0.7820 0.5431 -0.7820h 12.9254 c 0.2390,-0.0000 0.3259,0.1738 0.3259 0.3693c 0.0000,0.2390 -0.3041,0.7820 -0.5865 0.7820h -12.8820 Z"/></g><g><a xlink:href="#zodiac-Virgo"><g stroke-linejoin="miter" stroke-opacity="1.0" fill-opacity="1.0" stroke="rgb(0,0,0)" stroke-width="0.8000000000000002" fill="rgb(0,100,0)" stroke-linecap="butt" stroke-miterlimit="10.0"><path d="M 73.5720,298.0609 l -31.6070,24.5152 c 21.5166,27.7409 49.9563,49.3294 82.4607 62.5954l 15.1149,-37.0343 c -26.0035,-10.6128 -48.7553,-27.8836 -65.9686 -50.0763Z"/></g></a><title>Virgo</title></g><g stroke-linejoin="miter" stroke-opacity="1.0" fill-opacity="1.0" stroke="rgb(0,0,0)" stroke-width="0.8000000000000002" fill="rgb(0,0,0)" stroke-linecap="butt" stroke-miterlimit="10.0"><path d="M 82.8583,347.5535 ZM 94.5672,347.2276 c 1.1296,-1.1296 2.1941,-2.7806 2.1941 -4.9964c -0.0000,-0.9993 -0.2172,-1.9334 -0.6517 -2.8458c -0.6083,0.7386 -1.1513,1.7379 -1.5424 2.9978v 4.8443 ZM 94.5672,347.2276 ZM 90.4397,347.2711 l -1.3903,0.6734 l -0.2390,-0.3910 v -8.1680 c 0.0000,-1.5206 -0.1738,-2.5634 -0.5214 -3.1499c -0.8689,0.9776 -1.5424,2.1941 -1.9768 3.6278v 7.4077 l -1.3686,0.6734 l -0.2607,-0.3910 l 0.0000,-8.8849 c 0.0000,-1.0644 -0.2607,-2.0637 -0.7603 -2.9761l 0.9558,-0.3259 l 0.4996,-0.0434 c 0.4562,0.6083 0.7603,1.4120 0.9341 2.4113c 0.4127,-1.0210 0.9558,-1.8248 1.4989 -2.4113l 0.4779,-0.3910 l 0.7169,0.1521 c 0.5431,0.6951 1.2817,1.6510 1.4337 2.8240c 0.2607,-0.8907 0.8255,-1.7596 1.5424 -2.5851l 1.1948,-0.2390 c 0.6517,0.9124 1.3903,1.9334 1.3903 3.0413v 2.3461 c 0.3259,-0.9341 0.7169,-1.6727 1.0862 -2.1941l 1.4555,-0.3693 c 0.8689,1.3468 1.3034,2.7589 1.3034 4.2361c 0.0000,2.8675 -2.0854,5.0181 -3.7147 6.3215c 0.0869,1.3686 0.4345,2.0637 1.3034 3.0413l -0.3693,0.3041 c -1.1079,-0.6300 -1.8465,-1.5424 -2.3244 -2.7371c -0.7603,0.4345 -1.7161,0.7386 -2.8023 0.9124l -0.1955,-0.7169 c 1.0862,-0.3259 2.0203,-0.7820 2.7589 -1.2600c -0.0869,-0.5214 -0.1303,-1.0427 -0.1303 -1.5858v -7.4511 c 0.0000,-1.2165 -0.1738,-2.1289 -0.5214 -2.7371c -0.8689,0.9124 -1.5641,2.2375 -1.9768 3.9319v 7.1035 Z"/></g><g><a xlink:href="#zodiac-Leo"><g stroke-linejoin="miter" stroke-opacity="1.0" fill-opacity="1.0" stroke="rgb(0,0,0)" stroke-width="0.8000000000000002" fill="rgb(255,0,0)" stroke-linecap="butt" stroke-miterlimit="10.0"><path d="M 41.4797,221.7092 l -39.6301,5.4273 c 4.7635,34.7827 18.5988,67.6987 40.1154 95.4396l 31.6070,-24.5152 c -17.2133,-22.1928 -28.2815,-48.5255 -32.0923 -76.3517Z"/></g></a><title>Leo</title></g><g stroke-linejoin="miter" stroke-opacity="1.0" fill-opacity="1.0" stroke="rgb(0,0,0)" stroke-width="0.8000000000000002" fill="rgb(0,0,0)" stroke-linecap="butt" stroke-miterlimit="10.0"><path d="M 26.2963,274.6242 ZM 30.4454,269.2368 c -1.2165,-0.0000 -2.2158,0.9993 -2.2158 2.2810c -0.0000,1.3468 0.9993,2.3027 2.2375 2.3027c 1.2382,-0.0000 2.2375,-0.9776 2.2375 -2.2810c 0.0000,-1.2600 -0.9124,-2.3027 -2.2592 -2.3027ZM 30.4454,269.2368 ZM 36.8104,275.3193 c -0.0000,1.0862 0.5865,1.6944 1.2817 1.6944c 0.8907,-0.0000 1.4989,-0.2390 2.4113 -1.0862l 0.4779,0.4127 c -1.0210,1.2600 -1.9986,1.8682 -2.9109 1.8682c -1.6727,-0.0000 -2.8458,-1.1296 -2.8458 -2.6285c 0.0000,-1.9768 1.2382,-3.6930 2.4113 -4.9964c 1.0862,-1.1731 1.5424,-2.2158 1.5424 -4.3447c 0.0000,-2.0420 -1.7596,-3.9319 -3.8016 -3.9319c -1.9117,-0.0000 -3.5192,1.2165 -3.5192 2.9761c 0.0000,1.5641 0.2172,2.5634 1.1731 3.7364c 0.7169,0.8689 1.0210,1.6510 1.0210 2.4547c 0.0000,1.7813 -1.6510,3.4323 -3.5409 3.4323c -1.8248,-0.0000 -3.3671,-1.4120 -3.3671 -3.3888c 0.0000,-1.8465 1.4772,-3.3454 3.3020 -3.3454c 0.3476,-0.0000 0.5431,0.0000 0.9124 0.0869c -0.8689,-1.1296 -1.1079,-1.9117 -1.1079 -2.7806c 0.0000,-2.4330 2.4765,-4.1926 5.0181 -4.1926c 3.5626,-0.0000 5.4526,2.4330 5.4526 4.5619c 0.0000,2.1506 -0.7386,3.8885 -1.9768 5.3005c -1.3686,1.5424 -1.9334,2.8892 -1.9334 4.1709Z"/></g><g><a xlink:href="#zodiac-Cancer"><g stroke-linejoin="miter" stroke-opacity="1.0" fill-opacity="1.0" stroke="rgb(0,0,0)" stroke-width="0.8000000000000002" fill="rgb(173,216,230)" stroke-linecap="butt" stroke-miterlimit="10.0"><path d="M 51.8628,139.5406 l -37.0343,-15.1149 c -13.2661,32.5044 -17.7423,67.9281 -12.9788 102.7108l 39.6301,-5.4273 c -3.8108,-27.8261 -0.2298,-56.1651 10.3831 -82.1686Z"/></g></a><title>Cancer</title></g><g stroke-linejoin="miter" stroke-opacity="1.0" fill-opacity="1.0" stroke="rgb(0,0,0)" stroke-width="0.8000000000000002" fill="rgb(0,0,0)" stroke-linecap="butt" stroke-miterlimit="10.0"><path d="M 12.3289,184.1901 ZM 16.7170,178.3465 c 1.3251,-0.0000 2.3027,-1.0644 2.3027 -2.3027c -0.0000,-1.3034 -1.0862,-2.2810 -2.3244 -2.2810c -1.3034,-0.0000 -2.2592,0.9993 -2.2592 2.2592c -0.0000,1.3468 1.0427,2.3244 2.2810 2.3244ZM 16.7170,178.3465 ZM 16.8039,179.2154 c -1.7596,-0.0000 -3.4106,-1.4120 -3.4106 -3.3020c 0.0000,-1.4337 1.0427,-2.3461 2.7154 -3.2585c 1.6510,-0.9124 3.7581,-1.3468 6.2563 -1.3468c 2.1723,-0.0000 4.4967,0.5648 6.9080 1.6510l -0.0434,0.4127 l -0.3910,0.7386 c -2.4330,-1.0644 -4.7791,-1.5858 -7.0384 -1.5858c -1.5641,-0.0000 -2.8458,0.2172 -3.8450 0.6300c 1.6075,0.7820 2.0854,1.7596 2.0854 2.7154c 0.0000,1.7813 -1.3903,3.3454 -3.2368 3.3454ZM 16.8039,179.2154 ZM 26.1233,176.5000 c -1.3251,-0.0000 -2.3027,1.0862 -2.3027 2.3244c 0.0000,1.2165 0.9993,2.2810 2.3244 2.2810c 1.1948,-0.0000 2.2592,-0.9124 2.2592 -2.2810c 0.0000,-1.3251 -1.0427,-2.3244 -2.2810 -2.3244ZM 26.1233,176.5000 ZM 26.1450,175.6094 c 1.7813,0.0000 3.3020,1.3468 3.3020 3.1716c 0.0000,1.4337 -1.0427,2.5199 -2.7154 3.4106c -1.6510,0.9124 -3.7364,1.3686 -6.2563 1.3686c -2.1723,-0.0000 -4.4533,-0.5648 -6.8646 -1.6510l -0.0217,-0.4562 l 0.4127,-0.7169 c 2.4113,1.0644 4.7574,1.6075 7.0384 1.6075c 1.5858,-0.0000 2.8458,-0.2172 3.8450 -0.6300c -1.0427,-0.5214 -2.1072,-1.3468 -2.1072 -2.9327c 0.0000,-1.8248 1.5641,-3.1716 3.3671 -3.1716Z"/></g><g><a xlink:href="#zodiac-Gemini"><g stroke-linejoin="miter" stroke-opacity="1.0" fill-opacity="1.0" stroke="rgb(0,0,0)" stroke-width="0.8000000000000002" fill="rgb(255,255,0)" stroke-linecap="butt" stroke-miterlimit="10.0"><path d="M 101.9391,73.5720 l -24.5152,-31.6070 c -27.7409,21.5166 -49.3294,49.9563 -62.5954 82.4607l 37.0343,15.1149 c 10.6128,-26.0035 27.8836,-48.7553 50.0763 -65.9686Z"/></g></a><title>Gemini</title></g><g stroke-linejoin="miter" stroke-opacity="1.0" fill-opacity="1.0" stroke="rgb(0,0,0)" stroke-width="0.8000000000000002" fill="rgb(0,0,0)" stroke-linecap="butt" stroke-miterlimit="10.0"><path d="M 48.8296,97.2609 ZM 52.8701,96.4571 v -10.5793 c -0.9993,-0.1086 -1.9768,-0.3259 -2.9761 -0.5865v -1.0427 c 1.8248,0.5214 4.0840,0.7820 6.7342 0.7820c 2.6720,-0.0000 4.9095,-0.2607 6.7342 -0.7820v 1.0427 c -0.9776,0.2607 -1.9768,0.4996 -2.9544 0.6300v 10.5358 c 0.9124,0.1303 1.8899,0.3259 2.9544 0.6083v 1.0210 c -2.0854,-0.5431 -4.3230,-0.8255 -6.7342 -0.8255c -2.3896,-0.0000 -4.6488,0.2824 -6.7342 0.8255v -1.0210 c 1.0644,-0.2824 2.0420,-0.4779 2.9761 -0.6083ZM 52.8701,96.4571 ZM 54.4777,96.3485 c 0.6517,-0.0652 1.3686,-0.1086 2.1506 -0.1086c 0.8038,-0.0000 1.5206,0.0434 2.1506 0.1086v -10.3838 c -0.5865,0.0434 -1.3034,0.0652 -2.1506 0.0652c -0.8255,0.0000 -1.5424,-0.0217 -2.1506 -0.0652v 10.3838 Z"/></g><g><a xlink:href="#zodiac-Taurus"><g stroke-linejoin="miter" stroke-opacity="1.0" fill-opacity="1.0" stroke="rgb(0,0,0)" stroke-width="0.8000000000000002" fill="rgb(0,100,0)" stroke-linecap="butt" stroke-miterlimit="10.0"><path d="M 178.2908,41.4797 l -5.4273,-39.6301 c -34.7827,4.7635 -67.6987,18.5988 -95.4396 40.1154l 24.5152,31.6070 c 22.1928,-17.2133 48.5255,-28.2815 76.3517 -32.0923Z"/></g></a><title>Taurus</title></g><g stroke-linejoin="miter" stroke-opacity="1.0" fill-opacity="1.0" stroke="rgb(0,0,0)" stroke-width="0.8000000000000002" fill="rgb(0,0,0)" stroke-linecap="butt" stroke-miterlimit="10.0"><path d="M 121.6937,39.5367 ZM 130.2527,40.7315 c 2.3244,-0.0000 4.0405,-1.8030 4.0405 -3.9537c 0.0000,-2.2158 -1.7379,-3.9971 -4.0405 -3.9971c -2.1941,-0.0000 -4.0405,1.6944 -4.0405 3.9971c 0.0000,2.1506 1.7161,3.9537 4.0405 3.9537ZM 130.2527,40.7315 ZM 127.9283,32.0856 c -1.0427,-0.4345 -1.5858,-0.8907 -2.4330 -2.4330l -0.4779,-0.8689 c -0.6083,-1.0644 -1.2817,-1.6075 -2.0420 -1.6075l -0.2172,0.0000 v -1.0210 l 0.6083,0.0000 c 1.0644,0.0000 2.0420,0.8472 2.9109 2.3678l 0.6734,1.1513 c 0.4562,0.7820 0.9124,1.3251 1.3903 1.6293c 0.4996,0.3041 1.1296,0.4562 1.9117 0.4562c 0.7820,0.0000 1.4120,-0.1521 1.9117 -0.4562c 0.4779,-0.3041 0.9558,-0.8472 1.3903 -1.6293l 0.6951,-1.1513 c 0.8689,-1.5206 1.8248,-2.3678 2.8892 -2.3678l 0.6083,0.0000 v 1.0210 l -0.2172,0.0000 c -0.7603,0.0000 -1.4337,0.5431 -2.0420 1.6075l -0.4779,0.8689 c -0.7603,1.3903 -1.2817,1.9551 -2.4330 2.4330c 1.5858,0.8689 2.9327,2.4330 2.9327 4.6705c 0.0000,2.7806 -2.3678,5.2136 -5.2571 5.2136c -2.8458,-0.0000 -5.2571,-2.4113 -5.2571 -5.2136c 0.0000,-2.2375 1.3468,-3.8016 2.9327 -4.6705Z"/></g><g><a xlink:href="#zodiac-Aries"><g stroke-linejoin="miter" stroke-opacity="1.0" fill-opacity="1.0" stroke="rgb(0,0,0)" stroke-width="0.8000000000000002" fill="rgb(255,0,0)" stroke-linecap="butt" stroke-miterlimit="10.0"><path d="M 260.4594,51.8628 l 15.1149,-37.0343 c -32.5044,-13.2661 -67.9281,-17.7423 -102.7108 -12.9788l 5.4273,39.6301 c 27.8261,-3.8108 56.1651,-0.2298 82.1686 10.3831Z"/></g></a><title>Aries</title></g><g stroke-linejoin="miter" stroke-opacity="1.0" fill-opacity="1.0" stroke="rgb(0,0,0)" stroke-width="0.8000000000000002" fill="rgb(0,0,0)" stroke-linecap="butt" stroke-miterlimit="10.0"><path d="M 212.8773,26.6664 ZM 221.7621,29.2949 c 0.0000,-6.9080 -1.8030,-14.9891 -4.6923 -14.9891c -1.0210,0.0000 -1.7161,0.9776 -1.7161 2.3896c 0.0000,0.9341 0.3041,1.9117 0.9124 2.9109l -0.4779,0.1738 l -1.1731,-0.1738 c -0.5865,-1.0862 -0.8907,-2.0854 -0.8907 -3.0196c -0.0000,-1.9986 1.6075,-3.4106 3.3020 -3.4106c 3.3454,0.0000 4.8660,5.3874 5.4308 10.1665l 0.2172,-0.0000 c 0.4562,-3.6930 1.7379,-10.1883 5.5612 -10.1883c 1.7813,0.0000 3.1716,1.4989 3.1716 3.3888c 0.0000,0.9558 -0.3041,1.9768 -0.8907 3.0630l -0.4996,0.1955 l -1.1296,-0.1955 c 0.6083,-1.0862 0.8907,-2.0637 0.8907 -2.9761c 0.0000,-1.4989 -0.6734,-2.4330 -1.7161 -2.4330c -2.8675,-0.0000 -4.6705,8.1245 -4.6705 14.8153l -1.3686,0.6734 Z"/></g></svg>