<?xml version="1.0" encoding="UTF-8"?>
<!DOCTYPE svg PUBLIC "-//W3C//DTD SVG 1.1//EN"
    "http://www.w3.org/Graphics/SVG/1.1/DTD/svg11.dtd"><svg xmlns="http://www.w3.org/2000/svg" height="400.0065" stroke-opacity="1" viewBox="0.0 0.0 400.0 400.0064845978881" font-size="1" width="400.0000" xmlns:xlink="http://www.w3.org/1999/xlink" stroke="rgb(0,0,0)" version="1.1"><defs></defs><g stroke-linejoin="miter" stroke-opacity="1.0" fill-opacity="0.0" stroke="rgb(255,0,0)" stroke-width="1.6000129691432143" fill="rgb(0,0,0)" stroke-linecap="butt" stroke-miterlimit="10.0"><path d="M 299.3463,211.4184 l -100.3638,-111.4099 "/></g><a xlink:href="/explanations#angle-X"><g stroke-linejoin="miter" stroke-opacity="1.0" fill-opacity="0.0" stroke="rgb(0,0,0)" stroke-width="0.8000064845716072" fill="rgb(0,0,0)" stroke-linecap="butt" stroke-miterlimit="10.0"><path d="M 200.0000,200.0032 l 8.3866,-199.8240 c -110.3598,-4.6318 -203.5788,81.0777 -208.2106 191.4375c -0.1173,2.7940 -0.1759,5.5901 -0.1759 8.3866Z"/></g></a><g stroke-linejoin="miter" stroke-opacity="1.0" fill-opacity="1.0" font-size="9.999996560614559px" stroke="rgb(0,0,0)" stroke-width="1.6000129691432143" fill="rgb(0,0,0)" stroke-linecap="butt" stroke-miterlimit="10.0"><text dominant-baseline="middle" transform="matrix(0.9993,0.0384,-0.0384,0.9993,195.8203,50.0615)" stroke="none" text-anchor="middle">MC</text></g><a xlink:href="/explanations#angle-VII"><g stroke-linejoin="miter" stroke-opacity="1.0" fill-opacity="0.0" stroke="rgb(0,0,0)" stroke-width="0.8000064845716072" fill="rgb(0,0,0)" stroke-linecap="butt" stroke-miterlimit="10.0"><path d="M 200.0000,200.0032 l 199.9999,-0.0000 c 0.0000,-107.1948 -84.5128,-195.3290 -191.6134 -199.8240Z"/></g></a><g stroke-linejoin="miter" stroke-opacity="1.0" fill-opacity="1.0" font-size="9.999996560614559px" stroke="rgb(0,0,0)" stroke-width="1.6000129691432143" fill="rgb(0,0,0)" stroke-linecap="butt" stroke-miterlimit="10.0"><text dominant-baseline="middle" transform="matrix(0.9993,0.0384,-0.0384,0.9993,349.6346,189.5398)" stroke="none" text-anchor="middle">DC</text></g><a xlink:href="/explanations#angle-IV"><g stroke-linejoin="miter" stroke-opacity="1.0" fill-opacity="0.0" stroke="rgb(0,0,0)" stroke-width="0.8000064845716072" fill="rgb(0,0,0)" stroke-linecap="butt" stroke-miterlimit="10.0"><path d="M 200.0000,200.0032 l -8.3866,199.8240 c 110.3598,4.6318 203.5788,-81.0777 208.2106 -191.4375c 0.1173,-2.7940 0.1759,-5.5901 0.1759 -8.3866Z"/></g></a><g stroke-linejoin="miter" stroke-opacity="1.0" fill-opacity="1.0" font-size="9.999996560614559px" stroke="rgb(0,0,0)" stroke-width="1.6000129691432143" fill="rgb(0,0,0)" stroke-linecap="butt" stroke-miterlimit="10.0"><text dominant-baseline="middle" transform="matrix(0.9993,0.0384,-0.0384,0.9993,204.1797,349.9449)" stroke="none" text-anchor="middle">IC</text></g><a xlink:href="/explanations#angle-I"><g stroke-linejoin="miter" stroke-opacity="1.0" fill-opacity="0.0" stroke="rgb(0,0,0)" stroke-width="0.8000064845716072" fill="rgb(0,0,0)" stroke-linecap="butt" stroke-miterlimit="10.0"><path d="M 200.0000,200.0032 l -199.9999,0.0000 c 0.0000,107.1948 84.5128,195.3290 191.6134 199.8240Z"/></g></a><g stroke-linejoin="miter" stroke-opacity="1.0" fill-opacity="1.0" font-size="9.999996560614559px" stroke="rgb(0,0,0)" stroke-width="1.6000129691432143" fill="rgb(0,0,0)" stroke-linecap="butt" stroke-miterlimit="10.0"><text dominant-baseline="middle" transform="matrix(0.9993,0.0384,-0.0384,0.9993,50.3654,210.4667)" stroke="none" text-anchor="middle">ASC</text></g><a xlink:href="/explanations#house-XII"><g stroke-linejoin="miter" stroke-opacity="1.0" fill-opacity="0.0" stroke="rgb(0,0,0)" stroke-width="0.8000064845716072" fill="rgb(0,0,0)" stroke-linecap="butt" stroke-miterlimit="10.0"><path d="M 112.6882,151.2524 l -52.3871,-29.2505 c -13.3123,23.8421 -20.3011,50.6946 -20.3011 78.0014l 60.0000,0.0000 c 0.0000,-17.0668 4.3680,-33.8496 12.6882 -48.7509Z"/></g></a><g stroke-linejoin="miter" stroke-opacity="1.0" fill-opacity="1.0" font-size="9.999996560614559px" stroke="rgb(0,0,0)" stroke-width="1.6000129691432143" fill="rgb(128,128,128)" stroke-linecap="butt" stroke-miterlimit="10.0"><text dominant-baseline="middle" transform="matrix(0.9993,0.0384,-0.0384,0.9993,99.6487,154.9520)" stroke="none" text-anchor="middle">12</text></g><a xlink:href="/explanations#house-XI"><g stroke-linejoin="miter" stroke-opacity="1.0" fill-opacity="0.0" stroke="rgb(0,0,0)" stroke-width="0.8000064845716072" fill="rgb(0,0,0)" stroke-linecap="butt" stroke-miterlimit="10.0"><path d="M 149.8825,113.4687 l -30.0705,-51.9207 c -24.9149,14.4298 -45.4745,35.3152 -59.5108 60.4538l 52.3871,29.2505 c 8.7727,-15.7117 21.6224,-28.7650 37.1942 -37.7836Z"/></g></a><g stroke-linejoin="miter" stroke-opacity="1.0" fill-opacity="1.0" font-size="9.999996560614559px" stroke="rgb(0,0,0)" stroke-width="1.6000129691432143" fill="rgb(128,128,128)" stroke-linecap="butt" stroke-miterlimit="10.0"><text dominant-baseline="middle" transform="matrix(0.9993,0.0384,-0.0384,0.9993,136.7843,109.9823)" stroke="none" text-anchor="middle">11</text></g><a xlink:href="/explanations#house-X"><g stroke-linejoin="miter" stroke-opacity="1.0" fill-opacity="0.0" stroke="rgb(0,0,0)" stroke-width="0.8000064845716072" fill="rgb(0,0,0)" stroke-linecap="butt" stroke-miterlimit="10.0"><path d="M 204.1933,100.0912 l 2.5160,-59.9472 c -30.4121,-1.2764 -60.5572,6.1488 -86.8973 21.4040l 30.0705,51.9207 c 16.4626,-9.5345 35.3033,-14.1752 54.3108 -13.3775Z"/></g></a><g stroke-linejoin="miter" stroke-opacity="1.0" fill-opacity="1.0" font-size="9.999996560614559px" stroke="rgb(0,0,0)" stroke-width="1.6000129691432143" fill="rgb(128,128,128)" stroke-linecap="butt" stroke-miterlimit="10.0"><text dominant-baseline="middle" transform="matrix(0.9993,0.0384,-0.0384,0.9993,195.0164,90.1162)" stroke="none" text-anchor="middle">10</text></g><a xlink:href="/explanations#house-IX"><g stroke-linejoin="miter" stroke-opacity="1.0" fill-opacity="0.0" stroke="rgb(0,0,0)" stroke-width="0.8000064845716072" fill="rgb(0,0,0)" stroke-linecap="butt" stroke-miterlimit="10.0"><path d="M 256.6479,117.5957 l 33.9887,-49.4445 c -24.7871,-17.0389 -53.8752,-26.7458 -83.9274 -28.0071l -2.5160,59.9472 c 18.7826,0.7883 36.9627,6.8551 52.4546 17.5044Z"/></g></a><g stroke-linejoin="miter" stroke-opacity="1.0" fill-opacity="1.0" font-size="9.999996560614559px" stroke="rgb(0,0,0)" stroke-width="1.6000129691432143" fill="rgb(128,128,128)" stroke-linecap="butt" stroke-miterlimit="10.0"><text dominant-baseline="middle" transform="matrix(0.9993,0.0384,-0.0384,0.9993,254.1750,104.2689)" stroke="none" text-anchor="middle">9</text></g><a xlink:href="/explanations#house-VIII"><g stroke-linejoin="miter" stroke-opacity="1.0" fill-opacity="0.0" stroke="rgb(0,0,0)" stroke-width="0.8000064845716072" fill="rgb(0,0,0)" stroke-linecap="butt" stroke-miterlimit="10.0"><path d="M 289.6765,155.7526 l 53.8059,-26.5504 c -12.1061,-24.5336 -30.3007,-45.5533 -52.8457 -61.0510l -33.9887,49.4445 c 14.0906,9.6861 25.4623,22.8234 33.0286 38.1569Z"/></g></a><g stroke-linejoin="miter" stroke-opacity="1.0" fill-opacity="1.0" font-size="9.999996560614559px" stroke="rgb(0,0,0)" stroke-width="1.6000129691432143" fill="rgb(128,128,128)" stroke-linecap="butt" stroke-miterlimit="10.0"><text dominant-baseline="middle" transform="matrix(0.9993,0.0384,-0.0384,0.9993,294.0264,142.9153)" stroke="none" text-anchor="middle">8</text></g><a xlink:href="/explanations#house-VII"><g stroke-linejoin="miter" stroke-opacity="1.0" fill-opacity="0.0" stroke="rgb(0,0,0)" stroke-width="0.8000064845716072" fill="rgb(0,0,0)" stroke-linecap="butt" stroke-miterlimit="10.0"><path d="M 300.0000,200.0032 l 60.0000,-0.0000 c -0.0000,-24.5552 -5.6517,-48.7809 -16.5176 -70.8011l -53.8059,26.5504 c 6.7911,13.7626 10.3235,28.9037 10.3235 44.2507Z"/></g></a><g stroke-linejoin="miter" stroke-opacity="1.0" fill-opacity="1.0" font-size="9.999996560614559px" stroke="rgb(0,0,0)" stroke-width="1.6000129691432143" fill="rgb(128,128,128)" stroke-linecap="butt" stroke-miterlimit="10.0"><text dominant-baseline="middle" transform="matrix(0.9993,0.0384,-0.0384,0.9993,309.5814,190.4161)" stroke="none" text-anchor="middle">7</text></g><a xlink:href="/explanations#house-VI"><g stroke-linejoin="miter" stroke-opacity="1.0" fill-opacity="0.0" stroke="rgb(0,0,0)" stroke-width="0.8000064845716072" fill="rgb(0,0,0)" stroke-linecap="butt" stroke-miterlimit="10.0"><path d="M 287.3118,248.7541 l 52.3871,29.2505 c 13.3123,-23.8421 20.3011,-50.6946 20.3011 -78.0014h -60.0000 c 0.0000,17.0668 -4.3680,33.8496 -12.6882 48.7509Z"/></g></a><g stroke-linejoin="miter" stroke-opacity="1.0" fill-opacity="1.0" font-size="9.999996560614559px" stroke="rgb(0,0,0)" stroke-width="1.6000129691432143" fill="rgb(128,128,128)" stroke-linecap="butt" stroke-miterlimit="10.0"><text dominant-baseline="middle" transform="matrix(0.9993,0.0384,-0.0384,0.9993,300.3513,245.0545)" stroke="none" text-anchor="middle">6</text></g><a xlink:href="/explanations#house-V"><g stroke-linejoin="miter" stroke-opacity="1.0" fill-opacity="0.0" stroke="rgb(0,0,0)" stroke-width="0.8000064845716072" fill="rgb(0,0,0)" stroke-linecap="butt" stroke-miterlimit="10.0"><path d="M 250.1175,286.5378 l 30.0705,51.9207 c 24.9149,-14.4298 45.4745,-35.3152 59.5108 -60.4538l -52.3871,-29.2505 c -8.7727,15.7117 -21.6224,28.7650 -37.1942 37.7836Z"/></g></a><g stroke-linejoin="miter" stroke-opacity="1.0" fill-opacity="1.0" font-size="9.999996560614559px" stroke="rgb(0,0,0)" stroke-width="1.6000129691432143" fill="rgb(128,128,128)" stroke-linecap="butt" stroke-miterlimit="10.0"><text dominant-baseline="middle" transform="matrix(0.9993,0.0384,-0.0384,0.9993,263.2157,290.0242)" stroke="none" text-anchor="middle">5</text></g><a xlink:href="/explanations#house-IV"><g stroke-linejoin="miter" stroke-opacity="1.0" fill-opacity="0.0" stroke="rgb(0,0,0)" stroke-width="0.8000064845716072" fill="rgb(0,0,0)" stroke-linecap="butt" stroke-miterlimit="10.0"><path d="M 195.8067,299.9153 l -2.5160,59.9472 c 30.4121,1.2764 60.5572,-6.1488 86.8973 -21.4040l -30.0705,-51.9207 c -16.4626,9.5345 -35.3033,14.1752 -54.3108 13.3775Z"/></g></a><g stroke-linejoin="miter" stroke-opacity="1.0" fill-opacity="1.0" font-size="9.999996560614559px" stroke="rgb(0,0,0)" stroke-width="1.6000129691432143" fill="rgb(128,128,128)" stroke-linecap="butt" stroke-miterlimit="10.0"><text dominant-baseline="middle" transform="matrix(0.9993,0.0384,-0.0384,0.9993,204.9836,309.8903)" stroke="none" text-anchor="middle">4</text></g><a xlink:href="/explanations#house-III"><g stroke-linejoin="miter" stroke-opacity="1.0" fill-opacity="0.0" stroke="rgb(0,0,0)" stroke-width="0.8000064845716072" fill="rgb(0,0,0)" stroke-linecap="butt" stroke-miterlimit="10.0"><path d="M 143.3521,282.4108 l -33.9887,49.4445 c 24.7871,17.0389 53.8752,26.7458 83.9274 28.0071l 2.5160,-59.9472 c -18.7826,-0.7883 -36.9627,-6.8551 -52.4546 -17.5044Z"/></g></a><g stroke-linejoin="miter" stroke-opacity="1.0" fill-opacity="1.0" font-size="9.999996560614559px" stroke="rgb(0,0,0)" stroke-width="1.6000129691432143" fill="rgb(128,128,128)" stroke-linecap="butt" stroke-miterlimit="10.0"><text dominant-baseline="middle" transform="matrix(0.9993,0.0384,-0.0384,0.9993,145.8250,295.7375)" stroke="none" text-anchor="middle">3</text></g><a xlink:href="/explanations#house-II"><g stroke-linejoin="miter" stroke-opacity="1.0" fill-opacity="0.0" stroke="rgb(0,0,0)" stroke-width="0.8000064845716072" fill="rgb(0,0,0)" stroke-linecap="butt" stroke-miterlimit="10.0"><path d="M 110.3235,244.2539 l -53.8059,26.5504 c 12.1061,24.5336 30.3007,45.5533 52.8457 61.0510l 33.9887,-49.4445 c -14.0906,-9.6861 -25.4623,-22.8234 -33.0286 -38.1569Z"/></g></a><g stroke-linejoin="miter" stroke-opacity="1.0" fill-opacity="1.0" font-size="9.999996560614559px" stroke="rgb(0,0,0)" stroke-width="1.6000129691432143" fill="rgb(128,128,128)" stroke-linecap="butt" stroke-miterlimit="10.0"><text dominant-baseline="middle" transform="matrix(0.9993,0.0384,-0.0384,0.9993,105.9736,257.0912)" stroke="none" text-anchor="middle">2</text></g><a xlink:href="/explanations#house-I"><g stroke-linejoin="miter" stroke-opacity="1.0" fill-opacity="0.0" stroke="rgb(0,0,0)" stroke-width="0.8000064845716072" fill="rgb(0,0,0)" stroke-linecap="butt" stroke-miterlimit="10.0"><path d="M 100.0000,200.0032 l -60.0000,0.0000 c 0.0000,24.5552 5.6517,48.7809 16.5176 70.8011l 53.8059,-26.5504 c -6.7911,-13.7626 -10.3235,-28.9037 -10.3235 -44.2507Z"/></g></a><g stroke-linejoin="miter" stroke-opacity="1.0" fill-opacity="1.0" font-size="9.999996560614559px" stroke="rgb(0,0,0)" stroke-width="1.6000129691432143" fill="rgb(128,128,128)" stroke-linecap="butt" stroke-miterlimit="10.0"><text dominant-baseline="middle" transform="matrix(0.9993,0.0384,-0.0384,0.9993,90.4186,209.5904)" stroke="none" text-anchor="middle">1</text></g><g><a xlink:href="/explanations#zodiac-Pisces"><g stroke-linejoin="miter" stroke-opacity="1.0" fill-opacity="1.0" stroke="rgb(0,0,0)" stroke-width="0.8000064845716072" fill="rgb(173,216,230)" stroke-linecap="butt" stroke-miterlimit="10.0"><path d="M 326.4280,101.9423 l 31.6070,-24.5152 c -21.5166,-27.7409 -49.9563,-49.3294 -82.4607 -62.5954l -15.1149,37.0343 c 26.0035,10.6128 48.7553,27.8836 65.9686 50.0763Z"/></g></a><title>Pisces</title></g><g><a xlink:href="/explanations#zodiac-Aquarius"><g stroke-linejoin="miter" stroke-opacity="1.0" fill-opacity="1.0" stroke="rgb(0,0,0)" stroke-width="0.8000064845716072" fill="rgb(255,255,0)" stroke-linecap="butt" stroke-miterlimit="10.0"><path d="M 358.5203,178.2940 l 39.6301,-5.4273 c -4.7635,-34.7827 -18.5988,-67.6987 -40.1154 -95.4396l -31.6070,24.5152 c 17.2133,22.1928 28.2815,48.5255 32.0923 76.3517Z"/></g></a><title>Aquarius</title></g><g><a xlink:href="/explanations#zodiac-Capricorn"><g stroke-linejoin="miter" stroke-opacity="1.0" fill-opacity="1.0" stroke="rgb(0,0,0)" stroke-width="0.8000064845716072" fill="rgb(0,100,0)" stroke-linecap="butt" stroke-miterlimit="10.0"><path d="M 348.1372,260.4627 l 37.0343,15.1149 c 13.2661,-32.5044 17.7423,-67.9281 12.9788 -102.7108l -39.6301,5.4273 c 3.8108,27.8261 0.2298,56.1651 -10.3831 82.1686Z"/></g></a><title>Capricorn</title></g><g><a xlink:href="/explanations#zodiac-Sagittarius"><g stroke-linejoin="miter" stroke-opacity="1.0" fill-opacity="1.0" stroke="rgb(0,0,0)" stroke-width="0.8000064845716072" fill="rgb(255,0,0)" stroke-linecap="butt" stroke-miterlimit="10.0"><path d="M 298.0609,326.4312 l 24.5152,31.6070 c 27.7409,-21.5166 49.3294,-49.9563 62.5954 -82.4607l -37.0343,-15.1149 c -10.6128,26.0035 -27.8836,48.7553 -50.0763 65.9686Z"/></g></a><title>Sagittarius</title></g><g><a xlink:href="/explanations#zodiac-Scorpio"><g stroke-linejoin="miter" stroke-opacity="1.0" fill-opacity="1.0" stroke="rgb(0,0,0)" stroke-width="0.8000064845716072" fill="rgb(173,216,230)" stroke-linecap="butt" stroke-miterlimit="10.0"><path d="M 221.7092,358.5236 l 5.4273,39.6301 c 34.7827,-4.7635 67.6987,-18.5988 95.4396 -40.1154l -24.5152,-31.6070 c -22.1928,17.2133 -48.5255,28.2815 -76.3517 32.0923Z"/></g></a><title>Scorpio</title></g><g><a xlink:href="/explanations#zodiac-Libra"><g stroke-linejoin="miter" stroke-opacity="1.0" fill-opacity="1.0" stroke="rgb(0,0,0)" stroke-width="0.8000064845716072" fill="rgb(255,255,0)" stroke-linecap="butt" stroke-miterlimit="10.0"><path d="M 139.5406,348.1405 l -15.1149,37.0343 c 32.5044,13.2661 67.9281,17.7423 102.7108 12.9788l -5.4273,-39.6301 c -27.8261,3.8108 -56.1651,0.2298 -82.1686 -10.3831Z"/></g></a><title>Libra</title></g><g><a xlink:href="/explanations#zodiac-Virgo"><g stroke-linejoin="miter" stroke-opacity="1.0" fill-opacity="1.0" stroke="rgb(0,0,0)" stroke-width="0.8000064845716072" fill="rgb(0,100,0)" stroke-linecap="butt" stroke-miterlimit="10.0"><path d="M 73.5720,298.0642 l -31.6070,24.5152 c 21.5166,27.7409 49.9563,49.3294 82.4607 62.5954l 15.1149,-37.0343 c -26.0035,-10.6128 -48.7553,-27.8836 -65.9686 -50.0763Z"/></g></a><title>Virgo</title></g><g><a xlink:href="/explanations#zodiac-Leo"><g stroke-linejoin="miter" stroke-opacity="1.0" fill-opacity="1.0" stroke="rgb(0,0,0)" stroke-width="0.8000064845716072" fill="rgb(255,0,0)" stroke-linecap="butt" stroke-miterlimit="10.0"><path d="M 41.4797,221.7125 l -39.6301,5.4273 c 4.7635,34.7827 18.5988,67.6987 40.1154 95.4396l 31.6070,-24.5152 c -17.2133,-22.1928 -28.2815,-48.5255 -32.0923 -76.3517Z"/></g></a><title>Leo</title></g><g><a xlink:href="/explanations#zodiac-Cancer"><g stroke-linejoin="miter" stroke-opacity="1.0" fill-opacity="1.0" stroke="rgb(0,0,0)" stroke-width="0.8000064845716072" fill="rgb(173,216,230)" stroke-linecap="butt" stroke-miterlimit="10.0"><path d="M 51.8628,139.5438 l -37.0343,-15.1149 c -13.2661,32.5044 -17.7423,67.9281 -12.9788 102.7108l 39.6301,-5.4273 c -3.8108,-27.8261 -0.2298,-56.1651 10.3831 -82.1686Z"/></g></a><title>Cancer</title></g><g><a xlink:href="/explanations#zodiac-Gemini"><g stroke-linejoin="miter" stroke-opacity="1.0" fill-opacity="1.0" stroke="rgb(0,0,0)" stroke-width="0.8000064845716072" fill="rgb(255,255,0)" stroke-linecap="butt" stroke-miterlimit="10.0"><path d="M 101.9391,73.5752 l -24.5152,-31.6070 c -27.7409,21.5166 -49.3294,49.9563 -62.5954 82.4607l 37.0343,15.1149 c 10.6128,-26.0035 27.8836,-48.7553 50.0763 -65.9686Z"/></g></a><title>Gemini</title></g><g><a xlink:href="/explanations#zodiac-Taurus"><g stroke-linejoin="miter" stroke-opacity="1.0" fill-opacity="1.0" stroke="rgb(0,0,0)" stroke-width="0.8000064845716072" fill="rgb(0,100,0)" stroke-linecap="butt" stroke-miterlimit="10.0"><path d="M 178.2908,41.4829 l -5.4273,-39.6301 c -34.7827,4.7635 -67.6987,18.5988 -95.4396 40.1154l 24.5152,31.6070 c 22.1928,-17.2133 48.5255,-28.2815 76.3517 -32.0923Z"/></g></a><title>Taurus</title></g><g><a xlink:href="/explanations#zodiac-Aries"><g stroke-linejoin="miter" stroke-opacity="1.0" fill-opacity="1.0" stroke="rgb(0,0,0)" stroke-width="0.8000064845716072" fill="rgb(255,0,0)" stroke-linecap="butt" stroke-miterlimit="10.0"><path d="M 260.4594,51.8660 l 15.1149,-37.0343 c -32.5044,-13.2661 -67.9281,-17.7423 -102.7108 -12.9788l 5.4273,39.6301 c 27.8261,-3.8108 56.1651,-0.2298 82.1686 10.3831Z"/></g></a><title>Aries</title></g></svg>