<?xml version="1.0" encoding="UTF-8"?>
<!DOCTYPE svg PUBLIC "-//W3C//DTD SVG 1.1//EN"
    "http://www.w3.org/Graphics/SVG/1.1/DTD/svg11.dtd"><svg xmlns="http://www.w3.org/2000/svg" height="400.0000" stroke-opacity="1" viewBox="0.0 0.0 400.0 400.0" font-size="1" width="400.0000" xmlns:xlink="http://www.w3.org/1999/xlink" stroke="rgb(0,0,0)" version="1.1"><defs></defs><g stroke-linejoin="miter" stroke-opacity="1.0" fill-opacity="1.0" stroke="rgb(0,0,0)" stroke-width="1.6" fill="rgb(173,216,230)" stroke-linecap="butt" stroke-miterlimit="10.0"><path d="M 338.5641,280.0000 l 34.6410,20.0000 c 17.5537,-30.4038 26.7949,-64.8927 26.7949 -100.0000l -40.0000,-0.0000 c -0.0000,28.0859 -7.3930,55.6769 -21.4359 80.0000Z"/></g><g stroke-linejoin="miter" stroke-opacity="1.0" fill-opacity="1.0" stroke="rgb(0,0,0)" stroke-width="1.6" fill="rgb(255,255,0)" stroke-linecap="butt" stroke-miterlimit="10.0"><path d="M 280.0000,338.5641 l 20.0000,34.6410 c 30.4038,-17.5537 55.6514,-42.8012 73.2051 -73.2051l -34.6410,-20.0000 c -14.0429,24.3231 -34.2410,44.5211 -58.5641 58.5641Z"/></g><g stroke-linejoin="miter" stroke-opacity="1.0" fill-opacity="1.0" stroke="rgb(0,0,0)" stroke-width="1.6" fill="rgb(0,100,0)" stroke-linecap="butt" stroke-miterlimit="10.0"><path d="M 200.0000,360.0000 l -0.0000,40.0000 c 35.1073,-0.0000 69.5962,-9.2413 100.0000 -26.7949l -20.0000,-34.6410 c -24.3231,14.0429 -51.9141,21.4359 -80.0000 21.4359Z"/></g><g stroke-linejoin="miter" stroke-opacity="1.0" fill-opacity="1.0" stroke="rgb(0,0,0)" stroke-width="1.6" fill="rgb(255,160,122)" stroke-linecap="butt" stroke-miterlimit="10.0"><path d="M 120.0000,338.5641 l -20.0000,34.6410 c 30.4038,17.5537 64.8927,26.7949 100.0000 26.7949l 0.0000,-40.0000 c -28.0859,-0.0000 -55.6769,-7.3930 -80.0000 -21.4359Z"/></g><g stroke-linejoin="miter" stroke-opacity="1.0" fill-opacity="1.0" stroke="rgb(0,0,0)" stroke-width="1.6" fill="rgb(173,216,230)" stroke-linecap="butt" stroke-miterlimit="10.0"><path d="M 61.4359,280.0000 l -34.6410,20.0000 c 17.5537,30.4038 42.8012,55.6514 73.2051 73.2051l 20.0000,-34.6410 c -24.3231,-14.0429 -44.5211,-34.2410 -58.5641 -58.5641Z"/></g><g stroke-linejoin="miter" stroke-opacity="1.0" fill-opacity="1.0" stroke="rgb(0,0,0)" stroke-width="1.6" fill="rgb(255,255,0)" stroke-linecap="butt" stroke-miterlimit="10.0"><path d="M 40.0000,200.0000 l -40.0000,-0.0000 c 0.0000,35.1073 9.2413,69.5962 26.7949 100.0000l 34.6410,-20.0000 c -14.0429,-24.3231 -21.4359,-51.9141 -21.4359 -80.0000Z"/></g><g stroke-linejoin="miter" stroke-opacity="1.0" fill-opacity="1.0" stroke="rgb(0,0,0)" stroke-width="1.6" fill="rgb(0,100,0)" stroke-linecap="butt" stroke-miterlimit="10.0"><path d="M 61.4359,120.0000 l -34.6410,-20.0000 c -17.5537,30.4038 -26.7949,64.8927 -26.7949 100.0000l 40.0000,0.0000 c 0.0000,-28.0859 7.3930,-55.6769 21.4359 -80.0000Z"/></g><g stroke-linejoin="miter" stroke-opacity="1.0" fill-opacity="1.0" stroke="rgb(0,0,0)" stroke-width="1.6" fill="rgb(255,160,122)" stroke-linecap="butt" stroke-miterlimit="10.0"><path d="M 120.0000,61.4359 l -20.0000,-34.6410 c -30.4038,17.5537 -55.6514,42.8012 -73.2051 73.2051l 34.6410,20.0000 c 14.0429,-24.3231 34.2410,-44.5211 58.5641 -58.5641Z"/></g><g stroke-linejoin="miter" stroke-opacity="1.0" fill-opacity="1.0" stroke="rgb(0,0,0)" stroke-width="1.6" fill="rgb(173,216,230)" stroke-linecap="butt" stroke-miterlimit="10.0"><path d="M 200.0000,40.0000 l 0.0000,-40.0000 c -35.1073,0.0000 -69.5962,9.2413 -100.0000 26.7949l 20.0000,34.6410 c 24.3231,-14.0429 51.9141,-21.4359 80.0000 -21.4359Z"/></g><g stroke-linejoin="miter" stroke-opacity="1.0" fill-opacity="1.0" stroke="rgb(0,0,0)" stroke-width="1.6" fill="rgb(255,255,0)" stroke-linecap="butt" stroke-miterlimit="10.0"><path d="M 280.0000,61.4359 l 20.0000,-34.6410 c -30.4038,-17.5537 -64.8927,-26.7949 -100.0000 -26.7949l -0.0000,40.0000 c 28.0859,0.0000 55.6769,7.3930 80.0000 21.4359Z"/></g><g stroke-linejoin="miter" stroke-opacity="1.0" fill-opacity="1.0" stroke="rgb(0,0,0)" stroke-width="1.6" fill="rgb(0,100,0)" stroke-linecap="butt" stroke-miterlimit="10.0"><path d="M 338.5641,120.0000 l 34.6410,-20.0000 c -17.5537,-30.4038 -42.8012,-55.6514 -73.2051 -73.2051l -20.0000,34.6410 c 24.3231,14.0429 44.5211,34.2410 58.5641 58.5641Z"/></g><g stroke-linejoin="miter" stroke-opacity="1.0" fill-opacity="1.0" stroke="rgb(0,0,0)" stroke-width="1.6" fill="rgb(255,160,122)" stroke-linecap="butt" stroke-miterlimit="10.0"><path d="M 360.0000,200.0000 h 40.0000 c -0.0000,-35.1073 -9.2413,-69.5962 -26.7949 -100.0000l -34.6410,20.0000 c 14.0429,24.3231 21.4359,51.9141 21.4359 80.0000Z"/></g></svg>