<?xml version="1.0" encoding="UTF-8"?>
<!DOCTYPE svg PUBLIC "-//W3C//DTD SVG 1.1//EN"
    "http://www.w3.org/Graphics/SVG/1.1/DTD/svg11.dtd"><svg xmlns="http://www.w3.org/2000/svg" height="400.0065" stroke-opacity="1" viewBox="0.0 0.0 400.0 400.0064845978881" font-size="1" width="400.0000" xmlns:xlink="http://www.w3.org/1999/xlink" stroke="rgb(0,0,0)" version="1.1"><defs></defs><g stroke-linejoin="miter" stroke-opacity="1.0" fill-opacity="0.0" stroke="rgb(0,0,255)" stroke-width="1.6000129691432143" fill="rgb(0,0,0)" stroke-linecap="butt" stroke-miterlimit="10.0"><path d="M 133.8381,274.9872 l 165.5082,-63.5689 "/></g><g stroke-linejoin="miter" stroke-opacity="1.0" fill-opacity="0.0" stroke="rgb(255,0,0)" stroke-width="1.6000129691432143" fill="rgb(0,0,0)" stroke-linecap="butt" stroke-miterlimit="10.0"><path d="M 133.8381,274.9872 l 138.2331,-144.3074 "/></g><g stroke-linejoin="miter" stroke-opacity="1.0" fill-opacity="0.0" stroke="rgb(255,0,0)" stroke-width="1.6000129691432143" fill="rgb(0,0,0)" stroke-linecap="butt" stroke-miterlimit="10.0"><path d="M 133.8381,274.9872 l 136.4745,-146.0904 "/></g><g stroke-linejoin="miter" stroke-opacity="1.0" fill-opacity="0.0" stroke="rgb(0,0,255)" stroke-width="1.6000129691432143" fill="rgb(0,0,0)" stroke-linecap="butt" stroke-miterlimit="10.0"><path d="M 133.8381,274.9872 l 104.3977,17.4174 "/></g><g stroke-linejoin="miter" stroke-opacity="1.0" fill-opacity="0.0" stroke="rgb(0,0,255)" stroke-width="1.6000129691432143" fill="rgb(0,0,0)" stroke-linecap="butt" stroke-miterlimit="10.0"><path d="M 133.8381,274.9872 l 163.9435,-54.0378 "/></g><g stroke-linejoin="miter" stroke-opacity="1.0" fill-opacity="0.0" stroke="rgb(0,0,255)" stroke-width="1.6000129691432143" fill="rgb(0,0,0)" stroke-linecap="butt" stroke-miterlimit="10.0"><path d="M 133.8381,274.9872 l 160.0411,-40.5359 "/></g><g stroke-linejoin="miter" stroke-opacity="1.0" fill-opacity="0.0" stroke="rgb(0,0,255)" stroke-width="1.6000129691432143" fill="rgb(0,0,0)" stroke-linecap="butt" stroke-miterlimit="10.0"><path d="M 133.8381,274.9872 l 162.2784,-47.3869 "/></g><g stroke-linejoin="miter" stroke-opacity="1.0" fill-opacity="0.0" stroke="rgb(0,0,255)" stroke-width="1.6000129691432143" fill="rgb(0,0,0)" stroke-linecap="butt" stroke-miterlimit="10.0"><path d="M 133.8381,274.9872 l 163.9356,-95.9672 "/></g><g stroke-linejoin="miter" stroke-opacity="1.0" fill-opacity="0.0" stroke="rgb(255,0,0)" stroke-width="1.6000129691432143" fill="rgb(0,0,0)" stroke-linecap="butt" stroke-miterlimit="10.0"><path d="M 156.2823,289.9407 l 137.5970,-55.4894 "/></g><g stroke-linejoin="miter" stroke-opacity="1.0" fill-opacity="0.0" stroke="rgb(255,0,0)" stroke-width="1.6000129691432143" fill="rgb(0,0,0)" stroke-linecap="butt" stroke-miterlimit="10.0"><path d="M 156.2823,289.9407 l 139.8343,-62.3404 "/></g><g stroke-linejoin="miter" stroke-opacity="1.0" fill-opacity="0.0" stroke="rgb(255,0,0)" stroke-width="1.6000129691432143" fill="rgb(0,0,0)" stroke-linecap="butt" stroke-miterlimit="10.0"><path d="M 156.2823,289.9407 l 131.8866,-42.7544 "/></g><g stroke-linejoin="miter" stroke-opacity="1.0" fill-opacity="0.0" stroke="rgb(0,0,255)" stroke-width="1.6000129691432143" fill="rgb(0,0,0)" stroke-linecap="butt" stroke-miterlimit="10.0"><path d="M 156.2823,289.9407 l 141.4914,-110.9207 "/></g><g stroke-linejoin="miter" stroke-opacity="1.0" fill-opacity="0.0" stroke="rgb(255,0,0)" stroke-width="1.6000129691432143" fill="rgb(0,0,0)" stroke-linecap="butt" stroke-miterlimit="10.0"><path d="M 156.2823,289.9407 l 130.5630,-40.3603 "/></g><g stroke-linejoin="miter" stroke-opacity="1.0" fill-opacity="0.0" stroke="rgb(255,0,0)" stroke-width="1.6000129691432143" fill="rgb(0,0,0)" stroke-linecap="butt" stroke-miterlimit="10.0"><path d="M 272.0712,130.6799 l -138.2331,144.3074 "/></g><g stroke-linejoin="miter" stroke-opacity="1.0" fill-opacity="0.0" stroke="rgb(0,0,255)" stroke-width="1.6000129691432143" fill="rgb(0,0,0)" stroke-linecap="butt" stroke-miterlimit="10.0"><path d="M 272.0712,130.6799 l -1.7586,-1.7830 "/></g><g stroke-linejoin="miter" stroke-opacity="1.0" fill-opacity="0.0" stroke="rgb(255,0,0)" stroke-width="1.6000129691432143" fill="rgb(0,0,0)" stroke-linecap="butt" stroke-miterlimit="10.0"><path d="M 272.0712,130.6799 l -128.3368,-13.3457 "/></g><g stroke-linejoin="miter" stroke-opacity="1.0" fill-opacity="0.0" stroke="rgb(255,0,0)" stroke-width="1.6000129691432143" fill="rgb(0,0,0)" stroke-linecap="butt" stroke-miterlimit="10.0"><path d="M 272.0712,130.6799 l -73.0887,-30.6714 "/></g><g stroke-linejoin="miter" stroke-opacity="1.0" fill-opacity="0.0" stroke="rgb(255,0,0)" stroke-width="1.6000129691432143" fill="rgb(0,0,0)" stroke-linecap="butt" stroke-miterlimit="10.0"><path d="M 270.3127,128.8968 l -136.4745,146.0904 "/></g><g stroke-linejoin="miter" stroke-opacity="1.0" fill-opacity="0.0" stroke="rgb(255,0,0)" stroke-width="1.6000129691432143" fill="rgb(0,0,0)" stroke-linecap="butt" stroke-miterlimit="10.0"><path d="M 270.3127,128.8968 l -71.3302,-28.8884 "/></g><g stroke-linejoin="miter" stroke-opacity="1.0" fill-opacity="0.0" stroke="rgb(0,0,255)" stroke-width="1.6000129691432143" fill="rgb(0,0,0)" stroke-linecap="butt" stroke-miterlimit="10.0"><path d="M 238.2359,292.4046 l 61.1104,-80.9862 "/></g><g stroke-linejoin="miter" stroke-opacity="1.0" fill-opacity="0.0" stroke="rgb(0,0,255)" stroke-width="1.6000129691432143" fill="rgb(0,0,0)" stroke-linecap="butt" stroke-miterlimit="10.0"><path d="M 238.2359,292.4046 l 33.8354,-161.7247 "/></g><g stroke-linejoin="miter" stroke-opacity="1.0" fill-opacity="0.0" stroke="rgb(0,0,255)" stroke-width="1.6000129691432143" fill="rgb(0,0,0)" stroke-linecap="butt" stroke-miterlimit="10.0"><path d="M 238.2359,292.4046 l 32.0768,-163.5078 "/></g><g stroke-linejoin="miter" stroke-opacity="1.0" fill-opacity="0.0" stroke="rgb(0,0,255)" stroke-width="1.6000129691432143" fill="rgb(0,0,0)" stroke-linecap="butt" stroke-miterlimit="10.0"><path d="M 238.2359,292.4046 l 59.5458,-71.4551 "/></g><g stroke-linejoin="miter" stroke-opacity="1.0" fill-opacity="0.0" stroke="rgb(255,0,0)" stroke-width="1.6000129691432143" fill="rgb(0,0,0)" stroke-linecap="butt" stroke-miterlimit="10.0"><path d="M 238.2359,292.4046 l 55.6434,-57.9532 "/></g><g stroke-linejoin="miter" stroke-opacity="1.0" fill-opacity="0.0" stroke="rgb(0,0,255)" stroke-width="1.6000129691432143" fill="rgb(0,0,0)" stroke-linecap="butt" stroke-miterlimit="10.0"><path d="M 297.7816,220.9495 l 1.5647,-9.5311 "/></g><g stroke-linejoin="miter" stroke-opacity="1.0" fill-opacity="0.0" stroke="rgb(0,0,255)" stroke-width="1.6000129691432143" fill="rgb(0,0,0)" stroke-linecap="butt" stroke-miterlimit="10.0"><path d="M 297.7816,220.9495 l -25.7104,-90.2696 "/></g><g stroke-linejoin="miter" stroke-opacity="1.0" fill-opacity="0.0" stroke="rgb(0,0,255)" stroke-width="1.6000129691432143" fill="rgb(0,0,0)" stroke-linecap="butt" stroke-miterlimit="10.0"><path d="M 297.7816,220.9495 l -27.4690,-92.0527 "/></g><g stroke-linejoin="miter" stroke-opacity="1.0" fill-opacity="0.0" stroke="rgb(255,0,0)" stroke-width="1.6000129691432143" fill="rgb(0,0,0)" stroke-linecap="butt" stroke-miterlimit="10.0"><path d="M 297.7816,220.9495 l -154.0472,-103.6154 "/></g><g stroke-linejoin="miter" stroke-opacity="1.0" fill-opacity="0.0" stroke="rgb(0,0,255)" stroke-width="1.6000129691432143" fill="rgb(0,0,0)" stroke-linecap="butt" stroke-miterlimit="10.0"><path d="M 293.8793,234.4514 l -21.8081,-103.7715 "/></g><g stroke-linejoin="miter" stroke-opacity="1.0" fill-opacity="0.0" stroke="rgb(0,0,255)" stroke-width="1.6000129691432143" fill="rgb(0,0,0)" stroke-linecap="butt" stroke-miterlimit="10.0"><path d="M 293.8793,234.4514 l -23.5666,-105.5545 "/></g><g stroke-linejoin="miter" stroke-opacity="1.0" fill-opacity="0.0" stroke="rgb(0,0,255)" stroke-width="1.6000129691432143" fill="rgb(0,0,0)" stroke-linecap="butt" stroke-miterlimit="10.0"><path d="M 293.8793,234.4514 l 3.9024,-13.5019 "/></g><g stroke-linejoin="miter" stroke-opacity="1.0" fill-opacity="0.0" stroke="rgb(0,0,255)" stroke-width="1.6000129691432143" fill="rgb(0,0,0)" stroke-linecap="butt" stroke-miterlimit="10.0"><path d="M 293.8793,234.4514 l 2.2373,-6.8511 "/></g><g stroke-linejoin="miter" stroke-opacity="1.0" fill-opacity="0.0" stroke="rgb(0,0,255)" stroke-width="1.6000129691432143" fill="rgb(0,0,0)" stroke-linecap="butt" stroke-miterlimit="10.0"><path d="M 293.8793,234.4514 l -150.1448,-117.1172 "/></g><g stroke-linejoin="miter" stroke-opacity="1.0" fill-opacity="0.0" stroke="rgb(0,0,255)" stroke-width="1.6000129691432143" fill="rgb(0,0,0)" stroke-linecap="butt" stroke-miterlimit="10.0"><path d="M 293.8793,234.4514 l -94.8968,-134.4429 "/></g><g stroke-linejoin="miter" stroke-opacity="1.0" fill-opacity="0.0" stroke="rgb(0,128,0)" stroke-width="1.6000129691432143" fill="rgb(0,0,0)" stroke-linecap="butt" stroke-miterlimit="10.0"><path d="M 293.8793,234.4514 l 3.8944,-55.4313 "/></g><g stroke-linejoin="miter" stroke-opacity="1.0" fill-opacity="0.0" stroke="rgb(0,0,255)" stroke-width="1.6000129691432143" fill="rgb(0,0,0)" stroke-linecap="butt" stroke-miterlimit="10.0"><path d="M 296.1166,227.6003 l 3.2297,-16.1820 "/></g><g stroke-linejoin="miter" stroke-opacity="1.0" fill-opacity="0.0" stroke="rgb(0,0,255)" stroke-width="1.6000129691432143" fill="rgb(0,0,0)" stroke-linecap="butt" stroke-miterlimit="10.0"><path d="M 296.1166,227.6003 l -24.0453,-96.9204 "/></g><g stroke-linejoin="miter" stroke-opacity="1.0" fill-opacity="0.0" stroke="rgb(0,0,255)" stroke-width="1.6000129691432143" fill="rgb(0,0,0)" stroke-linecap="butt" stroke-miterlimit="10.0"><path d="M 296.1166,227.6003 l -25.8039,-98.7035 "/></g><g stroke-linejoin="miter" stroke-opacity="1.0" fill-opacity="0.0" stroke="rgb(0,0,255)" stroke-width="1.6000129691432143" fill="rgb(0,0,0)" stroke-linecap="butt" stroke-miterlimit="10.0"><path d="M 296.1166,227.6003 l 1.6651,-6.6508 "/></g><g stroke-linejoin="miter" stroke-opacity="1.0" fill-opacity="0.0" stroke="rgb(0,128,0)" stroke-width="1.6000129691432143" fill="rgb(0,0,0)" stroke-linecap="butt" stroke-miterlimit="10.0"><path d="M 296.1166,227.6003 l 1.6571,-48.5802 "/></g><g stroke-linejoin="miter" stroke-opacity="1.0" fill-opacity="0.0" stroke="rgb(0,0,255)" stroke-width="1.6000129691432143" fill="rgb(0,0,0)" stroke-linecap="butt" stroke-miterlimit="10.0"><path d="M 143.7344,117.3341 l 12.5478,172.6066 "/></g><g stroke-linejoin="miter" stroke-opacity="1.0" fill-opacity="0.0" stroke="rgb(255,0,0)" stroke-width="1.6000129691432143" fill="rgb(0,0,0)" stroke-linecap="butt" stroke-miterlimit="10.0"><path d="M 198.9825,100.0085 l -65.1444,174.9788 "/></g><g stroke-linejoin="miter" stroke-opacity="1.0" fill-opacity="0.0" stroke="rgb(0,0,255)" stroke-width="1.6000129691432143" fill="rgb(0,0,0)" stroke-linecap="butt" stroke-miterlimit="10.0"><path d="M 288.1689,247.1863 l -16.0977,-116.5064 "/></g><g stroke-linejoin="miter" stroke-opacity="1.0" fill-opacity="0.0" stroke="rgb(0,0,255)" stroke-width="1.6000129691432143" fill="rgb(0,0,0)" stroke-linecap="butt" stroke-miterlimit="10.0"><path d="M 288.1689,247.1863 l -17.8562,-118.2895 "/></g><g stroke-linejoin="miter" stroke-opacity="1.0" fill-opacity="0.0" stroke="rgb(0,0,255)" stroke-width="1.6000129691432143" fill="rgb(0,0,0)" stroke-linecap="butt" stroke-miterlimit="10.0"><path d="M 288.1689,247.1863 l 5.7104,-12.7349 "/></g><g stroke-linejoin="miter" stroke-opacity="1.0" fill-opacity="0.0" stroke="rgb(0,128,0)" stroke-width="1.6000129691432143" fill="rgb(0,0,0)" stroke-linecap="butt" stroke-miterlimit="10.0"><path d="M 288.1689,247.1863 l -144.4344,-129.8522 "/></g><g stroke-linejoin="miter" stroke-opacity="1.0" fill-opacity="0.0" stroke="rgb(0,0,255)" stroke-width="1.6000129691432143" fill="rgb(0,0,0)" stroke-linecap="butt" stroke-miterlimit="10.0"><path d="M 288.1689,247.1863 l -89.1864,-147.1778 "/></g><g stroke-linejoin="miter" stroke-opacity="1.0" fill-opacity="0.0" stroke="rgb(0,128,0)" stroke-width="1.6000129691432143" fill="rgb(0,0,0)" stroke-linecap="butt" stroke-miterlimit="10.0"><path d="M 297.7737,179.0201 l -25.7025,-48.3402 "/></g><g stroke-linejoin="miter" stroke-opacity="1.0" fill-opacity="0.0" stroke="rgb(0,0,255)" stroke-width="1.6000129691432143" fill="rgb(0,0,0)" stroke-linecap="butt" stroke-miterlimit="10.0"><path d="M 297.7737,179.0201 l -154.0393,-61.6859 "/></g><g stroke-linejoin="miter" stroke-opacity="1.0" fill-opacity="0.0" stroke="rgb(0,0,255)" stroke-width="1.6000129691432143" fill="rgb(0,0,0)" stroke-linecap="butt" stroke-miterlimit="10.0"><path d="M 286.8453,249.5804 l -14.7740,-118.9005 "/></g><g stroke-linejoin="miter" stroke-opacity="1.0" fill-opacity="0.0" stroke="rgb(0,0,255)" stroke-width="1.6000129691432143" fill="rgb(0,0,0)" stroke-linecap="butt" stroke-miterlimit="10.0"><path d="M 286.8453,249.5804 l 7.0340,-15.1290 "/></g><g stroke-linejoin="miter" stroke-opacity="1.0" fill-opacity="0.0" stroke="rgb(0,0,255)" stroke-width="1.6000129691432143" fill="rgb(0,0,0)" stroke-linecap="butt" stroke-miterlimit="10.0"><path d="M 286.8453,249.5804 l -87.8628,-149.5719 "/></g><g stroke-linejoin="miter" stroke-opacity="1.0" fill-opacity="0.0" stroke="rgb(0,0,255)" stroke-width="1.6000129691432143" fill="rgb(0,0,0)" stroke-linecap="butt" stroke-miterlimit="10.0"><path d="M 286.8453,249.5804 l 1.3236,-2.3941 "/></g><g stroke-linejoin="miter" stroke-opacity="1.0" fill-opacity="0.0" stroke="rgb(255,0,0)" stroke-width="1.6000129691432143" fill="rgb(0,0,0)" stroke-linecap="butt" stroke-miterlimit="10.0"><path d="M 299.3463,211.4184 l -100.3638,-111.4099 "/></g><a xlink:href="/explanations#angle-X"><g stroke-linejoin="miter" stroke-opacity="1.0" fill-opacity="0.0" stroke="rgb(0,0,0)" stroke-width="0.8000064845716072" fill="rgb(0,0,0)" stroke-linecap="butt" stroke-miterlimit="10.0"><path d="M 200.0000,200.0032 l 8.3866,-199.8240 c -110.3598,-4.6318 -203.5788,81.0777 -208.2106 191.4375c -0.1173,2.7940 -0.1759,5.5901 -0.1759 8.3866Z"/></g></a><g stroke-linejoin="miter" stroke-opacity="1.0" fill-opacity="1.0" font-size="9.999996560614559px" stroke="rgb(0,0,0)" stroke-width="1.6000129691432143" fill="rgb(0,0,0)" stroke-linecap="butt" stroke-miterlimit="10.0"><text dominant-baseline="middle" transform="matrix(0.9993,0.0384,-0.0384,0.9993,195.8203,50.0615)" stroke="none" text-anchor="middle">MC</text></g><a xlink:href="/explanations#angle-VII"><g stroke-linejoin="miter" stroke-opacity="1.0" fill-opacity="0.0" stroke="rgb(0,0,0)" stroke-width="0.8000064845716072" fill="rgb(0,0,0)" stroke-linecap="butt" stroke-miterlimit="10.0"><path d="M 200.0000,200.0032 l 199.9999,-0.0000 c 0.0000,-107.1948 -84.5128,-195.3290 -191.6134 -199.8240Z"/></g></a><g stroke-linejoin="miter" stroke-opacity="1.0" fill-opacity="1.0" font-size="9.999996560614559px" stroke="rgb(0,0,0)" stroke-width="1.6000129691432143" fill="rgb(0,0,0)" stroke-linecap="butt" stroke-miterlimit="10.0"><text dominant-baseline="middle" transform="matrix(0.9993,0.0384,-0.0384,0.9993,349.6346,189.5398)" stroke="none" text-anchor="middle">DC</text></g><a xlink:href="/explanations#angle-IV"><g stroke-linejoin="miter" stroke-opacity="1.0" fill-opacity="0.0" stroke="rgb(0,0,0)" stroke-width="0.8000064845716072" fill="rgb(0,0,0)" stroke-linecap="butt" stroke-miterlimit="10.0"><path d="M 200.0000,200.0032 l -8.3866,199.8240 c 110.3598,4.6318 203.5788,-81.0777 208.2106 -191.4375c 0.1173,-2.7940 0.1759,-5.5901 0.1759 -8.3866Z"/></g></a><g stroke-linejoin="miter" stroke-opacity="1.0" fill-opacity="1.0" font-size="9.999996560614559px" stroke="rgb(0,0,0)" stroke-width="1.6000129691432143" fill="rgb(0,0,0)" stroke-linecap="butt" stroke-miterlimit="10.0"><text dominant-baseline="middle" transform="matrix(0.9993,0.0384,-0.0384,0.9993,204.1797,349.9449)" stroke="none" text-anchor="middle">IC</text></g><a xlink:href="/explanations#angle-I"><g stroke-linejoin="miter" stroke-opacity="1.0" fill-opacity="0.0" stroke="rgb(0,0,0)" stroke-width="0.8000064845716072" fill="rgb(0,0,0)" stroke-linecap="butt" stroke-miterlimit="10.0"><path d="M 200.0000,200.0032 l -199.9999,0.0000 c 0.0000,107.1948 84.5128,195.3290 191.6134 199.8240Z"/></g></a><g stroke-linejoin="miter" stroke-opacity="1.0" fill-opacity="1.0" font-size="9.999996560614559px" stroke="rgb(0,0,0)" stroke-width="1.6000129691432143" fill="rgb(0,0,0)" stroke-linecap="butt" stroke-miterlimit="10.0"><text dominant-baseline="middle" transform="matrix(0.9993,0.0384,-0.0384,0.9993,50.3654,210.4667)" stroke="none" text-anchor="middle">ASC</text></g><a xlink:href="/explanations#house-XII"><g stroke-linejoin="miter" stroke-opacity="1.0" fill-opacity="0.0" stroke="rgb(0,0,0)" stroke-width="0.8000064845716072" fill="rgb(0,0,0)" stroke-linecap="butt" stroke-miterlimit="10.0"><path d="M 112.6882,151.2524 l -52.3871,-29.2505 c -13.3123,23.8421 -20.3011,50.6946 -20.3011 78.0014l 60.0000,0.0000 c 0.0000,-17.0668 4.3680,-33.8496 12.6882 -48.7509Z"/></g></a><g stroke-linejoin="miter" stroke-opacity="1.0" fill-opacity="1.0" font-size="9.999996560614559px" stroke="rgb(0,0,0)" stroke-width="1.6000129691432143" fill="rgb(128,128,128)" stroke-linecap="butt" stroke-miterlimit="10.0"><text dominant-baseline="middle" transform="matrix(0.9993,0.0384,-0.0384,0.9993,99.6487,154.9520)" stroke="none" text-anchor="middle">12</text></g><a xlink:href="/explanations#house-XI"><g stroke-linejoin="miter" stroke-opacity="1.0" fill-opacity="0.0" stroke="rgb(0,0,0)" stroke-width="0.8000064845716072" fill="rgb(0,0,0)" stroke-linecap="butt" stroke-miterlimit="10.0"><path d="M 149.8825,113.4687 l -30.0705,-51.9207 c -24.9149,14.4298 -45.4745,35.3152 -59.5108 60.4538l 52.3871,29.2505 c 8.7727,-15.7117 21.6224,-28.7650 37.1942 -37.7836Z"/></g></a><g stroke-linejoin="miter" stroke-opacity="1.0" fill-opacity="1.0" font-size="9.999996560614559px" stroke="rgb(0,0,0)" stroke-width="1.6000129691432143" fill="rgb(128,128,128)" stroke-linecap="butt" stroke-miterlimit="10.0"><text dominant-baseline="middle" transform="matrix(0.9993,0.0384,-0.0384,0.9993,136.7843,109.9823)" stroke="none" text-anchor="middle">11</text></g><a xlink:href="/explanations#house-X"><g stroke-linejoin="miter" stroke-opacity="1.0" fill-opacity="0.0" stroke="rgb(0,0,0)" stroke-width="0.8000064845716072" fill="rgb(0,0,0)" stroke-linecap="butt" stroke-miterlimit="10.0"><path d="M 204.1933,100.0912 l 2.5160,-59.9472 c -30.4121,-1.2764 -60.5572,6.1488 -86.8973 21.4040l 30.0705,51.9207 c 16.4626,-9.5345 35.3033,-14.1752 54.3108 -13.3775Z"/></g></a><g stroke-linejoin="miter" stroke-opacity="1.0" fill-opacity="1.0" font-size="9.999996560614559px" stroke="rgb(0,0,0)" stroke-width="1.6000129691432143" fill="rgb(128,128,128)" stroke-linecap="butt" stroke-miterlimit="10.0"><text dominant-baseline="middle" transform="matrix(0.9993,0.0384,-0.0384,0.9993,195.0164,90.1162)" stroke="none" text-anchor="middle">10</text></g><a xlink:href="/explanations#house-IX"><g stroke-linejoin="miter" stroke-opacity="1.0" fill-opacity="0.0" stroke="rgb(0,0,0)" stroke-width="0.8000064845716072" fill="rgb(0,0,0)" stroke-linecap="butt" stroke-miterlimit="10.0"><path d="M 256.6479,117.5957 l 33.9887,-49.4445 c -24.7871,-17.0389 -53.8752,-26.7458 -83.9274 -28.0071l -2.5160,59.9472 c 18.7826,0.7883 36.9627,6.8551 52.4546 17.5044Z"/></g></a><g stroke-linejoin="miter" stroke-opacity="1.0" fill-opacity="1.0" font-size="9.999996560614559px" stroke="rgb(0,0,0)" stroke-width="1.6000129691432143" fill="rgb(128,128,128)" stroke-linecap="butt" stroke-miterlimit="10.0"><text dominant-baseline="middle" transform="matrix(0.9993,0.0384,-0.0384,0.9993,254.1750,104.2689)" stroke="none" text-anchor="middle">9</text></g><a xlink:href="/explanations#house-VIII"><g stroke-linejoin="miter" stroke-opacity="1.0" fill-opacity="0.0" stroke="rgb(0,0,0)" stroke-width="0.8000064845716072" fill="rgb(0,0,0)" stroke-linecap="butt" stroke-miterlimit="10.0"><path d="M 289.6765,155.7526 l 53.8059,-26.5504 c -12.1061,-24.5336 -30.3007,-45.5533 -52.8457 -61.0510l -33.9887,49.4445 c 14.0906,9.6861 25.4623,22.8234 33.0286 38.1569Z"/></g></a><g stroke-linejoin="miter" stroke-opacity="1.0" fill-opacity="1.0" font-size="9.999996560614559px" stroke="rgb(0,0,0)" stroke-width="1.6000129691432143" fill="rgb(128,128,128)" stroke-linecap="butt" stroke-miterlimit="10.0"><text dominant-baseline="middle" transform="matrix(0.9993,0.0384,-0.0384,0.9993,294.0264,142.9153)" stroke="none" text-anchor="middle">8</text></g><a xlink:href="/explanations#house-VII"><g stroke-linejoin="miter" stroke-opacity="1.0" fill-opacity="0.0" stroke="rgb(0,0,0)" stroke-width="0.8000064845716072" fill="rgb(0,0,0)" stroke-linecap="butt" stroke-miterlimit="10.0"><path d="M 300.0000,200.0032 l 60.0000,-0.0000 c -0.0000,-24.5552 -5.6517,-48.7809 -16.5176 -70.8011l -53.8059,26.5504 c 6.7911,13.7626 10.3235,28.9037 10.3235 44.2507Z"/></g></a><g stroke-linejoin="miter" stroke-opacity="1.0" fill-opacity="1.0" font-size="9.999996560614559px" stroke="rgb(0,0,0)" stroke-width="1.6000129691432143" fill="rgb(128,128,128)" stroke-linecap="butt" stroke-miterlimit="10.0"><text dominant-baseline="middle" transform="matrix(0.9993,0.0384,-0.0384,0.9993,309.5814,190.4161)" stroke="none" text-anchor="middle">7</text></g><a xlink:href="/explanations#house-VI"><g stroke-linejoin="miter" stroke-opacity="1.0" fill-opacity="0.0" stroke="rgb(0,0,0)" stroke-width="0.8000064845716072" fill="rgb(0,0,0)" stroke-linecap="butt" stroke-miterlimit="10.0"><path d="M 287.3118,248.7541 l 52.3871,29.2505 c 13.3123,-23.8421 20.3011,-50.6946 20.3011 -78.0014h -60.0000 c 0.0000,17.0668 -4.3680,33.8496 -12.6882 48.7509Z"/></g></a><g stroke-linejoin="miter" stroke-opacity="1.0" fill-opacity="1.0" font-size="9.999996560614559px" stroke="rgb(0,0,0)" stroke-width="1.6000129691432143" fill="rgb(128,128,128)" stroke-linecap="butt" stroke-miterlimit="10.0"><text dominant-baseline="middle" transform="matrix(0.9993,0.0384,-0.0384,0.9993,300.3513,245.0545)" stroke="none" text-anchor="middle">6</text></g><a xlink:href="/explanations#house-V"><g stroke-linejoin="miter" stroke-opacity="1.0" fill-opacity="0.0" stroke="rgb(0,0,0)" stroke-width="0.8000064845716072" fill="rgb(0,0,0)" stroke-linecap="butt" stroke-miterlimit="10.0"><path d="M 250.1175,286.5378 l 30.0705,51.9207 c 24.9149,-14.4298 45.4745,-35.3152 59.5108 -60.4538l -52.3871,-29.2505 c -8.7727,15.7117 -21.6224,28.7650 -37.1942 37.7836Z"/></g></a><g stroke-linejoin="miter" stroke-opacity="1.0" fill-opacity="1.0" font-size="9.999996560614559px" stroke="rgb(0,0,0)" stroke-width="1.6000129691432143" fill="rgb(128,128,128)" stroke-linecap="butt" stroke-miterlimit="10.0"><text dominant-baseline="middle" transform="matrix(0.9993,0.0384,-0.0384,0.9993,263.2157,290.0242)" stroke="none" text-anchor="middle">5</text></g><a xlink:href="/explanations#house-IV"><g stroke-linejoin="miter" stroke-opacity="1.0" fill-opacity="0.0" stroke="rgb(0,0,0)" stroke-width="0.8000064845716072" fill="rgb(0,0,0)" stroke-linecap="butt" stroke-miterlimit="10.0"><path d="M 195.8067,299.9153 l -2.5160,59.9472 c 30.4121,1.2764 60.5572,-6.1488 86.8973 -21.4040l -30.0705,-51.9207 c -16.4626,9.5345 -35.3033,14.1752 -54.3108 13.3775Z"/></g></a><g stroke-linejoin="miter" stroke-opacity="1.0" fill-opacity="1.0" font-size="9.999996560614559px" stroke="rgb(0,0,0)" stroke-width="1.6000129691432143" fill="rgb(128,128,128)" stroke-linecap="butt" stroke-miterlimit="10.0"><text dominant-baseline="middle" transform="matrix(0.9993,0.0384,-0.0384,0.9993,204.9836,309.8903)" stroke="none" text-anchor="middle">4</text></g><a xlink:href="/explanations#house-III"><g stroke-linejoin="miter" stroke-opacity="1.0" fill-opacity="0.0" stroke="rgb(0,0,0)" stroke-width="0.8000064845716072" fill="rgb(0,0,0)" stroke-linecap="butt" stroke-miterlimit="10.0"><path d="M 143.3521,282.4108 l -33.9887,49.4445 c 24.7871,17.0389 53.8752,26.7458 83.9274 28.0071l 2.5160,-59.9472 c -18.7826,-0.7883 -36.9627,-6.8551 -52.4546 -17.5044Z"/></g></a><g stroke-linejoin="miter" stroke-opacity="1.0" fill-opacity="1.0" font-size="9.999996560614559px" stroke="rgb(0,0,0)" stroke-width="1.6000129691432143" fill="rgb(128,128,128)" stroke-linecap="butt" stroke-miterlimit="10.0"><text dominant-baseline="middle" transform="matrix(0.9993,0.0384,-0.0384,0.9993,145.8250,295.7375)" stroke="none" text-anchor="middle">3</text></g><a xlink:href="/explanations#house-II"><g stroke-linejoin="miter" stroke-opacity="1.0" fill-opacity="0.0" stroke="rgb(0,0,0)" stroke-width="0.8000064845716072" fill="rgb(0,0,0)" stroke-linecap="butt" stroke-miterlimit="10.0"><path d="M 110.3235,244.2539 l -53.8059,26.5504 c 12.1061,24.5336 30.3007,45.5533 52.8457 61.0510l 33.9887,-49.4445 c -14.0906,-9.6861 -25.4623,-22.8234 -33.0286 -38.1569Z"/></g></a><g stroke-linejoin="miter" stroke-opacity="1.0" fill-opacity="1.0" font-size="9.999996560614559px" stroke="rgb(0,0,0)" stroke-width="1.6000129691432143" fill="rgb(128,128,128)" stroke-linecap="butt" stroke-miterlimit="10.0"><text dominant-baseline="middle" transform="matrix(0.9993,0.0384,-0.0384,0.9993,105.9736,257.0912)" stroke="none" text-anchor="middle">2</text></g><a xlink:href="/explanations#house-I"><g stroke-linejoin="miter" stroke-opacity="1.0" fill-opacity="0.0" stroke="rgb(0,0,0)" stroke-width="0.8000064845716072" fill="rgb(0,0,0)" stroke-linecap="butt" stroke-miterlimit="10.0"><path d="M 100.0000,200.0032 l -60.0000,0.0000 c 0.0000,24.5552 5.6517,48.7809 16.5176 70.8011l 53.8059,-26.5504 c -6.7911,-13.7626 -10.3235,-28.9037 -10.3235 -44.2507Z"/></g></a><g stroke-linejoin="miter" stroke-opacity="1.0" fill-opacity="1.0" font-size="9.999996560614559px" stroke="rgb(0,0,0)" stroke-width="1.6000129691432143" fill="rgb(128,128,128)" stroke-linecap="butt" stroke-miterlimit="10.0"><text dominant-baseline="middle" transform="matrix(0.9993,0.0384,-0.0384,0.9993,90.4186,209.5904)" stroke="none" text-anchor="middle">1</text></g><g><a xlink:href="/explanations#zodiac-Pisces"><g stroke-linejoin="miter" stroke-opacity="1.0" fill-opacity="1.0" stroke="rgb(0,0,0)" stroke-width="0.8000064845716072" fill="rgb(173,216,230)" stroke-linecap="butt" stroke-miterlimit="10.0"><path d="M 326.4280,101.9423 l 31.6070,-24.5152 c -21.5166,-27.7409 -49.9563,-49.3294 -82.4607 -62.5954l -15.1149,37.0343 c 26.0035,10.6128 48.7553,27.8836 65.9686 50.0763Z"/></g></a><title>Pisces</title></g><g stroke-linejoin="miter" stroke-opacity="1.0" fill-opacity="1.0" stroke="rgb(0,0,0)" stroke-width="0.8000064845716072" fill="rgb(0,0,0)" stroke-linecap="butt" stroke-miterlimit="10.0"><path d="M 301.5753,62.4721 ZM 312.4173,63.1933 c -1.2039,-1.4811 -2.4396,-3.8330 -2.3453 -6.2859l -2.5181,-0.0968 c -0.0718,1.8668 -1.0310,4.1995 -2.8210 6.0873l -1.4152,0.0543 l -0.3214,-0.1211 c 1.8526,-1.8201 2.8428,-3.8255 2.9296 -6.0831l -2.6049,-0.1002 l 0.0384,-0.9985 l 2.6049,0.1002 c -0.0334,-1.9578 -0.8516,-3.8589 -2.4739 -5.7691l 0.7406,-0.0367 l 0.9309,0.1010 c 1.4770,1.7307 2.2743,3.6092 2.4305 5.7674l 2.5181,0.0968 c 0.2997,-2.1407 1.2606,-3.9516 2.8661 -5.5638l 0.8082,-0.0994 l 0.8850,0.1645 c -1.7858,1.7792 -2.7476,3.6118 -2.9313 5.5613l 2.6049,0.1002 l -0.0384,0.9985 l -2.6049,-0.1002 c -0.0868,2.2576 0.7465,4.3331 2.4755 6.2909l -0.8958,0.1177 Z"/></g><g><a xlink:href="/explanations#zodiac-Aquarius"><g stroke-linejoin="miter" stroke-opacity="1.0" fill-opacity="1.0" stroke="rgb(0,0,0)" stroke-width="0.8000064845716072" fill="rgb(255,255,0)" stroke-linecap="butt" stroke-miterlimit="10.0"><path d="M 358.5203,178.2940 l 39.6301,-5.4273 c -4.7635,-34.7827 -18.5988,-67.6987 -40.1154 -95.4396l -31.6070,24.5152 c 17.2133,22.1928 28.2815,48.5255 32.0923 76.3517Z"/></g></a><title>Aquarius</title></g><g stroke-linejoin="miter" stroke-opacity="1.0" fill-opacity="1.0" stroke="rgb(0,0,0)" stroke-width="0.8000064845716072" fill="rgb(0,0,0)" stroke-linecap="butt" stroke-miterlimit="10.0"><path d="M 356.6879,135.9004 ZM 358.4352,127.7718 l 3.8230,-2.7444 c 0.0668,-0.0409 0.1119,-0.0827 0.1770 -0.0802c 0.0434,0.0017 0.0860,0.0250 0.1261 0.1135l 1.5012,2.2317 l 2.7318,-2.0689 c 0.0893,-0.0618 0.1344,-0.1035 0.1995 -0.1010c 0.0434,0.0017 0.0852,0.0468 0.1469 0.1361l 1.4803,2.2091 l 2.6867,-2.0272 c 0.0902,-0.0835 0.1787,-0.1236 0.2221 -0.1219c 0.0434,0.0017 0.0852,0.0468 0.1678 0.1586l 1.8944,3.3120 l -0.9777,0.5494 l -1.4803,-2.2091 c -0.0618,-0.0893 -0.0818,-0.1336 -0.1252 -0.1353c -0.0434,-0.0017 -0.1319,0.0384 -0.1995 0.1010l -2.6199,1.9863 c -0.0451,0.0417 -0.0885,0.0401 -0.1102 0.0392c -0.0434,-0.0017 -0.0643,-0.0242 -0.1060 -0.0693l -1.3768,-2.0747 c -0.0392,-0.1102 -0.0810,-0.1553 -0.1461 -0.1578c -0.0434,-0.0017 -0.0877,0.0184 -0.1545 0.0593l -2.6433,2.0288 c -0.0451,0.0417 -0.0885,0.0401 -0.1102 0.0392c -0.0434,-0.0017 -0.0643,-0.0242 -0.1060 -0.0693l -1.3968,-2.1190 c -0.0401,-0.0885 -0.0827,-0.1119 -0.1261 -0.1135c -0.0434,-0.0017 -0.0660,0.0192 -0.1327 0.0601l -2.8203,2.1090 ZM 358.4352,127.7718 ZM 358.1915,134.1104 l 3.8013,-2.7452 c 0.0885,-0.0401 0.1336,-0.0818 0.1770 -0.0802c 0.0651,0.0025 0.1069,0.0476 0.1478 0.1144l 1.5012,2.2317 l 2.7318,-2.0689 c 0.0893,-0.0618 0.1344,-0.1035 0.1778 -0.1019c 0.0651,0.0025 0.0852,0.0468 0.1687 0.1369l 1.4586,2.2083 l 2.6867,-2.0272 c 0.1119,-0.0827 0.1787,-0.1236 0.2438 -0.1211c 0.0434,0.0017 0.0852,0.0468 0.1461 0.1578l 1.9161,3.3128 l -0.9777,0.5494 l -1.4803,-2.2091 c -0.0618,-0.0893 -0.0818,-0.1336 -0.1469 -0.1361c -0.0217,-0.0008 -0.1110,0.0609 -0.1787 0.1236l -2.6190,1.9645 c -0.0668,0.0409 -0.0893,0.0618 -0.1110 0.0609c -0.0434,-0.0017 -0.0635,-0.0459 -0.1052 -0.0910l -1.3985,-2.0755 c -0.0401,-0.0885 -0.0593,-0.1545 -0.1244 -0.1570c -0.0434,-0.0017 -0.0877,0.0184 -0.1553 0.0810l -2.6424,2.0071 c -0.0668,0.0409 -0.0893,0.0618 -0.1110 0.0609c -0.0434,-0.0017 -0.0643,-0.0242 -0.1052 -0.0910l -1.4185,-2.1198 c -0.0409,-0.0668 -0.0609,-0.1110 -0.1044 -0.1127c -0.0434,-0.0017 -0.0877,0.0184 -0.1327 0.0601l -2.8203,2.1090 Z"/></g><g><a xlink:href="/explanations#zodiac-Capricorn"><g stroke-linejoin="miter" stroke-opacity="1.0" fill-opacity="1.0" stroke="rgb(0,0,0)" stroke-width="0.8000064845716072" fill="rgb(0,100,0)" stroke-linecap="butt" stroke-miterlimit="10.0"><path d="M 348.1372,260.4627 l 37.0343,15.1149 c 13.2661,-32.5044 17.7423,-67.9281 12.9788 -102.7108l -39.6301,5.4273 c 3.8108,27.8261 0.2298,56.1651 -10.3831 82.1686Z"/></g></a><title>Capricorn</title></g><g stroke-linejoin="miter" stroke-opacity="1.0" fill-opacity="1.0" stroke="rgb(0,0,0)" stroke-width="0.8000064845716072" fill="rgb(0,0,0)" stroke-linecap="butt" stroke-miterlimit="10.0"><path d="M 369.1276,227.2601 ZM 384.8529,224.7995 c 0.0451,-1.1722 -0.5644,-2.2826 -1.6498 -2.3243c -1.2156,-0.0467 -2.1382,1.3309 -2.9046 3.1710c 0.8524,1.0111 1.9537,1.2056 2.8654 1.2406c 0.8249,0.0317 1.6389,-0.7848 1.6890 -2.0873ZM 384.8529,224.7995 ZM 377.4021,216.1651 c -0.9751,1.0495 -2.7100,3.7654 -2.8603 7.6727l -0.9000,0.2263 l -0.3156,-0.2730 c 0.1018,-2.6483 -0.5962,-5.9795 -0.9385 -6.6884c -0.4625,-0.9743 -0.6955,-1.1355 -1.5279 -1.5370l 0.2137,-0.4700 c 0.9760,0.0593 1.9378,0.4876 2.2409 1.0862c 0.3824,0.7973 0.6771,2.1782 0.9093 4.0568c 0.5569,-2.0438 1.3809,-3.6861 2.5155 -4.9251l 1.6189,-0.2638 c 1.0119,2.5172 0.7774,6.9213 1.2424 8.9609c 0.8399,-1.4895 2.6867,-2.5924 4.0759 -2.5390c 1.8234,0.0701 2.8779,1.4802 2.8078 3.3037c -0.0701,1.8234 -1.6622,3.0883 -3.3337 3.0240c -1.1722,-0.0451 -2.2676,-0.3915 -3.1017 -1.3149c -1.5278,3.5500 -3.2010,3.5292 -4.3514 3.4849l -1.1288,-0.0434 l 0.0392,-1.0202 l 0.5427,0.0209 c 2.1707,0.0835 2.5665,-0.5970 3.8213 -3.8314c -0.5469,-1.0428 -0.6771,-1.0478 -0.9635 -4.3415c -0.1971,-2.2250 -0.2672,-3.7929 -0.6062 -4.5886Z"/></g><g><a xlink:href="/explanations#zodiac-Sagittarius"><g stroke-linejoin="miter" stroke-opacity="1.0" fill-opacity="1.0" stroke="rgb(0,0,0)" stroke-width="0.8000064845716072" fill="rgb(255,0,0)" stroke-linecap="butt" stroke-miterlimit="10.0"><path d="M 298.0609,326.4312 l 24.5152,31.6070 c 27.7409,-21.5166 49.3294,-49.9563 62.5954 -82.4607l -37.0343,-15.1149 c -10.6128,26.0035 -27.8836,48.7553 -50.0763 65.9686Z"/></g></a><title>Sagittarius</title></g><g stroke-linejoin="miter" stroke-opacity="1.0" fill-opacity="1.0" stroke="rgb(0,0,0)" stroke-width="0.8000064845716072" fill="rgb(0,0,0)" stroke-linecap="butt" stroke-miterlimit="10.0"><path d="M 336.1904,314.3967 ZM 349.4276,303.1446 l 0.1244,0.1570 c -0.1570,0.6896 -0.2688,1.3375 -0.2939 1.9887c -0.0392,1.0202 0.1194,1.9829 0.3682 2.8620l -0.9201,0.1820 c -0.3582,-0.8616 -0.4951,-1.8234 -0.4642 -2.6266c 0.0092,-0.2388 0.0392,-0.4550 0.0685 -0.6496l -5.6572,5.2173 l 2.4830,2.7042 l -0.9017,0.8349 l -2.4822,-2.7259 l -3.9883,3.6511 l -0.8132,-0.9008 l 3.9666,-3.6519 l -2.4839,-2.6825 l 0.9017,-0.8349 l 2.4830,2.7042 l 5.6781,-5.1948 c -0.2396,0.0125 -0.5009,0.0242 -0.7614 0.0142c -0.8032,-0.0309 -1.6656,-0.2162 -2.4362 -0.5285l 0.2087,-0.9050 c 0.7289,0.2672 1.7433,0.4583 2.8503 0.5009c 0.6729,0.0259 1.3918,-0.0117 2.0697 -0.1161Z"/></g><g><a xlink:href="/explanations#zodiac-Scorpio"><g stroke-linejoin="miter" stroke-opacity="1.0" fill-opacity="1.0" stroke="rgb(0,0,0)" stroke-width="0.8000064845716072" fill="rgb(173,216,230)" stroke-linecap="butt" stroke-miterlimit="10.0"><path d="M 221.7092,358.5236 l 5.4273,39.6301 c 34.7827,-4.7635 67.6987,-18.5988 95.4396 -40.1154l -24.5152,-31.6070 c -22.1928,17.2133 -48.5255,28.2815 -76.3517 32.0923Z"/></g></a><title>Scorpio</title></g><g stroke-linejoin="miter" stroke-opacity="1.0" fill-opacity="1.0" stroke="rgb(0,0,0)" stroke-width="0.8000064845716072" fill="rgb(0,0,0)" stroke-linecap="butt" stroke-miterlimit="10.0"><path d="M 262.2107,369.9990 ZM 263.6216,358.1835 l 0.9459,-0.2897 l 0.5009,-0.0242 c 0.4509,0.7130 0.7239,1.5279 0.8633 2.4245c 0.4057,-0.9409 0.9359,-1.7249 1.5245 -2.3327l 1.5729,-0.2004 c 0.5394,0.6729 0.8508,1.6197 0.9568 2.8194c 0.3373,-0.8566 0.8683,-1.6623 1.5946 -2.4605l 1.5947,-0.1996 c 0.6387,0.9159 0.9234,1.9921 0.8767 3.2077l -0.2930,7.6193 c -0.0676,1.7583 0.0493,2.6758 0.6137 3.2628l 0.5218,0.5635 c 0.1252,0.1353 0.2321,0.1828 0.2972 0.1853c 0.1737,0.0067 0.2271,-0.2521 0.2371 -0.5126l 0.0075,-0.1954 l 0.3390,-0.3348 l 0.0735,2.6116 l -2.5556,-0.2504 l 0.3615,-0.3557 c 0.0860,0.0250 0.1728,0.0284 0.2379 0.0309c 0.2388,0.0092 0.4358,-0.0267 0.4408 -0.1570c 0.0033,-0.0868 -0.0359,-0.1970 -0.1828 -0.3331l -0.7514,-0.8115 c -0.8157,-0.8357 -1.3367,-1.9862 -1.2683 -3.7662l 0.2679,-6.9681 c 0.0484,-1.2590 -0.0910,-2.1557 -0.4400 -2.6909c -0.9518,1.0069 -1.6314,2.2851 -2.0621 3.8773l -0.2729,7.0983 l -1.3934,0.6203 l -0.2238,-0.3999 l 0.3163,-8.2271 c 0.0576,-1.4978 -0.0977,-2.5473 -0.4233 -3.1250c -0.9276,0.9426 -1.6046,2.1557 -2.0513 3.5951l -0.2838,7.3805 l -1.4151,0.6195 l -0.2238,-0.3999 l 0.3355,-8.7264 c 0.0484,-1.2590 -0.1720,-2.3110 -0.6396 -3.1551Z"/></g><g><a xlink:href="/explanations#zodiac-Libra"><g stroke-linejoin="miter" stroke-opacity="1.0" fill-opacity="1.0" stroke="rgb(0,0,0)" stroke-width="0.8000064845716072" fill="rgb(255,255,0)" stroke-linecap="butt" stroke-miterlimit="10.0"><path d="M 139.5406,348.1405 l -15.1149,37.0343 c 32.5044,13.2661 67.9281,17.7423 102.7108 12.9788l -5.4273,-39.6301 c -27.8261,3.8108 -56.1651,0.2298 -82.1686 -10.3831Z"/></g></a><title>Libra</title></g><g stroke-linejoin="miter" stroke-opacity="1.0" fill-opacity="1.0" stroke="rgb(0,0,0)" stroke-width="0.8000064845716072" fill="rgb(0,0,0)" stroke-linecap="butt" stroke-miterlimit="10.0"><path d="M 169.1658,384.9935 ZM 170.7888,380.0993 c -0.1954,-0.0075 -0.3189,-0.1862 -0.3114 -0.3815c 0.0134,-0.3473 0.3131,-0.7923 0.5736 -0.7823l 3.4298,0.1319 c -0.6253,-0.6980 -1.0971,-1.4335 -1.0645 -2.2801c 0.0793,-2.0622 2.0797,-3.7679 4.2938 -3.6828c 2.1490,0.0826 3.9741,1.8050 3.8915 3.9540c -0.0326,0.8466 -0.5610,1.5871 -1.2598 2.2342l 3.6468,0.1402 c 0.2388,0.0092 0.3181,0.2079 0.3114 0.3815c -0.0100,0.2605 -0.3348,0.7915 -0.6170 0.7806l -5.0578,-0.1945 l 0.1503,-1.0812 c 0.9944,-0.4183 1.3976,-1.2941 1.4343 -2.2492c 0.0576,-1.4978 -1.1297,-2.8478 -2.5840 -2.9037c -1.4761,-0.0568 -2.7635,1.1981 -2.8211 2.6959c -0.0367,0.9551 0.3014,1.7725 1.2357 2.3519l -0.1720,1.0804 l -5.0795,-0.1953 ZM 170.7888,380.0993 ZM 170.6460,383.8113 c -0.1954,-0.0075 -0.3189,-0.1862 -0.3114 -0.3815c 0.0125,-0.3256 0.3122,-0.7706 0.5727 -0.7606l 12.9159,0.4966 c 0.2388,0.0092 0.3189,0.1862 0.3114 0.3815c -0.0092,0.2388 -0.3339,0.7698 -0.6161 0.7589l -12.8725,-0.4949 Z"/></g><g><a xlink:href="/explanations#zodiac-Virgo"><g stroke-linejoin="miter" stroke-opacity="1.0" fill-opacity="1.0" stroke="rgb(0,0,0)" stroke-width="0.8000064845716072" fill="rgb(0,100,0)" stroke-linecap="butt" stroke-miterlimit="10.0"><path d="M 73.5720,298.0642 l -31.6070,24.5152 c 21.5166,27.7409 49.9563,49.3294 82.4607 62.5954l 15.1149,-37.0343 c -26.0035,-10.6128 -48.7553,-27.8836 -65.9686 -50.0763Z"/></g></a><title>Virgo</title></g><g stroke-linejoin="miter" stroke-opacity="1.0" fill-opacity="1.0" stroke="rgb(0,0,0)" stroke-width="0.8000064845716072" fill="rgb(0,0,0)" stroke-linecap="butt" stroke-miterlimit="10.0"><path d="M 82.7037,347.2344 ZM 94.4165,347.3586 c 1.1722,-1.0854 2.2993,-2.6942 2.3844 -4.9084c 0.0384,-0.9985 -0.1428,-1.9403 -0.5419 -2.8687c -0.6362,0.7147 -1.2173,1.6924 -1.6564 2.9364l -0.1861,4.8407 ZM 94.4165,347.3586 ZM 90.2904,347.2435 l -1.4151,0.6195 l -0.2238,-0.3999 l 0.3138,-8.1620 c 0.0584,-1.5195 -0.0752,-2.5681 -0.4000 -3.1676c -0.9059,0.9434 -1.6255,2.1332 -2.1148 3.5492l -0.2846,7.4022 l -1.3934,0.6203 l -0.2455,-0.4007 l 0.3414,-8.8783 c 0.0409,-1.0637 -0.1812,-2.0722 -0.6454 -3.0031l 0.9676,-0.2889 l 0.5009,-0.0242 c 0.4325,0.6253 0.7055,1.4402 0.8408 2.4454c 0.4517,-1.0044 1.0252,-1.7867 1.5905 -2.3519l 0.4926,-0.3724 l 0.7105,0.1795 c 0.5160,0.7155 1.2173,1.6990 1.3242 2.8770c 0.2947,-0.8800 0.8925,-1.7266 1.6405 -2.5239l 1.2031,-0.1929 c 0.6162,0.9367 1.3150,1.9854 1.2724 3.0924l -0.0901,2.3444 c 0.3615,-0.9209 0.7806,-1.6439 1.1697 -2.1507l 1.4686,-0.3131 c 0.8165,1.3792 1.1964,2.8069 1.1397 4.2830c -0.1102,2.8654 -2.2767,4.9343 -3.9548 6.1741c 0.0342,1.3709 0.3549,2.0789 1.1856 3.0891l -0.3807,0.2897 c -1.0829,-0.6721 -1.7859,-1.6122 -2.2175 -2.8244c -0.7764,0.4049 -1.7433,0.6721 -2.8353 0.8040l -0.1678,-0.7239 c 1.0979,-0.2839 2.0488,-0.7038 2.8052 -1.1530c -0.0668,-0.5243 -0.0902,-1.0470 -0.0693 -1.5896l 0.2863,-7.4456 c 0.0467,-1.2156 -0.0919,-2.1340 -0.4158 -2.7552c -0.9033,0.8783 -1.6489,2.1758 -2.1264 3.8531l -0.2729,7.0983 Z"/></g><g><a xlink:href="/explanations#zodiac-Leo"><g stroke-linejoin="miter" stroke-opacity="1.0" fill-opacity="1.0" stroke="rgb(0,0,0)" stroke-width="0.8000064845716072" fill="rgb(255,0,0)" stroke-linecap="butt" stroke-miterlimit="10.0"><path d="M 41.4797,221.7125 l -39.6301,5.4273 c 4.7635,34.7827 18.5988,67.6987 40.1154 95.4396l 31.6070,-24.5152 c -17.2133,-22.1928 -28.2815,-48.5255 -32.0923 -76.3517Z"/></g></a><title>Leo</title></g><g stroke-linejoin="miter" stroke-opacity="1.0" fill-opacity="1.0" stroke="rgb(0,0,0)" stroke-width="0.8000064845716072" fill="rgb(0,0,0)" stroke-linecap="butt" stroke-miterlimit="10.0"><path d="M 26.1146,274.3254 ZM 30.4677,269.1014 c -1.2156,-0.0467 -2.2525,0.9134 -2.3018 2.1941c -0.0517,1.3459 0.9101,2.3394 2.1474 2.3869c 1.2373,0.0476 2.2734,-0.8909 2.3235 -2.1933c 0.0484,-1.2590 -0.8232,-2.3360 -2.1691 -2.3878ZM 30.4677,269.1014 ZM 36.5943,275.4240 c -0.0417,1.0854 0.5210,1.7157 1.2156 1.7424c 0.8900,0.0342 1.5070,-0.1812 2.4512 -0.9927l 0.4617,0.4308 c -1.0687,1.2198 -2.0689,1.7900 -2.9806 1.7550c -1.6715,-0.0643 -2.8003,-1.2381 -2.7427 -2.7359c 0.0760,-1.9754 1.3792,-3.6427 2.6015 -4.9000c 1.1304,-1.1305 1.6264,-2.1549 1.7081 -4.2822c 0.0785,-2.0405 -1.6072,-3.9966 -3.6477 -4.0751c -1.9102,-0.0734 -3.5633,1.0804 -3.6309 2.8387c -0.0601,1.5629 0.1186,2.5698 1.0286 3.7787c 0.6830,0.8958 0.9568,1.6890 0.9259 2.4922c -0.0684,1.7800 -1.7816,3.3663 -3.6702 3.2937c -1.8234,-0.0701 -3.3104,-1.5403 -3.2344 -3.5157c 0.0709,-1.8451 1.6046,-3.2862 3.4280 -3.2161c 0.3473,0.0134 0.5427,0.0209 0.9084 0.1219c -0.8249,-1.1622 -1.0336,-1.9528 -1.0002 -2.8211c 0.0935,-2.4312 2.6357,-4.0944 5.1755 -3.9967c 3.5600,0.1369 5.3551,2.6407 5.2733 4.7680c -0.0826,2.1490 -0.8874,3.8572 -2.1790 5.2206c -1.4268,1.4886 -2.0430,2.8128 -2.0922 4.0935Z"/></g><g><a xlink:href="/explanations#zodiac-Cancer"><g stroke-linejoin="miter" stroke-opacity="1.0" fill-opacity="1.0" stroke="rgb(0,0,0)" stroke-width="0.8000064845716072" fill="rgb(173,216,230)" stroke-linecap="butt" stroke-miterlimit="10.0"><path d="M 51.8628,139.5438 l -37.0343,-15.1149 c -13.2661,32.5044 -17.7423,67.9281 -12.9788 102.7108l 39.6301,-5.4273 c -3.8108,-27.8261 -0.2298,-56.1651 10.3831 -82.1686Z"/></g></a><title>Cancer</title></g><g stroke-linejoin="miter" stroke-opacity="1.0" fill-opacity="1.0" stroke="rgb(0,0,0)" stroke-width="0.8000064845716072" fill="rgb(0,0,0)" stroke-linecap="butt" stroke-miterlimit="10.0"><path d="M 12.0761,183.8390 ZM 16.6855,178.1684 c 1.3241,0.0509 2.3419,-0.9752 2.3894 -2.2125c 0.0501,-1.3024 -0.9977,-2.3210 -2.2350 -2.3686c -1.3024,-0.0501 -2.2960,0.9117 -2.3444 2.1708c -0.0517,1.3459 0.9526,2.3627 2.1900 2.4103ZM 16.6855,178.1684 ZM 16.7389,179.0400 c -1.7583,-0.0676 -3.3538,-1.5420 -3.2812 -3.4306c 0.0551,-1.4327 1.1321,-2.3043 2.8386 -3.1518c 1.6848,-0.8483 3.8071,-1.2015 6.3035 -1.1055c 2.1707,0.0835 4.4717,0.7372 6.8395 1.9152l -0.0593,0.4108 l -0.4191,0.7230 c -2.3903,-1.1571 -4.7147,-1.7683 -6.9723 -1.8551c -1.5629,-0.0601 -2.8520,0.1077 -3.8664 0.4818c 1.5763,0.8432 2.0163,1.8384 1.9796 2.7935c -0.0684,1.7800 -1.5178,3.2895 -3.3629 3.2186ZM 16.7389,179.0400 ZM 26.1557,176.6846 c -1.3241,-0.0509 -2.3427,0.9969 -2.3903 2.2342c -0.0467,1.2156 0.9109,2.3177 2.2350 2.3686c 1.1939,0.0459 2.2926,-0.8249 2.3452 -2.1925c 0.0509,-1.3241 -0.9526,-2.3627 -2.1900 -2.4103ZM 26.1557,176.6846 ZM 26.2116,175.7955 c 1.7800,0.0684 3.2478,1.4727 3.1777 3.2961c -0.0551,1.4327 -1.1388,2.4780 -2.8445 3.3037c -1.6848,0.8483 -3.7862,1.2240 -6.3043 1.1272c -2.1707,-0.0835 -4.4283,-0.7355 -6.7961 -1.9135l -0.0042,-0.4567 l 0.4400,-0.7005 c 2.3686,1.1563 4.6921,1.7891 6.9714 1.8768c 1.5846,0.0609 2.8520,-0.1077 3.8664 -0.4818c -1.0219,-0.5610 -2.0539,-1.4268 -1.9929 -3.0115c 0.0701,-1.8234 1.6848,-3.1092 3.4865 -3.0399Z"/></g><g><a xlink:href="/explanations#zodiac-Gemini"><g stroke-linejoin="miter" stroke-opacity="1.0" fill-opacity="1.0" stroke="rgb(0,0,0)" stroke-width="0.8000064845716072" fill="rgb(255,255,0)" stroke-linecap="butt" stroke-miterlimit="10.0"><path d="M 101.9391,73.5752 l -24.5152,-31.6070 c -27.7409,21.5166 -49.3294,49.9563 -62.5954 82.4607l 37.0343,15.1149 c 10.6128,-26.0035 27.8836,-48.7553 50.0763 -65.9686Z"/></g></a><title>Gemini</title></g><g stroke-linejoin="miter" stroke-opacity="1.0" fill-opacity="1.0" stroke="rgb(0,0,0)" stroke-width="0.8000064845716072" fill="rgb(0,0,0)" stroke-linecap="butt" stroke-miterlimit="10.0"><path d="M 48.6012,96.9600 ZM 52.6697,96.3120 l 0.4065,-10.5715 c -0.9944,-0.1469 -1.9628,-0.4016 -2.9514 -0.7004l 0.0401,-1.0420 c 1.8034,0.5911 4.0509,0.9384 6.6992 1.0402c 2.6700,0.1027 4.9159,-0.0719 6.7593 -0.5227l -0.0401,1.0420 c -0.9868,0.2229 -1.9946,0.4233 -2.9764 0.5160l -0.4048,10.5281 c 0.9067,0.1653 1.8760,0.3982 2.9288 0.7213l -0.0392,1.0202 c -2.0630,-0.6228 -4.2880,-0.9910 -6.6976 -1.0836c -2.3878,-0.0918 -4.6562,0.1036 -6.7610 0.5661l 0.0392,-1.0202 c 1.0745,-0.2413 2.0589,-0.3991 2.9973 -0.4935ZM 52.6697,96.3120 ZM 54.2802,96.2653 c 0.6537,-0.0401 1.3717,-0.0560 2.1532 -0.0259c 0.8032,0.0309 1.5178,0.1018 2.1449 0.1912l 0.3990,-10.3761 c -0.5878,0.0209 -1.3049,0.0150 -2.1515 -0.0175c -0.8249,-0.0317 -1.5404,-0.0810 -2.1465 -0.1478l -0.3990,10.3761 Z"/></g><g><a xlink:href="/explanations#zodiac-Taurus"><g stroke-linejoin="miter" stroke-opacity="1.0" fill-opacity="1.0" stroke="rgb(0,0,0)" stroke-width="0.8000064845716072" fill="rgb(0,100,0)" stroke-linecap="butt" stroke-miterlimit="10.0"><path d="M 178.2908,41.4829 l -5.4273,-39.6301 c -34.7827,4.7635 -67.6987,18.5988 -95.4396 40.1154l 24.5152,31.6070 c 22.1928,-17.2133 48.5255,-28.2815 76.3517 -32.0923Z"/></g></a><title>Taurus</title></g><g stroke-linejoin="miter" stroke-opacity="1.0" fill-opacity="1.0" stroke="rgb(0,0,0)" stroke-width="0.8000064845716072" fill="rgb(0,0,0)" stroke-linecap="butt" stroke-miterlimit="10.0"><path d="M 121.4897,39.2070 ZM 129.9965,40.7298 c 2.3227,0.0893 4.1068,-1.6465 4.1895 -3.7955c 0.0851,-2.2141 -1.5830,-4.0609 -3.8840 -4.1494c -2.1924,-0.0843 -4.1027,1.5379 -4.1911 3.8389c -0.0826,2.1490 1.5630,4.0167 3.8857 4.1060ZM 129.9965,40.7298 ZM 128.0060,32.0009 c -1.0253,-0.4742 -1.5504,-0.9509 -2.3377 -2.5247l -0.4442,-0.8867 c -0.5669,-1.0870 -1.2190,-1.6556 -1.9787 -1.6848l -0.2171,-0.0083 l 0.0392,-1.0202 l 0.6078,0.0234 c 1.0637,0.0409 2.0079,0.9250 2.8178 2.4779l 0.6287,1.1764 c 0.4258,0.7990 0.8608,1.3592 1.3267 1.6815c 0.4876,0.3231 1.1113,0.4993 1.8927 0.5293c 0.7815,0.0300 1.4168,-0.0977 1.9278 -0.3824c 0.4892,-0.2855 0.9877,-0.8099 1.4519 -1.5746l 0.7389,-1.1238 c 0.9267,-1.4861 1.9144,-2.2960 2.9781 -2.2551l 0.6078,0.0234 l -0.0392,1.0202 l -0.2171,-0.0083 c -0.7598,-0.0292 -1.4536,0.4876 -2.1023 1.5279l -0.5109,0.8499 c -0.8132,1.3601 -1.3559,1.9044 -2.5247 2.3377c 1.5513,0.9292 2.8370,2.5439 2.7510 4.7798c -0.1068,2.7785 -2.5664,5.1188 -5.4535 5.0078c -2.8437,-0.1093 -5.1605,-2.6115 -5.0529 -5.4117c 0.0860,-2.2359 1.4919,-3.7470 3.1099 -4.5544Z"/></g><g><a xlink:href="/explanations#zodiac-Aries"><g stroke-linejoin="miter" stroke-opacity="1.0" fill-opacity="1.0" stroke="rgb(0,0,0)" stroke-width="0.8000064845716072" fill="rgb(255,0,0)" stroke-linecap="butt" stroke-miterlimit="10.0"><path d="M 260.4594,51.8660 l 15.1149,-37.0343 c -32.5044,-13.2661 -67.9281,-17.7423 -102.7108 -12.9788l 5.4273,39.6301 c 27.8261,-3.8108 56.1651,-0.2298 82.1686 10.3831Z"/></g></a><title>Aries</title></g><g stroke-linejoin="miter" stroke-opacity="1.0" fill-opacity="1.0" stroke="rgb(0,0,0)" stroke-width="0.8000064845716072" fill="rgb(0,0,0)" stroke-linecap="butt" stroke-miterlimit="10.0"><path d="M 212.6828,26.2935 ZM 221.4602,29.2614 c 0.2654,-6.9029 -1.2258,-15.0473 -4.1129 -15.1583c -1.0202,-0.0392 -1.7524,0.9109 -1.8067 2.3219c -0.0359,0.9334 0.2305,1.9219 0.7999 2.9438l -0.4842,0.1553 l -1.1655,-0.2187 c -0.5444,-1.1079 -0.8099,-2.1181 -0.7740 -3.0515c 0.0768,-1.9971 1.7374,-3.3463 3.4306 -3.2812c 3.3429,0.1285 4.6555,5.5704 5.0362 10.3677l 0.2171,0.0083 c 0.5977,-3.6727 2.1280,-10.1140 5.9485 -9.9671c 1.7800,0.0684 3.1117,1.6197 3.0391 3.5082c -0.0367,0.9551 -0.3799,1.9637 -1.0077 3.0265l -0.5068,0.1762 l -1.1213,-0.2388 c 0.6495,-1.0620 0.9693,-2.0280 1.0043 -2.9397c 0.0576,-1.4978 -0.5794,-2.4571 -1.6214 -2.4972c -2.8654,-0.1102 -4.9792,7.9391 -5.2363 14.6250l -1.3934,0.6203 Z"/></g></svg>