<?xml version="1.0" encoding="UTF-8"?>
<!DOCTYPE svg PUBLIC "-//W3C//DTD SVG 1.1//EN"
    "http://www.w3.org/Graphics/SVG/1.1/DTD/svg11.dtd"><svg xmlns="http://www.w3.org/2000/svg" height="83.0723" stroke-opacity="1" viewBox="0.0 0.0 399.99999999999994 83.07225871652348" font-size="1" width="400.0000" xmlns:xlink="http://www.w3.org/1999/xlink" stroke="rgb(0,0,0)" version="1.1"><defs></defs><g stroke-linejoin="miter" stroke-opacity="1.0" fill-opacity="1.0" stroke="rgb(0,0,0)" stroke-width="0.7291518742935178" fill="rgb(255,0,0)" stroke-linecap="butt" stroke-miterlimit="10.0"></g><g stroke-linejoin="miter" stroke-opacity="1.0" fill-opacity="1.0" stroke="rgb(0,0,0)" stroke-width="0.7291518742935178" fill="rgb(255,0,0)" stroke-linecap="butt" stroke-miterlimit="10.0"></g><g stroke-linejoin="miter" stroke-opacity="1.0" fill-opacity="1.0" stroke="rgb(0,0,0)" stroke-width="0.7291518742935178" fill="rgb(255,0,0)" stroke-linecap="butt" stroke-miterlimit="10.0"></g><g stroke-linejoin="miter" stroke-opacity="1.0" fill-opacity="1.0" stroke="rgb(0,0,0)" stroke-width="0.7291518742935178" fill="rgb(255,0,0)" stroke-linecap="butt" stroke-miterlimit="10.0"></g><g stroke-linejoin="miter" stroke-opacity="1.0" fill-opacity="1.0" stroke="rgb(0,0,0)" stroke-width="0.7291518742935178" fill="rgb(255,0,0)" stroke-linecap="butt" stroke-miterlimit="10.0"></g><g stroke-linejoin="miter" stroke-opacity="1.0" fill-opacity="1.0" stroke="rgb(0,0,0)" stroke-width="0.7291518742935178" fill="rgb(255,0,0)" stroke-linecap="butt" stroke-miterlimit="10.0"></g><g stroke-linejoin="miter" stroke-opacity="1.0" fill-opacity="1.0" stroke="rgb(0,0,0)" stroke-width="0.7291518742935178" fill="rgb(255,0,0)" stroke-linecap="butt" stroke-miterlimit="10.0"><path d="M 239.1612,74.6337 ZM 252.9560,61.0409 v 14.4012 l 8.7923,-0.3032 l 0.2021,0.6569 l -0.4548,1.8191 l -12.1273,0.2527 v -16.9277 l -4.1435,-0.1516 v 13.4917 l -2.3244,1.0611 l -1.2633,-0.7074 v -29.6614 l 10.5609,-0.4042 c 5.1541,-0.0000 9.0450,2.5265 9.0450 7.4785c 0.0000,5.2046 -3.5371,8.8428 -8.2870 8.9944ZM 252.9560,61.0409 ZM 257.5543,52.0970 c 0.0000,-3.8403 -3.3855,-5.0531 -5.6594 -5.0531l -6.6700,0.4042 v 10.8641 l 4.1435,0.1516 v -4.9015 l 2.5771,-0.8590 l 1.0106,0.2021 v 5.6089 c 2.7287,-0.4548 4.5983,-3.2845 4.5983 -6.4174Z"/></g><g stroke-linejoin="miter" stroke-opacity="1.0" fill-opacity="1.0" stroke="rgb(0,0,0)" stroke-width="0.7291518742935178" fill="rgb(255,0,0)" stroke-linecap="butt" stroke-miterlimit="10.0"><path d="M 202.1728,73.2946 ZM 224.0526,75.6190 l -0.1516,6.2153 h -2.4255 l -0.1011,-6.2153 h -5.4068 v -2.3244 h 5.3562 l -0.0505,-3.7393 v -0.0505 c -9.2471,-0.9096 -12.9864,-7.3269 -12.9864 -16.5740c 0.0000,-1.0611 -0.3032,-1.4654 -0.7580 -1.4654c -0.6064,-0.0000 -1.5159,0.8085 -2.2233 1.6170l -1.6675,-0.1516 l 7.6301,-8.8934 c 0.0000,-0.0000 0.4042,-0.0000 0.4042 -0.0505v 8.9439 c 0.0000,7.8322 2.0212,13.6433 9.5503 14.1991l -0.3537,-19.3027 c 0.0000,-1.2633 -0.2527,-1.8696 -0.6569 -1.8696c -0.4548,-0.0000 -1.2127,0.7074 -2.2739 2.0212l -1.6675,-0.1516 l 6.5690,-7.2259 l 6.3163,7.2259 l -1.7686,0.1516 c -1.0611,-1.3138 -1.7686,-2.0212 -2.1728 -2.0212c -0.4042,-0.0000 -0.5558,0.6064 -0.5558 1.8696l -0.4548,19.3027 c 7.3775,-0.6064 9.5503,-6.8216 9.5503 -14.4012v -8.7923 c 0.0505,-0.0000 0.1516,-0.0000 0.2021 -0.0505l 7.6806,8.8428 l -1.7686,0.1516 c -0.5558,-0.7074 -1.4149,-1.6170 -2.0212 -1.6170c -0.4042,-0.0000 -0.7074,0.4042 -0.7074 1.4654c 0.0000,8.9439 -3.7393,15.8666 -12.9864 16.7761l -0.0505,3.7898 h 5.3562 v 2.3244 h -5.4068 Z"/></g><g stroke-linejoin="miter" stroke-opacity="1.0" fill-opacity="1.0" stroke="rgb(0,0,0)" stroke-width="0.7291518742935178" fill="rgb(255,0,0)" stroke-linecap="butt" stroke-miterlimit="10.0"><path d="M 174.4315,72.9914 ZM 187.6200,72.9409 c 0.0000,1.8696 1.1622,3.0318 2.7287 3.0318c 1.3643,-0.0000 2.5771,-1.1622 2.5771 -3.0318c 0.0000,-1.2127 -0.9096,-2.6781 -2.6276 -2.6781c -1.6170,-0.0000 -2.6781,1.4149 -2.6781 2.6781ZM 187.6200,72.9409 ZM 179.6867,48.5851 c 0.0000,-1.4654 -0.6569,-2.2233 -2.7287 -2.2233h -0.1516 c -0.2527,-0.0000 -0.4042,-0.1516 -0.4042 -0.4548v -0.9601 l 0.1011,-0.1011 c 0.0000,-0.0000 3.5371,0.1516 5.3057 0.1516l 1.4149,-0.0505 v 10.4598 h 5.1541 v -8.7923 l 0.9601,-0.7580 h 1.6170 l 0.9601,0.7580 v 8.7923 h 4.9015 v -10.4598 l 1.4149,0.0505 c 1.7686,-0.0000 5.3057,-0.1516 5.3057 -0.1516l 0.1011,0.1011 v 0.9601 c 0.0000,0.3032 -0.1516,0.4548 -0.4042 0.4548h -0.1516 c -2.0718,-0.0000 -2.7287,0.7580 -2.7287 2.2233v 15.5634 c 0.0000,1.4149 0.6569,2.2233 2.7287 2.2233h 0.1516 c 0.2527,-0.0000 0.4042,0.1516 0.4042 0.4042v 0.9601 l -0.1011,0.1011 c 0.0000,-0.0000 -3.4866,-0.1516 -5.3057 -0.1516l -1.4149,0.0505 v -9.9545 h -4.9015 v 11.1167 c 2.0212,0.5558 3.5877,1.9707 3.5877 4.0930c 0.0000,3.0824 -2.8297,4.5983 -5.3057 4.5983c -2.3749,-0.0000 -5.2046,-1.6170 -5.2046 -4.4972c 0.0000,-2.3749 1.4654,-3.7393 3.3855 -4.2446v -11.0662 h -5.1541 v 9.9545 h -1.4149 c -1.8191,-0.0000 -5.3057,0.1011 -5.3057 0.1011l -0.1011,-0.1011 v -0.9096 c 0.0000,-0.2527 0.1516,-0.4042 0.4042 -0.4042h 0.1516 c 2.0718,-0.0000 2.7287,-0.8085 2.7287 -2.2233v -15.6139 Z"/></g><g stroke-linejoin="miter" stroke-opacity="1.0" fill-opacity="1.0" stroke="rgb(0,0,0)" stroke-width="0.7291518742935178" fill="rgb(255,0,0)" stroke-linecap="butt" stroke-miterlimit="10.0"><path d="M 152.5518,72.5872 ZM 158.7165,41.7635 l 2.4255,-0.5053 l 1.1622,0.0505 v 4.5983 h 4.8004 c 0.5558,-0.0000 0.7580,0.2527 0.7580 0.6569c 0.0000,0.6064 -0.7074,1.7180 -1.3643 1.7180h -4.1940 v 8.4386 c 1.3643,-1.8191 4.5983,-3.5371 7.1248 -3.5371c 3.5371,-0.0000 6.9732,2.1728 6.9732 6.4679c 0.0000,2.4255 -1.5159,5.7605 -2.5771 7.7312c -0.9601,1.8191 -1.6675,5.0531 -1.6675 7.2764c 0.0000,2.5771 0.8590,4.0424 3.1329 5.9626l -0.4042,0.5558 l -3.2340,-0.4042 c -1.8696,-1.6675 -2.8802,-3.4361 -2.8802 -6.1142c 0.0000,-2.4760 1.5159,-5.6594 2.3244 -7.3775c 0.9096,-1.8696 1.8696,-4.9520 1.8696 -7.4280c 0.0000,-2.3244 -2.0718,-4.2951 -3.7898 -4.2951c -3.1834,-0.0000 -5.3057,1.4149 -6.9227 3.7393v 12.7842 l -2.9813,1.5664 l -0.5558,-0.9096 v -24.4568 h -3.4361 c -0.5053,-0.0000 -0.7580,-0.4548 -0.7580 -0.9096c 0.0000,-0.8085 0.6569,-1.4654 1.2127 -1.4654h 2.9813 v -4.1435 Z"/></g><g stroke-linejoin="miter" stroke-opacity="1.0" fill-opacity="1.0" stroke="rgb(0,0,0)" stroke-width="0.7291518742935178" fill="rgb(255,0,0)" stroke-linecap="butt" stroke-miterlimit="10.0"><path d="M 123.9010,72.6124 ZM 133.4512,45.9828 c -2.2739,-0.0000 -3.3855,0.3032 -3.3855 1.8191c 0.0000,0.6064 0.1011,0.8590 0.1516 1.0611c 0.1011,0.1516 0.1516,0.5558 0.1516 0.9096c 0.0000,0.6569 -0.5053,1.6675 -1.9707 1.6675c -1.2127,-0.0000 -2.0212,-0.8085 -2.0212 -2.0212c 0.0000,-2.9813 2.8802,-5.5078 7.5291 -5.5078c 5.2552,-0.0000 7.8828,5.8110 7.8828 11.1167c 0.0000,4.7499 -2.3244,8.9944 -4.3962 10.5104h 9.8535 c 0.2021,-0.0000 0.3032,-0.1516 0.3032 -0.3032v -20.3133 l 2.4760,-0.5558 l 1.1117,0.1011 v 21.0712 l 2.9813,0.0505 c 0.2527,0.1516 0.4042,0.6569 0.4042 1.1117c 0.0000,0.4548 -0.1011,0.8085 -0.3032 0.9601l -3.0824,0.1011 v 9.1966 l -3.0318,1.5664 l -0.5558,-0.9096 v -9.5503 c 0.0000,-0.1011 -0.1011,-0.2021 -0.3032 -0.2021l -18.3931,0.4548 c -0.0505,-0.0000 -0.2021,-0.2527 -0.2021 -0.5053v -1.0611 c 0.0000,-0.4042 0.7580,-0.8085 1.1622 -0.8085h 0.0505 c 1.0611,-0.0000 3.0824,-0.4548 3.9414 -0.8085c 2.9308,-1.2127 4.4972,-4.7499 4.4972 -8.9944c 0.0000,-3.9414 -1.5664,-10.1566 -4.8509 -10.1566Z"/></g><g stroke-linejoin="miter" stroke-opacity="1.0" fill-opacity="1.0" stroke="rgb(0,0,0)" stroke-width="0.7291518742935178" fill="rgb(255,0,0)" stroke-linecap="butt" stroke-miterlimit="10.0"><path d="M 96.6145,78.2719 ZM 110.7125,59.7271 c -4.8509,-0.0000 -8.6407,3.9414 -8.6407 8.6913c 0.0000,4.6488 3.6382,8.6407 8.6407 8.6407c 5.0025,-0.0000 8.6407,-3.9919 8.6407 -8.6407c 0.0000,-4.6488 -3.6887,-8.6913 -8.6407 -8.6913ZM 110.7125,59.7271 ZM 121.8797,68.4184 c 0.0000,6.0131 -5.1541,10.9651 -11.2683 10.9651c -6.0637,-0.0000 -11.0662,-4.8004 -11.0662 -10.9651c 0.0000,-6.1647 4.6993,-11.1673 11.2178 -11.1673c 1.1117,-0.0000 1.9707,-0.0000 3.2340 0.4042l 5.9626,-10.8641 c -2.8297,1.6170 -4.6993,2.4760 -8.1354 3.2340l -1.5159,-1.7180 c 4.9015,-1.4149 7.4280,-2.4255 12.0263 -5.2552l 1.0611,0.5053 c 0.6064,5.0025 1.2633,7.6301 2.9813 12.3800l -2.2233,-0.2021 c -1.4149,-3.0318 -1.8696,-4.9015 -2.3244 -7.9838l -5.5078,10.9146 c 3.4361,1.7686 5.5584,5.2046 5.5584 9.7524Z"/></g><g stroke-linejoin="miter" stroke-opacity="1.0" fill-opacity="1.0" stroke="rgb(0,0,0)" stroke-width="0.7291518742935178" fill="rgb(255,0,0)" stroke-linecap="butt" stroke-miterlimit="10.0"><path d="M 74.2799,70.8944 ZM 86.8621,65.2855 c -6.3669,-0.9096 -9.6513,-6.2658 -9.6513 -11.0662c 0.0000,-6.0131 4.6993,-11.1167 11.2178 -11.1167c 6.9227,-0.0000 11.1167,5.6594 11.1167 11.1167c 0.0000,5.3057 -3.7898,10.2577 -9.7019 11.0662l -0.1516,5.5584 h 5.3562 v 2.3244 h -5.4068 l -0.1516,6.1647 h -2.3749 l -0.1011,-6.1647 h -5.4068 v -2.3244 h 5.3562 ZM 86.8621,65.2855 ZM 88.3780,45.6291 c -4.8509,-0.0000 -8.6407,3.8909 -8.6407 8.5902c 0.0000,4.6993 3.6382,8.6913 8.6407 8.6913c 5.0025,-0.0000 8.6407,-3.9919 8.6407 -8.6913c 0.0000,-4.5983 -3.6887,-8.5902 -8.6407 -8.5902Z"/></g><g stroke-linejoin="miter" stroke-opacity="1.0" fill-opacity="1.0" stroke="rgb(0,0,0)" stroke-width="0.7291518742935178" fill="rgb(255,0,0)" stroke-linecap="butt" stroke-miterlimit="10.0"><path d="M 51.9454,74.5326 ZM 66.0435,49.2673 c -4.8509,-0.0000 -8.6407,3.8909 -8.6407 8.5902c 0.0000,4.6993 3.6382,8.6913 8.6407 8.6913c 5.0025,-0.0000 8.6407,-3.9919 8.6407 -8.6913c 0.0000,-4.5983 -3.6887,-8.5902 -8.6407 -8.5902ZM 66.0435,49.2673 ZM 64.5275,68.9237 c -6.3669,-0.9096 -9.6513,-6.2658 -9.6513 -11.0662c 0.0000,-4.2446 2.3749,-8.0849 6.1142 -9.9545c -3.6887,-2.0212 -5.0025,-6.3669 -5.0025 -8.5397h 2.5265 c 0.0000,3.3350 3.1329,7.3269 7.5291 7.3269c 5.2046,-0.0000 7.5796,-4.8004 7.5796 -7.3269h 2.5265 c 0.0000,2.5265 -1.6170,6.6195 -5.0025 8.5397c 3.8403,1.9202 6.0637,6.0131 6.0637 9.9545c 0.0000,5.3057 -3.7898,10.2577 -9.7019 11.0662l -0.1516,5.6089 h 5.3562 v 2.3244 h -5.4068 l -0.1516,6.2153 h -2.3749 l -0.1011,-6.2153 h -5.4068 v -2.3244 h 5.3562 Z"/></g><g stroke-linejoin="miter" stroke-opacity="1.0" fill-opacity="1.0" stroke="rgb(0,0,0)" stroke-width="0.7291518742935178" fill="rgb(255,0,0)" stroke-linecap="butt" stroke-miterlimit="10.0"><path d="M 30.7226,75.0632 ZM 36.6852,77.2865 c 9.2976,-0.0000 15.6139,-8.1354 15.6139 -16.2203c 0.0000,-8.6407 -7.9333,-15.8666 -14.1991 -15.8666c 5.1541,2.9308 9.3987,8.6407 9.3987 15.8666c 0.0000,7.7312 -4.4467,13.0874 -10.8135 16.2203ZM 36.6852,77.2865 ZM 32.1374,44.1890 c 1.2127,-0.3032 3.8403,-0.6569 5.1036 -0.6569c 10.8641,-0.0000 17.6352,8.1860 17.6352 17.7362c 0.0000,9.0955 -7.7312,17.6352 -18.0899 17.6352c -2.5265,-0.0000 -3.8403,-0.3032 -5.0531 -0.8590c 6.2658,-1.5159 13.2390,-8.1860 13.2390 -16.9277c 0.0000,-8.3375 -6.5690,-15.3108 -12.8348 -16.9277Z"/></g><g stroke-linejoin="miter" stroke-opacity="1.0" fill-opacity="1.0" stroke="rgb(0,0,0)" stroke-width="0.7291518742935178" fill="rgb(255,0,0)" stroke-linecap="butt" stroke-miterlimit="10.0"><path d="M 3.0824,75.7201 ZM 9.3987,61.2178 c 0.0000,-6.0131 4.7499,-11.1673 11.2178 -11.1673c 6.9227,-0.0000 11.1167,5.7100 11.1167 11.1673c 0.0000,6.2658 -5.1541,11.1673 -11.0662 11.1673c -6.7711,-0.0000 -11.2683,-5.4068 -11.2683 -11.1673ZM 9.3987,61.2178 ZM 20.5659,52.5771 c -4.8509,-0.0000 -8.6407,3.8909 -8.6407 8.6407c 0.0000,4.6488 3.6382,8.6407 8.6407 8.6407c 5.0025,-0.0000 8.6407,-3.9919 8.6407 -8.6407c 0.0000,-4.5983 -3.6887,-8.6407 -8.6407 -8.6407ZM 20.5659,52.5771 ZM 18.0899,61.2178 c 0.0000,-1.3643 1.1117,-2.4760 2.4760 -2.4760c 1.3643,-0.0000 2.4760,1.1117 2.4760 2.4760c 0.0000,1.3643 -1.1117,2.4760 -2.4760 2.4760c -1.3643,-0.0000 -2.4760,-1.1117 -2.4760 -2.4760Z"/></g><g stroke-linejoin="miter" stroke-opacity="1.0" fill-opacity="1.0" stroke="rgb(0,0,0)" stroke-width="0.7291518742935178" fill="rgb(0,0,0)" stroke-linecap="butt" stroke-miterlimit="10.0"><path d="M 370.6417,33.9060 ZM 395.9070,34.6134 c -2.9308,-3.3350 -6.0131,-8.6913 -6.0131 -14.4012h -5.8615 c 0.0000,4.3456 -2.0212,9.8535 -6.0131 14.4012l -3.2845,0.2527 l -0.7580,-0.2527 c 4.1435,-4.3962 6.2658,-9.1460 6.2658 -14.4012h -6.0637 v -2.3244 h 6.0637 c -0.2527,-4.5478 -2.3244,-8.8934 -6.2658 -13.1885l 1.7180,-0.1516 l 2.1728,0.1516 c 3.5877,3.8909 5.6089,8.1860 6.1647 13.1885h 5.8615 c 0.5053,-5.0025 2.5771,-9.2976 6.1647 -13.1885l 1.8696,-0.3032 l 2.0718,0.3032 c -3.9919,4.2951 -6.0637,8.6407 -6.3163 13.1885h 6.0637 v 2.3244 h -6.0637 c 0.0000,5.2552 2.1223,10.0051 6.3163 14.4012l -2.0718,0.3537 Z"/></g><g stroke-linejoin="miter" stroke-opacity="1.0" fill-opacity="1.0" stroke="rgb(0,0,0)" stroke-width="0.7291518742935178" fill="rgb(0,0,0)" stroke-linecap="butt" stroke-miterlimit="10.0"><path d="M 335.3209,33.6281 ZM 338.6559,14.5781 l 8.6407,-6.7206 c 0.1516,-0.1011 0.2527,-0.2021 0.4042 -0.2021c 0.1011,-0.0000 0.2021,0.0505 0.3032 0.2527l 3.6887,5.0531 l 6.1647,-5.0531 c 0.2021,-0.1516 0.3032,-0.2527 0.4548 -0.2527c 0.1011,-0.0000 0.2021,0.1011 0.3537 0.3032l 3.6382,5.0025 l 6.0637,-4.9520 c 0.2021,-0.2021 0.4042,-0.3032 0.5053 -0.3032c 0.1011,-0.0000 0.2021,0.1011 0.4042 0.3537l 4.6993,7.5291 l -2.2233,1.3643 l -3.6382,-5.0025 c -0.1516,-0.2021 -0.2021,-0.3032 -0.3032 -0.3032c -0.1011,-0.0000 -0.3032,0.1011 -0.4548 0.2527l -5.9121,4.8509 c -0.1011,0.1011 -0.2021,0.1011 -0.2527 0.1011c -0.1011,-0.0000 -0.1516,-0.0505 -0.2527 -0.1516l -3.3855,-4.6993 c -0.1011,-0.2527 -0.2021,-0.3537 -0.3537 -0.3537c -0.1011,-0.0000 -0.2021,0.0505 -0.3537 0.1516l -5.9626,4.9520 c -0.1011,0.1011 -0.2021,0.1011 -0.2527 0.1011c -0.1011,-0.0000 -0.1516,-0.0505 -0.2527 -0.1516l -3.4361,-4.8004 c -0.1011,-0.2021 -0.2021,-0.2527 -0.3032 -0.2527c -0.1011,-0.0000 -0.1516,0.0505 -0.3032 0.1516l -6.3669,5.1541 ZM 338.6559,14.5781 ZM 338.6559,29.3330 l 8.5902,-6.7206 c 0.2021,-0.1011 0.3032,-0.2021 0.4042 -0.2021c 0.1516,-0.0000 0.2527,0.1011 0.3537 0.2527l 3.6887,5.0531 l 6.1647,-5.0531 c 0.2021,-0.1516 0.3032,-0.2527 0.4042 -0.2527c 0.1516,-0.0000 0.2021,0.1011 0.4042 0.3032l 3.5877,5.0025 l 6.0637,-4.9520 c 0.2527,-0.2021 0.4042,-0.3032 0.5558 -0.3032c 0.1011,-0.0000 0.2021,0.1011 0.3537 0.3537l 4.7499,7.5291 l -2.2233,1.3643 l -3.6382,-5.0025 c -0.1516,-0.2021 -0.2021,-0.3032 -0.3537 -0.3032c -0.0505,-0.0000 -0.2527,0.1516 -0.4042 0.3032l -5.9121,4.8004 c -0.1516,0.1011 -0.2021,0.1516 -0.2527 0.1516c -0.1011,-0.0000 -0.1516,-0.1011 -0.2527 -0.2021l -3.4361,-4.6993 c -0.1011,-0.2021 -0.1516,-0.3537 -0.3032 -0.3537c -0.1011,-0.0000 -0.2021,0.0505 -0.3537 0.2021l -5.9626,4.9015 c -0.1516,0.1011 -0.2021,0.1516 -0.2527 0.1516c -0.1011,-0.0000 -0.1516,-0.0505 -0.2527 -0.2021l -3.4866,-4.8004 c -0.1011,-0.1516 -0.1516,-0.2527 -0.2527 -0.2527c -0.1011,-0.0000 -0.2021,0.0505 -0.3032 0.1516l -6.3669,5.1541 Z"/></g><g stroke-linejoin="miter" stroke-opacity="1.0" fill-opacity="1.0" stroke="rgb(0,0,0)" stroke-width="0.7291518742935178" fill="rgb(0,0,0)" stroke-linecap="butt" stroke-miterlimit="10.0"><path d="M 298.5346,31.4300 ZM 334.8661,24.3052 c 0.0000,-2.7287 -1.5159,-5.2552 -4.0424 -5.2552c -2.8297,-0.0000 -4.8509,3.2845 -6.4679 7.6301c 2.0718,2.2739 4.6488,2.6276 6.7711 2.6276c 1.9202,-0.0000 3.7393,-1.9707 3.7393 -5.0025ZM 334.8661,24.3052 ZM 316.7761,4.9015 c -2.1728,2.5265 -5.9626,8.9944 -5.9626 18.0899l -2.0718,0.6064 l -0.7580,-0.6064 c 0.0000,-6.1647 -1.9202,-13.8454 -2.7792 -15.4624c -1.1622,-2.2233 -1.7180,-2.5771 -3.6887 -3.4361l 0.4548,-1.1117 c 2.2739,0.0505 4.5478,0.9601 5.3057 2.3244c 0.9601,1.8191 1.7686,5.0025 2.4760 9.3482c 1.1117,-4.8004 2.8802,-8.6913 5.4068 -11.6726l 3.7393,-0.7580 c 2.5771,5.7605 2.4255,16.0182 3.6887 20.7175c 1.8191,-3.5371 6.0131,-6.2658 9.2471 -6.2658c 4.2446,-0.0000 6.8216,3.1834 6.8216 7.4280c 0.0000,4.2446 -3.5877,7.3269 -7.4785 7.3269c -2.7287,-0.0000 -5.3057,-0.7074 -7.3269 -2.7792c -3.2340,8.3881 -7.1248,8.4891 -9.8029 8.4891h -2.6276 v -2.3749 h 1.2633 c 5.0531,-0.0000 5.9121,-1.6170 8.5397 -9.2471c -1.3643,-2.3749 -1.6675,-2.3749 -2.6276 -10.0051c -0.6569,-5.1541 -0.9601,-8.7923 -1.8191 -10.6114Z"/></g><g stroke-linejoin="miter" stroke-opacity="1.0" fill-opacity="1.0" stroke="rgb(0,0,0)" stroke-width="0.7291518742935178" fill="rgb(0,0,0)" stroke-linecap="butt" stroke-miterlimit="10.0"><path d="M 270.8439,33.2491 ZM 300.6064,5.9121 l 0.3032,0.3537 c -0.3032,1.6170 -0.5053,3.1329 -0.5053 4.6488c 0.0000,2.3749 0.4548,4.5983 1.1117 6.6195l -2.1223,0.5053 c -0.9096,-1.9707 -1.3138,-4.1940 -1.3138 -6.0637c 0.0000,-0.5558 0.0505,-1.0611 0.1011 -1.5159l -12.6832,12.6326 l 6.0131,6.0637 l -2.0212,2.0212 l -6.0131,-6.1142 l -8.9439,8.8428 l -1.9707,-2.0212 l 8.8934,-8.8428 l -6.0131,-6.0131 l 2.0212,-2.0212 l 6.0131,6.0637 l 12.7337,-12.5821 c -0.5558,0.0505 -1.1622,0.1011 -1.7686 0.1011c -1.8696,-0.0000 -3.8909,-0.3537 -5.7100 -1.0106l 0.4042,-2.1223 c 1.7180,0.5558 4.0930,0.9096 6.6700 0.9096c 1.5664,-0.0000 3.2340,-0.1516 4.8004 -0.4548Z"/></g><g stroke-linejoin="miter" stroke-opacity="1.0" fill-opacity="1.0" stroke="rgb(0,0,0)" stroke-width="0.7291518742935178" fill="rgb(0,0,0)" stroke-linecap="butt" stroke-miterlimit="10.0"><path d="M 240.4750,29.7878 ZM 242.6983,2.1981 l 2.1728,-0.7580 l 1.1622,-0.1011 c 1.1117,1.6170 1.8191,3.4866 2.2233 5.5584c 0.8590,-2.2233 2.0212,-4.0930 3.3350 -5.5584l 3.6382,-0.6064 c 1.3138,1.5159 2.1223,3.6887 2.4760 6.4679c 0.7074,-2.0212 1.8696,-3.9414 3.4866 -5.8615l 3.6887,-0.6064 c 1.5664,2.0718 2.3244,4.5478 2.3244 7.3775v 17.7362 c 0.0000,4.0930 0.3537,6.2153 1.7180 7.5291l 1.2633,1.2633 c 0.3032,0.3032 0.5558,0.4042 0.7074 0.4042c 0.4042,-0.0000 0.5053,-0.6064 0.5053 -1.2127v -0.4548 l 0.7580,-0.8085 l 0.4042,6.0637 l -5.9626,-0.3537 l 0.8085,-0.8590 c 0.2021,0.0505 0.4042,0.0505 0.5558 0.0505c 0.5558,-0.0000 1.0106,-0.1011 1.0106 -0.4042c 0.0000,-0.2021 -0.1011,-0.4548 -0.4548 -0.7580l -1.8191,-1.8191 c -1.9707,-1.8696 -3.2845,-4.4972 -3.2845 -8.6407v -16.2203 c 0.0000,-2.9308 -0.4042,-5.0025 -1.2633 -6.2153c -2.1223,2.4255 -3.5877,5.4573 -4.4467 9.1966v 16.5235 l -3.1834,1.5664 l -0.5558,-0.9096 v -19.1511 c 0.0000,-3.4866 -0.4548,-5.9121 -1.2633 -7.2259c -2.0718,2.2739 -3.5371,5.1541 -4.4467 8.5397v 17.1804 l -3.2340,1.5664 l -0.5558,-0.9096 v -20.3133 c 0.0000,-2.9308 -0.6064,-5.3562 -1.7686 -7.2764Z"/></g><g stroke-linejoin="miter" stroke-opacity="1.0" fill-opacity="1.0" stroke="rgb(0,0,0)" stroke-width="0.7291518742935178" fill="rgb(0,0,0)" stroke-linecap="butt" stroke-miterlimit="10.0"><path d="M 207.9838,35.3209 ZM 211.3188,23.7999 c -0.4548,-0.0000 -0.7580,-0.4042 -0.7580 -0.8590c 0.0000,-0.8085 0.6569,-1.8696 1.2633 -1.8696h 7.9838 c -1.5159,-1.5664 -2.6781,-3.2340 -2.6781 -5.2046c 0.0000,-4.8004 4.4972,-8.9439 9.6513 -8.9439c 5.0025,-0.0000 9.3987,3.8403 9.3987 8.8428c 0.0000,1.9707 -1.1622,3.7393 -2.7287 5.3057h 8.4891 c 0.5558,-0.0000 0.7580,0.4548 0.7580 0.8590c 0.0000,0.6064 -0.7074,1.8696 -1.3643 1.8696h -11.7736 l 0.2527,-2.5265 c 2.2739,-1.0611 3.1329,-3.1329 3.1329 -5.3562c 0.0000,-3.4866 -2.8802,-6.5184 -6.2658 -6.5184c -3.4361,-0.0000 -6.3163,3.0318 -6.3163 6.5184c 0.0000,2.2233 0.8590,4.0930 3.0824 5.3562l -0.3032,2.5265 h -11.8242 ZM 211.3188,23.7999 ZM 211.3188,32.4406 c -0.4548,-0.0000 -0.7580,-0.4042 -0.7580 -0.8590c 0.0000,-0.7580 0.6569,-1.8191 1.2633 -1.8191h 30.0657 c 0.5558,-0.0000 0.7580,0.4042 0.7580 0.8590c 0.0000,0.5558 -0.7074,1.8191 -1.3643 1.8191h -29.9646 Z"/></g><g stroke-linejoin="miter" stroke-opacity="1.0" fill-opacity="1.0" stroke="rgb(0,0,0)" stroke-width="0.7291518742935178" fill="rgb(0,0,0)" stroke-linecap="butt" stroke-miterlimit="10.0"><path d="M 174.3810,29.4088 ZM 201.6170,28.6508 c 2.6276,-2.6276 5.1036,-6.4679 5.1036 -11.6220c 0.0000,-2.3244 -0.5053,-4.4972 -1.5159 -6.6195c -1.4149,1.7180 -2.6781,4.0424 -3.5877 6.9732v 11.2683 ZM 201.6170,28.6508 ZM 192.0162,28.7519 l -3.2340,1.5664 l -0.5558,-0.9096 v -18.9995 c 0.0000,-3.5371 -0.4042,-5.9626 -1.2127 -7.3269c -2.0212,2.2739 -3.5877,5.1036 -4.5983 8.4386v 17.2309 l -3.1834,1.5664 l -0.6064,-0.9096 v -20.6670 c 0.0000,-2.4760 -0.6064,-4.8004 -1.7686 -6.9227l 2.2233,-0.7580 l 1.1622,-0.1011 c 1.0611,1.4149 1.7686,3.2845 2.1728 5.6089c 0.9601,-2.3749 2.2233,-4.2446 3.4866 -5.6089l 1.1117,-0.9096 l 1.6675,0.3537 c 1.2633,1.6170 2.9813,3.8403 3.3350 6.5690c 0.6064,-2.0718 1.9202,-4.0930 3.5877 -6.0131l 2.7792,-0.5558 c 1.5159,2.1223 3.2340,4.4972 3.2340 7.0743v 5.4573 c 0.7580,-2.1728 1.6675,-3.8909 2.5265 -5.1036l 3.3855,-0.8590 c 2.0212,3.1329 3.0318,6.4174 3.0318 9.8535c 0.0000,6.6700 -4.8509,11.6726 -8.6407 14.7044c 0.2021,3.1834 1.0106,4.8004 3.0318 7.0743l -0.8590,0.7074 c -2.5771,-1.4654 -4.2951,-3.5877 -5.4068 -6.3669c -1.7686,1.0106 -3.9919,1.7180 -6.5184 2.1223l -0.4548,-1.6675 c 2.5265,-0.7580 4.6993,-1.8191 6.4174 -2.9308c -0.2021,-1.2127 -0.3032,-2.4255 -0.3032 -3.6887v -17.3320 c 0.0000,-2.8297 -0.4042,-4.9520 -1.2127 -6.3669c -2.0212,2.1223 -3.6382,5.2046 -4.5983 9.1460v 16.5235 Z"/></g><g stroke-linejoin="miter" stroke-opacity="1.0" fill-opacity="1.0" stroke="rgb(0,0,0)" stroke-width="0.7291518742935178" fill="rgb(0,0,0)" stroke-linecap="butt" stroke-miterlimit="10.0"><path d="M 142.6983,31.0258 ZM 152.3497,18.4942 c -2.8297,-0.0000 -5.1541,2.3244 -5.1541 5.3057c 0.0000,3.1329 2.3244,5.3562 5.2046 5.3562c 2.8802,-0.0000 5.2046,-2.2739 5.2046 -5.3057c 0.0000,-2.9308 -2.1223,-5.3562 -5.2552 -5.3562ZM 152.3497,18.4942 ZM 167.1551,32.6427 c 0.0000,2.5265 1.3643,3.9414 2.9813 3.9414c 2.0718,-0.0000 3.4866,-0.5558 5.6089 -2.5265l 1.1117,0.9601 c -2.3749,2.9308 -4.6488,4.3456 -6.7711 4.3456c -3.8909,-0.0000 -6.6195,-2.6276 -6.6195 -6.1142c 0.0000,-4.5983 2.8802,-8.5902 5.6089 -11.6220c 2.5265,-2.7287 3.5877,-5.1541 3.5877 -10.1061c 0.0000,-4.7499 -4.0930,-9.1460 -8.8428 -9.1460c -4.4467,-0.0000 -8.1860,2.8297 -8.1860 6.9227c 0.0000,3.6382 0.5053,5.9626 2.7287 8.6913c 1.6675,2.0212 2.3749,3.8403 2.3749 5.7100c 0.0000,4.1435 -3.8403,7.9838 -8.2365 7.9838c -4.2446,-0.0000 -7.8322,-3.2845 -7.8322 -7.8828c 0.0000,-4.2951 3.4361,-7.7817 7.6806 -7.7817c 0.8085,-0.0000 1.2633,-0.0000 2.1223 0.2021c -2.0212,-2.6276 -2.5771,-4.4467 -2.5771 -6.4679c 0.0000,-5.6594 5.7605,-9.7524 11.6726 -9.7524c 8.2870,-0.0000 12.6832,5.6594 12.6832 10.6114c 0.0000,5.0025 -1.7180,9.0450 -4.5983 12.3295c -3.1834,3.5877 -4.4972,6.7206 -4.4972 9.7019Z"/></g><g stroke-linejoin="miter" stroke-opacity="1.0" fill-opacity="1.0" stroke="rgb(0,0,0)" stroke-width="0.7291518742935178" fill="rgb(0,0,0)" stroke-linecap="butt" stroke-miterlimit="10.0"><path d="M 104.8509,35.3967 ZM 115.0581,21.8039 c 3.0824,-0.0000 5.3562,-2.4760 5.3562 -5.3562c 0.0000,-3.0318 -2.5265,-5.3057 -5.4068 -5.3057c -3.0318,-0.0000 -5.2552,2.3244 -5.2552 5.2552c 0.0000,3.1329 2.4255,5.4068 5.3057 5.4068ZM 115.0581,21.8039 ZM 115.2602,23.8252 c -4.0930,-0.0000 -7.9333,-3.2845 -7.9333 -7.6806c 0.0000,-3.3350 2.4255,-5.4573 6.3163 -7.5796c 3.8403,-2.1223 8.7418,-3.1329 14.5528 -3.1329c 5.0531,-0.0000 10.4598,1.3138 16.0687 3.8403l -0.1011,0.9601 l -0.9096,1.7180 c -5.6594,-2.4760 -11.1167,-3.6887 -16.3719 -3.6887c -3.6382,-0.0000 -6.6195,0.5053 -8.9439 1.4654c 3.7393,1.8191 4.8509,4.0930 4.8509 6.3163c 0.0000,4.1435 -3.2340,7.7817 -7.5291 7.7817ZM 115.2602,23.8252 ZM 136.9378,17.5088 c -3.0824,-0.0000 -5.3562,2.5265 -5.3562 5.4068c 0.0000,2.8297 2.3244,5.3057 5.4068 5.3057c 2.7792,-0.0000 5.2552,-2.1223 5.2552 -5.3057c 0.0000,-3.0824 -2.4255,-5.4068 -5.3057 -5.4068ZM 136.9378,17.5088 ZM 136.9884,15.4371 c 4.1435,-0.0000 7.6806,3.1329 7.6806 7.3775c 0.0000,3.3350 -2.4255,5.8615 -6.3163 7.9333c -3.8403,2.1223 -8.6913,3.1834 -14.5528 3.1834c -5.0531,-0.0000 -10.3588,-1.3138 -15.9677 -3.8403l -0.0505,-1.0611 l 0.9601,-1.6675 c 5.6089,2.4760 11.0662,3.7393 16.3719 3.7393c 3.6887,-0.0000 6.6195,-0.5053 8.9439 -1.4654c -2.4255,-1.2127 -4.9015,-3.1329 -4.9015 -6.8216c 0.0000,-4.2446 3.6382,-7.3775 7.8322 -7.3775Z"/></g><g stroke-linejoin="miter" stroke-opacity="1.0" fill-opacity="1.0" stroke="rgb(0,0,0)" stroke-width="0.7291518742935178" fill="rgb(0,0,0)" stroke-linecap="butt" stroke-miterlimit="10.0"><path d="M 73.5220,33.8555 ZM 82.9207,31.9859 v -24.6084 c -2.3244,-0.2527 -4.5983,-0.7580 -6.9227 -1.3643v -2.4255 c 4.2446,1.2127 9.4997,1.8191 15.6645 1.8191c 6.2153,-0.0000 11.4199,-0.6064 15.6645 -1.8191v 2.4255 c -2.2739,0.6064 -4.5983,1.1622 -6.8722 1.4654v 24.5073 c 2.1223,0.3032 4.3962,0.7580 6.8722 1.4149v 2.3749 c -4.8509,-1.2633 -10.0556,-1.9202 -15.6645 -1.9202c -5.5584,-0.0000 -10.8135,0.6569 -15.6645 1.9202v -2.3749 c 2.4760,-0.6569 4.7499,-1.1117 6.9227 -1.4149ZM 82.9207,31.9859 ZM 86.6599,31.7332 c 1.5159,-0.1516 3.1834,-0.2527 5.0025 -0.2527c 1.8696,-0.0000 3.5371,0.1011 5.0025 0.2527v -24.1536 c -1.3643,0.1011 -3.0318,0.1516 -5.0025 0.1516c -1.9202,-0.0000 -3.5877,-0.0505 -5.0025 -0.1516v 24.1536 Z"/></g><g stroke-linejoin="miter" stroke-opacity="1.0" fill-opacity="1.0" stroke="rgb(0,0,0)" stroke-width="0.7291518742935178" fill="rgb(0,0,0)" stroke-linecap="butt" stroke-miterlimit="10.0"><path d="M 38.6559,32.4154 ZM 58.5649,35.1945 c 5.4068,-0.0000 9.3987,-4.1940 9.3987 -9.1966c 0.0000,-5.1541 -4.0424,-9.2976 -9.3987 -9.2976c -5.1036,-0.0000 -9.3987,3.9414 -9.3987 9.2976c 0.0000,5.0025 3.9919,9.1966 9.3987 9.1966ZM 58.5649,35.1945 ZM 53.1582,15.0834 c -2.4255,-1.0106 -3.6887,-2.0718 -5.6594 -5.6594l -1.1117,-2.0212 c -1.4149,-2.4760 -2.9813,-3.7393 -4.7499 -3.7393h -0.5053 v -2.3749 h 1.4149 c 2.4760,-0.0000 4.7499,1.9707 6.7711 5.5078l 1.5664,2.6781 c 1.0611,1.8191 2.1223,3.0824 3.2340 3.7898c 1.1622,0.7074 2.6276,1.0611 4.4467 1.0611c 1.8191,-0.0000 3.2845,-0.3537 4.4467 -1.0611c 1.1117,-0.7074 2.2233,-1.9707 3.2340 -3.7898l 1.6170,-2.6781 c 2.0212,-3.5371 4.2446,-5.5078 6.7206 -5.5078h 1.4149 v 2.3749 h -0.5053 c -1.7686,-0.0000 -3.3350,1.2633 -4.7499 3.7393l -1.1117,2.0212 c -1.7686,3.2340 -2.9813,4.5478 -5.6594 5.6594c 3.6887,2.0212 6.8216,5.6594 6.8216 10.8641c 0.0000,6.4679 -5.5078,12.1273 -12.2284 12.1273c -6.6195,-0.0000 -12.2284,-5.6089 -12.2284 -12.1273c 0.0000,-5.2046 3.1329,-8.8428 6.8216 -10.8641Z"/></g><g stroke-linejoin="miter" stroke-opacity="1.0" fill-opacity="1.0" stroke="rgb(0,0,0)" stroke-width="0.7291518742935178" fill="rgb(0,0,0)" stroke-linecap="butt" stroke-miterlimit="10.0"><path d="M -1.9707,31.8848 ZM 18.6963,37.9990 c 0.0000,-16.0687 -4.1940,-34.8661 -10.9146 -34.8661c -2.3749,-0.0000 -3.9919,2.2739 -3.9919 5.5584c 0.0000,2.1728 0.7074,4.4467 2.1223 6.7711l -1.1117,0.4042 l -2.7287,-0.4042 c -1.3643,-2.5265 -2.0718,-4.8509 -2.0718 -7.0237c 0.0000,-4.6488 3.7393,-7.9333 7.6806 -7.9333c 7.7817,-0.0000 11.3188,12.5316 12.6326 23.6483h 0.5053 c 1.0611,-8.5902 4.0424,-23.6988 12.9358 -23.6988c 4.1435,-0.0000 7.3775,3.4866 7.3775 7.8828c 0.0000,2.2233 -0.7074,4.5983 -2.0718 7.1248l -1.1622,0.4548 l -2.6276,-0.4548 c 1.4149,-2.5265 2.0718,-4.8004 2.0718 -6.9227c 0.0000,-3.4866 -1.5664,-5.6594 -3.9919 -5.6594c -6.6700,-0.0000 -10.8641,18.8984 -10.8641 34.4618l -3.1834,1.5664 Z"/></g></svg>