<?xml version="1.0" encoding="UTF-8"?>
<!DOCTYPE svg PUBLIC "-//W3C//DTD SVG 1.1//EN"
    "http://www.w3.org/Graphics/SVG/1.1/DTD/svg11.dtd"><svg xmlns="http://www.w3.org/2000/svg" height="136.1946" stroke-opacity="1" viewBox="0.0 0.0 200.0 136.1945636623748" font-size="1" width="200.0000" xmlns:xlink="http://www.w3.org/1999/xlink" stroke="rgb(0,0,0)" version="1.1"><defs></defs><g stroke-linejoin="miter" stroke-opacity="1.0" fill-opacity="1.0" stroke="rgb(0,0,0)" stroke-width="0.6601686176421895" fill="rgb(0,0,0)" stroke-linecap="butt" stroke-miterlimit="10.0"><path d="M -18.8841,147.0672 ZM 0.0000,39.1989 l 48.9270,-38.0544 c 0.8584,-0.5722 1.4306,-1.1445 2.2890 -1.1445c 0.5722,-0.0000 1.1445,0.2861 1.7167 1.4306l 20.8870,28.6123 l 34.9070,-28.6123 c 1.1445,-0.8584 1.7167,-1.4306 2.5751 -1.4306c 0.5722,-0.0000 1.1445,0.5722 2.0029 1.7167l 20.6009,28.3262 l 34.3348,-28.0401 c 1.1445,-1.1445 2.2890,-1.7167 2.8612 -1.7167c 0.5722,-0.0000 1.1445,0.5722 2.2890 2.0029l 26.6094,42.6323 l -12.5894,7.7253 l -20.6009,-28.3262 c -0.8584,-1.1445 -1.1445,-1.7167 -1.7167 -1.7167c -0.5722,-0.0000 -1.7167,0.5722 -2.5751 1.4306l -33.4764,27.4678 c -0.5722,0.5722 -1.1445,0.5722 -1.4306 0.5722c -0.5722,-0.0000 -0.8584,-0.2861 -1.4306 -0.8584l -19.1702,-26.6094 c -0.5722,-1.4306 -1.1445,-2.0029 -2.0029 -2.0029c -0.5722,-0.0000 -1.1445,0.2861 -2.0029 0.8584l -33.7625,28.0401 c -0.5722,0.5722 -1.1445,0.5722 -1.4306 0.5722c -0.5722,-0.0000 -0.8584,-0.2861 -1.4306 -0.8584l -19.4564,-27.1817 c -0.5722,-1.1445 -1.1445,-1.4306 -1.7167 -1.4306c -0.5722,-0.0000 -0.8584,0.2861 -1.7167 0.8584l -36.0515,29.1845 ZM 0.0000,39.1989 ZM 0.0000,122.7468 l 48.6409,-38.0544 c 1.1445,-0.5722 1.7167,-1.1445 2.2890 -1.1445c 0.8584,-0.0000 1.4306,0.5722 2.0029 1.4306l 20.8870,28.6123 l 34.9070,-28.6123 c 1.1445,-0.8584 1.7167,-1.4306 2.2890 -1.4306c 0.8584,-0.0000 1.1445,0.5722 2.2890 1.7167l 20.3147,28.3262 l 34.3348,-28.0401 c 1.4306,-1.1445 2.2890,-1.7167 3.1474 -1.7167c 0.5722,-0.0000 1.1445,0.5722 2.0029 2.0029l 26.8956,42.6323 l -12.5894,7.7253 l -20.6009,-28.3262 c -0.8584,-1.1445 -1.1445,-1.7167 -2.0029 -1.7167c -0.2861,-0.0000 -1.4306,0.8584 -2.2890 1.7167l -33.4764,27.1817 c -0.8584,0.5722 -1.1445,0.8584 -1.4306 0.8584c -0.5722,-0.0000 -0.8584,-0.5722 -1.4306 -1.1445l -19.4564,-26.6094 c -0.5722,-1.1445 -0.8584,-2.0029 -1.7167 -2.0029c -0.5722,-0.0000 -1.1445,0.2861 -2.0029 1.1445l -33.7625,27.7539 c -0.8584,0.5722 -1.1445,0.8584 -1.4306 0.8584c -0.5722,-0.0000 -0.8584,-0.2861 -1.4306 -1.1445l -19.7425,-27.1817 c -0.5722,-0.8584 -0.8584,-1.4306 -1.4306 -1.4306c -0.5722,-0.0000 -1.1445,0.2861 -1.7167 0.8584l -36.0515,29.1845 Z"/></g></svg>