<?xml version="1.0" encoding="UTF-8"?>
<!DOCTYPE svg PUBLIC "-//W3C//DTD SVG 1.1//EN"
    "http://www.w3.org/Graphics/SVG/1.1/DTD/svg11.dtd"><svg xmlns="http://www.w3.org/2000/svg" height="186.9779" stroke-opacity="1" viewBox="0.0 0.0 200.0 186.977886977887" font-size="1" width="200.0000" xmlns:xlink="http://www.w3.org/1999/xlink" stroke="rgb(0,0,0)" version="1.1"><defs></defs><g stroke-linejoin="miter" stroke-opacity="1.0" fill-opacity="1.0" stroke="rgb(0,0,0)" stroke-width="0.7735174453942446" fill="rgb(0,0,0)" stroke-linecap="butt" stroke-miterlimit="10.0"><path d="M -9.5823,152.8256 ZM 90.9091,182.5553 c 0.0000,-78.1327 -20.3931,-169.5332 -53.0713 -169.5332c -11.5479,-0.0000 -19.4103,11.0565 -19.4103 27.0270c 0.0000,10.5651 3.4398,21.6216 10.3194 32.9238l -5.4054,1.9656 l -13.2678,-1.9656 c -6.6339,-12.2850 -10.0737,-23.5872 -10.0737 -34.1523c 0.0000,-22.6044 18.1818,-38.5749 37.3464 -38.5749c 37.8378,-0.0000 55.0369,60.9337 61.4251 114.9877h 2.4570 c 5.1597,-41.7690 19.6560,-115.2334 62.8993 -115.2334c 20.1474,-0.0000 35.8722,16.9533 35.8722 38.3292c 0.0000,10.8108 -3.4398,22.3587 -10.0737 34.6437l -5.6511,2.2113 l -12.7764,-2.2113 c 6.8796,-12.2850 10.0737,-23.3415 10.0737 -33.6609c 0.0000,-16.9533 -7.6167,-27.5184 -19.4103 -27.5184c -32.4324,-0.0000 -52.8256,91.8919 -52.8256 167.5676l -15.4791,7.6167 Z"/></g></svg>