<?xml version="1.0" encoding="UTF-8"?>
<!DOCTYPE svg PUBLIC "-//W3C//DTD SVG 1.1//EN"
    "http://www.w3.org/Graphics/SVG/1.1/DTD/svg11.dtd"><svg xmlns="http://www.w3.org/2000/svg" height="200.0000" stroke-opacity="1" viewBox="0.0 0.0 200.0 199.99999999999997" font-size="1" width="200.0000" xmlns:xlink="http://www.w3.org/1999/xlink" stroke="rgb(0,0,0)" version="1.1"><defs></defs><g stroke-linejoin="miter" stroke-opacity="1.0" fill-opacity="1.0" stroke="rgb(0,0,0)" stroke-width="0.7999999999999999" fill="rgb(0,0,0)" stroke-linecap="butt" stroke-miterlimit="10.0"><path d="M -27.1783,200.0000 ZM 200.0000,193.4452 c 0.0000,6.5548 -5.9153,6.5548 -5.9153 6.5548h -187.8497 c -6.2350,-0.0000 -6.2350,-6.5548 -6.2350 -6.5548c 0.0000,-6.5548 6.2350,-6.5548 6.2350 -6.5548h 87.2902 v -80.2558 h -87.2902 c -6.2350,-0.0000 -6.2350,-6.5548 -6.2350 -6.5548c 0.0000,-6.5548 6.2350,-6.5548 6.2350 -6.5548h 87.2902 v -87.2902 c 0.0000,-6.2350 6.5548,-6.2350 6.5548 -6.2350c 6.5548,-0.0000 6.5548,6.2350 6.5548 6.2350v 87.2902 h 87.4500 c 5.9153,-0.0000 5.9153,6.5548 5.9153 6.5548c 0.0000,6.5548 -5.9153,6.5548 -5.9153 6.5548h -87.4500 v 80.2558 h 87.4500 c 5.9153,-0.0000 5.9153,6.5548 5.9153 6.5548Z"/></g></svg>