<?xml version="1.0" encoding="UTF-8"?>
<!DOCTYPE svg PUBLIC "-//W3C//DTD SVG 1.1//EN"
    "http://www.w3.org/Graphics/SVG/1.1/DTD/svg11.dtd"><svg xmlns="http://www.w3.org/2000/svg" height="152.6387" stroke-opacity="1" viewBox="0.0 0.0 200.0 152.63870094722597" font-size="1" width="200.0000" xmlns:xlink="http://www.w3.org/1999/xlink" stroke="rgb(0,0,0)" version="1.1"><defs></defs><g stroke-linejoin="miter" stroke-opacity="1.0" fill-opacity="1.0" stroke="rgb(0,0,0)" stroke-width="0.6988875753875748" fill="rgb(0,0,0)" stroke-linecap="butt" stroke-miterlimit="10.0"><path d="M -13.2612,160.4871 ZM 41.4073,87.6861 c 16.5088,-0.0000 28.6874,-13.2612 28.6874 -28.6874c 0.0000,-16.2382 -13.5318,-28.4168 -28.9581 -28.4168c -16.2382,-0.0000 -28.1461,12.4493 -28.1461 28.1461c 0.0000,16.7794 12.9905,28.9581 28.4168 28.9581ZM 41.4073,87.6861 ZM 42.4899,98.5115 c -21.9215,-0.0000 -42.4899,-17.5913 -42.4899 -41.1367c 0.0000,-17.8620 12.9905,-29.2287 33.8295 -40.5954c 20.5683,-11.3667 46.8200,-16.7794 77.9432 -16.7794c 27.0636,-0.0000 56.0217,7.0365 86.0622 20.5683l -0.5413,5.1421 l -4.8714,9.2016 c -30.3112,-13.2612 -59.5399,-19.7564 -87.6861 -19.7564c -19.4858,-0.0000 -35.4533,2.7064 -47.9026 7.8484c 20.0271,9.7429 25.9811,21.9215 25.9811 33.8295c 0.0000,22.1922 -17.3207,41.6779 -40.3248 41.6779ZM 42.4899,98.5115 ZM 158.5927,64.6820 c -16.5088,-0.0000 -28.6874,13.5318 -28.6874 28.9581c 0.0000,15.1556 12.4493,28.4168 28.9581 28.4168c 14.8850,-0.0000 28.1461,-11.3667 28.1461 -28.4168c 0.0000,-16.5088 -12.9905,-28.9581 -28.4168 -28.9581ZM 158.5927,64.6820 ZM 158.8633,53.5859 c 22.1922,-0.0000 41.1367,16.7794 41.1367 39.5129c 0.0000,17.8620 -12.9905,31.3938 -33.8295 42.4899c -20.5683,11.3667 -46.5494,17.0501 -77.9432 17.0501c -27.0636,-0.0000 -55.4804,-7.0365 -85.5210 -20.5683l -0.2706,-5.6834 l 5.1421,-8.9310 c 30.0406,13.2612 59.2693,20.0271 87.6861 20.0271c 19.7564,-0.0000 35.4533,-2.7064 47.9026 -7.8484c -12.9905,-6.4953 -26.2517,-16.7794 -26.2517 -36.5359c 0.0000,-22.7334 19.4858,-39.5129 41.9486 -39.5129Z"/></g></svg>