<?xml version="1.0" encoding="UTF-8"?>
<!DOCTYPE svg PUBLIC "-//W3C//DTD SVG 1.1//EN"
    "http://www.w3.org/Graphics/SVG/1.1/DTD/svg11.dtd"><svg xmlns="http://www.w3.org/2000/svg" height="188.0272" stroke-opacity="1" viewBox="0.0 0.0 200.0 188.02721088435362" font-size="1" width="200.0000" xmlns:xlink="http://www.w3.org/1999/xlink" stroke="rgb(0,0,0)" version="1.1"><defs></defs><g stroke-linejoin="miter" stroke-opacity="1.0" fill-opacity="1.0" stroke="rgb(0,0,0)" stroke-width="0.7756849069241528" fill="rgb(0,0,0)" stroke-linecap="butt" stroke-miterlimit="10.0"><path d="M -16.0544,157.2789 ZM 179.5918,118.9116 c 0.0000,-14.6939 -8.1633,-28.2993 -21.7687 -28.2993c -15.2381,-0.0000 -26.1224,17.6871 -34.8299 41.0884c 11.1565,12.2449 25.0340,14.1497 36.4626 14.1497c 10.3401,-0.0000 20.1361,-10.6122 20.1361 -26.9388ZM 179.5918,118.9116 ZM 82.1769,14.4218 c -11.7007,13.6054 -32.1088,48.4354 -32.1088 97.4150l -11.1565,3.2653 l -4.0816,-3.2653 c 0.0000,-33.1973 -10.3401,-74.5578 -14.9660 -83.2653c -6.2585,-11.9728 -9.2517,-13.8776 -19.8639 -18.5034l 2.4490,-5.9864 c 12.2449,0.2721 24.4898,5.1701 28.5714 12.5170c 5.1701,9.7959 9.5238,26.9388 13.3333 50.3401c 5.9864,-25.8503 15.5102,-46.8027 29.1156 -62.8571l 20.1361,-4.0816 c 13.8776,31.0204 13.0612,86.2585 19.8639 111.5646c 9.7959,-19.0476 32.3810,-33.7415 49.7959 -33.7415c 22.8571,-0.0000 36.7347,17.1429 36.7347 40.0000c 0.0000,22.8571 -19.3197,39.4558 -40.2721 39.4558c -14.6939,-0.0000 -28.5714,-3.8095 -39.4558 -14.9660c -17.4150,45.1701 -38.3673,45.7143 -52.7891 45.7143h -14.1497 v -12.7891 h 6.8027 c 27.2109,-0.0000 31.8367,-8.7075 45.9864 -49.7959c -7.3469,-12.7891 -8.9796,-12.7891 -14.1497 -53.8776c -3.5374,-27.7551 -5.1701,-47.3469 -9.7959 -57.1429Z"/></g></svg>