<?xml version="1.0" encoding="UTF-8"?>
<!DOCTYPE svg PUBLIC "-//W3C//DTD SVG 1.1//EN"
    "http://www.w3.org/Graphics/SVG/1.1/DTD/svg11.dtd"><svg xmlns="http://www.w3.org/2000/svg" height="430.6604" stroke-opacity="1" viewBox="0.0 0.0 200.0 430.66037735849056" font-size="1" width="200.0000" xmlns:xlink="http://www.w3.org/1999/xlink" stroke="rgb(0,0,0)" version="1.1"><defs></defs><g stroke-linejoin="miter" stroke-opacity="1.0" fill-opacity="1.0" stroke="rgb(0,0,0)" stroke-width="1.1739306655621404" fill="rgb(0,0,0)" stroke-linecap="butt" stroke-miterlimit="10.0"><path d="M -19.5755,334.9057 ZM 200.0000,362.5000 c 0.0000,33.2547 -34.9057,52.3585 -34.9057 52.3585c -29.0094,15.8019 -65.0943,15.8019 -65.0943 15.8019c -35.6132,-0.0000 -64.8585,-16.0377 -64.8585 -16.0377c -35.1415,-19.3396 -35.1415,-52.1226 -35.1415 -52.1226c 0.0000,-29.4811 28.0660,-48.1132 28.0660 -48.1132c 23.3491,-15.3302 57.0755,-19.1038 57.0755 -19.1038v -295.2830 h 29.4811 v 65.8019 l 58.9623,-55.6604 l 20.2830,21.4623 l -64.8585,61.0849 l 64.8585,61.3208 l -20.2830,21.4623 l -58.9623,-55.8962 v 175.7075 c 33.4906,3.7736 57.0755,19.3396 57.0755 19.3396c 28.3019,18.6321 28.3019,47.8774 28.3019 47.8774ZM 200.0000,362.5000 ZM 170.5189,362.5000 c 0.0000,-18.3962 -27.1226,-29.7170 -27.1226 -29.7170c -21.4623,-8.9623 -43.3962,-8.9623 -43.3962 -8.9623c -22.4057,-0.0000 -43.3962,8.7264 -43.3962 8.7264c -27.1226,11.0849 -27.1226,29.9528 -27.1226 29.9528c 0.0000,18.3962 27.1226,29.7170 27.1226 29.7170c 21.4623,8.9623 43.3962,8.9623 43.3962 8.9623c 22.4057,-0.0000 43.3962,-8.7264 43.3962 -8.7264c 27.1226,-11.0849 27.1226,-29.9528 27.1226 -29.9528Z"/></g></svg>