<?xml version="1.0" encoding="UTF-8"?>
<!DOCTYPE svg PUBLIC "-//W3C//DTD SVG 1.1//EN"
    "http://www.w3.org/Graphics/SVG/1.1/DTD/svg11.dtd"><svg xmlns="http://www.w3.org/2000/svg" height="205.0494" stroke-opacity="1" viewBox="0.0 0.0 200.0 205.0493962678376" font-size="1" width="200.0000" xmlns:xlink="http://www.w3.org/1999/xlink" stroke="rgb(0,0,0)" version="1.1"><defs></defs><g stroke-linejoin="miter" stroke-opacity="1.0" fill-opacity="1.0" stroke="rgb(0,0,0)" stroke-width="0.8100358436866114" fill="rgb(0,0,0)" stroke-linecap="butt" stroke-miterlimit="10.0"><path d="M -23.0516,207.2448 ZM 200.0000,8.5620 c 0.0000,4.1712 -6.8057,10.9769 -6.8057 10.9769l -57.5192,57.5192 c 18.8804,21.2953 18.8804,50.7135 18.8804 50.7135c 0.0000,32.2722 -22.5027,54.7750 -22.5027 54.7750c -22.5027,22.5027 -54.7750,22.5027 -54.7750 22.5027c -32.2722,-0.0000 -54.7750,-22.5027 -54.7750 -22.5027c -22.5027,-22.5027 -22.5027,-54.7750 -22.5027 -54.7750c 0.0000,-32.2722 22.5027,-54.7750 22.5027 -54.7750c 22.5027,-22.5027 54.7750,-22.5027 54.7750 -22.5027c 25.9056,-0.0000 45.2250,14.2700 45.2250 14.2700l 57.9583,-57.9583 c 6.8057,-6.8057 10.9769,-6.8057 10.9769 -6.8057c 8.5620,-0.0000 8.5620,8.5620 8.5620 8.5620ZM 200.0000,8.5620 ZM 132.3820,127.7717 c 0.0000,-23.0516 -16.0263,-39.0779 -16.0263 -39.0779c -16.0263,-16.0263 -39.0779,-16.0263 -39.0779 -16.0263c -23.0516,-0.0000 -39.0779,16.0263 -39.0779 16.0263c -16.0263,16.0263 -16.0263,39.0779 -16.0263 39.0779c 0.0000,22.8321 16.1361,39.0779 16.1361 39.0779c 16.1361,16.2459 38.9682,16.2459 38.9682 16.2459c 22.8321,-0.0000 38.9682,-16.2459 38.9682 -16.2459c 16.1361,-16.2459 16.1361,-39.0779 16.1361 -39.0779Z"/></g></svg>