<?xml version="1.0" encoding="UTF-8"?>
<!DOCTYPE svg PUBLIC "-//W3C//DTD SVG 1.1//EN"
    "http://www.w3.org/Graphics/SVG/1.1/DTD/svg11.dtd"><svg xmlns="http://www.w3.org/2000/svg" height="245.9605" stroke-opacity="1" viewBox="0.0 0.0 200.0 245.96050269299812" font-size="1" width="200.0000" xmlns:xlink="http://www.w3.org/1999/xlink" stroke="rgb(0,0,0)" version="1.1"><defs></defs><g stroke-linejoin="miter" stroke-opacity="1.0" fill-opacity="1.0" stroke="rgb(0,0,0)" stroke-width="0.8871716906087536" fill="rgb(0,0,0)" stroke-linecap="butt" stroke-miterlimit="10.0"><path d="M -17.5943,203.9497 ZM 50.2693,14.7217 c -16.1580,-0.0000 -24.0575,2.1544 -24.0575 12.9264c 0.0000,4.3088 0.7181,6.1041 1.0772 7.5404c 0.7181,1.0772 1.0772,3.9497 1.0772 6.4632c 0.0000,4.6679 -3.5907,11.8492 -14.0036 11.8492c -8.6176,-0.0000 -14.3627,-5.7451 -14.3627 -14.3627c 0.0000,-21.1849 20.4668,-39.1382 53.5009 -39.1382c 37.3429,-0.0000 56.0144,41.2926 56.0144 78.9946c 0.0000,33.7522 -16.5171,63.9138 -31.2388 74.6858h 70.0180 c 1.4363,-0.0000 2.1544,-1.0772 2.1544 -2.1544v -144.3447 l 17.5943,-3.9497 l 7.8995,0.7181 v 149.7307 l 21.1849,0.3591 c 1.7953,1.0772 2.8725,4.6679 2.8725 7.8995c 0.0000,3.2316 -0.7181,5.7451 -2.1544 6.8223l -21.9031,0.7181 v 65.3501 l -21.5440,11.1311 l -3.9497,-6.4632 v -67.8636 c 0.0000,-0.7181 -0.7181,-1.4363 -2.1544 -1.4363l -130.7002,3.2316 c -0.3591,-0.0000 -1.4363,-1.7953 -1.4363 -3.5907v -7.5404 c 0.0000,-2.8725 5.3860,-5.7451 8.2585 -5.7451h 0.3591 c 7.5404,-0.0000 21.9031,-3.2316 28.0072 -5.7451c 20.8259,-8.6176 31.9569,-33.7522 31.9569 -63.9138c 0.0000,-28.0072 -11.1311,-72.1724 -34.4704 -72.1724Z"/></g></svg>