<?xml version="1.0" encoding="UTF-8"?>
<!DOCTYPE svg PUBLIC "-//W3C//DTD SVG 1.1//EN"
    "http://www.w3.org/Graphics/SVG/1.1/DTD/svg11.dtd"><svg xmlns="http://www.w3.org/2000/svg" height="244.5840" stroke-opacity="1" viewBox="0.0 0.0 200.0 244.5839874411303" font-size="1" width="200.0000" xmlns:xlink="http://www.w3.org/1999/xlink" stroke="rgb(0,0,0)" version="1.1"><defs></defs><g stroke-linejoin="miter" stroke-opacity="1.0" fill-opacity="1.0" stroke="rgb(0,0,0)" stroke-width="0.8846856841905022" fill="rgb(0,0,0)" stroke-linecap="butt" stroke-miterlimit="10.0"><path d="M -12.2449,192.7786 ZM 47.7237,114.9137 c -17.5824,-0.0000 -32.0251,14.4427 -32.0251 32.9670c 0.0000,19.4662 14.4427,33.2810 32.3391 33.2810c 17.8964,-0.0000 32.3391,-14.1287 32.3391 -32.9670c 0.0000,-18.2104 -13.1868,-33.2810 -32.6531 -33.2810ZM 47.7237,114.9137 ZM 139.7174,202.8257 c 0.0000,15.6986 8.4772,24.4898 18.5243 24.4898c 12.8728,-0.0000 21.6641,-3.4537 34.8509 -15.6986l 6.9074,5.9655 c -14.7567,18.2104 -28.8854,27.0016 -42.0722 27.0016c -24.1758,-0.0000 -41.1303,-16.3265 -41.1303 -37.9906c 0.0000,-28.5714 17.8964,-53.3752 34.8509 -72.2135c 15.6986,-16.9545 22.2920,-32.0251 22.2920 -62.7943c 0.0000,-29.5133 -25.4317,-56.8289 -54.9451 -56.8289c -27.6295,-0.0000 -50.8634,17.5824 -50.8634 43.0141c 0.0000,22.6060 3.1397,37.0487 16.9545 54.0031c 10.3611,12.5589 14.7567,23.8619 14.7567 35.4788c 0.0000,25.7457 -23.8619,49.6075 -51.1774 49.6075c -26.3736,-0.0000 -48.6656,-20.4082 -48.6656 -48.9796c 0.0000,-26.6876 21.3501,-48.3516 47.7237 -48.3516c 5.0235,-0.0000 7.8493,-0.0000 13.1868 1.2559c -12.5589,-16.3265 -16.0126,-27.6295 -16.0126 -40.1884c 0.0000,-35.1648 35.7928,-60.5965 72.5275 -60.5965c 51.4914,-0.0000 78.8069,35.1648 78.8069 65.9341c 0.0000,31.0832 -10.6750,56.2009 -28.5714 76.6091c -19.7802,22.2920 -27.9435,41.7582 -27.9435 60.2826Z"/></g></svg>