<?xml version="1.0" encoding="UTF-8"?>
<!DOCTYPE svg PUBLIC "-//W3C//DTD SVG 1.1//EN"
    "http://www.w3.org/Graphics/SVG/1.1/DTD/svg11.dtd"><svg xmlns="http://www.w3.org/2000/svg" height="158.8050" stroke-opacity="1" viewBox="0.0 0.0 200.0 158.8050314465409" font-size="1" width="200.0000" xmlns:xlink="http://www.w3.org/1999/xlink" stroke="rgb(0,0,0)" version="1.1"><defs></defs><g stroke-linejoin="miter" stroke-opacity="1.0" fill-opacity="1.0" stroke="rgb(0,0,0)" stroke-width="0.7128647141140673" fill="rgb(0,0,0)" stroke-linecap="butt" stroke-miterlimit="10.0"><path d="M -16.0377,176.7296 ZM 4.7170,105.0314 c -2.8302,-0.0000 -4.7170,-2.5157 -4.7170 -5.3459c 0.0000,-5.0314 4.0881,-11.6352 7.8616 -11.6352h 49.6855 c -9.4340,-9.7484 -16.6667,-20.1258 -16.6667 -32.3899c 0.0000,-29.8742 27.9874,-55.6604 60.0629 -55.6604c 31.1321,-0.0000 58.4906,23.8994 58.4906 55.0314c 0.0000,12.2642 -7.2327,23.2704 -16.9811 33.0189h 52.8302 c 3.4591,-0.0000 4.7170,2.8302 4.7170 5.3459c 0.0000,3.7736 -4.4025,11.6352 -8.4906 11.6352h -73.2704 l 1.5723,-15.7233 c 14.1509,-6.6038 19.4969,-19.4969 19.4969 -33.3333c 0.0000,-21.6981 -17.9245,-40.5660 -38.9937 -40.5660c -21.3836,-0.0000 -39.3082,18.8679 -39.3082 40.5660c 0.0000,13.8365 5.3459,25.4717 19.1824 33.3333l -1.8868,15.7233 h -73.5849 ZM 4.7170,105.0314 ZM 4.7170,158.8050 c -2.8302,-0.0000 -4.7170,-2.5157 -4.7170 -5.3459c 0.0000,-4.7170 4.0881,-11.3208 7.8616 -11.3208h 187.1069 c 3.4591,-0.0000 4.7170,2.5157 4.7170 5.3459c 0.0000,3.4591 -4.4025,11.3208 -8.4906 11.3208h -186.4780 Z"/></g></svg>