<?xml version="1.0" encoding="UTF-8"?>
<!DOCTYPE svg PUBLIC "-//W3C//DTD SVG 1.1//EN"
    "http://www.w3.org/Graphics/SVG/1.1/DTD/svg11.dtd"><svg xmlns="http://www.w3.org/2000/svg" height="270.8098" stroke-opacity="1" viewBox="0.0 0.0 200.0 270.8097928436911" font-size="1" width="200.0000" xmlns:xlink="http://www.w3.org/1999/xlink" stroke="rgb(0,0,0)" version="1.1"><defs></defs><g stroke-linejoin="miter" stroke-opacity="1.0" fill-opacity="1.0" stroke="rgb(0,0,0)" stroke-width="0.9309088769046149" fill="rgb(0,0,0)" stroke-linecap="butt" stroke-miterlimit="10.0"><path d="M -21.8456,262.5235 ZM 83.2392,124.2938 c -36.1582,-0.0000 -64.4068,29.3785 -64.4068 64.7834c 0.0000,34.6516 27.1186,64.4068 64.4068 64.4068c 37.2881,-0.0000 64.4068,-29.7552 64.4068 -64.4068c 0.0000,-34.6516 -27.4953,-64.7834 -64.4068 -64.7834ZM 83.2392,124.2938 ZM 166.4783,189.0772 c 0.0000,44.8211 -38.4181,81.7326 -83.9925 81.7326c -45.1977,-0.0000 -82.4859,-35.7815 -82.4859 -81.7326c 0.0000,-45.9510 35.0282,-83.2392 83.6158 -83.2392c 8.2863,-0.0000 14.6893,-0.0000 24.1055 3.0132l 44.4444,-80.9793 c -21.0923,12.0527 -35.0282,18.4557 -60.6403 24.1055l -11.2994,-12.8060 c 36.5348,-10.5461 55.3672,-18.0791 89.6422 -39.1714l 7.9096,3.7665 c 4.5198,37.2881 9.4162,56.8738 22.2222 92.2787l -16.5725,-1.5066 c -10.5461,-22.5989 -13.9360,-36.5348 -17.3258 -59.5104l -41.0546,81.3559 c 25.6121,13.1827 41.4313,38.7947 41.4313 72.6930Z"/></g></svg>