<?xml version="1.0" encoding="UTF-8"?>
<!DOCTYPE svg PUBLIC "-//W3C//DTD SVG 1.1//EN"
    "http://www.w3.org/Graphics/SVG/1.1/DTD/svg11.dtd"><svg xmlns="http://www.w3.org/2000/svg" height="438.2883" stroke-opacity="1" viewBox="0.0 0.0 200.0 438.2882882882883" font-size="1" width="200.0000" xmlns:xlink="http://www.w3.org/1999/xlink" stroke="rgb(0,0,0)" version="1.1"><defs></defs><g stroke-linejoin="miter" stroke-opacity="1.0" fill-opacity="1.0" stroke="rgb(0,0,0)" stroke-width="1.1842814372109876" fill="rgb(0,0,0)" stroke-linecap="butt" stroke-miterlimit="10.0"><path d="M -38.9640,345.9459 ZM 200.0000,285.1351 c -26.5766,6.7568 -48.1982,6.7568 -48.1982 6.7568c -21.1712,-0.0000 -42.1171,-6.3063 -42.1171 -6.3063v 60.3604 h 66.6667 v 28.1532 h -66.6667 v 64.1892 h -28.1532 v -64.1892 h -66.6667 v -28.1532 h 66.6667 v -71.8468 c -36.4865,-19.3694 -58.5586,-52.9279 -58.5586 -52.9279c -22.9730,-35.1351 -22.9730,-75.2252 -22.9730 -75.2252c 0.0000,-59.4595 46.3964,-103.1532 46.3964 -103.1532c 45.4955,-42.7928 105.4054,-42.7928 105.4054 -42.7928c 21.6216,-0.0000 48.1982,6.7568 48.1982 6.7568l -0.2252,1.8018 c -45.4955,0.4505 -75.0000,47.7477 -75.0000 47.7477c -25.6757,41.2162 -25.6757,89.6396 -25.6757 89.6396c 0.0000,48.4234 25.6757,89.6396 25.6757 89.6396c 29.5045,47.2973 75.0000,47.7477 75.0000 47.7477Z"/></g></svg>