<?xml version="1.0" encoding="UTF-8"?>
<!DOCTYPE svg PUBLIC "-//W3C//DTD SVG 1.1//EN"
    "http://www.w3.org/Graphics/SVG/1.1/DTD/svg11.dtd"><svg xmlns="http://www.w3.org/2000/svg" height="146.1410" stroke-opacity="1" viewBox="0.0 0.0 200.0 146.14103275957805" font-size="1" width="200.0000" xmlns:xlink="http://www.w3.org/1999/xlink" stroke="rgb(0,0,0)" version="1.1"><defs></defs><g stroke-linejoin="miter" stroke-opacity="1.0" fill-opacity="1.0" stroke="rgb(0,0,0)" stroke-width="0.6838503526581308" fill="rgb(0,0,0)" stroke-linecap="butt" stroke-miterlimit="10.0"><path d="M -6.2188,142.8096 ZM 200.0000,107.0516 c 0.0000,16.3243 -11.3826,27.7068 -11.3826 27.7068c -11.3826,11.3826 -27.7068,11.3826 -27.7068 11.3826c -16.3243,-0.0000 -27.7068,-11.3826 -27.7068 -11.3826c -11.3826,-11.3826 -11.3826,-27.7068 -11.3826 -27.7068c 0.0000,-15.6580 10.8273,-26.9850 10.8273 -26.9850c 10.8273,-11.3270 26.4853,-12.1044 26.4853 -12.1044c -3.5536,-25.2082 -18.4342,-41.7546 -18.4342 -41.7546c -16.4353,-18.4342 -40.6441,-18.4342 -40.6441 -18.4342c -24.2088,-0.0000 -40.6441,18.4342 -40.6441 18.4342c -14.8806,16.5464 -18.4342,41.7546 -18.4342 41.7546c 15.6580,0.7773 26.4853,12.1044 26.4853 12.1044c 10.8273,11.3270 10.8273,26.9850 10.8273 26.9850c 0.0000,16.3243 -11.3826,27.7068 -11.3826 27.7068c -11.3826,11.3826 -27.7068,11.3826 -27.7068 11.3826c -16.3243,-0.0000 -27.7624,-11.3826 -27.7624 -11.3826c -11.4381,-11.3826 -11.4381,-27.7068 -11.4381 -27.7068c 0.0000,-14.4364 9.3282,-25.4303 9.3282 -25.4303c 9.3282,-10.9939 23.6535,-13.2149 23.6535 -13.2149c 3.4425,-28.7618 20.5441,-47.7512 20.5441 -47.7512c 18.6563,-20.6552 46.5297,-20.6552 46.5297 -20.6552c 27.8734,-0.0000 46.5297,20.6552 46.5297 20.6552c 17.1016,18.9895 20.5441,47.7512 20.5441 47.7512c 14.2143,2.2210 23.5425,13.2149 23.5425 13.2149c 9.3282,10.9939 9.3282,25.4303 9.3282 25.4303ZM 200.0000,107.0516 ZM 188.8951,107.0516 c 0.0000,-11.7712 -8.1066,-19.8778 -8.1066 -19.8778c -8.1066,-8.1066 -19.8778,-8.1066 -19.8778 -8.1066c -11.6602,-0.0000 -19.8778,8.1621 -19.8778 8.1621c -8.2177,8.1621 -8.2177,19.8223 -8.2177 19.8223c 0.0000,11.7712 8.1621,19.8778 8.1621 19.8778c 8.1621,8.1066 19.9334,8.1066 19.9334 8.1066c 11.6602,-0.0000 19.8223,-8.1621 19.8223 -8.1621c 8.1621,-8.1621 8.1621,-19.8223 8.1621 -19.8223ZM 188.8951,107.0516 ZM 67.1849,107.0516 c 0.0000,-11.6602 -8.1621,-19.8223 -8.1621 -19.8223c -8.1621,-8.1621 -19.8223,-8.1621 -19.8223 -8.1621c -11.7712,-0.0000 -19.8778,8.1066 -19.8778 8.1066c -8.1066,8.1066 -8.1066,19.8778 -8.1066 19.8778c 0.0000,11.6602 8.1621,19.8223 8.1621 19.8223c 8.1621,8.1621 19.8223,8.1621 19.8223 8.1621c 11.7712,-0.0000 19.8778,-8.1066 19.8778 -8.1066c 8.1066,-8.1066 8.1066,-19.8778 8.1066 -19.8778Z"/></g></svg>