<?xml version="1.0" encoding="UTF-8"?>
<!DOCTYPE svg PUBLIC "-//W3C//DTD SVG 1.1//EN"
    "http://www.w3.org/Graphics/SVG/1.1/DTD/svg11.dtd"><svg xmlns="http://www.w3.org/2000/svg" height="391.4027" stroke-opacity="1" viewBox="0.0 0.0 199.99999999999997 391.4027149321266" font-size="1" width="200.0000" xmlns:xlink="http://www.w3.org/1999/xlink" stroke="rgb(0,0,0)" version="1.1"><defs></defs><g stroke-linejoin="miter" stroke-opacity="1.0" fill-opacity="1.0" stroke="rgb(0,0,0)" stroke-width="1.1191464103426347" fill="rgb(0,0,0)" stroke-linecap="butt" stroke-miterlimit="10.0"><path d="M -26.2443,314.9321 ZM 100.0000,88.6878 c -43.4389,-0.0000 -77.3756,34.8416 -77.3756 76.9231c 0.0000,42.0814 32.5792,77.8281 77.3756 77.8281c 44.7964,-0.0000 77.3756,-35.7466 77.3756 -77.8281c 0.0000,-41.1765 -33.0317,-76.9231 -77.3756 -76.9231ZM 100.0000,88.6878 ZM 86.4253,264.7059 c -57.0136,-8.1448 -86.4253,-56.1086 -86.4253 -99.0950c 0.0000,-38.0090 21.2670,-72.3982 54.7511 -89.1403c -33.0317,-18.0995 -44.7964,-57.0136 -44.7964 -76.4706h 22.6244 c 0.0000,29.8643 28.0543,65.6109 67.4208 65.6109c 46.6063,-0.0000 67.8733,-42.9864 67.8733 -65.6109h 22.6244 c 0.0000,22.6244 -14.4796,59.2760 -44.7964 76.4706c 34.3891,17.1946 54.2986,53.8462 54.2986 89.1403c 0.0000,47.5113 -33.9367,91.8552 -86.8778 99.0950l -1.3575,50.2262 h 47.9638 v 20.8145 h -48.4163 l -1.3575,55.6561 h -21.2670 l -0.9050,-55.6561 h -48.4163 v -20.8145 h 47.9638 Z"/></g></svg>