<?xml version="1.0" encoding="UTF-8"?>
<!DOCTYPE svg PUBLIC "-//W3C//DTD SVG 1.1//EN"
    "http://www.w3.org/Graphics/SVG/1.1/DTD/svg11.dtd"><svg xmlns="http://www.w3.org/2000/svg" height="305.6769" stroke-opacity="1" viewBox="0.0 0.0 200.0 305.67685589519647" font-size="1" width="200.0000" xmlns:xlink="http://www.w3.org/1999/xlink" stroke="rgb(0,0,0)" version="1.1"><defs></defs><g stroke-linejoin="miter" stroke-opacity="1.0" fill-opacity="1.0" stroke="rgb(0,0,0)" stroke-width="0.9890227190841617" fill="rgb(0,0,0)" stroke-linecap="butt" stroke-miterlimit="10.0"><path d="M -8.7336,272.4891 ZM 42.7948,291.7031 c 80.3493,-0.0000 134.9345,-70.3057 134.9345 -140.1747c 0.0000,-74.6725 -68.5590,-137.1179 -122.7074 -137.1179c 44.5415,25.3275 81.2227,74.6725 81.2227 137.1179c 0.0000,66.8122 -38.4279,113.1004 -93.4498 140.1747ZM 42.7948,291.7031 ZM 3.4934,5.6769 c 10.4803,-2.6201 33.1878,-5.6769 44.1048 -5.6769c 93.8865,-0.0000 152.4017,70.7424 152.4017 153.2751c 0.0000,78.6026 -66.8122,152.4017 -156.3319 152.4017c -21.8341,-0.0000 -33.1878,-2.6201 -43.6681 -7.4236c 54.1485,-13.1004 114.4105,-70.7424 114.4105 -146.2882c 0.0000,-72.0524 -56.7686,-132.3144 -110.9170 -146.2882Z"/></g></svg>