<?xml version="1.0" encoding="UTF-8"?>
<!DOCTYPE svg PUBLIC "-//W3C//DTD SVG 1.1//EN"
    "http://www.w3.org/Graphics/SVG/1.1/DTD/svg11.dtd"><svg xmlns="http://www.w3.org/2000/svg" height="217.0213" stroke-opacity="1" viewBox="0.0 0.0 200.0 217.02127659574467" font-size="1" width="200.0000" xmlns:xlink="http://www.w3.org/1999/xlink" stroke="rgb(0,0,0)" version="1.1"><defs></defs><g stroke-linejoin="miter" stroke-opacity="1.0" fill-opacity="1.0" stroke="rgb(0,0,0)" stroke-width="0.8333475176097801" fill="rgb(0,0,0)" stroke-linecap="butt" stroke-miterlimit="10.0"><path d="M -7.7128,172.0745 ZM 107.4468,184.3085 l -0.7979,32.7128 h -12.7660 l -0.5319,-32.7128 h -28.4574 v -12.2340 h 28.1915 l -0.2660,-19.6809 v -0.2660 c -48.6702,-4.7872 -68.3511,-38.5638 -68.3511 -87.2340c 0.0000,-5.5851 -1.5957,-7.7128 -3.9894 -7.7128c -3.1915,-0.0000 -7.9787,4.2553 -11.7021 8.5106l -8.7766,-0.7979 l 40.1596,-46.8085 c 0.0000,-0.0000 2.1277,-0.0000 2.1277 -0.2660v 47.0745 c 0.0000,41.2234 10.6383,71.8085 50.2660 74.7340l -1.8617,-101.5957 c 0.0000,-6.6489 -1.3298,-9.8404 -3.4574 -9.8404c -2.3936,-0.0000 -6.3830,3.7234 -11.9681 10.6383l -8.7766,-0.7979 l 34.5745,-38.0319 l 33.2447,38.0319 l -9.3085,0.7979 c -5.5851,-6.9149 -9.3085,-10.6383 -11.4362 -10.6383c -2.1277,-0.0000 -2.9255,3.1915 -2.9255 9.8404l -2.3936,101.5957 c 38.8298,-3.1915 50.2660,-35.9043 50.2660 -75.7979v -46.2766 c 0.2660,-0.0000 0.7979,-0.0000 1.0638 -0.2660l 40.4255,46.5426 l -9.3085,0.7979 c -2.9255,-3.7234 -7.4468,-8.5106 -10.6383 -8.5106c -2.1277,-0.0000 -3.7234,2.1277 -3.7234 7.7128c 0.0000,47.0745 -19.6809,83.5106 -68.3511 88.2979l -0.2660,19.9468 h 28.1915 v 12.2340 h -28.4574 Z"/></g></svg>