<?xml version="1.0" encoding="UTF-8"?>
<!DOCTYPE svg PUBLIC "-//W3C//DTD SVG 1.1//EN"
    "http://www.w3.org/Graphics/SVG/1.1/DTD/svg11.dtd"><svg xmlns="http://www.w3.org/2000/svg" height="200.1487" stroke-opacity="1" viewBox="0.0 0.0 200.0 200.14869888475837" font-size="1" width="200.0000" xmlns:xlink="http://www.w3.org/1999/xlink" stroke="rgb(0,0,0)" version="1.1"><defs></defs><g stroke-linejoin="miter" stroke-opacity="1.0" fill-opacity="1.0" stroke="rgb(0,0,0)" stroke-width="0.800297342511661" fill="rgb(0,0,0)" stroke-linecap="butt" stroke-miterlimit="10.0"><path d="M -10.1115,200.1487 ZM 200.0000,9.2193 c -30.3346,-0.1487 -30.3346,21.5613 -30.3346 21.5613v 164.6097 c 0.0000,4.7584 -3.8662,4.7584 -3.8662 4.7584c -2.3792,-0.0000 -5.0558,-3.8662 -5.0558 -3.8662l -119.7026,-175.1673 c -1.7844,-2.5279 -2.8253,-3.7175 -2.8253 -3.7175v 152.8625 c 0.0000,20.9665 30.1859,20.8178 30.1859 20.8178v 9.0706 c -30.9294,-0.8922 -34.2007,-0.8922 -34.2007 -0.8922c -3.2714,-0.0000 -34.2007,0.8922 -34.2007 0.8922v -9.0706 c 30.0372,0.1487 30.0372,-20.8178 30.0372 -20.8178v -153.4572 c 0.0000,-4.3123 -1.2639,-5.2045 -1.2639 -5.2045c -1.2639,-0.8922 -5.8736,-1.3383 -5.8736 -1.3383c -6.6914,-0.5948 -22.8996,-0.5948 -22.8996 -0.5948v -9.2193 h 50.8550 c 4.4610,-0.0000 7.1375,3.8662 7.1375 3.8662l 103.4944,151.5242 v -125.9480 c 0.0000,-20.6691 -30.1859,-20.6691 -30.1859 -20.6691v -9.2193 c 30.4833,0.8922 34.4981,0.8922 34.4981 0.8922c 3.8662,-0.0000 34.2007,-0.8922 34.2007 -0.8922v 9.2193 Z"/></g></svg>