<?xml version="1.0" encoding="UTF-8"?>
<!DOCTYPE svg PUBLIC "-//W3C//DTD SVG 1.1//EN"
    "http://www.w3.org/Graphics/SVG/1.1/DTD/svg11.dtd"><svg xmlns="http://www.w3.org/2000/svg" height="206.1415" stroke-opacity="1" viewBox="0.0 0.0 200.00000000000003 206.14152202937254" font-size="1" width="200.0000" xmlns:xlink="http://www.w3.org/1999/xlink" stroke="rgb(0,0,0)" version="1.1"><defs></defs><g stroke-linejoin="miter" stroke-opacity="1.0" fill-opacity="1.0" stroke="rgb(0,0,0)" stroke-width="0.8121901689222741" fill="rgb(0,0,0)" stroke-linecap="butt" stroke-miterlimit="10.0"><path d="M -6.0080,168.7583 ZM 200.0000,46.9960 c 0.0000,19.6262 -13.6849,33.3111 -13.6849 33.3111c -13.6849,13.6849 -33.3111,13.6849 -33.3111 13.6849c -15.7543,-0.0000 -27.5033,-8.6782 -27.5033 -8.6782l -42.9907,42.9907 c 11.4820,12.9506 11.4820,30.8411 11.4820 30.8411c 0.0000,19.6262 -13.6849,33.3111 -13.6849 33.3111c -13.6849,13.6849 -33.3111,13.6849 -33.3111 13.6849c -19.6262,-0.0000 -33.3111,-13.6849 -33.3111 -13.6849c -13.6849,-13.6849 -13.6849,-33.3111 -13.6849 -33.3111c 0.0000,-19.6262 13.6849,-33.3111 13.6849 -33.3111c 13.6849,-13.6849 33.3111,-13.6849 33.3111 -13.6849c 15.7543,-0.0000 27.5033,8.6782 27.5033 8.6782l 42.9907,-42.9907 c -11.4820,-12.9506 -11.4820,-30.8411 -11.4820 -30.8411c 0.0000,-19.6262 13.6849,-33.3111 13.6849 -33.3111c 13.6849,-13.6849 33.3111,-13.6849 33.3111 -13.6849c 19.6262,-0.0000 33.3111,13.6849 33.3111 13.6849c 13.6849,13.6849 13.6849,33.3111 13.6849 33.3111ZM 200.0000,46.9960 ZM 186.5154,46.9960 c 0.0000,-14.0187 -9.7463,-23.8318 -9.7463 -23.8318c -9.7463,-9.8131 -23.7650,-9.8131 -23.7650 -9.8131c -14.0187,-0.0000 -23.7650,9.8131 -23.7650 9.8131c -9.7463,9.8131 -9.7463,23.8318 -9.7463 23.8318c 0.0000,13.8852 9.8131,23.6983 9.8131 23.6983c 9.8131,9.8131 23.6983,9.8131 23.6983 9.8131c 13.8852,-0.0000 23.6983,-9.8131 23.6983 -9.8131c 9.8131,-9.8131 9.8131,-23.6983 9.8131 -23.6983ZM 186.5154,46.9960 ZM 80.5073,159.1455 c 0.0000,-14.0187 -9.7463,-23.7650 -9.7463 -23.7650c -9.7463,-9.7463 -23.7650,-9.7463 -23.7650 -9.7463c -14.0187,-0.0000 -23.7650,9.7463 -23.7650 9.7463c -9.7463,9.7463 -9.7463,23.7650 -9.7463 23.7650c 0.0000,13.8852 9.8131,23.7650 9.8131 23.7650c 9.8131,9.8798 23.6983,9.8798 23.6983 9.8798c 13.8852,-0.0000 23.6983,-9.8798 23.6983 -9.8798c 9.8131,-9.8798 9.8131,-23.7650 9.8131 -23.7650Z"/></g></svg>