<?xml version="1.0" encoding="UTF-8"?>
<!DOCTYPE svg PUBLIC "-//W3C//DTD SVG 1.1//EN"
    "http://www.w3.org/Graphics/SVG/1.1/DTD/svg11.dtd"><svg xmlns="http://www.w3.org/2000/svg" height="234.9515" stroke-opacity="1" viewBox="0.0 0.0 200.0 234.95145631067962" font-size="1" width="200.0000" xmlns:xlink="http://www.w3.org/1999/xlink" stroke="rgb(0,0,0)" version="1.1"><defs></defs><g stroke-linejoin="miter" stroke-opacity="1.0" fill-opacity="1.0" stroke="rgb(0,0,0)" stroke-width="0.867089764784578" fill="rgb(0,0,0)" stroke-linecap="butt" stroke-miterlimit="10.0"><path d="M -25.6311,226.7961 ZM 168.5437,232.2330 c -22.5243,-25.6311 -46.2136,-66.7961 -46.2136 -110.6796h -45.0485 c 0.0000,33.3981 -15.5340,75.7282 -46.2136 110.6796l -25.2427,1.9417 l -5.8252,-1.9417 c 31.8447,-33.7864 48.1553,-70.2913 48.1553 -110.6796h -46.6019 v -17.8641 h 46.6019 c -1.9417,-34.9515 -17.8641,-68.3495 -48.1553 -101.3592l 13.2039,-1.1650 l 16.6990,1.1650 c 27.5728,29.9029 43.1068,62.9126 47.3786 101.3592h 45.0485 c 3.8835,-38.4466 19.8058,-71.4563 47.3786 -101.3592l 14.3689,-2.3301 l 15.9223,2.3301 c -30.6796,33.0097 -46.6019,66.4078 -48.5437 101.3592h 46.6019 v 17.8641 h -46.6019 c 0.0000,40.3883 16.3107,76.8932 48.5437 110.6796l -15.9223,2.7184 Z"/></g></svg>