<?xml version="1.0" encoding="UTF-8"?>
<!DOCTYPE svg PUBLIC "-//W3C//DTD SVG 1.1//EN"
    "http://www.w3.org/Graphics/SVG/1.1/DTD/svg11.dtd"><svg xmlns="http://www.w3.org/2000/svg" height="327.8607" stroke-opacity="1" viewBox="0.0 0.0 200.0 327.8606965174129" font-size="1" width="200.0000" xmlns:xlink="http://www.w3.org/1999/xlink" stroke="rgb(0,0,0)" version="1.1"><defs></defs><g stroke-linejoin="miter" stroke-opacity="1.0" fill-opacity="1.0" stroke="rgb(0,0,0)" stroke-width="1.024282299395885" fill="rgb(0,0,0)" stroke-linecap="butt" stroke-miterlimit="10.0"><path d="M -24.3781,296.0199 ZM 111.4428,162.1891 v 141.7910 l 86.5672,-2.9851 l 1.9900,6.4677 l -4.4776,17.9104 l -119.4030,2.4876 v -166.6667 l -40.7960,-1.4925 v 132.8358 l -22.8856,10.4478 l -12.4378,-6.9652 v -292.0398 l 103.9801,-3.9801 c 50.7463,-0.0000 89.0547,24.8756 89.0547 73.6318c 0.0000,51.2438 -34.8259,87.0647 -81.5920 88.5572ZM 111.4428,162.1891 ZM 156.7164,74.1294 c 0.0000,-37.8109 -33.3333,-49.7512 -55.7214 -49.7512l -65.6716,3.9801 v 106.9652 l 40.7960,1.4925 v -48.2587 l 25.3731,-8.4577 l 9.9502,1.9900 v 55.2239 c 26.8657,-4.4776 45.2736,-32.3383 45.2736 -63.1841Z"/></g></svg>