<?xml version="1.0" encoding="UTF-8"?>
<!DOCTYPE svg PUBLIC "-//W3C//DTD SVG 1.1//EN"
    "http://www.w3.org/Graphics/SVG/1.1/DTD/svg11.dtd"><svg xmlns="http://www.w3.org/2000/svg" height="196.5096" stroke-opacity="1" viewBox="0.0 0.0 200.0 196.50959860383946" font-size="1" width="200.0000" xmlns:xlink="http://www.w3.org/1999/xlink" stroke="rgb(0,0,0)" version="1.1"><defs></defs><g stroke-linejoin="miter" stroke-opacity="1.0" fill-opacity="1.0" stroke="rgb(0,0,0)" stroke-width="0.7929884712480291" fill="rgb(0,0,0)" stroke-linecap="butt" stroke-miterlimit="10.0"><path d="M -11.8674,191.9721 ZM 193.7173,3.1414 l 2.0942,2.4433 c -2.0942,11.1693 -3.4904,21.6405 -3.4904 32.1117c 0.0000,16.4049 3.1414,31.7627 7.6789 45.7243l -14.6597,3.4904 c -6.2827,-13.6126 -9.0750,-28.9703 -9.0750 -41.8848c 0.0000,-3.8394 0.3490,-7.3298 0.6981 -10.4712l -87.6091,87.2600 l 41.5358,41.8848 l -13.9616,13.9616 l -41.5358,-42.2339 l -61.7801,61.0820 l -13.6126,-13.9616 l 61.4311,-61.0820 l -41.5358,-41.5358 l 13.9616,-13.9616 l 41.5358,41.8848 l 87.9581,-86.9110 c -3.8394,0.3490 -8.0279,0.6981 -12.2164 0.6981c -12.9145,-0.0000 -26.8761,-2.4433 -39.4415 -6.9808l 2.7923,-14.6597 c 11.8674,3.8394 28.2723,6.2827 46.0733 6.2827c 10.8202,-0.0000 22.3386,-1.0471 33.1588 -3.1414Z"/></g></svg>