<?xml version="1.0" encoding="UTF-8"?>
<!DOCTYPE svg PUBLIC "-//W3C//DTD SVG 1.1//EN"
    "http://www.w3.org/Graphics/SVG/1.1/DTD/svg11.dtd"><svg xmlns="http://www.w3.org/2000/svg" height="364.8961" stroke-opacity="1" viewBox="0.0 0.0 199.99999999999997 364.8960739030023" font-size="1" width="200.0000" xmlns:xlink="http://www.w3.org/1999/xlink" stroke="rgb(0,0,0)" version="1.1"><defs></defs><g stroke-linejoin="miter" stroke-opacity="1.0" fill-opacity="1.0" stroke="rgb(0,0,0)" stroke-width="1.0805866168380982" fill="rgb(0,0,0)" stroke-linecap="butt" stroke-miterlimit="10.0"><path d="M -18.0139,286.3741 ZM 38.3372,4.6189 l 22.1709,-4.6189 l 10.6236,0.4619 v 42.0323 h 43.8799 c 5.0808,-0.0000 6.9284,2.3095 6.9284 6.0046c 0.0000,5.5427 -6.4665,15.7044 -12.4711 15.7044h -38.3372 v 77.1363 c 12.4711,-16.6282 42.0323,-32.3326 65.1270 -32.3326c 32.3326,-0.0000 63.7413,19.8614 63.7413 59.1224c 0.0000,22.1709 -13.8568,52.6559 -23.5566 70.6697c -8.7760,16.6282 -15.2425,46.1894 -15.2425 66.5127c 0.0000,23.5566 7.8522,36.9515 28.6374 54.5035l -3.6952,5.0808 l -29.5612,-3.6952 c -17.0901,-15.2425 -26.3279,-31.4088 -26.3279 -55.8891c 0.0000,-22.6328 13.8568,-51.7321 21.2471 -67.4365c 8.3141,-17.0901 17.0901,-45.2656 17.0901 -67.8984c 0.0000,-21.2471 -18.9376,-39.2610 -34.6420 -39.2610c -29.0993,-0.0000 -48.4988,12.9330 -63.2794 34.1801v 116.8591 l -27.2517,14.3187 l -5.0808,-8.3141 v -223.5566 h -31.4088 c -4.6189,-0.0000 -6.9284,-4.1570 -6.9284 -8.3141c 0.0000,-7.3903 6.0046,-13.3949 11.0855 -13.3949h 27.2517 v -37.8753 Z"/></g></svg>