<?xml version="1.0" encoding="UTF-8"?>
<!DOCTYPE svg PUBLIC "-//W3C//DTD SVG 1.1//EN"
    "http://www.w3.org/Graphics/SVG/1.1/DTD/svg11.dtd"><svg xmlns="http://www.w3.org/2000/svg" height="253.8071" stroke-opacity="1" viewBox="0.0 0.0 200.0 253.80710659898472" font-size="1" width="200.0000" xmlns:xlink="http://www.w3.org/1999/xlink" stroke="rgb(0,0,0)" version="1.1"><defs></defs><g stroke-linejoin="miter" stroke-opacity="1.0" fill-opacity="1.0" stroke="rgb(0,0,0)" stroke-width="0.9012118181186658" fill="rgb(0,0,0)" stroke-linecap="butt" stroke-miterlimit="10.0"><path d="M -14.8900,194.5854 ZM 0.0000,9.8139 l 14.5516,-5.0761 l 7.7834,-0.6768 c 7.4450,10.8291 12.1827,23.3503 14.8900 37.2250c 5.7530,-14.8900 13.5364,-27.4112 22.3350 -37.2250l 24.3655,-4.0609 c 8.7986,10.1523 14.2132,24.7039 16.5821 43.3164c 4.7377,-13.5364 12.5212,-26.3959 23.3503 -39.2555l 24.7039,-4.0609 c 10.4907,13.8748 15.5668,30.4569 15.5668 49.4078v 118.7817 c 0.0000,27.4112 2.3689,41.6244 11.5059 50.4230l 8.4602,8.4602 c 2.0305,2.0305 3.7225,2.7073 4.7377 2.7073c 2.7073,-0.0000 3.3841,-4.0609 3.3841 -8.1218v -3.0457 l 5.0761,-5.4146 l 2.7073,40.6091 l -39.9323,-2.3689 l 5.4146,-5.7530 c 1.3536,0.3384 2.7073,0.3384 3.7225 0.3384c 3.7225,-0.0000 6.7682,-0.6768 6.7682 -2.7073c 0.0000,-1.3536 -0.6768,-3.0457 -3.0457 -5.0761l -12.1827,-12.1827 c -13.1980,-12.5212 -21.9966,-30.1184 -21.9966 -57.8680v -108.6294 c 0.0000,-19.6277 -2.7073,-33.5025 -8.4602 -41.6244c -14.2132,16.2437 -24.0271,36.5482 -29.7800 61.5905v 110.6599 l -21.3198,10.4907 l -3.7225,-6.0914 v -128.2572 c 0.0000,-23.3503 -3.0457,-39.5939 -8.4602 -48.3926c -13.8748,15.2284 -23.6887,34.5178 -29.7800 57.1912v 115.0592 l -21.6582,10.4907 l -3.7225,-6.0914 v -136.0406 c 0.0000,-19.6277 -4.0609,-35.8714 -11.8443 -48.7310Z"/></g></svg>