<?xml version="1.0" encoding="UTF-8"?>
<!DOCTYPE svg PUBLIC "-//W3C//DTD SVG 1.1//EN"
    "http://www.w3.org/Graphics/SVG/1.1/DTD/svg11.dtd"><svg xmlns="http://www.w3.org/2000/svg" height="328.6697" stroke-opacity="1" viewBox="0.0 0.0 199.99999999999997 328.66972477064223" font-size="1" width="200.0000" xmlns:xlink="http://www.w3.org/1999/xlink" stroke="rgb(0,0,0)" version="1.1"><defs></defs><g stroke-linejoin="miter" stroke-opacity="1.0" fill-opacity="1.0" stroke="rgb(0,0,0)" stroke-width="1.025545278993597" fill="rgb(0,0,0)" stroke-linecap="butt" stroke-miterlimit="10.0"><path d="M -15.5963,318.8073 ZM 200.0000,234.6330 c 0.0000,38.5321 -25.0000,65.8257 -25.0000 65.8257c -25.6881,28.2110 -63.9908,28.2110 -63.9908 28.2110c -54.1284,-0.0000 -83.0275,-31.4220 -83.0275 -31.4220l -16.5138,25.4587 c -3.6697,5.9633 -6.8807,5.9633 -6.8807 5.9633c -4.5872,-0.0000 -4.5872,-6.6514 -4.5872 -6.6514v -98.8532 c 0.0000,-6.6514 5.5046,-6.6514 5.5046 -6.6514c 6.8807,-0.0000 6.8807,16.5138 6.8807 16.5138c 0.0000,32.7982 26.8349,57.3394 26.8349 57.3394c 26.8349,24.5413 71.3303,24.5413 71.3303 24.5413c 26.1468,-0.0000 43.3486,-19.2661 43.3486 -19.2661c 17.2018,-19.2661 17.2018,-45.6422 17.2018 -45.6422c 0.0000,-23.3945 -14.2202,-41.7431 -14.2202 -41.7431c -12.8440,-16.5138 -38.3028,-22.9358 -38.3028 -22.9358c -20.1835,-3.8991 -59.6330,-14.9083 -59.6330 -14.9083c -26.6055,-9.6330 -42.7752,-32.1101 -42.7752 -32.1101c -16.1697,-22.4771 -16.1697,-50.6881 -16.1697 -50.6881c 0.0000,-36.6972 25.4587,-62.1560 25.4587 -62.1560c 25.4587,-25.4587 62.1560,-25.4587 62.1560 -25.4587c 39.9083,-0.0000 72.4771,31.8807 72.4771 31.8807l 15.8257,-25.6881 c 3.8991,-6.1927 6.6514,-6.1927 6.6514 -6.1927c 5.5046,-0.0000 5.5046,7.5688 5.5046 7.5688v 98.3945 c 0.0000,6.4220 -6.4220,6.4220 -6.4220 6.4220c -4.1284,-0.0000 -5.2752,-5.0459 -5.2752 -5.0459c -1.6055,-9.4037 -5.7339,-27.9817 -5.7339 -27.9817c -18.5780,-66.5138 -82.5688,-66.5138 -82.5688 -66.5138c -25.0000,-0.0000 -42.0872,17.0872 -42.0872 17.0872c -17.0872,17.0872 -17.0872,42.0872 -17.0872 42.0872c 0.0000,43.3486 45.6422,57.3394 45.6422 57.3394c 19.4954,4.3578 57.7982,14.2202 57.7982 14.2202c 31.1927,9.1743 49.4266,33.8303 49.4266 33.8303c 18.2339,24.6560 18.2339,57.2248 18.2339 57.2248Z"/></g></svg>