<?xml version="1.0" encoding="UTF-8"?>
<!DOCTYPE svg PUBLIC "-//W3C//DTD SVG 1.1//EN"
    "http://www.w3.org/Graphics/SVG/1.1/DTD/svg11.dtd"><svg xmlns="http://www.w3.org/2000/svg" height="200.0000" stroke-opacity="1" viewBox="0.0 0.0 199.99999999999997 199.99999999999997" font-size="1" width="200.0000" xmlns:xlink="http://www.w3.org/1999/xlink" stroke="rgb(0,0,0)" version="1.1"><defs></defs><g stroke-linejoin="miter" stroke-opacity="1.0" fill-opacity="1.0" stroke="rgb(0,0,0)" stroke-width="0.7999999999999999" fill="rgb(0,0,0)" stroke-linecap="butt" stroke-miterlimit="10.0"><path d="M -56.5611,229.8643 ZM 0.0000,100.0000 c 0.0000,-53.8462 42.5339,-100.0000 100.4525 -100.0000c 61.9910,-0.0000 99.5475,51.1312 99.5475 100.0000c 0.0000,56.1086 -46.1538,100.0000 -99.0950 100.0000c -60.6335,-0.0000 -100.9050,-48.4163 -100.9050 -100.0000ZM 0.0000,100.0000 ZM 100.0000,22.6244 c -43.4389,-0.0000 -77.3756,34.8416 -77.3756 77.3756c 0.0000,41.6290 32.5792,77.3756 77.3756 77.3756c 44.7964,-0.0000 77.3756,-35.7466 77.3756 -77.3756c 0.0000,-41.1765 -33.0317,-77.3756 -77.3756 -77.3756ZM 100.0000,22.6244 ZM 77.8281,100.0000 c 0.0000,-12.2172 9.9548,-22.1719 22.1719 -22.1719c 12.2172,-0.0000 22.1719,9.9548 22.1719 22.1719c 0.0000,12.2172 -9.9548,22.1719 -22.1719 22.1719c -12.2172,-0.0000 -22.1719,-9.9548 -22.1719 -22.1719Z"/></g></svg>