<?xml version="1.0" encoding="UTF-8"?>
<!DOCTYPE svg PUBLIC "-//W3C//DTD SVG 1.1//EN"
    "http://www.w3.org/Graphics/SVG/1.1/DTD/svg11.dtd"><svg xmlns="http://www.w3.org/2000/svg" height="211.0145" stroke-opacity="1" viewBox="0.0 0.0 200.0 211.01449275362316" font-size="1" width="200.0000" xmlns:xlink="http://www.w3.org/1999/xlink" stroke="rgb(0,0,0)" version="1.1"><defs></defs><g stroke-linejoin="miter" stroke-opacity="1.0" fill-opacity="1.0" stroke="rgb(0,0,0)" stroke-width="0.8217337627307243" fill="rgb(0,0,0)" stroke-linecap="butt" stroke-miterlimit="10.0"><path d="M -14.2029,178.5507 ZM 100.0000,194.4928 c 31.0145,-0.0000 53.9130,-24.0580 53.9130 -52.7536c 0.0000,-29.5652 -23.1884,-53.3333 -53.9130 -53.3333c -29.2754,-0.0000 -53.9130,22.6087 -53.9130 53.3333c 0.0000,28.6957 22.8986,52.7536 53.9130 52.7536ZM 100.0000,194.4928 ZM 68.9855,79.1304 c -13.9130,-5.7971 -21.1594,-11.8841 -32.4638 -32.4638l -6.3768,-11.5942 c -8.1159,-14.2029 -17.1014,-21.4493 -27.2464 -21.4493h -2.8986 v -13.6232 h 8.1159 c 14.2029,-0.0000 27.2464,11.3043 38.8406 31.5942l 8.9855,15.3623 c 6.0870,10.4348 12.1739,17.6812 18.5507 21.7391c 6.6667,4.0580 15.0725,6.0870 25.5072 6.0870c 10.4348,-0.0000 18.8406,-2.0290 25.5072 -6.0870c 6.3768,-4.0580 12.7536,-11.3043 18.5507 -21.7391l 9.2754,-15.3623 c 11.5942,-20.2899 24.3478,-31.5942 38.5507 -31.5942h 8.1159 v 13.6232 h -2.8986 c -10.1449,-0.0000 -19.1304,7.2464 -27.2464 21.4493l -6.3768,11.5942 c -10.1449,18.5507 -17.1014,26.0870 -32.4638 32.4638c 21.1594,11.5942 39.1304,32.4638 39.1304 62.3188c 0.0000,37.1014 -31.5942,69.5652 -70.1449 69.5652c -37.9710,-0.0000 -70.1449,-32.1739 -70.1449 -69.5652c 0.0000,-29.8551 17.9710,-50.7246 39.1304 -62.3188Z"/></g></svg>