<?xml version="1.0" encoding="UTF-8"?>
<!DOCTYPE svg PUBLIC "-//W3C//DTD SVG 1.1//EN"
    "http://www.w3.org/Graphics/SVG/1.1/DTD/svg11.dtd"><svg xmlns="http://www.w3.org/2000/svg" height="240.4453" stroke-opacity="1" viewBox="0.0 0.0 200.0 240.4452690166975" font-size="1" width="200.0000" xmlns:xlink="http://www.w3.org/1999/xlink" stroke="rgb(0,0,0)" version="1.1"><defs></defs><g stroke-linejoin="miter" stroke-opacity="1.0" fill-opacity="1.0" stroke="rgb(0,0,0)" stroke-width="0.8771686615773685" fill="rgb(0,0,0)" stroke-linecap="butt" stroke-miterlimit="10.0"><path d="M -14.4712,206.6790 ZM 82.3748,206.3080 c 0.0000,13.7291 8.5343,22.2635 20.0371 22.2635c 10.0186,-0.0000 18.9239,-8.5343 18.9239 -22.2635c 0.0000,-8.9054 -6.6790,-19.6660 -19.2950 -19.6660c -11.8738,-0.0000 -19.6660,10.3896 -19.6660 19.6660ZM 82.3748,206.3080 ZM 24.1187,27.4583 c 0.0000,-10.7607 -4.8237,-16.3265 -20.0371 -16.3265h -1.1132 c -1.8553,-0.0000 -2.9685,-1.1132 -2.9685 -3.3395v -7.0501 l 0.7421,-0.7421 c 0.0000,-0.0000 25.9740,1.1132 38.9610 1.1132l 10.3896,-0.3711 v 76.8089 h 37.8479 v -64.5640 l 7.0501,-5.5659 h 11.8738 l 7.0501,5.5659 v 64.5640 h 35.9926 v -76.8089 l 10.3896,0.3711 c 12.9870,-0.0000 38.9610,-1.1132 38.9610 -1.1132l 0.7421,0.7421 v 7.0501 c 0.0000,2.2263 -1.1132,3.3395 -2.9685 3.3395h -1.1132 c -15.2134,-0.0000 -20.0371,5.5659 -20.0371 16.3265v 114.2857 c 0.0000,10.3896 4.8237,16.3265 20.0371 16.3265h 1.1132 c 1.8553,-0.0000 2.9685,1.1132 2.9685 2.9685v 7.0501 l -0.7421,0.7421 c 0.0000,-0.0000 -25.6030,-1.1132 -38.9610 -1.1132l -10.3896,0.3711 v -73.0983 h -35.9926 v 81.6327 c 14.8423,4.0816 26.3451,14.4712 26.3451 30.0557c 0.0000,22.6345 -20.7792,33.7662 -38.9610 33.7662c -17.4397,-0.0000 -38.2189,-11.8738 -38.2189 -33.0241c 0.0000,-17.4397 10.7607,-27.4583 24.8609 -31.1688v -81.2616 h -37.8479 v 73.0983 h -10.3896 c -13.3581,-0.0000 -38.9610,0.7421 -38.9610 0.7421l -0.7421,-0.7421 v -6.6790 c 0.0000,-1.8553 1.1132,-2.9685 2.9685 -2.9685h 1.1132 c 15.2134,-0.0000 20.0371,-5.9369 20.0371 -16.3265v -114.6568 Z"/></g></svg>