<?xml version="1.0" encoding="UTF-8"?>
<!DOCTYPE svg PUBLIC "-//W3C//DTD SVG 1.1//EN"
    "http://www.w3.org/Graphics/SVG/1.1/DTD/svg11.dtd"><svg xmlns="http://www.w3.org/2000/svg" height="324.4344" stroke-opacity="1" viewBox="0.0 0.0 199.99999999999997 324.4343891402715" font-size="1" width="200.0000" xmlns:xlink="http://www.w3.org/1999/xlink" stroke="rgb(0,0,0)" version="1.1"><defs></defs><g stroke-linejoin="miter" stroke-opacity="1.0" fill-opacity="1.0" stroke="rgb(0,0,0)" stroke-width="1.0189161129596827" fill="rgb(0,0,0)" stroke-linecap="butt" stroke-miterlimit="10.0"><path d="M -26.2443,248.8688 ZM 86.4253,198.6425 c -57.0136,-8.1448 -86.4253,-56.1086 -86.4253 -99.0950c 0.0000,-53.8462 42.0814,-99.5475 100.4525 -99.5475c 61.9910,-0.0000 99.5475,50.6787 99.5475 99.5475c 0.0000,47.5113 -33.9367,91.8552 -86.8778 99.0950l -1.3575,49.7738 h 47.9638 v 20.8145 h -48.4163 l -1.3575,55.2036 h -21.2670 l -0.9050,-55.2036 h -48.4163 v -20.8145 h 47.9638 ZM 86.4253,198.6425 ZM 100.0000,22.6244 c -43.4389,-0.0000 -77.3756,34.8416 -77.3756 76.9231c 0.0000,42.0814 32.5792,77.8281 77.3756 77.8281c 44.7964,-0.0000 77.3756,-35.7466 77.3756 -77.8281c 0.0000,-41.1765 -33.0317,-76.9231 -77.3756 -76.9231Z"/></g></svg>