<?xml version="1.0" encoding="UTF-8"?>
<!DOCTYPE svg PUBLIC "-//W3C//DTD SVG 1.1//EN"
    "http://www.w3.org/Graphics/SVG/1.1/DTD/svg11.dtd"><svg xmlns="http://www.w3.org/2000/svg" height="232.9835" stroke-opacity="1" viewBox="0.0 0.0 200.0 232.983508245877" font-size="1" width="200.0000" xmlns:xlink="http://www.w3.org/1999/xlink" stroke="rgb(0,0,0)" version="1.1"><defs></defs><g stroke-linejoin="miter" stroke-opacity="1.0" fill-opacity="1.0" stroke="rgb(0,0,0)" stroke-width="0.8634507666258723" fill="rgb(0,0,0)" stroke-linecap="butt" stroke-miterlimit="10.0"><path d="M -14.6927,174.2129 ZM 146.9265,169.7151 c 15.5922,-15.5922 30.2849,-38.3808 30.2849 -68.9655c 0.0000,-13.7931 -2.9985,-26.6867 -8.9955 -39.2804c -8.3958,10.1949 -15.8921,23.9880 -21.2894 41.3793v 66.8666 ZM 146.9265,169.7151 ZM 89.9550,170.3148 l -19.1904,9.2954 l -3.2984,-5.3973 v -112.7436 c 0.0000,-20.9895 -2.3988,-35.3823 -7.1964 -43.4783c -11.9940,13.4933 -21.2894,30.2849 -27.2864 50.0750v 102.2489 l -18.8906,9.2954 l -3.5982,-5.3973 v -122.6387 c 0.0000,-14.6927 -3.5982,-28.4858 -10.4948 -41.0795l 13.1934,-4.4978 l 6.8966,-0.5997 c 6.2969,8.3958 10.4948,19.4903 12.8936 33.2834c 5.6972,-14.0930 13.1934,-25.1874 20.6897 -33.2834l 6.5967,-5.3973 l 9.8951,2.0990 c 7.4963,9.5952 17.6912,22.7886 19.7901 38.9805c 3.5982,-12.2939 11.3943,-24.2879 21.2894 -35.6822l 16.4918,-3.2984 c 8.9955,12.5937 19.1904,26.6867 19.1904 41.9790v 32.3838 c 4.4978,-12.8936 9.8951,-23.0885 14.9925 -30.2849l 20.0900,-5.0975 c 11.9940,18.5907 17.9910,38.0810 17.9910 58.4708c 0.0000,39.5802 -28.7856,69.2654 -51.2744 87.2564c 1.1994,18.8906 5.9970,28.4858 17.9910 41.9790l -5.0975,4.1979 c -15.2924,-8.6957 -25.4873,-21.2894 -32.0840 -37.7811c -10.4948,5.9970 -23.6882,10.1949 -38.6807 12.5937l -2.6987,-9.8951 c 14.9925,-4.4978 27.8861,-10.7946 38.0810 -17.3913c -1.1994,-7.1964 -1.7991,-14.3928 -1.7991 -21.8891v -102.8486 c 0.0000,-16.7916 -2.3988,-29.3853 -7.1964 -37.7811c -11.9940,12.5937 -21.5892,30.8846 -27.2864 54.2729v 98.0510 Z"/></g></svg>