<?xml version="1.0" standalone="no"?>
<!DOCTYPE svg PUBLIC "-//W3C//DTD SVG 1.1//EN" "http://www.w3.org/Graphics/SVG/1.1/DTD/svg11.dtd" >
<svg xmlns="http://www.w3.org/2000/svg" xmlns:xlink="http://www.w3.org/1999/xlink" version="1.1">
<metadata>
Created by FontForge 20200314 at Sun Dec 27 10:40:36 2020
 By Luis Borjas Reyes
Generated by Glyphter
</metadata>
<defs>
<font id="firmament" horiz-adv-x="1024" >
  <font-face 
    font-family="firmament"
    font-weight="400"
    font-stretch="normal"
    units-per-em="1024"
    panose-1="2 0 5 3 0 0 0 0 0 0"
    ascent="1024"
    descent="0"
    x-height="861"
    cap-height="1023.5"
    bbox="-0.0909091 -0.344828 1025 1025"
    underline-thickness="0"
    underline-position="10"
    unicode-range="U+0041-0070"
  />
<missing-glyph 
 />
    <glyph glyph-name=".notdef" 
 />
    <glyph glyph-name=".notdef" 
 />
    <glyph glyph-name="A" unicode="A" 
d="M1000 1008q13 -16 12 -35t-16 -33q-18 -17 -51 -39t-81 -45q-54 -26 -113 -45v-594q66 -19 124 -49q45 -24 76 -46t47 -40q14 -15 14 -34t-14.5 -33.5t-34 -14.5t-34.5 15l-23 19q-31 25 -76 48q-64 33 -141 52t-167 19t-170 -19t-149 -53q-49 -23 -84 -48l-26 -20
q-16 -14 -35 -13t-33 16.5t-13 34.5t16 33q18 17 51.5 39t80.5 45q54 26 113 45v594q-66 19 -124 49q-45 24 -76 46t-47 40q-14 15 -14 34t15 33.5t34 14.5t34 -15l23 -19q31 -25 76 -48q64 -33 141 -51.5t167.5 -18.5t170.5 18.5t149 52.5q48 23 83 48l26 20q16 14 35.5 13
t33.5 -16v0zM502 774q-69 1 -132 11v-549q72 13 152 14q69 0 132 -11v549q-72 -13 -152 -14v0z" />
    <glyph glyph-name="B" unicode="B" 
d="M918 474l2 -3l100 -213q8 -19 1.5 -37t-24 -26t-34.5 -3.5t-27 19.5l-73 155l-162 -162q-17 -17 -39 -14.5t-35 21.5l-73 155l-162 -162q-18 -17 -39.5 -14.5t-34.5 21.5l-73 155l-163 -162q-13 -13 -30 -14.5t-32 9.5l-5 5q-13 13 -14.5 30t9.5 32l215 216
q18 16 39.5 13.5t35.5 -21.5l72 -154l163 162q17 16 39 13.5t35 -21.5l73 -154l162 162q16 15 36 14t34 -16l4 -6v0zM918 813l2 -3l100 -214q8 -18 1.5 -36t-24 -26.5t-34.5 -3.5t-27 20l-73 154l-162 -162q-17 -16 -39 -13.5t-35 21.5l-73 154l-162 -162
q-18 -16 -39.5 -13.5t-34.5 21.5l-73 154l-163 -162q-13 -13 -30 -14t-32 10l-5 4q-13 14 -14.5 31t9.5 32l215 216q18 16 39.5 13.5t35.5 -21.5l72 -155l163 163q17 16 39 13.5t35 -21.5l73 -155l162 163q16 15 36 14t34 -17l4 -5v0z" />
    <glyph glyph-name="C" unicode="C" 
d="M837 880q38 -55 42 -109.5t-27 -133.5l-11 -28l-20 -45l-82 -171q-32 -69 -47.5 -123.5t-17.5 -106.5v-19q1 -10 7 -22.5t19.5 -19t39.5 -6.5q42 1 73 26q16 13 23 21l2 3q11 17 30 20.5t36 -7.5t20.5 -30t-6.5 -36q-13 -21 -46 -47q-28 -22 -61 -34t-71 -12
q-52 0 -88.5 20t-55.5 57q-18 35 -18 64v26q2 70 25 142.5t69 166.5l52 107l24 54q31 72 32 113.5t-23 76.5q-73 100 -173 101t-158 -82q-23 -38 -8 -117q11 -52 36 -111q15 -34 30 -63l12 -22q19 -27 29.5 -59t10.5 -67q-2 -93 -64 -154.5t-154 -63.5q-93 2 -155 63.5
t-64 154.5q2 93 64 154.5t155 64.5q16 0 31 -3q-16 45 -25 87q-11 56 -6.5 103.5t28.5 84.5q88 126 236.5 126t254.5 -144v0zM318 530q-53 -2 -87.5 -36.5t-35.5 -86.5q1 -52 35.5 -86.5t87.5 -35.5q52 1 86.5 35.5t35.5 86.5q0 39 -21 69l-2 3q-17 23 -42.5 36.5
t-56.5 14.5v0z" />
    <glyph glyph-name="D" unicode="D" 
d="M526 1024h3h447l11 -1l13 -5l10 -8q3 -3 6 -7l6 -11l2 -9v-459q-1 -20 -14.5 -33.5t-33 -13.5t-32.5 11.5t-16 29.5v343l-381 -381l220 -220q14 -15 14 -34t-13.5 -33t-31 -15t-31.5 9l-226 225l-397 -397q-15 -14 -34 -14t-33 13.5t-15 30.5t9 32l402 403l-197 197
q-15 15 -15 34t14 33t31 15t32 -9l203 -202l381 381l-328 -1q-19 1 -32 12.5t-16 29.5v6q0 19 12 32t30 16v0z" />
    <glyph glyph-name="E" unicode="E" 
d="M775 1015q120 27 174.5 -32.5t49.5 -176.5q-3 -57 -17 -117l-5 -22l-12 -42q-7 -19 -24 -27.5t-36.5 -2.5t-28 23.5t-2.5 36.5l14 55q12 53 15 100q4 73 -19.5 100.5t-85.5 11.5q-47 -12 -89 -94t-75 -222l-9 -40q-7 -31 -13 -65q-13 -75 -23.5 -154t-18.5 -159l-6 -79
l-4 -63q-7 -46 -47.5 -46t-48.5 46l-2 39l-8 103q-7 80 -17.5 159t-24.5 154q-8 45 -17 85l-9 40q-33 131 -73.5 207.5t-85.5 88.5q-62 16 -85.5 -11.5t-19.5 -100.5q2 -47 14 -100l5 -20l10 -35q6 -19 -3 -36.5t-28 -23.5t-36 2.5t-24 27.5l-5 14l-12 50q-14 60 -17 117
q-6 117 49 176.5t175 32.5q73 -19 126.5 -101t91.5 -221l10 -41q10 -41 20 -87l14 -78l6 31q38 210 97 337t150 157l10 3v0z" />
    <glyph glyph-name="F" unicode="F" 
d="M976 237q20 -1 33.5 -14.5t14 -33t-11.5 -32.5t-29 -16h-935q-20 1 -33.5 14.5t-14 33t11.5 32.5t29 16h935v0zM501 884q128 -4 212.5 -88.5t87.5 -211.5q0 -73 -33 -136l-1 -3h209q19 0 32 -12t16 -30v-6q0 -19 -12 -32t-29 -16h-314q-34 2 -44.5 30.5t12.5 53.5
q33 29 50.5 68t17.5 83q-2 87 -59.5 144t-144.5 60q-86 -3 -143.5 -60t-59.5 -144q0 -44 17.5 -83t49.5 -68q23 -23 14 -50.5t-39 -33.5h-292q-20 1 -33.5 14.5t-14 33t11.5 32.5t29 16h195l-2 3q-28 55 -32 120v16q3 127 87.5 211.5t211.5 88.5v0z" />
    <glyph glyph-name="G" unicode="G" 
d="M261 973q16 -17 37 -48.5t43 -77.5q63 -127 75 -287h193q4 85 23.5 159.5t52.5 137.5q23 44 44 73.5t38 45.5q15 13 34 13t32.5 -14t14.5 -31t-9 -32l-14 -15l-9 -11q-23 -30 -45 -72q-28 -54 -45 -117.5t-21 -136.5h271q20 0 33.5 -13.5t14 -33.5t-11.5 -33t-29 -15
l-277 -1q12 -136 65 -245q23 -46 46 -79l19 -25q13 -15 12 -34.5t-16 -33t-34 -12.5t-33 16q-16 17 -37 49t-43 77q-31 64 -50.5 135.5t-24.5 151.5h-193q-4 -85 -24 -159.5t-53 -137.5q-22 -43 -43 -72.5t-38 -45.5q-15 -14 -34 -14t-32.5 14t-14.5 31t9 32l14 15l9 12
q23 30 45 72q57 107 66 253h-273q-20 1 -33.5 14.5t-14 33t11.5 32.5t29 16h279q-12 137 -65 245q-23 46 -46 79l-19 25q-13 16 -12 35t16 32.5t34 12.5t33 -16v0z" />
    <glyph glyph-name="H" unicode="H" 
d="M547 1023l3 -1h3q29 -6 62 -34l9 -9q59 -59 64 -182v-373l3 -28q4 -33 13 -64q13 -41 32 -59l13 -11q6 -8 38 -25q20 -10 45 -17l-57 83q-11 15 -9 32.5t15 29.5l6 5q15 10 32.5 8t29.5 -15l119 -171q3 -5 5 -9l1 -5q4 -9 4 -19q0 -19 -12 -32.5t-31 -15.5l-149 -103
q-17 -11 -35.5 -7.5t-30 19.5t-9.5 33.5t15 29.5l68 48q-26 8 -50 20q-42 22 -61 41l-7 6q-39 34 -59 91l-5 15q-12 39 -17 81l-2 26l-1 368q0 51 -10 83.5t-27 49.5q-9 10 -15 13l-2 1l-3 -3q-17 -19 -37 -75l-5 -14q-14 -45 -27 -110v-432q-1 -20 -14.5 -33.5t-33 -13.5
t-32.5 11.5t-16 29.5v493q0 51 -10 83.5t-27 49.5q-7 8 -13 11l-4 3l-3 -3q-18 -19 -38 -75l-4 -13q-15 -46 -28 -110v-433q-1 -20 -14.5 -33.5t-33 -13.5t-32.5 11.5t-16 29.5v493q0 51 -10 83.5t-27 49.5q-14 14 -21 15l-1 1q-20 3 -32 18t-10 36q3 16 14 27t27 14h13
q17 -2 37.5 -12.5t41.5 -31.5q17 -18 30 -41q26 49 55 69.5t60 15.5l7 -1q29 -6 62 -34l9 -9q17 -18 30 -41q25 49 54.5 70t60.5 15v0z" />
    <glyph glyph-name="I" unicode="I" 
d="M970 1000q24 -14 34 -27q13 -15 12 -34.5t-15.5 -32t-32 -12.5t-31.5 11l-5 5q-1 1 -10 7q-17 10 -39.5 11t-52.5 -11q-17 -7 -28.5 -23.5t-22.5 -51.5l-13 -41q-13 -48 -32.5 -83.5t-47.5 -59.5q81 -46 129 -126t49 -180q-4 -150 -103 -249t-249 -103q-150 4 -249 103
t-103 249q1 100 49 180t129 126q-26 22 -44.5 54.5t-31.5 74.5l-20 65q-10 30 -21 44t-27 21q-30 12 -52.5 11t-39.5 -11l-10 -7q-14 -15 -33 -16t-34.5 12t-16.5 32.5t12 34.5q10 13 34 27q36 21 80.5 23.5t95.5 -18.5q45 -17 69 -50.5t41 -94.5l10 -32q18 -67 49.5 -95
t100.5 -29h12v0q73 -1 107 24.5t52 88.5l8 28q19 68 43.5 105t71.5 55q51 21 95.5 18.5t80.5 -23.5v0zM512 608q-109 -3 -181 -75t-75 -181q3 -109 75 -181t181 -75q109 3 181 75t75 181q-3 109 -75 181t-181 75v0z" />
    <glyph glyph-name="J" unicode="J" 
d="M615 1023h2l5 -1q30 -6 64 -35l10 -9q61 -61 66 -191l1 -10l3 3q18 17 38.5 23.5t42.5 0.5q78 -34 87.5 -190.5t-58.5 -293.5q-39 -69 -107 -121q4 -22 10 -43q14 -44 35 -64l6 -4q16 -13 19 -32t-8.5 -35.5t-30.5 -19.5t-36 8q-27 20 -46 50t-31 69l-4 17l-3 -2
q-54 -28 -110 -46l-32 -10l-31 -8q-20 -4 -36 6.5t-20.5 30.5t6 36t30.5 21l17 4l35 11q62 20 119 53l9 5v523q-1 54 -11.5 89t-28.5 53q-11 10 -18 14l-3 2v-1q-21 -18 -44 -84l-5 -14q-16 -48 -30 -117v-457q0 -21 -13.5 -34.5t-33 -13.5t-33 11.5t-15.5 29.5l-1 522
q0 54 -10.5 89t-29.5 53q-10 10 -17 14l-3 2l-1 -1q-20 -18 -44 -84l-4 -14q-16 -48 -30 -117v-457q-1 -21 -14.5 -34.5t-33 -13.5t-32.5 11.5t-16 29.5v522q0 54 -11 89t-29 53q-16 15 -23 17h-2q-20 3 -32 18.5t-10 35.5q3 17 14 28t27 13l7 1l6 -1q18 -2 39 -12.5
t43 -32.5q20 -20 34 -48q27 54 57.5 76.5t63.5 16.5l7 -1q30 -6 64 -35l9 -9q20 -20 34 -48q27 54 57.5 76.5t63.5 16.5v0zM821 699l-2 -2q-9 -10 -19 -25l-6 -10q-14 -22 -26 -46l-5 -12v-279q17 20 29 42q28 50 39.5 111.5t7.5 125.5q-3 46 -13 80l-5 15v0z" />
    <glyph glyph-name="K" unicode="K" 
d="M802 662q95 -3 157.5 -66.5t64.5 -159.5q0 -43 -14.5 -81t-40.5 -68l3 4q-13 -22 -40 -50.5t-71 -58.5q-66 -46 -152.5 -72.5t-193.5 -29.5h-42l-45 4q-19 2 -42 6q-111 18 -216 71q-88 45 -156 115q-14 15 -13.5 34.5t15 33.5t34 13.5t33.5 -14.5q57 -59 131 -97
q91 -46 189 -62q25 -4 48 -6l38 -3q145 2 245 46q-68 23 -110.5 80.5t-43.5 134.5q2 96 65 159.5t157 66.5v0zM802 566q-53 -2 -89 -38.5t-37 -91.5q1 -55 37 -91.5t89 -38.5q54 2 89.5 38.5t36.5 91.5q-1 55 -36.5 91.5t-89.5 38.5v0zM535 945h9h8l33 -3l54 -7
q111 -18 216 -71q88 -45 156 -116q14 -15 13.5 -34t-15 -33t-34 -13.5t-33.5 14.5q-57 58 -131 96q-91 46 -189 62q-25 5 -48 7l-38 2q-145 -1 -245 -45q68 -24 110.5 -81.5t43.5 -133.5q-2 -96 -65 -160t-157 -66q-95 2 -157.5 66t-64.5 160q0 43 14.5 81t41.5 69l-4 -6
q13 23 40 51.5t71 58.5q70 48 163 75t208 27v0zM223 718q-54 -1 -89.5 -37.5t-36.5 -91.5q1 -56 36.5 -92.5t89.5 -37.5q53 1 89 37.5t37 92.5q-1 55 -37 91.5t-89 37.5v0z" />
    <glyph glyph-name="L" unicode="L" 
d="M454 984q1 -1 6 -2l5 -1q31 -9 64 -48l8 -10q53 -72 57 -221.5t33 -248.5l2 -5v1q37 70 75.5 105.5t91.5 43.5l10 2q96 8 155 -48t63 -148q1 -92 -55.5 -153.5t-156.5 -63.5q-106 1 -171 55l-3 3l-6 -11q-59 -116 -129.5 -163t-176.5 -27l-14 3q-20 5 -30.5 21t-6 36
t20.5 30.5t36 6.5q77 -18 128 20.5t102 147.5l10 20l-4 7q-32 64 -48.5 150t-20.5 192v20q-2 62 -12.5 104t-28.5 66q-10 14 -16 18l-3 2l-4 2q-3 1 -9 -2.5t-15 -15.5q-15 -18 -28 -55q-18 -54 -34 -141q-14 -73 -23 -151l-9 -72l-4 -12l-6 -10l-9 -9l-11 -6l-9 -2l-13 -1
l-10 2l-12 6l-5 4l-8 9l-4 6l-4 13l-8 72q-10 78 -23 151l-9 41q-12 60 -26 100q-17 47 -46 62q-21 11 -42 10h-9q-20 -4 -36.5 6t-21 30t6 36t29.5 21l11 2q26 3 53.5 -1.5t55.5 -19.5q61 -34 90 -115q12 -35 23 -81q10 46 23 81q18 52 43 84q27 34 58 46t60 6v0zM817 504
q-28 -2 -52 -26t-52 -76l-30 -61l3 -3q45 -51 115 -55h11q57 1 87 33.5t28.5 84t-31 80t-79.5 23.5v0z" />
    <glyph glyph-name="M" unicode="M" 
d="M738 1024q19 0 32.5 -12t15.5 -30l1 -667h105q19 0 32.5 -12t15.5 -30l1 -6q0 -19 -12 -32.5t-30 -15.5l-112 -1v-170q-1 -20 -14.5 -33.5t-33 -14t-33 11.5t-16.5 30v176h-520q-43 5 -48 42.5t35 52.5l23 8l36 17q73 35 145 98q95 89 133.5 218t-15.5 210
q-71 80 -168.5 56.5t-125.5 -109.5q-7 -34 -2 -57t20 -38q10 -10 16 -13l2 -1q19 -9 26 -27t-1 -37t-26 -26t-37 1q-23 8 -51 37q-31 33 -42.5 79t1.5 104q45 144 198 182t268 -92q80 -119 35 -283.5t-167 -276.5q-25 -22 -49 -40l-10 -8h324v661q0 20 14 33.5t34 14.5v0z
" />
    <glyph glyph-name="N" unicode="N" 
d="M977 1024h1h3h-4q4 0 8 -1l12 -4l8 -5q6 -4 10 -9l-5 5q4 -4 7 -8l3 -6q3 -6 4 -13l1 -399q-1 -20 -14.5 -33.5t-33 -13.5t-32.5 11.5t-16 29.5l-1 282l-306 -307q74 -102 69 -223t-90 -217l-11 -12q-106 -101 -244 -101t-244 101q-102 107 -102 244.5t102 244.5
q96 92 221 100t231 -69l307 307h-269q-18 0 -31.5 12t-15.5 29l-1 7q1 19 12.5 32t29.5 16h391v0zM522 522q-77 73 -176.5 73t-175.5 -73q-73 -77 -73 -176.5t73 -176.5q76 -73 175.5 -73t176.5 73q73 77 73 176.5t-73 176.5v0z" />
    <glyph glyph-name="O" unicode="O" 
d="M163 436q17 0 31 -11l91 -77q78 -66 155 -128l77 -63l27 22q75 60 153 126l143 120q10 9 24 11h112q20 0 33.5 -13.5t14 -33t-11.5 -33t-29 -15.5l-95 -1l-78 -66q-78 -65 -155 -129l-108 -87q-14 -11 -30.5 -11t-29.5 11l-58 46q-75 61 -154 127l-130 109h-97
q-19 1 -32 12.5t-16 29.5v6q0 19 12 32t29 16h122v0zM800 553q13 -15 11.5 -34.5t-16.5 -32.5l-137 -115l-111 -91q-14 -10 -30.5 -10t-29.5 10l-40 33l-208 173q-16 13 -17.5 32.5t12 35t32.5 17t35 -11.5l63 -54l153 -126l44 37l172 143q16 13 35 11.5t32 -17.5v0z
M517 977q20 0 33.5 -14t14.5 -34q0 -36 -11.5 -62.5t-37.5 -53.5l-9 -10q-19 -19 -25.5 -31t-6.5 -27.5t5 -26.5t20 -26l16 -17q26 -28 37.5 -54t11.5 -63q-1 -20 -14.5 -33.5t-34 -13.5t-34 13.5t-13.5 33.5q0 14 -4 23.5t-14 22.5l-13 14q-31 31 -44.5 58.5t-13.5 67.5
q0 36 11.5 62.5t37.5 53.5l9 10q18 19 24.5 31t6.5 28q0 20 13.5 34t34.5 14v0z" />
    <glyph glyph-name="P" unicode="P" 
d="M512 1024q19 0 32 -12t16 -29v-146l148 147q14 14 33.5 14t33 -13.5t15 -30.5t-9.5 -32l-152 -153h154q21 -1 34.5 -14.5t13.5 -33t-11.5 -32.5t-29.5 -16h-161l147 -148q15 -14 15 -33.5t-14 -33t-31 -15t-32 9.5l-153 152v-296h165q20 -1 33.5 -14.5t13.5 -33
t-11.5 -32.5t-29.5 -16h-171v-165q0 -20 -14 -33.5t-33.5 -14t-32.5 11.5t-15 30l-1 171h-164q-21 0 -34.5 13.5t-13.5 33t11.5 32.5t29.5 16l171 1v296l-147 -147q-15 -14 -34 -14t-33 13.5t-15 30.5t9 32l152 153h-154q-20 1 -33.5 14.5t-14 33t11.5 32.5t29 16h161
l-147 147q-14 15 -14 34.5t13.5 33t31 14.5t31.5 -9l153 -152v139q1 20 14.5 33.5t33.5 14.5v0z" />
    <glyph glyph-name="Q" unicode="Q" 
d="M512 1024q19 0 32 -12t16 -29v-117l144 144q15 14 34 14t32.5 -13.5t15 -31t-9.5 -32.5l-147 -148l131 -131q13 -13 14 -30.5t-9 -31.5l-5 -6q-13 -13 -30.5 -14t-32.5 10l-137 136v-169q99 -18 164 -90.5t71 -175.5l1 -13q-3 -121 -83 -201t-201 -83q-120 3 -200 83
t-83 201q2 107 67.5 183.5t167.5 95.5v413q1 20 14.5 33.5t33.5 14.5v0zM512 471q-80 -2 -132.5 -55t-54.5 -132q2 -80 54.5 -133t132.5 -55q80 2 133 55t55 133q-2 79 -55 132t-133 55v0z" />
    <glyph glyph-name="R" unicode="R" 
d="M512 1024q119 -3 198 -82t82 -198q-2 -106 -66.5 -181.5t-165.5 -94.5v-140h184q21 -1 34.5 -14.5t13.5 -33t-11.5 -32.5t-29.5 -16h-191v-184q0 -20 -13.5 -33.5t-33 -14t-32.5 11.5t-16 29l-1 191h-183q-21 1 -34.5 14.5t-13.5 33t11.5 32.5t29.5 16h190v140
q-97 19 -160.5 90t-70.5 172v14q3 119 81.5 198t197.5 82v0zM512 928q-78 -2 -130 -54t-53 -130q1 -78 53 -130t130 -54q79 2 130.5 54t53.5 130q-2 78 -53.5 130t-130.5 54v0z" />
    <glyph glyph-name="S" unicode="S" 
d="M144 376q-19 -9 -37 -3t-27.5 24t-3.5 36t24 28q59 31 93.5 86t34.5 122.5t-34.5 122.5t-93.5 86q-18 10 -24 28t3.5 36t27.5 24t37 -2q72 -38 118.5 -102t58.5 -144h143v258q1 20 14.5 33.5t33 14t32.5 -11.5t16 -30v-264h144q12 80 58.5 144t118.5 102q19 8 37 2
t27.5 -24t3.5 -36t-24 -28q-59 -31 -93.5 -86t-34.5 -122.5t34 -122.5t94 -86q18 -10 24 -28t-3.5 -36t-27.5 -24t-37 3q-72 37 -118.5 101t-58.5 145h-144v-222q66 -16 108 -66t47 -119l1 -12q-3 -86 -60 -143.5t-144 -59.5q-86 2 -143.5 59.5t-59.5 143.5q2 73 44.5 126.5
t110.5 70.5v222h-143q-12 -81 -58.5 -145t-118.5 -101v0zM512 310q-45 -1 -75.5 -31t-31.5 -76q1 -45 31.5 -75.5t75.5 -31.5q46 1 76 31.5t32 75.5q-2 46 -32 76t-76 31v0z" />
    <glyph glyph-name="T" unicode="T" 
d="M587 1024q58 0 111 -22q30 -15 30 -44.5t-30 -44.5q-55 -23 -87.5 -71t-32.5 -108.5t32.5 -108.5t87.5 -72q30 -14 30 -44t-30 -44q-53 -22 -111 -22q-14 0 -27 1v-132h168q20 -1 33.5 -14.5t13.5 -33t-11.5 -32.5t-29.5 -16h-174v-168q-1 -20 -14.5 -33.5t-33 -14
t-32.5 11.5t-16 29v175h-167q-21 0 -34.5 13.5t-13.5 33t11.5 32.5t29.5 16l174 1v145q0 6 2 12q-76 36 -122 105.5t-47 158.5q3 124 85 206t205 85v0zM554 925q-71 -13 -115.5 -65.5t-45.5 -126.5q1 -73 45.5 -125.5t115.5 -65.5v0l-3 2q-31 37 -49 81.5t-20 93.5v0l-1 14
q1 54 19 102.5t51 86.5v0z" />
    <glyph glyph-name="U" unicode="U" 
d="M403 1024q19 0 32 -11.5t16 -29.5v-113h88q21 0 34.5 -13.5t13.5 -33t-11.5 -32.5t-29.5 -16l-95 -1v-101q35 32 80 42.5t100 -2.5q86 -23 125.5 -85t33.5 -150q-5 -66 -31.5 -133.5t-67.5 -123.5l-12 -16q-44 -63 -22 -93t68 6q15 13 34 12.5t33 -15.5t13 -34.5
t-16 -33.5q-119 -90 -195.5 -7.5t4.5 216.5l6 9q38 47 62 105.5t28.5 114t-17 89.5t-69.5 46q-44 11 -75.5 -6t-53.5 -60q-14 -27 -22 -56l-6 -21v-202q0 -20 -13.5 -33.5t-33 -13.5t-32.5 11.5t-16 29.5v505h-89q-20 1 -33.5 14.5t-13.5 33t11.5 32.5t29.5 16h95v106
q0 20 13.5 33.5t33.5 14.5v0z" />
    <glyph glyph-name="V" unicode="V" 
d="M512 1024q131 -3 218 -90t90 -218q-3 -117 -75 -200.5t-185 -103.5v-100h168q20 -1 33.5 -14.5t13.5 -33t-11.5 -32.5t-29.5 -16h-174v-168q0 -20 -13.5 -33.5t-33 -14t-33 11.5t-15.5 29l-1 175h-167q-21 0 -34.5 13.5t-13.5 33t11.5 32.5t29.5 16l174 1v145
q1 20 14.5 33.5t33.5 14.5q90 2 150 61.5t62 149.5q-2 90 -62 150t-150 62q-90 -2 -149.5 -62t-61.5 -150q-1 -20 -14.5 -33.5t-34 -13.5t-34 13.5t-13.5 33.5q3 131 89.5 218t217.5 90v0z" />
    <glyph glyph-name="W" unicode="W" 
d="M698 1024q20 -1 33.5 -14.5t14.5 -33.5q-1 -57 -25.5 -105t-66.5 -81q42 -32 66.5 -80t25.5 -105q-2 -86 -53.5 -148.5t-132.5 -80.5v-94h138q20 -1 33.5 -14.5t13.5 -33t-11.5 -32.5t-29.5 -16h-144v-138q0 -20 -13.5 -33.5t-33 -14t-33 11.5t-15.5 29l-1 145h-137
q-21 0 -34.5 13.5t-13.5 33t11.5 32.5t29.5 16l144 1v94q-78 18 -128.5 76.5t-56.5 139.5v13q0 57 24.5 105t66.5 80q-42 33 -66.5 81t-24.5 105q0 20 13.5 33.5t34 13.5t34 -13.5t14.5 -33.5q1 -58 40 -97t97 -41q59 2 97.5 41t40.5 97q0 20 13.5 33.5t34.5 14.5v0z
M512 742q-58 -1 -97 -40t-40 -97q1 -59 40 -97.5t97 -40.5q59 2 97.5 40.5t40.5 97.5q-2 58 -40.5 97t-97.5 40v0z" />
    <glyph glyph-name="X" unicode="X" 
d="M512 1024q218 -5 362.5 -149.5t149.5 -362.5q-5 -218 -149.5 -362.5t-362.5 -149.5q-218 5 -362.5 149.5t-149.5 362.5q5 218 149.5 362.5t362.5 149.5v0zM512 928q-177 -4 -294.5 -121.5t-121.5 -294.5q4 -177 121.5 -294.5t294.5 -121.5q177 4 294.5 121.5t121.5 294.5
q-4 177 -121.5 294.5t-294.5 121.5v0zM512 606q40 -1 66.5 -27.5t26.5 -66.5t-26.5 -66.5t-66.5 -26.5t-66.5 26.5t-26.5 66.5t26.5 66.5t66.5 27.5v0z" />
    <glyph glyph-name="Y" unicode="Y" 
d="M478 1010q15 15 34 15t34 -15v0l260 -259q14 -15 14 -34t-14 -34v0l-246 -246v-125h168q20 0 33.5 -13.5t13.5 -33.5t-11.5 -33t-29.5 -15l-174 -1v-167q0 -21 -13.5 -34.5t-33 -13.5t-33 11.5t-15.5 29.5l-1 174h-167q-21 1 -34.5 14.5t-13.5 33t11.5 32.5t29.5 16h174
v125l-245 246q-13 13 -14.5 30.5t9.5 31.5zM512 909l-96 -96l-96 -96l192 -192l192 192l-192 192v0z" />
    <glyph glyph-name="Z" unicode="Z" 
d="M825 903q21 -1 34.5 -14.5t13.5 -33.5q-3 -141 -90 -239.5t-223 -118.5v-143h210q21 0 34.5 -13.5t13.5 -33t-11.5 -33t-29.5 -15.5l-217 -1v-210q0 -20 -13.5 -33.5t-33.5 -14t-33 11.5t-15 30l-1 216h-210q-20 1 -34 14.5t-14 33t11.5 32.5t29.5 16h217v143
q-135 20 -222.5 118.5t-90.5 239.5q1 20 14.5 33.5t33.5 13.5t33.5 -13.5t14.5 -33.5q3 -113 77.5 -187.5t187.5 -77.5q113 3 188 77.5t77 187.5q1 20 14.5 33.5t33.5 14.5v0zM512 1024q68 -2 113.5 -47t47.5 -114q-2 -68 -47.5 -113.5t-113.5 -46.5q-68 1 -113.5 46.5
t-47.5 113.5q2 69 47.5 114t113.5 47v0zM512 928q-27 -1 -45.5 -19t-18.5 -45.5t18.5 -46t46 -18.5t45.5 18.5t18 46t-18 45.5t-46 19v0z" />
    <glyph glyph-name="a" unicode="a" 
d="M845 1024q19 0 32 -12t16 -29v-100q-3 -148 -96 -252.5t-237 -125.5v-146h215q21 -1 34.5 -14.5t13.5 -33t-11.5 -32.5t-29.5 -16h-222v-215q0 -20 -13.5 -33.5t-33 -14t-32.5 11.5t-16 29l-1 222h-214q-21 0 -34.5 13.5t-13.5 33t11.5 33t29.5 15.5l221 1v146
q-140 21 -232 120.5t-100 243.5v100q0 20 13.5 33.5t33 14t32.5 -11.5t16 -30l1 -92q2 -108 67.5 -184.5t168.5 -96.5v374q1 20 14.5 33.5t33 14t32.5 -11.5t16 -29v-381q100 19 165 92t72 176v106q1 20 14.5 33.5t33.5 14.5v0z" />
    <glyph glyph-name="b" unicode="b" 
d="M656 1024q-218 -5 -362.5 -149.5t-149.5 -362.5q5 -218 149.5 -362.5t362.5 -149.5q102 0 195 39q30 14 30 44t-30 44q-117 50 -186.5 152.5t-70.5 232.5q1 130 70.5 232.5t186.5 152.5q30 14 30 44t-30 44q-93 39 -195 39v0zM677 927q10 0 20 -1l10 -1l-1 -1
q-97 -72 -152 -179t-56 -233v-18q5 -116 55.5 -214.5t137.5 -168.5l16 -12l-10 -1q-20 -2 -41 -2q-177 4 -294.5 121.5t-121.5 294.5q4 177 121.5 294.5t294.5 121.5l21 -1v0z" />
    <glyph glyph-name="c" unicode="c" 
d="M201 450q86 -2 143 -59t59 -143v11v0v-15q-4 -84 -60.5 -139.5t-141.5 -57.5q-85 2 -142 59t-59 142q0 50 21.5 92t58.5 70q-31 117 -1 232t117 204q139 131 318 131t318 -131q87 -90 117 -205.5t-2 -233.5q35 -28 56 -69t21 -90q-2 -85 -59 -142t-142 -59q-86 2 -143 59
t-59 142v-3v3q2 86 59 143t143 59h11l23 -3l1 2q19 84 -2.5 167.5t-80.5 149.5l-12 11q-108 104 -249 104t-250 -104q-65 -66 -89.5 -152.5t-4.5 -174.5v-2l16 1l15 1v0zM201 354q0 -1 -5 -1h-5l-11 -2l8 2l-10 -2h2q-5 -1 -9 -2l7 2l-10 -3l-10 -4q-28 -13 -44.5 -38
t-17.5 -58q2 -44 31.5 -73.5t73.5 -31.5q45 2 74.5 31.5t31.5 73.5q-2 45 -31.5 74.5t-74.5 31.5v0v0zM823 354q-1 -1 -5 -1l-14 -1l5 1l-7 -1h2l-9 -2l7 2l-10 -3l3 1l-8 -3l5 2l-10 -4l5 2l-8 -3l3 1l-9 -4l6 3l-8 -4l2 1l-7 -4l5 3l-7 -4l2 1l-7 -5l5 4l-7 -5l2 1
q-19 -14 -30 -36t-11 -48l-1 1l1 -10q4 -41 33 -68t72 -28q44 2 73.5 31.5t31.5 73.5q-1 35 -19.5 61t-49.5 38l-6 2l6 -2l-9 3l3 -1l-8 2l5 -1l-9 2l4 -1l-8 1h4l-18 2v0v0z" />
    <glyph glyph-name="d" unicode="d" 
d="M777 1024q104 -3 174 -72.5t72 -174.5q-2 -104 -72 -173.5t-174 -72.5q-43 0 -81 13.5t-70 37.5l-184 -184q24 -31 38 -69.5t14 -82.5q-3 -104 -72.5 -173.5t-174.5 -72.5q-104 3 -173.5 72.5t-72.5 173.5q3 105 72.5 174.5t173.5 72.5q68 -1 122 -32l194 194
q-32 55 -33 122q3 105 72.5 174.5t174.5 72.5v0zM247 397q-64 -1 -106.5 -43.5t-43.5 -107.5q1 -64 43.5 -106.5t106.5 -43.5q65 1 107.5 43.5t43.5 106.5q-1 65 -43.5 107.5t-107.5 43.5v0zM777 928q-64 -1 -106.5 -43.5t-44.5 -107.5q2 -64 44.5 -106.5t106.5 -43.5
q64 1 106.5 43.5t44.5 106.5q-2 65 -44.5 107.5t-106.5 43.5v0z" />
    <glyph glyph-name="e" unicode="e" 
d="M470 938q-29 -50 -232 -402l-231 -402q-13 -25 -0.5 -47.5t41.5 -23.5h928q29 1 41.5 23.5t-0.5 47.5l-463 804q-16 24 -42 24t-42 -24v0zM512 818q24 -41 190 -330l191 -329h-762l381 659v0z" />
    <glyph glyph-name="f" unicode="f" 
d="M0 115v3v4l2 11l7 13l733 793q14 14 33.5 15t33.5 -12t16 -30.5t-8 -32.5l-659 -712h818q20 -1 33.5 -14.5t14 -33t-11.5 -32.5t-29 -16h-935h-7l-8 2l-6 2l-7 4l-5 4q-3 3 -5 6l-4 5l-3 8l-3 13v0z" />
    <glyph glyph-name="g" unicode="g" 
d="M513 1024q217 -5 361.5 -149.5t150.5 -362.5q-1 -93 -31.5 -175.5t-85.5 -149.5l74 -74q14 -15 14 -35t-14 -35q-14 -13 -32 -14t-33 9l-79 79q-67 -55 -149.5 -85.5t-175.5 -30.5q-218 5 -362.5 149.5t-149.5 361.5q5 218 149.5 362.5t362.5 149.5v0zM513 925
q-176 -4 -292.5 -120.5t-120.5 -292.5q4 -175 120.5 -291.5t292.5 -120.5q72 0 136.5 23t117.5 65l-290 289q-14 16 -14 35.5t14 34.5q14 14 32 15t33 -10l295 -294q42 53 65 117.5t23 136.5q-4 176 -120.5 292.5t-291.5 120.5v0z" />
    <glyph glyph-name="h" unicode="h" 
d="M59 974q2 36 32 47t56 -14v0l365 -422l365 422q24 24 53 15t35 -41l1 -930q-3 -36 -33 -47t-56 14v0l-365 422l-365 -422q-24 -24 -53 -15t-35 41v930zM159 839v-326v-327l283 327l-283 326v0z" />
    <glyph glyph-name="i" unicode="i" 
d="M115 987q1 0 3 -2l394 -394l391 391q15 14 34 14t33 -13.5t15 -30.5t-9 -32l-331 -331h331q20 -1 33.5 -14.5t14 -33t-11.5 -32.5t-30 -16h-371l360 -361q14 -15 14 -34t-13.5 -33t-31 -15t-31.5 9l-349 348v-330q-1 -21 -14.5 -34.5t-33 -13.5t-32.5 11.5t-16 29.5v337
l-343 -343q-15 -14 -34 -14t-33 13.5t-15 31t9 32.5l365 366h-365q-20 0 -33.5 13.5t-14 33t11.5 32.5t29 16l338 1l-326 326q-14 14 -14 33.5t14 33.5q12 12 27 14t29 -5l6 -4v0z" />
    <glyph glyph-name="j" unicode="j" 
d="M995 1010q13 -14 14.5 -32t-9.5 -33l-409 -410q36 -42 56 -95.5t20 -113.5q-4 -139 -96 -231t-230 -95q-139 3 -231 95t-95 231q4 138 95.5 230t230.5 96q49 0 93 -13.5t82 -37.5l409 409q15 14 35 14t35 -14v0zM341 553q-97 -2 -161 -66t-66 -161q2 -97 66 -161t161 -66
q97 2 161 66t66 161q0 51 -20 94.5t-56 75.5l-2 2q-31 26 -68.5 40.5t-80.5 14.5v0z" />
    <glyph glyph-name="k" unicode="k" 
d="M976 1024h-464h-464q-20 -1 -33.5 -14.5t-14.5 -33.5v-928q1 -20 14.5 -33.5t33.5 -14.5h928q20 1 33.5 14.5t14.5 33.5v928q-1 20 -14.5 33.5t-33.5 14.5v0zM928 928v-416v-416h-832v832h832v0z" />
    <glyph glyph-name="l" unicode="l" 
d="M768 956q16 -10 21.5 -26.5t-1.5 -33.5l-193 -336h381q20 0 33.5 -13.5t14 -33t-11.5 -32.5t-29 -16l-388 -1l191 -329q9 -18 4 -36.5t-21.5 -28.5t-33.5 -6.5t-29 17.5l-194 335l-190 -329q-11 -18 -29.5 -23t-35.5 5t-22.5 26.5t1.5 33.5l193 335h-381
q-20 1 -33.5 14.5t-14 33t11.5 32.5t29 16h388l-191 330q-9 18 -4 36.5t21.5 28.5t34 6.5t28.5 -17.5l194 -336l190 330q11 18 29.5 22.5t36.5 -4.5v0z" />
    <glyph glyph-name="m" unicode="m" 
d="M765 1024q20 -1 34 -14.5t14 -33.5v0v-636q0 -20 -14 -34t-34 -14v0h-270v-196h400q19 0 32 -12t16 -29v-7q0 -19 -11.5 -32t-29.5 -16h-455q-19 0 -32 12t-16 29v251h-270q-19 0 -32 11.5t-16 29.5v643q1 20 14.5 33.5t33.5 14.5v0h636zM717 928h-270h-270v-540h222v270
q1 20 14.5 33.5t33 14t32.5 -11.5t16 -30v-276h222v540v0z" />
    <glyph glyph-name="n" unicode="n" 
d="M50 12q-21 1 -35 15t-14.5 34t11.5 33.5t31 16.5h419v352h-412q-21 0 -35 14t-14.5 34.5t11.5 34t31 16.5h419v401q1 21 15 35t34 14t33.5 -12t16.5 -31l1 -407h412q21 -1 35 -14.5t14.5 -34t-11.5 -34t-31 -16.5h-419v-352h412q21 0 35 -14t14.5 -34.5t-11.5 -34
t-31 -16.5h-931v0z" />
    <glyph glyph-name="o" unicode="o" 
d="M859 855q17 -10 22.5 -27t-1.5 -35l-306 -531h401q21 -1 35 -15t14 -34t-12 -34t-31 -17h-931q-21 1 -35 15t-14 34t12 34t31 16l407 1l-303 525q-11 19 -5.5 38t23 29.5t35.5 6.5t29 -18l282 -488l279 482q11 18 30 23t38 -5v0z" />
    <glyph glyph-name="p" unicode="p" 
d="M974 862h3h4q19 -3 31 -16.5t11.5 -34t-14.5 -34.5t-35 -15v0h-401l304 -525l3 -6q7 -18 1 -35t-23.5 -27t-37 -5t-30.5 23v0l-278 482l-278 -482l-4 -6q-12 -14 -30 -18t-35.5 6.5t-22.5 29.5t5 38v0l303 525h-400l-7 1q-19 3 -31 16.5t-11.5 33.5t14.5 34.5t35 14.5v0
h924v0z" />
  </font>
</defs>
</svg>
